<svg width="32" height="32" viewBox="0 0 32 32" fill="none" xmlns="http://www.w3.org/2000/svg">
<rect width="32" height="32" fill="#F7F7F7"/>
<g id="Icons 32x32">
<rect width="1372" height="196" transform="translate(-152 -80)" fill="white"/>
<g id="Folders">
<path id="Vector" d="M17.3334 9.33333L15.846 6.35856C15.4179 5.5024 15.2039 5.07431 14.8846 4.76155C14.6022 4.48497 14.2618 4.27463 13.8882 4.14575C13.4656 4 12.987 4 12.0297 4H6.93335C5.43989 4 4.69314 4 4.12271 4.29065C3.62094 4.54631 3.21299 4.95425 2.95734 5.45603C2.66669 6.02645 2.66669 6.7732 2.66669 8.26667V9.33333M2.66669 9.33333H22.9334C25.1736 9.33333 26.2936 9.33333 27.1494 9.76931C27.902 10.1528 28.5139 10.7647 28.8974 11.5174C29.3334 12.373 29.3334 13.4931 29.3334 15.7333V21.6C29.3334 23.8403 29.3334 24.9603 28.8974 25.816C28.5139 26.5687 27.902 27.1805 27.1494 27.564C26.2936 28 25.1736 28 22.9334 28H9.06669C6.82647 28 5.70637 28 4.85073 27.564C4.09807 27.1805 3.48615 26.5687 3.10266 25.816C2.66669 24.9603 2.66669 23.8403 2.66669 21.6V9.33333Z" stroke="#3D3D3D" stroke-width="2.66667" stroke-linecap="round" stroke-linejoin="round"/>
</g>
</g>
</svg>
