<svg width="1372" height="196" viewBox="0 0 1372 196" fill="none" xmlns="http://www.w3.org/2000/svg">
<rect width="1372" height="196" fill="white"/>
<path d="M84 94.0868C84 93.3209 84 92.938 84.0987 92.5854C84.1861 92.273 84.3298 91.9793 84.5227 91.7185C84.7405 91.4241 85.0427 91.189 85.6472 90.7188L94.6903 83.6853C95.1587 83.321 95.3929 83.1388 95.6516 83.0688C95.8797 83.007 96.1203 83.007 96.3484 83.0688C96.6071 83.1388 96.8413 83.321 97.3097 83.6853L106.353 90.7188C106.957 91.189 107.26 91.4241 107.477 91.7185C107.67 91.9793 107.814 92.273 107.901 92.5854C108 92.938 108 93.3209 108 94.0868V103.733C108 105.227 108 105.973 107.709 106.544C107.454 107.046 107.046 107.454 106.544 107.709C105.974 108 105.227 108 103.733 108H88.2667C86.7732 108 86.0265 108 85.456 107.709C84.9543 107.454 84.5463 107.046 84.2907 106.544C84 105.973 84 105.227 84 103.733V94.0868Z" stroke="#3D3D3D" stroke-width="2.66667" stroke-linecap="round" stroke-linejoin="round"/>
<path d="M169.333 89.3333L167.846 86.3586C167.418 85.5024 167.204 85.0743 166.885 84.7615C166.602 84.485 166.262 84.2746 165.888 84.1457C165.466 84 164.987 84 164.03 84H158.933C157.44 84 156.693 84 156.123 84.2907C155.621 84.5463 155.213 84.9543 154.957 85.456C154.667 86.0265 154.667 86.7732 154.667 88.2667V89.3333M154.667 89.3333H174.933C177.174 89.3333 178.294 89.3333 179.149 89.7693C179.902 90.1528 180.514 90.7647 180.897 91.5174C181.333 92.373 181.333 93.4931 181.333 95.7333V101.6C181.333 103.84 181.333 104.96 180.897 105.816C180.514 106.569 179.902 107.181 179.149 107.564C178.294 108 177.174 108 174.933 108H161.067C158.826 108 157.706 108 156.851 107.564C156.098 107.181 155.486 106.569 155.103 105.816C154.667 104.96 154.667 103.84 154.667 101.6V89.3333Z" stroke="#3D3D3D" stroke-width="2.66667" stroke-linecap="round" stroke-linejoin="round"/>
<path d="M240.943 104.485L239.058 106.371C236.454 108.974 232.233 108.974 229.63 106.371C227.026 103.767 227.026 99.5462 229.63 96.9428L231.515 95.0572M248.486 96.9428L250.371 95.0572C252.975 92.4536 252.975 88.2325 250.371 85.629C247.768 83.0255 243.547 83.0255 240.943 85.629L239.058 87.5146M235.334 100.666L244.667 91.3332" stroke="#3D3D3D" stroke-width="2.66667" stroke-linecap="round" stroke-linejoin="round"/>
<path d="M308 89.3333H302.133C301.387 89.3333 301.013 89.3333 300.728 89.4787C300.477 89.6065 300.273 89.8105 300.145 90.0613C300 90.3466 300 90.7199 300 91.4667V105.867C300 106.613 300 106.987 300.145 107.272C300.273 107.523 300.477 107.727 300.728 107.855C301.013 108 301.387 108 302.133 108H308M308 108H316M308 108V86.1333C308 85.3866 308 85.0132 308.145 84.728C308.273 84.4771 308.477 84.2732 308.728 84.1453C309.013 84 309.387 84 310.133 84H313.867C314.613 84 314.987 84 315.272 84.1453C315.523 84.2732 315.727 84.4771 315.855 84.728C316 85.0132 316 85.3866 316 86.1333V108M316 108H321.867C322.613 108 322.987 108 323.272 107.855C323.523 107.727 323.727 107.523 323.855 107.272C324 106.987 324 106.613 324 105.867V96.8C324 96.0532 324 95.6799 323.855 95.3947C323.727 95.1437 323.523 94.9399 323.272 94.812C322.987 94.6667 322.613 94.6667 321.867 94.6667H316" stroke="#3D3D3D" stroke-width="2.66667" stroke-linecap="round" stroke-linejoin="round"/>
<path d="M384 96H396M384 84V108M378.4 84H389.6C391.84 84 392.96 84 393.816 84.436C394.569 84.8195 395.181 85.4314 395.564 86.184C396 87.0397 396 88.1598 396 90.4V101.6C396 103.84 396 104.96 395.564 105.816C395.181 106.569 394.569 107.181 393.816 107.564C392.96 108 391.84 108 389.6 108H378.4C376.16 108 375.04 108 374.184 107.564C373.431 107.181 372.819 106.569 372.436 105.816C372 104.96 372 103.84 372 101.6V90.4C372 88.1598 372 87.0397 372.436 86.184C372.819 85.4314 373.431 84.8195 374.184 84.436C375.04 84 376.16 84 378.4 84Z" stroke="#3D3D3D" stroke-width="2.66667" stroke-linecap="round" stroke-linejoin="round"/>
<path d="M456 86.6666V105.333M446.667 96H465.333" stroke="#3D3D3D" stroke-width="2.66667" stroke-linecap="round" stroke-linejoin="round"/>
<path d="M516 96H540M516 88H540M516 104H540" stroke="#3D3D3D" stroke-width="2.66667" stroke-linecap="round" stroke-linejoin="round"/>
<path d="M612 108L606.2 102.2M609.333 94.6667C609.333 100.558 604.558 105.333 598.667 105.333C592.776 105.333 588 100.558 588 94.6667C588 88.7756 592.776 84 598.667 84C604.558 84 609.333 88.7756 609.333 94.6667Z" stroke="#3D3D3D" stroke-width="2.66667" stroke-linecap="round" stroke-linejoin="round"/>
<path d="M687.5 102.5V104.3C687.5 106.82 687.5 108.08 687.01 109.043C686.578 109.89 685.89 110.578 685.043 111.01C684.08 111.5 682.82 111.5 680.3 111.5H667.7C665.18 111.5 663.92 111.5 662.957 111.01C662.11 110.578 661.422 109.89 660.99 109.043C660.5 108.08 660.5 106.82 660.5 104.3V102.5M681.5 92L674 84.5M674 84.5L666.5 92M674 84.5V102.5" stroke="#3D3D3D" stroke-width="1.4" stroke-linecap="round" stroke-linejoin="round"/>
<path d="M743.453 98.0133L752.56 103.32M752.547 88.68L743.453 93.9866M760 86.6666C760 88.8758 758.209 90.6666 756 90.6666C753.791 90.6666 752 88.8758 752 86.6666C752 84.4575 753.791 82.6666 756 82.6666C758.209 82.6666 760 84.4575 760 86.6666ZM744 96C744 98.2092 742.209 100 740 100C737.791 100 736 98.2092 736 96C736 93.7908 737.791 92 740 92C742.209 92 744 93.7908 744 96ZM760 105.333C760 107.542 758.209 109.333 756 109.333C753.791 109.333 752 107.542 752 105.333C752 103.124 753.791 101.333 756 101.333C758.209 101.333 760 103.124 760 105.333Z" stroke="black" stroke-width="2.66667" stroke-linecap="round" stroke-linejoin="round"/>
<path d="M825.333 104L833.333 96L825.333 88M814.667 88L806.667 96L814.667 104" stroke="black" stroke-width="2.66667" stroke-linecap="round" stroke-linejoin="round"/>
<path d="M900 102.667L893.333 96L900 89.3334M890.667 102.667L884 96L890.667 89.3334" stroke="#3D3D3D" stroke-width="2.66667" stroke-linecap="round" stroke-linejoin="round"/>
<path d="M956 102.667L962.667 96L956 89.3334M965.333 102.667L972 96L965.333 89.3334" stroke="black" stroke-width="2.66667" stroke-linecap="round" stroke-linejoin="round"/>
<path d="M1032.18 92.1817L1026.57 86.5719M1026.57 105.428L1032.22 99.7761M1039.81 99.8184L1045.42 105.428M1045.42 86.5719L1039.77 92.2248M1049.33 96C1049.33 103.364 1043.36 109.333 1036 109.333C1028.64 109.333 1022.67 103.364 1022.67 96C1022.67 88.6362 1028.64 82.6666 1036 82.6666C1043.36 82.6666 1049.33 88.6362 1049.33 96ZM1041.33 96C1041.33 98.9454 1038.95 101.333 1036 101.333C1033.05 101.333 1030.67 98.9454 1030.67 96C1030.67 93.0544 1033.05 90.6666 1036 90.6666C1038.95 90.6666 1041.33 93.0544 1041.33 96Z" stroke="black" stroke-width="2.66667" stroke-linecap="round" stroke-linejoin="round"/>
<path d="M1104.47 108C1105.41 108.83 1106.65 109.333 1108 109.333C1109.35 109.333 1110.59 108.83 1111.53 108M1116 90.6666C1116 88.5449 1115.16 86.5101 1113.66 85.0098C1112.16 83.5095 1110.12 82.6666 1108 82.6666C1105.88 82.6666 1103.84 83.5095 1102.34 85.0098C1100.84 86.5101 1100 88.5449 1100 90.6666C1100 94.7869 1098.96 97.608 1097.8 99.4738C1096.82 101.048 1096.33 101.835 1096.35 102.054C1096.37 102.297 1096.42 102.39 1096.62 102.535C1096.79 102.667 1097.59 102.667 1099.19 102.667H1116.81C1118.41 102.667 1119.21 102.667 1119.38 102.535C1119.58 102.39 1119.63 102.297 1119.65 102.054C1119.67 101.835 1119.18 101.048 1118.2 99.4738C1117.04 97.608 1116 94.7869 1116 90.6666Z" stroke="black" stroke-width="2.66667" stroke-linecap="round" stroke-linejoin="round"/>
<path d="M1168 90.6666H1184M1184 90.6666C1184 92.8758 1185.79 94.6666 1188 94.6666C1190.21 94.6666 1192 92.8758 1192 90.6666C1192 88.4575 1190.21 86.6666 1188 86.6666C1185.79 86.6666 1184 88.4575 1184 90.6666ZM1176 101.333H1192M1176 101.333C1176 103.542 1174.21 105.333 1172 105.333C1169.79 105.333 1168 103.542 1168 101.333C1168 99.1241 1169.79 97.3333 1172 97.3333C1174.21 97.3333 1176 99.1241 1176 101.333Z" stroke="black" stroke-width="2.66667" stroke-linecap="round" stroke-linejoin="round"/>
</svg>
