<svg width="195" height="194" viewBox="0 0 195 194" fill="none" xmlns="http://www.w3.org/2000/svg">
<g clip-path="url(#clip0_78_1094)">
<path d="M194.46 3.05V109.47C194.46 111.31 193.14 112.05 192.57 112.29C192.01 112.53 190.55 112.93 189.25 111.63L82.8501 5.21C81.5501 3.91 81.9601 2.44 82.1901 1.89C82.4101 1.32 83.1701 0 85.0101 0H191.41C193.1 0 194.46 1.37 194.46 3.05Z" fill="#FFB6C1"/>
<path d="M181.48 123.3C181.24 123.86 180.5 125.17 178.66 125.17H72.2399C71.4299 125.17 70.6499 124.85 70.0799 124.28C69.5099 123.71 69.1899 122.95 69.1899 122.12V15.72C69.1899 13.88 70.5099 13.14 71.0799 12.9C71.6399 12.66 73.0999 12.26 74.3999 13.56L180.8 119.98C182.12 121.28 181.71 122.73 181.47 123.3H181.48Z" fill="#B6B6F2"/>
<path d="M57.38 71.55V190.67C57.38 192.34 56.01 193.72 54.33 193.72H3.05C1.36 193.72 0 192.34 0 190.67V71.55C0 69.86 1.37 68.5 3.05 68.5H54.33C56.02 68.5 57.38 69.87 57.38 71.55Z" fill="#40E0D0"/>
<path d="M53.69 0H3.05C1.36553 0 0 1.36553 0 3.05V53.69C0 55.3745 1.36553 56.74 3.05 56.74H53.69C55.3745 56.74 56.74 55.3745 56.74 53.69V3.05C56.74 1.36553 55.3745 0 53.69 0Z" fill="#FF5572"/>
<path d="M194.46 152.69V190.66C194.46 192.33 193.09 193.71 191.41 193.71H153.44C151.6 193.71 150.86 192.39 150.62 191.82C150.38 191.25 149.98 189.8 151.28 188.5L189.25 150.53C189.96 149.82 190.72 149.62 191.34 149.62C191.88 149.62 192.32 149.75 192.57 149.87C193.14 150.11 194.46 150.85 194.46 152.69Z" fill="#6473FF"/>
<path d="M180.9 142.19L132.37 190.73C130.46 192.64 127.86 193.72 125.16 193.72H71.9499C70.8499 193.72 70.1299 193.15 69.7899 192.81C69.4499 192.47 68.8999 191.75 68.8999 190.65L69.1499 140.01C69.1499 138.34 70.5199 136.97 72.1899 136.97H178.75C180.6 136.97 181.35 138.29 181.58 138.86C181.8 139.42 182.2 140.88 180.91 142.18L180.9 142.19Z" fill="#FF7F50"/>
</g>
<defs>
<clipPath id="clip0_78_1094">
<rect width="194.46" height="193.72" fill="white"/>
</clipPath>
</defs>
</svg>
