<svg width="1600" height="332" viewBox="0 0 1600 332" fill="none" xmlns="http://www.w3.org/2000/svg" shape-rendering="geometricPrecision">
<g clip-path="url(#clip0_2416_8203)">
<path d="M450.051 163.439C450.051 106.276 487.083 67.4244 541.358 67.4244C587.195 67.4244 616.172 93.0701 623.861 134.117H592.321C586.829 109.203 568.487 94.1677 540.975 94.1677C505.041 94.1677 480.841 122.758 480.841 163.422C480.841 204.085 505.041 231.944 540.975 231.944C567.738 231.944 586.079 216.56 591.955 192.743H623.861C616.521 233.059 586.097 258.704 540.626 258.704C485.984 258.704 450.051 221.699 450.051 163.422V163.439Z" fill="black"/>
<path d="M650.258 163.073C650.258 106.276 688.388 67.4244 743.03 67.4244C797.671 67.4244 835.802 106.276 835.802 163.073C835.802 219.87 797.671 258.722 743.03 258.722C688.388 258.722 650.258 219.87 650.258 163.073ZM805.012 163.073C805.012 123.124 780.079 94.1851 743.03 94.1851C705.98 94.1851 681.048 123.141 681.048 163.073C681.048 203.005 705.98 231.961 743.03 231.961C780.079 231.961 805.012 203.005 805.012 163.073Z" fill="black"/>
<path d="M870.273 0H900.349V256.509H870.273V0Z" fill="black"/>
<path d="M941.406 0H971.482V256.509H941.406V0Z" fill="black"/>
<path d="M1187.47 229.034V256.509H1170.98C1146.04 256.509 1137.6 245.881 1137.24 227.553C1125.5 244.4 1106.8 258.704 1074.52 258.704C1033.45 258.704 1005.59 238.181 1005.59 204.103C1005.59 166.732 1031.62 145.842 1080.77 145.842H1135.77V133.02C1135.77 108.837 1118.53 94.1851 1089.2 94.1851C1062.81 94.1851 1045.2 106.642 1041.54 125.702H1011.46C1015.86 89.063 1045.56 67.4418 1090.67 67.4418C1138.34 67.4418 1165.85 91.2582 1165.85 134.866V216.577C1165.85 226.473 1169.51 229.034 1177.95 229.034H1187.49H1187.47ZM1135.76 171.122H1077.82C1051.06 171.122 1036.01 181.018 1036.01 202.273C1036.01 220.602 1051.77 233.059 1076.72 233.059C1114.12 233.059 1135.76 211.437 1135.76 180.286V171.122Z" fill="black"/>
<path d="M1362.01 69.6196H1388.04V247.345C1388.04 301.215 1359.43 331.983 1295.27 331.983C1247.6 331.983 1214.23 309.63 1209.45 268.583H1240.26C1245.39 292.033 1266.29 305.222 1297.47 305.222C1336.71 305.222 1357.97 286.894 1357.97 246.23V224.243C1345.5 245.498 1325.33 258.687 1293.79 258.687C1242.08 258.687 1203.95 223.877 1203.95 163.038C1203.95 105.876 1242.08 67.3896 1293.79 67.3896C1325.33 67.3896 1346.23 80.9442 1357.97 101.834L1361.99 69.5848L1362.01 69.6196ZM1358.35 163.805C1358.35 122.758 1333.42 94.1851 1296.73 94.1851C1260.05 94.1851 1234.75 122.392 1234.75 163.073C1234.75 203.754 1259.69 231.961 1296.73 231.961C1333.78 231.961 1358.35 203.754 1358.35 163.805Z" fill="black"/>
<path d="M1422.51 163.073C1422.51 106.276 1458.45 67.4244 1511.26 67.4244C1564.07 67.4244 1598.54 100.771 1600 156.104C1600 160.129 1599.63 164.537 1599.27 168.927H1454.05V171.488C1455.15 207.03 1477.52 231.944 1513.09 231.944C1539.48 231.944 1560.02 218.023 1566.26 193.841H1596.71C1589.37 231.212 1558.58 258.704 1515.3 258.704C1459.2 258.704 1422.53 220.218 1422.53 163.056L1422.51 163.073ZM1567.73 144.013C1564.8 111.764 1542.8 93.8193 1511.62 93.8193C1484.13 93.8193 1458.81 113.611 1455.88 144.013H1567.73Z" fill="black"/>
<path d="M332.207 5.20925V186.872C332.207 190.008 329.957 191.28 328.981 191.68C328.022 192.081 325.529 192.778 323.315 190.565L141.537 8.90279C139.322 6.69015 140.002 4.18133 140.421 3.24053C140.787 2.26488 142.094 0.017395 145.233 0.017395H327.011C329.888 0.017395 332.224 2.35199 332.224 5.22667L332.207 5.20925Z" fill="#FFB6C1"/>
<path d="M310.032 210.479C309.631 211.437 308.358 213.667 305.22 213.667H123.424C122.047 213.667 120.722 213.127 119.745 212.134C118.769 211.159 118.211 209.852 118.211 208.458V26.8304C118.211 23.6944 120.46 22.4225 121.436 22.0218C122.395 21.6211 124.889 20.9242 127.103 23.1368L308.881 204.8C311.13 207.012 310.433 209.486 310.032 210.462V210.479Z" fill="#B6B6F2"/>
<path d="M98.0375 122.148V325.501C98.0375 328.359 95.7012 330.711 92.8244 330.711H5.21309C2.3363 330.711 0 328.359 0 325.501V122.148C0 119.273 2.3363 116.939 5.21309 116.939H92.8244C95.7012 116.939 98.0375 119.273 98.0375 122.148Z" fill="#40E0D0"/>
<path d="M91.726 0H5.21309C2.33398 0 0 2.33227 0 5.20928V91.6589C0 94.5359 2.33398 96.8682 5.21309 96.8682H91.726C94.6051 96.8682 96.939 94.5359 96.939 91.6589V5.20928C96.939 2.33227 94.6051 0 91.726 0Z" fill="#FF5572"/>
<path d="M332.209 260.656V325.484C332.209 328.341 329.873 330.693 326.996 330.693H262.12C258.982 330.693 257.709 328.446 257.308 327.47C256.907 326.495 256.21 324.021 258.424 321.808L323.3 256.979C324.503 255.777 325.811 255.429 326.874 255.429C327.798 255.429 328.548 255.655 328.984 255.864C329.96 256.265 332.209 257.537 332.209 260.673V260.656Z" fill="#6473FF"/>
<path d="M309.036 242.728L226.132 325.589C222.872 328.864 218.426 330.693 213.805 330.693H122.916C121.051 330.693 119.813 329.718 119.237 329.143C118.662 328.568 117.703 327.331 117.703 325.467L118.139 239.017C118.139 236.16 120.475 233.843 123.317 233.843H305.357C308.53 233.843 309.785 236.09 310.204 237.066C310.57 238.024 311.267 240.515 309.053 242.728H309.036Z" fill="#FF7F50"/>
</g>
<defs>
<clipPath id="clip0_2416_8203">
<rect width="1600" height="332" fill="white"/>
</clipPath>
</defs>
</svg>
