<svg width="237" height="300" viewBox="0 0 237 300" fill="none" xmlns="http://www.w3.org/2000/svg">
<g clip-path="url(#clip0_78_960)">
<path d="M45.52 251.91H5.32997C3.40249 251.91 1.83997 253.472 1.83997 255.4V295.59C1.83997 297.517 3.40249 299.08 5.32997 299.08H45.52C47.4474 299.08 49.01 297.517 49.01 295.59V255.4C49.01 253.472 47.4474 251.91 45.52 251.91Z" fill="#FF7F50"/>
<path d="M234.56 115.819L120.758 2.01773C119.395 0.654798 117.185 0.654798 115.822 2.01773L2.02042 115.819C0.657487 117.182 0.657482 119.392 2.02041 120.755L115.822 234.557C117.185 235.92 119.395 235.92 120.758 234.557L234.56 120.755C235.922 119.392 235.922 117.182 234.56 115.819Z" stroke="black" stroke-width="2" stroke-miterlimit="10"/>
<path d="M115.83 239.5L62.21 293.12C60.01 295.32 61.57 299.08 64.68 299.08H171.91C175.02 299.08 176.58 295.32 174.38 293.12L120.76 239.5C119.4 238.14 117.19 238.14 115.82 239.5H115.83Z" fill="#B6B6F2"/>
<path d="M184.38 259.86V295.58C184.38 297.51 185.94 299.07 187.87 299.07H223.59C226.7 299.07 228.26 295.31 226.06 293.11L190.34 257.39C188.14 255.19 184.38 256.75 184.38 259.86Z" fill="#FFB6C1"/>
</g>
<defs>
<clipPath id="clip0_78_960">
<rect width="236.59" height="299.08" fill="white"/>
</clipPath>
</defs>
</svg>
