<svg width="264" height="234" viewBox="0 0 264 234" fill="none" xmlns="http://www.w3.org/2000/svg">
<g clip-path="url(#clip0_78_977)">
<path d="M42.9 128.56H4.27C1.91174 128.56 0 130.472 0 132.83V228.77C0 231.128 1.91174 233.04 4.27 233.04H42.9C45.2583 233.04 47.17 231.128 47.17 228.77V132.83C47.17 130.472 45.2583 128.56 42.9 128.56Z" fill="#40E0D0"/>
<path d="M224.65 185.87H186.02C183.662 185.87 181.75 187.782 181.75 190.14V228.77C181.75 231.128 183.662 233.04 186.02 233.04H224.65C227.008 233.04 228.92 231.128 228.92 228.77V190.14C228.92 187.782 227.008 185.87 224.65 185.87Z" fill="#6473FF"/>
<path d="M64.33 233.04H167.34C169.7 233.04 171.61 231.13 171.61 228.77V125.76C171.61 121.96 167.01 120.05 164.32 122.74L61.31 225.75C58.62 228.44 60.53 233.04 64.33 233.04Z" fill="#FF5572"/>
<path d="M59.1801 5.27V200.07C59.1801 203.87 63.7801 205.78 66.4701 203.09L261.26 8.29C263.95 5.6 262.04 1 258.24 1H63.4501C61.0901 1 59.1801 2.91 59.1801 5.27Z" stroke="black" stroke-width="2" stroke-miterlimit="10"/>
</g>
<defs>
<clipPath id="clip0_78_977">
<rect width="263.52" height="233.04" fill="white"/>
</clipPath>
</defs>
</svg>
