<svg width="167" height="122" viewBox="0 0 167 122" fill="none" xmlns="http://www.w3.org/2000/svg">
<g clip-path="url(#clip0_78_928)">
<path d="M104.71 121.01L94.11 110.41C93.33 109.63 93.33 108.38 94.11 107.6L139.22 62.49C140 61.71 140 60.46 139.22 59.68L93.52 13.99C92.74 13.21 92.74 11.96 93.52 11.18L104.12 0.579995C104.9 -0.200005 106.15 -0.200005 106.93 0.579995L166.03 59.68C166.81 60.46 166.81 61.71 166.03 62.49L107.51 121.01C106.73 121.79 105.48 121.79 104.7 121.01H104.71Z" fill="black"/>
<path d="M140.62 51.82V66.7C140.62 68.95 138.79 70.78 136.54 70.78H32.32C32.2 70.78 32.31 70.61 4.09 70.6C1.84 70.6 0 68.77 0 66.52V55.91C0 53.66 1.83 51.83 4.08 51.83H140.62V51.82Z" fill="black"/>
</g>
<defs>
<clipPath id="clip0_78_928">
<rect width="166.62" height="121.6" fill="white"/>
</clipPath>
</defs>
</svg>
