<?xml version="1.0" encoding="UTF-8"?>
<svg id="Layer_1" data-name="Layer 1" xmlns="http://www.w3.org/2000/svg" viewBox="0 0 434.07 174.24">
  <defs>
    <style>
      .cls-1 {
        fill: #0c233f;
      }

      .cls-2 {
        fill: #63a844;
      }
    </style>
  </defs>
  <g>
    <path class="cls-1" d="m205.7,158.89h-.06s-3.95,10.92-3.95,10.92h-1.99l-3.93-10.88h-.06s.28,6.49.28,6.49v2.32l1.58.3v1.77h-6.11v-1.77l1.57-.3v-10.59l-1.57-.3v-1.78h5.43l3.76,10.87h.06l3.79-10.87h5.45v1.78l-1.58.3v10.59l1.58.3v1.77h-6.11v-1.77l1.57-.3v-2.32l.28-6.52Z"/>
    <path class="cls-1" d="m218.07,169.81c-.08-.18-.15-.37-.21-.56s-.11-.39-.14-.58c-.35.41-.78.73-1.28.98s-1.08.37-1.73.37c-1.07,0-1.93-.29-2.56-.88s-.95-1.38-.95-2.39.41-1.82,1.24-2.38,2.03-.84,3.63-.84h1.51v-1.07c0-.53-.15-.94-.46-1.23s-.75-.44-1.35-.44c-.34,0-.64.04-.9.12s-.48.17-.64.28l-.19,1.18h-2.23v-2.43c.55-.36,1.17-.67,1.87-.92s1.46-.37,2.29-.37c1.36,0,2.46.33,3.31,1s1.27,1.61,1.27,2.84v4.53c0,.17,0,.33,0,.48s.02.29.04.43l.9.12v1.77h-3.42Zm-2.56-1.98c.45,0,.85-.1,1.22-.29s.65-.43.85-.72v-1.67h-1.51c-.63,0-1.1.15-1.43.44s-.49.65-.49,1.06c0,.37.12.66.36.87s.57.31,1,.31Z"/>
    <path class="cls-1" d="m222.17,155.78v-1.78h4.53v9.16h.66l1.7-2.4-.96-.13v-1.78h5.39v1.78l-1.3.29-1.98,2.72,2.77,4.17,1.12.23v1.77h-5.07v-1.77l.61-.1-1.68-2.72h-1.27v2.51l1.28.3v1.77h-5.66v-1.77l1.43-.3v-11.64l-1.58-.3Z"/>
    <path class="cls-1" d="m235.05,168.04l1.43-.3v-6.8l-1.58-.3v-1.78h4.54v8.89l1.42.3v1.77h-5.81v-1.77Zm4.39-11.82h-2.96v-2.22h2.96v2.22Z"/>
    <path class="cls-1" d="m241.67,168.04l1.42-.3v-6.8l-1.57-.3v-1.78h4.33l.13,1.57c.36-.56.81-1,1.35-1.31s1.13-.47,1.79-.47c1.11,0,1.97.35,2.59,1.04s.93,1.79.93,3.27v4.77l1.42.3v1.77h-5.66v-1.77l1.27-.3v-4.76c0-.74-.15-1.26-.45-1.57s-.75-.46-1.35-.46c-.39,0-.74.08-1.05.24s-.57.38-.78.67v5.88l1.2.3v1.77h-5.57v-1.77Z"/>
    <path class="cls-1" d="m255.09,164.42c0-1.73.38-3.12,1.13-4.19s1.81-1.59,3.17-1.59c.61,0,1.16.14,1.62.41s.86.66,1.2,1.17l.21-1.38h2.57v10.64c0,1.45-.45,2.6-1.36,3.46s-2.16,1.29-3.74,1.29c-.55,0-1.14-.08-1.76-.23s-1.2-.36-1.72-.62l.55-2.08c.47.2.95.36,1.42.48s.97.18,1.5.18c.72,0,1.26-.22,1.62-.66s.54-1.05.54-1.83v-.72c-.32.41-.71.73-1.15.94s-.94.32-1.51.32c-1.34,0-2.39-.49-3.15-1.48s-1.13-2.29-1.13-3.91v-.21Zm2.96.21c0,.96.16,1.71.49,2.27s.85.83,1.58.83c.45,0,.84-.08,1.15-.25s.57-.41.76-.72v-4.76c-.19-.33-.44-.59-.76-.77s-.69-.27-1.13-.27c-.72,0-1.25.32-1.59.96s-.5,1.48-.5,2.51v.21Z"/>
    <path class="cls-2" d="m270.48,169.81l.57-1.77,1.67-.3,3.39-10.59-1.47-.3.57-1.78h6.11l-.57,1.78-1.68.3-3.33,10.4h4.17l.74-1.85h2.26l-1.32,4.12h-11.1Z"/>
    <path class="cls-2" d="m283.19,168.04l1.53-.3,2.18-6.8-1.48-.3.57-1.78h4.54l-2.85,8.89,1.32.3-.57,1.77h-5.81l.57-1.77Zm8.17-11.82h-2.96l.71-2.22h2.96l-.71,2.22Z"/>
    <path class="cls-2" d="m290.14,168.04l1.53-.3,2.18-6.81h-1.63l.67-2.08h1.63l.39-1.22c.39-1.23,1.05-2.18,1.97-2.84s2.03-1,3.31-1c.25,0,.5.02.75.06s.52.09.81.16l-.96,2.2c-.15-.03-.3-.05-.45-.07s-.32-.03-.52-.03c-.48,0-.89.13-1.22.4s-.58.64-.73,1.14l-.39,1.22h2.18l-.67,2.08h-2.18l-2.18,6.81,1.33.3-.57,1.77h-5.82l.57-1.77Z"/>
    <path class="cls-2" d="m302.07,170.02c-1.58,0-2.68-.51-3.3-1.52s-.68-2.3-.18-3.86l.13-.41c.52-1.63,1.4-2.97,2.63-4.02s2.6-1.58,4.11-1.57c1.48,0,2.49.45,3.02,1.34s.55,2.1.07,3.62l-.52,1.61h-6.55l-.04.06c-.18.72-.13,1.32.15,1.78s.79.7,1.52.7c.66,0,1.22-.07,1.69-.2s1.01-.34,1.62-.62l.22,1.82c-.57.36-1.25.66-2.05.9s-1.64.36-2.52.36Zm2.65-9.1c-.55,0-1.05.21-1.5.63s-.82.97-1.12,1.65v.05h3.64l.08-.26c.2-.63.21-1.13.04-1.51s-.56-.56-1.15-.56Z"/>
    <path class="cls-1" d="m325.46,159.77h-2.22l-.39-2.03c-.26-.16-.63-.3-1.12-.43s-1.02-.18-1.57-.18c-.81,0-1.44.17-1.88.51s-.66.78-.66,1.32c0,.5.23.91.69,1.23s1.26.66,2.4,1.02c1.63.45,2.86,1.05,3.7,1.79s1.26,1.72,1.26,2.93-.5,2.26-1.5,2.99-2.32,1.09-3.95,1.09c-1.17,0-2.22-.19-3.17-.56s-1.73-.89-2.36-1.54v-3.08h2.29l.31,2.1c.3.24.7.44,1.21.6s1.08.24,1.71.24c.81,0,1.43-.17,1.85-.5s.63-.77.63-1.33-.2-1.02-.6-1.37-1.11-.67-2.11-.97c-1.75-.51-3.07-1.11-3.97-1.8s-1.35-1.65-1.35-2.86.51-2.17,1.52-2.93,2.29-1.15,3.82-1.17c1.14,0,2.17.17,3.1.52s1.72.8,2.35,1.38v3.02Z"/>
    <path class="cls-1" d="m326.82,168.04l1.43-.3v-6.8l-1.58-.3v-1.78h4.54v8.89l1.42.3v1.77h-5.81v-1.77Zm4.39-11.82h-2.96v-2.22h2.96v2.22Z"/>
    <path class="cls-1" d="m333.26,160.63v-1.78h4.33l.12,1.45c.35-.53.79-.93,1.32-1.22s1.14-.43,1.84-.43,1.3.16,1.8.47.88.78,1.14,1.41c.34-.59.78-1.05,1.32-1.38s1.18-.5,1.91-.5c1.08,0,1.93.37,2.56,1.12s.94,1.88.94,3.41v4.56l1.43.3v1.77h-5.67v-1.77l1.28-.3v-4.57c0-.83-.14-1.41-.41-1.73s-.67-.49-1.21-.49c-.42,0-.78.09-1.09.28s-.55.44-.73.78c0,.13,0,.24.01.33s.01.18.01.28v5.13l1.2.3v1.77h-5.34v-1.77l1.2-.3v-4.57c0-.81-.14-1.38-.41-1.72s-.68-.5-1.22-.5c-.4,0-.75.08-1.05.23s-.55.37-.74.64v5.92l1.28.3v1.77h-5.66v-1.77l1.43-.3v-6.8l-1.58-.3Z"/>
    <path class="cls-1" d="m352.69,160.63v-1.78h4.3l.14,1.28c.32-.47.71-.84,1.17-1.09s.98-.39,1.58-.39c1.36,0,2.41.53,3.16,1.59s1.12,2.46,1.12,4.19v.21c0,1.62-.37,2.93-1.12,3.91s-1.8,1.48-3.14,1.48c-.57,0-1.08-.11-1.53-.32s-.83-.53-1.15-.94v3.17l1.43.3v1.78h-5.81v-1.78l1.43-.3v-11.01l-1.58-.3Zm8.51,3.79c0-1.03-.17-1.87-.52-2.51s-.87-.96-1.58-.96c-.45,0-.83.09-1.14.27s-.56.44-.74.78v4.8c.18.31.43.55.74.71s.7.24,1.16.24c.72,0,1.24-.28,1.58-.84s.5-1.32.5-2.28v-.21Z"/>
    <path class="cls-1" d="m364.96,155.78v-1.78h4.54v13.73l1.43.3v1.77h-5.82v-1.77l1.43-.3v-11.64l-1.58-.3Z"/>
    <path class="cls-1" d="m377.14,170.02c-1.58,0-2.84-.51-3.79-1.52s-1.42-2.3-1.42-3.86v-.41c0-1.63.45-2.97,1.34-4.02s2.1-1.58,3.6-1.57c1.48,0,2.63.45,3.45,1.34s1.23,2.1,1.23,3.62v1.61h-6.55l-.02.06c.05.72.3,1.32.72,1.78s1.01.7,1.75.7c.66,0,1.2-.07,1.63-.2s.91-.34,1.42-.62l.8,1.82c-.45.36-1.04.66-1.76.9s-1.52.36-2.41.36Zm-.26-9.1c-.55,0-.98.21-1.3.63s-.51.97-.59,1.65l.03.05h3.63v-.26c0-.63-.15-1.13-.44-1.51s-.74-.56-1.33-.56Z"/>
    <path class="cls-1" d="m386.48,164.72h-2.96v-9.67h2.96v9.67Zm0,5.09h-2.96v-2.59h2.96v2.59Z"/>
  </g>
  <g>
    <path class="cls-2" d="m209.02,18.47h-10.01v8.45h9.54l.26-3.53h4.51v8.08h-23.39v-3.55l3.15-.61V6.09l-3.15-.61V1.9h23.35v8.1h-4.55l-.26-3.53h-9.46v7.43h10.01v4.57Z"/>
    <path class="cls-2" d="m234.34,20.46h3.35v3.94h-3.35v2.9l3.15.61v3.55h-12.22v-3.55l3.17-.61v-2.9h-12.06l-.28-2.9,12.28-19.59h5.97v18.56Zm-12.71,0h6.8v-10.66l-.12-.04-.49.85-6.19,9.85Z"/>
    <path class="cls-1" d="m189.92,55.38v-3.57h12.24v3.57l-3.17.61v21.22l3.17.61v3.55h-12.24v-3.55l3.17-.61v-21.22l-3.17-.61Z"/>
    <path class="cls-1" d="m234.62,51.8v3.57l-3.17.61v25.38h-5.91l-11.94-19.9-.12.02v15.72l3.17.61v3.55h-12.24v-3.55l3.15-.61v-21.22l-3.15-.61v-3.57h9.08l11.94,19.9.12-.02v-15.69l-3.17-.61v-3.57h12.24Z"/>
    <path class="cls-1" d="m258.99,61.24h-4.45l-.77-4.06c-.51-.32-1.26-.61-2.25-.85s-2.04-.37-3.15-.37c-1.62,0-2.88.34-3.77,1.03s-1.33,1.57-1.33,2.65c0,1,.46,1.82,1.39,2.47s2.53,1.32,4.8,2.04c3.26.91,5.74,2.11,7.42,3.59,1.69,1.49,2.53,3.45,2.53,5.87s-1,4.53-3,5.99-4.64,2.19-7.92,2.19c-2.34,0-4.46-.37-6.34-1.12s-3.46-1.77-4.72-3.09v-6.17h4.59l.63,4.2c.59.49,1.41.89,2.43,1.21s2.16.48,3.42.48c1.62,0,2.86-.33,3.71-.99s1.27-1.55,1.27-2.66-.4-2.05-1.21-2.74-2.22-1.34-4.23-1.95c-3.51-1.02-6.16-2.22-7.96-3.61s-2.7-3.3-2.7-5.73,1.02-4.36,3.05-5.88,4.58-2.3,7.65-2.35c2.27,0,4.35.35,6.21,1.04s3.44,1.61,4.71,2.76v6.05Z"/>
    <path class="cls-1" d="m273.65,51.8v3.57l-3.17.61v15.43c0,1.95.52,3.41,1.57,4.38s2.49,1.45,4.31,1.45,3.31-.48,4.37-1.44,1.58-2.42,1.58-4.39v-15.43l-3.15-.61v-3.57h12.24v3.57l-3.17.61v15.43c0,3.32-1.09,5.87-3.28,7.67s-5.05,2.7-8.6,2.7-6.39-.9-8.56-2.7-3.26-4.36-3.26-7.67v-15.43l-3.15-.61v-3.57h12.24Z"/>
    <path class="cls-1" d="m306.44,51.8c3.36,0,5.99.77,7.9,2.3,1.91,1.54,2.86,3.66,2.86,6.37,0,1.49-.4,2.78-1.2,3.88s-1.97,1.98-3.51,2.66c1.75.51,3,1.37,3.77,2.57s1.15,2.68,1.15,4.46v1.5c0,.65.13,1.15.39,1.51s.68.57,1.28.64l.73.1v3.57h-3.07c-1.93,0-3.3-.52-4.08-1.56s-1.18-2.39-1.18-4.04v-1.69c0-1.44-.38-2.56-1.15-3.38s-1.84-1.25-3.24-1.29h-4.85v7.8l3.17.61v3.55h-12.24v-3.55l3.15-.61v-21.22l-3.15-.61v-3.57h13.28Zm-4.2,13.04h4.1c1.65,0,2.89-.35,3.72-1.06s1.24-1.72,1.24-3.05-.41-2.39-1.23-3.18-2.03-1.19-3.62-1.19h-4.2v8.47Z"/>
    <path class="cls-1" d="m321.44,77.81l2.11-.3,8.99-25.7h6.07l8.93,25.7,2.11.3v3.55h-10.07v-3.55l2.05-.37-1.3-4.06h-9.58l-1.3,4.06,2.05.37v3.55h-10.07v-3.55Zm10.72-8.79h6.78l-3.33-10.42h-.12l-3.33,10.42Z"/>
    <path class="cls-1" d="m381.83,51.8v3.57l-3.17.61v25.38h-5.91l-11.94-19.9-.12.02v15.72l3.17.61v3.55h-12.24v-3.55l3.15-.61v-21.22l-3.15-.61v-3.57h9.08l11.94,19.9.12-.02v-15.69l-3.17-.61v-3.57h12.24Z"/>
    <path class="cls-1" d="m407.96,61.77h-4.41l-.61-3.94c-.58-.58-1.32-1.04-2.2-1.38s-1.93-.51-3.14-.51c-2.57,0-4.55.93-5.94,2.8s-2.08,4.3-2.08,7.31v1.04c0,3,.69,5.45,2.07,7.33s3.33,2.82,5.85,2.82c1.16,0,2.23-.17,3.2-.51s1.72-.8,2.24-1.38l.61-3.94h4.41v5.85c-1.19,1.38-2.71,2.48-4.56,3.3s-3.91,1.23-6.2,1.23c-3.97,0-7.21-1.37-9.75-4.12-2.53-2.75-3.8-6.27-3.8-10.58v-.99c0-4.29,1.26-7.82,3.78-10.58s5.77-4.14,9.77-4.14c2.29,0,4.35.42,6.19,1.25s3.36,1.93,4.57,3.3v5.85Z"/>
    <path class="cls-1" d="m429.77,68.37h-10.01v8.45h9.54l.26-3.53h4.51v8.08h-23.39v-3.55l3.15-.61v-21.22l-3.15-.61v-3.57h23.35v8.1h-4.55l-.26-3.53h-9.46v7.43h10.01v4.57Z"/>
    <path class="cls-1" d="m212.39,111.14h-4.45l-.77-4.06c-.51-.32-1.26-.61-2.25-.85s-2.04-.37-3.15-.37c-1.62,0-2.88.34-3.77,1.03s-1.33,1.57-1.33,2.65c0,1,.46,1.82,1.39,2.47s2.53,1.32,4.8,2.04c3.26.91,5.74,2.11,7.42,3.59s2.53,3.45,2.53,5.87-1,4.53-3,5.99-4.64,2.19-7.92,2.19c-2.34,0-4.46-.37-6.34-1.12s-3.46-1.77-4.72-3.09v-6.17h4.59l.63,4.2c.59.49,1.41.89,2.43,1.21s2.16.48,3.42.48c1.62,0,2.86-.33,3.71-.99s1.27-1.55,1.27-2.66-.4-2.05-1.21-2.74-2.22-1.34-4.23-1.95c-3.51-1.02-6.16-2.22-7.96-3.61s-2.7-3.3-2.7-5.73,1.02-4.36,3.05-5.88,4.58-2.3,7.65-2.35c2.27,0,4.35.35,6.21,1.04s3.44,1.61,4.71,2.76v6.05Z"/>
    <path class="cls-1" d="m234.24,118.27h-10.01v8.45h9.54l.26-3.53h4.51v8.08h-23.39v-3.55l3.15-.61v-21.22l-3.15-.61v-3.57h23.35v8.1h-4.55l-.26-3.53h-9.46v7.43h10.01v4.57Z"/>
    <path class="cls-1" d="m254.99,101.7c3.36,0,5.99.77,7.9,2.3s2.86,3.66,2.86,6.37c0,1.49-.4,2.78-1.2,3.88s-1.97,1.98-3.51,2.66c1.75.51,3,1.37,3.77,2.57s1.15,2.68,1.15,4.46v1.5c0,.65.13,1.15.39,1.51s.68.57,1.28.64l.73.1v3.57h-3.07c-1.93,0-3.3-.52-4.08-1.56s-1.18-2.39-1.18-4.04v-1.69c0-1.44-.38-2.56-1.15-3.38s-1.84-1.25-3.24-1.29h-4.85v7.8l3.17.61v3.55h-12.24v-3.55l3.15-.61v-21.22l-3.15-.61v-3.57h13.28Zm-4.2,13.04h4.1c1.65,0,2.89-.35,3.72-1.06s1.24-1.72,1.24-3.05-.41-2.39-1.23-3.18-2.03-1.19-3.62-1.19h-4.2v8.47Z"/>
    <path class="cls-1" d="m278.83,105.27l-2.25.41,5.24,17.73.37,1.62h.12l.35-1.58,5.26-17.77-2.23-.41v-3.57h10.8v3.57l-2.48.32-8.71,25.66h-6.09l-8.73-25.66-2.44-.32v-3.57h10.8v3.57Z"/>
    <path class="cls-1" d="m298.26,105.27v-3.57h12.24v3.57l-3.17.61v21.22l3.17.61v3.55h-12.24v-3.55l3.17-.61v-21.22l-3.17-.61Z"/>
    <path class="cls-1" d="m336.98,111.67h-4.41l-.61-3.94c-.58-.58-1.32-1.04-2.2-1.38s-1.93-.51-3.14-.51c-2.57,0-4.55.93-5.94,2.8s-2.08,4.3-2.08,7.31v1.04c0,3,.69,5.45,2.07,7.33s3.33,2.82,5.85,2.82c1.16,0,2.23-.17,3.2-.51s1.72-.8,2.24-1.38l.61-3.94h4.41v5.85c-1.19,1.38-2.71,2.48-4.56,3.3s-3.91,1.23-6.2,1.23c-3.97,0-7.21-1.37-9.75-4.12-2.53-2.75-3.8-6.27-3.8-10.58v-.99c0-4.29,1.26-7.82,3.78-10.58s5.77-4.14,9.77-4.14c2.29,0,4.35.42,6.19,1.25s3.36,1.93,4.57,3.3v5.85Z"/>
    <path class="cls-1" d="m358.78,118.27h-10.01v8.45h9.54l.26-3.53h4.51v8.08h-23.39v-3.55l3.15-.61v-21.22l-3.15-.61v-3.57h23.35v8.1h-4.55l-.26-3.53h-9.46v7.43h10.01v4.57Z"/>
    <path class="cls-1" d="m388.71,111.14h-4.45l-.77-4.06c-.51-.32-1.26-.61-2.25-.85s-2.04-.37-3.15-.37c-1.62,0-2.88.34-3.77,1.03s-1.33,1.57-1.33,2.65c0,1,.46,1.82,1.39,2.47s2.53,1.32,4.8,2.04c3.26.91,5.74,2.11,7.42,3.59s2.53,3.45,2.53,5.87-1,4.53-3,5.99-4.64,2.19-7.92,2.19c-2.34,0-4.46-.37-6.34-1.12s-3.46-1.77-4.72-3.09v-6.17h4.59l.63,4.2c.59.49,1.41.89,2.43,1.21s2.16.48,3.42.48c1.62,0,2.86-.33,3.71-.99s1.27-1.55,1.27-2.66-.4-2.05-1.21-2.74-2.22-1.34-4.23-1.95c-3.51-1.02-6.16-2.22-7.96-3.61-1.8-1.39-2.7-3.3-2.7-5.73s1.02-4.36,3.05-5.88,4.58-2.3,7.65-2.35c2.27,0,4.35.35,6.21,1.04s3.44,1.61,4.71,2.76v6.05Z"/>
  </g>
  <g>
    <path class="cls-2" d="m68.91,8.84h31.1c2.21,0,4,1.79,4,4v18.72h-39.1V12.84c0-2.21,1.79-4,4-4Z" transform="translate(39.02 -53.81) rotate(45)"/>
    <path class="cls-2" d="m32.78,40.97h35.1c2.21,0,4,1.79,4,4v18.72h-39.1v-22.72h0Z" transform="translate(52.33 -21.68) rotate(45)"/>
    <path class="cls-1" d="m74.32,60.45h63.2v17.33c0,2.21-1.79,4-4,4h-63.2v-17.33c0-2.21,1.79-4,4-4Z" transform="translate(-19.84 94.31) rotate(-45)"/>
    <path class="cls-2" d="m-4.36,85.2h69.31c2.21,0,4,1.79,4,4v18.72H-.36c-2.21,0-4-1.79-4-4v-18.72h0Z" transform="translate(77.74 5.45) rotate(45)"/>
    <path class="cls-1" d="m160.67,80.33l-12.25-12.25-29.46,29.95-45.4,44.29c-3.72,3.67-5.81,8.68-5.81,13.9v5.95c0,4.34,3.52,7.87,7.87,7.87h16.03v-8.38c0-4.25,1.69-8.32,4.69-11.33l64.34-64.34c1.56-1.56,1.56-4.09,0-5.66Z"/>
  </g>
</svg>