<svg width="258" height="28" viewBox="0 0 258 28" fill="none" xmlns="http://www.w3.org/2000/svg">
<g clip-path="url(#clip0_11013_50369)">
<rect width="258" height="28" rx="4" fill="white"/>
<rect x="0.5" y="0.5" width="73" height="27" fill="white"/>
<rect x="0.5" y="0.5" width="73" height="27" stroke="#E0E0E0"/>
<g clip-path="url(#clip1_11013_50369)">
<path d="M13.333 11.3334H13.3397M9.33301 9.46671V12.4497C9.33301 12.7758 9.33301 12.9389 9.36985 13.0924C9.40251 13.2284 9.45638 13.3584 9.52949 13.4778C9.61194 13.6123 9.72724 13.7276 9.95785 13.9582L15.0703 19.0706C15.8623 19.8626 16.2583 20.2587 16.7149 20.407C17.1167 20.5376 17.5493 20.5376 17.951 20.407C18.4077 20.2587 18.8037 19.8626 19.5957 19.0706L21.0703 17.5961C21.8623 16.8041 22.2583 16.408 22.4067 15.9514C22.5372 15.5497 22.5372 15.117 22.4067 14.7153C22.2583 14.2587 21.8623 13.8626 21.0703 13.0706L15.9579 7.95821C15.7273 7.72761 15.6119 7.61231 15.4774 7.52985C15.3581 7.45675 15.228 7.40287 15.092 7.37021C14.9385 7.33337 14.7755 7.33337 14.4494 7.33337H11.4663C10.7196 7.33337 10.3462 7.33337 10.061 7.4787C9.81014 7.60653 9.60616 7.8105 9.47833 8.06139C9.33301 8.3466 9.33301 8.71997 9.33301 9.46671ZM13.6663 11.3334C13.6663 11.5175 13.5171 11.6667 13.333 11.6667C13.1489 11.6667 12.9997 11.5175 12.9997 11.3334C12.9997 11.1493 13.1489 11 13.333 11C13.5171 11 13.6663 11.1493 13.6663 11.3334Z" stroke="#3D3D3D" stroke-width="1.33333" stroke-linecap="round" stroke-linejoin="round"/>
</g>
<path d="M32.4972 10.593V8.81818H40.8594V10.593H37.7422V19H35.6143V10.593H32.4972ZM43.3352 19.1442C42.848 19.1442 42.4138 19.0597 42.0327 18.8906C41.6515 18.7183 41.3499 18.4647 41.1278 18.13C40.9091 17.7919 40.7997 17.371 40.7997 16.8672C40.7997 16.4429 40.8776 16.0866 41.0334 15.7983C41.1892 15.5099 41.4013 15.2779 41.6697 15.1023C41.9382 14.9266 42.2431 14.794 42.5845 14.7045C42.9292 14.6151 43.2905 14.5521 43.6683 14.5156C44.1125 14.4692 44.4704 14.4261 44.7422 14.3864C45.014 14.3433 45.2112 14.2803 45.3338 14.1974C45.4564 14.1146 45.5178 13.992 45.5178 13.8295V13.7997C45.5178 13.4848 45.4183 13.2412 45.2195 13.0689C45.0239 12.8965 44.7455 12.8104 44.3842 12.8104C44.0031 12.8104 43.6998 12.8949 43.4744 13.0639C43.2491 13.2296 43.0999 13.4384 43.027 13.6903L41.0682 13.5312C41.1676 13.0672 41.3632 12.6662 41.6548 12.3281C41.9465 11.9867 42.3227 11.7249 42.7834 11.5426C43.2474 11.357 43.7843 11.2642 44.3942 11.2642C44.8184 11.2642 45.2244 11.3139 45.6122 11.4134C46.0033 11.5128 46.3497 11.6669 46.6513 11.8757C46.9562 12.0845 47.1965 12.353 47.3722 12.6811C47.5478 13.0059 47.6357 13.3954 47.6357 13.8494V19H45.6271V17.9411H45.5675C45.4448 18.1797 45.2808 18.3902 45.0753 18.5724C44.8698 18.7514 44.6229 18.8923 44.3345 18.995C44.0462 19.0945 43.7131 19.1442 43.3352 19.1442ZM43.9418 17.6825C44.2533 17.6825 44.5284 17.6212 44.767 17.4986C45.0057 17.3726 45.1929 17.2036 45.3288 16.9915C45.4647 16.7794 45.5327 16.5391 45.5327 16.2706V15.4602C45.4664 15.5033 45.3752 15.5431 45.2592 15.5795C45.1465 15.6127 45.0189 15.6442 44.8764 15.674C44.7339 15.7005 44.5914 15.7254 44.4489 15.7486C44.3063 15.7685 44.1771 15.7867 44.0611 15.8033C43.8125 15.8397 43.5954 15.8977 43.4098 15.9773C43.2242 16.0568 43.08 16.1645 42.9773 16.3004C42.8745 16.433 42.8232 16.5987 42.8232 16.7976C42.8232 17.0859 42.9276 17.3063 43.1364 17.4588C43.3485 17.608 43.617 17.6825 43.9418 17.6825ZM52.7191 22.0227C52.033 22.0227 51.4447 21.9283 50.9542 21.7393C50.467 21.5537 50.0792 21.3002 49.7908 20.9787C49.5025 20.6572 49.3152 20.2959 49.229 19.8949L51.1879 19.6314C51.2475 19.7839 51.342 19.9264 51.4712 20.0589C51.6005 20.1915 51.7712 20.2976 51.9833 20.3771C52.1987 20.46 52.4606 20.5014 52.7688 20.5014C53.2295 20.5014 53.609 20.3887 53.9073 20.1634C54.2089 19.9413 54.3597 19.5684 54.3597 19.0447V17.6477H54.2702C54.1774 17.8598 54.0382 18.0604 53.8526 18.2493C53.667 18.4382 53.4284 18.5923 53.1367 18.7116C52.8451 18.831 52.497 18.8906 52.0927 18.8906C51.5193 18.8906 50.9973 18.758 50.5266 18.4929C50.0593 18.2244 49.6864 17.8151 49.408 17.2649C49.1329 16.7114 48.9954 16.0121 48.9954 15.1669C48.9954 14.3018 49.1362 13.5793 49.418 12.9993C49.6997 12.4193 50.0742 11.9851 50.5415 11.6967C51.0122 11.4084 51.5276 11.2642 52.0877 11.2642C52.5153 11.2642 52.8732 11.3371 53.1616 11.483C53.4499 11.6255 53.6819 11.8045 53.8576 12.0199C54.0366 12.232 54.1741 12.4408 54.2702 12.6463H54.3498V11.3636H56.4528V19.0746C56.4528 19.7242 56.2937 20.2678 55.9755 20.7053C55.6573 21.1428 55.2165 21.4709 54.6531 21.6896C54.0929 21.9117 53.4483 22.0227 52.7191 22.0227ZM52.7638 17.2997C53.1052 17.2997 53.3936 17.2152 53.6289 17.0462C53.8675 16.8738 54.0498 16.6286 54.1758 16.3104C54.305 15.9889 54.3697 15.6044 54.3697 15.157C54.3697 14.7095 54.3067 14.3217 54.1808 13.9936C54.0548 13.6622 53.8725 13.4053 53.6339 13.223C53.3952 13.0407 53.1052 12.9496 52.7638 12.9496C52.4158 12.9496 52.1225 13.044 51.8839 13.233C51.6452 13.4186 51.4646 13.6771 51.342 14.0085C51.2193 14.34 51.158 14.7228 51.158 15.157C51.158 15.5978 51.2193 15.9789 51.342 16.3004C51.4679 16.6186 51.6486 16.8655 51.8839 17.0412C52.1225 17.2135 52.4158 17.2997 52.7638 17.2997ZM64.4918 13.5412L62.5529 13.6605C62.5198 13.4948 62.4485 13.3456 62.3391 13.2131C62.2298 13.0772 62.0856 12.9695 61.9066 12.8899C61.7309 12.8071 61.5205 12.7656 61.2752 12.7656C60.9471 12.7656 60.6703 12.8352 60.445 12.9744C60.2196 13.1103 60.1069 13.2926 60.1069 13.5213C60.1069 13.7036 60.1798 13.8577 60.3256 13.9837C60.4715 14.1096 60.7217 14.2107 61.0763 14.2869L62.4585 14.5653C63.2009 14.7178 63.7544 14.9631 64.119 15.3011C64.4835 15.6392 64.6658 16.0833 64.6658 16.6335C64.6658 17.134 64.5183 17.5732 64.2234 17.951C63.9317 18.3288 63.5307 18.6238 63.0202 18.8359C62.5131 19.0447 61.9281 19.1491 61.2653 19.1491C60.2544 19.1491 59.449 18.9387 58.8491 18.5178C58.2525 18.0935 57.9028 17.5168 57.8001 16.7876L59.8832 16.6783C59.9461 16.9865 60.0986 17.2218 60.3406 17.3842C60.5825 17.5433 60.8924 17.6229 61.2702 17.6229C61.6415 17.6229 61.9397 17.5516 62.1651 17.4091C62.3938 17.2633 62.5098 17.076 62.5131 16.8473C62.5098 16.6551 62.4286 16.4976 62.2695 16.375C62.1104 16.2491 61.8652 16.1529 61.5337 16.0866L60.2113 15.8232C59.4656 15.674 58.9104 15.4155 58.5458 15.0476C58.1845 14.6797 58.0039 14.2107 58.0039 13.6406C58.0039 13.1501 58.1365 12.7275 58.4016 12.3729C58.6701 12.0182 59.0463 11.7448 59.5302 11.5526C60.0174 11.3603 60.5875 11.2642 61.2404 11.2642C62.2049 11.2642 62.9639 11.468 63.5174 11.8757C64.0742 12.2834 64.399 12.8385 64.4918 13.5412Z" fill="#3D3D3D"/>
<mask id="path-6-inside-1_11013_50369" fill="white">
<path d="M74 0H138V28H74V0Z"/>
</mask>
<path d="M138 0H137V28H138H139V0H138Z" fill="#E0E0E0" mask="url(#path-6-inside-1_11013_50369)"/>
<path d="M83.0739 19V11.3636H84.2472V19H83.0739ZM83.6705 10.0909C83.4418 10.0909 83.2446 10.013 83.0788 9.85724C82.9164 9.70147 82.8352 9.5142 82.8352 9.29545C82.8352 9.0767 82.9164 8.88944 83.0788 8.73366C83.2446 8.57789 83.4418 8.5 83.6705 8.5C83.8991 8.5 84.0947 8.57789 84.2571 8.73366C84.4228 8.88944 84.5057 9.0767 84.5057 9.29545C84.5057 9.5142 84.4228 9.70147 84.2571 9.85724C84.0947 10.013 83.8991 10.0909 83.6705 10.0909ZM87.5694 14.4062V19H86.3961V11.3636H87.5297V12.5568H87.6291C87.8081 12.169 88.0798 11.8575 88.4444 11.6222C88.809 11.3835 89.2797 11.2642 89.8564 11.2642C90.3734 11.2642 90.8258 11.3703 91.2136 11.5824C91.6014 11.7912 91.903 12.1094 92.1184 12.5369C92.3339 12.9612 92.4416 13.4981 92.4416 14.1477V19H91.2683V14.2273C91.2683 13.6274 91.1125 13.16 90.801 12.8253C90.4894 12.4872 90.0618 12.3182 89.5183 12.3182C89.1438 12.3182 88.809 12.3994 88.514 12.5618C88.2224 12.7242 87.992 12.9612 87.823 13.2727C87.6539 13.5843 87.5694 13.9621 87.5694 14.4062ZM97.6879 19.1591C96.9719 19.1591 96.3555 18.9901 95.8384 18.652C95.3214 18.3139 94.9237 17.8482 94.6452 17.255C94.3668 16.6617 94.2276 15.9839 94.2276 15.2216C94.2276 14.446 94.3701 13.7616 94.6552 13.1683C94.9435 12.5717 95.3446 12.1061 95.8583 11.7713C96.3754 11.4332 96.9786 11.2642 97.668 11.2642C98.2049 11.2642 98.6888 11.3636 99.1197 11.5625C99.5505 11.7614 99.9035 12.0398 100.179 12.3977C100.454 12.7557 100.624 13.1733 100.691 13.6506H99.5174C99.4279 13.3026 99.229 12.9943 98.9208 12.7259C98.6159 12.4541 98.2049 12.3182 97.6879 12.3182C97.2305 12.3182 96.8294 12.4375 96.4847 12.6761C96.1433 12.9115 95.8765 13.2446 95.6843 13.6754C95.4954 14.103 95.4009 14.6051 95.4009 15.1818C95.4009 15.7718 95.4937 16.2855 95.6793 16.723C95.8683 17.1605 96.1334 17.5002 96.4748 17.7422C96.8195 17.9841 97.2238 18.1051 97.6879 18.1051C97.9928 18.1051 98.2695 18.0521 98.5181 17.946C98.7667 17.84 98.9772 17.6875 99.1495 17.4886C99.3219 17.2898 99.4445 17.0511 99.5174 16.7727H100.691C100.624 17.2235 100.46 17.6295 100.199 17.9908C99.94 18.3487 99.5969 18.6338 99.1694 18.8459C98.7451 19.0547 98.2513 19.1591 97.6879 19.1591ZM103.579 8.81818V19H102.406V8.81818H103.579ZM110.541 15.8778V11.3636H111.714V19H110.541V17.7074H110.461C110.282 18.0952 110.004 18.425 109.626 18.6967C109.248 18.9652 108.771 19.0994 108.194 19.0994C107.717 19.0994 107.293 18.995 106.921 18.7862C106.55 18.5741 106.258 18.2559 106.046 17.8317C105.834 17.4041 105.728 16.8655 105.728 16.2159V11.3636H106.901V16.1364C106.901 16.6932 107.057 17.1373 107.369 17.4688C107.684 17.8002 108.085 17.9659 108.572 17.9659C108.864 17.9659 109.16 17.8913 109.462 17.7422C109.767 17.593 110.022 17.3643 110.227 17.0561C110.436 16.7479 110.541 16.3551 110.541 15.8778ZM116.746 19.1591C116.11 19.1591 115.548 18.9983 115.061 18.6768C114.574 18.352 114.193 17.8946 113.918 17.3047C113.643 16.7114 113.505 16.0104 113.505 15.2017C113.505 14.3996 113.643 13.7036 113.918 13.1136C114.193 12.5237 114.576 12.0679 115.066 11.7464C115.557 11.425 116.123 11.2642 116.766 11.2642C117.263 11.2642 117.656 11.3471 117.945 11.5128C118.236 11.6752 118.458 11.8608 118.611 12.0696C118.767 12.2751 118.888 12.4441 118.974 12.5767H119.073V8.81818H120.246V19H119.113V17.8267H118.974C118.888 17.9659 118.765 18.1416 118.606 18.3537C118.447 18.5625 118.22 18.7498 117.925 18.9155C117.63 19.0779 117.237 19.1591 116.746 19.1591ZM116.906 18.1051C117.376 18.1051 117.774 17.9825 118.099 17.7372C118.424 17.4886 118.67 17.1456 118.839 16.7081C119.009 16.2673 119.093 15.7585 119.093 15.1818C119.093 14.6117 119.01 14.1129 118.844 13.6854C118.679 13.2545 118.433 12.9197 118.109 12.6811C117.784 12.4392 117.383 12.3182 116.906 12.3182C116.408 12.3182 115.994 12.4458 115.663 12.701C115.335 12.9529 115.088 13.2959 114.922 13.7301C114.759 14.161 114.678 14.6449 114.678 15.1818C114.678 15.7254 114.761 16.2192 114.927 16.6634C115.096 17.1042 115.344 17.4555 115.673 17.7173C116.004 17.9759 116.415 18.1051 116.906 18.1051ZM125.76 19.1591C125.024 19.1591 124.389 18.9967 123.856 18.6719C123.326 18.3438 122.916 17.8864 122.628 17.2997C122.343 16.7098 122.2 16.0237 122.2 15.2415C122.2 14.4593 122.343 13.7699 122.628 13.1733C122.916 12.5734 123.317 12.1061 123.831 11.7713C124.348 11.4332 124.951 11.2642 125.641 11.2642C126.038 11.2642 126.431 11.3305 126.819 11.4631C127.207 11.5956 127.56 11.8111 127.878 12.1094C128.196 12.4044 128.45 12.7955 128.638 13.2827C128.827 13.7699 128.922 14.3698 128.922 15.0824V15.5795H123.036V14.5653H127.729C127.729 14.1345 127.643 13.75 127.47 13.4119C127.301 13.0739 127.059 12.8071 126.744 12.6115C126.433 12.416 126.065 12.3182 125.641 12.3182C125.173 12.3182 124.769 12.4342 124.428 12.6662C124.089 12.8949 123.829 13.1932 123.647 13.5611C123.465 13.929 123.374 14.3234 123.374 14.7443V15.4205C123.374 15.9972 123.473 16.486 123.672 16.8871C123.874 17.2848 124.154 17.5881 124.512 17.7969C124.87 18.0024 125.286 18.1051 125.76 18.1051C126.068 18.1051 126.347 18.062 126.595 17.9759C126.847 17.8864 127.064 17.7538 127.246 17.5781C127.429 17.3991 127.57 17.1771 127.669 16.9119L128.803 17.2301C128.683 17.6146 128.483 17.9527 128.201 18.2443C127.919 18.5327 127.571 18.758 127.157 18.9205C126.743 19.0795 126.277 19.1591 125.76 19.1591Z" fill="#3D3D3D"/>
<mask id="path-9-inside-2_11013_50369" fill="white">
<path d="M138 0H222V28H138V0Z"/>
</mask>
<path d="M222 0H221V28H222H223V0H222Z" fill="#E0E0E0" mask="url(#path-9-inside-2_11013_50369)"/>
<path d="M147.233 19V8.81818H150.673C151.472 8.81818 152.125 8.96236 152.632 9.25071C153.143 9.53575 153.52 9.92188 153.766 10.4091C154.011 10.8963 154.134 11.4399 154.134 12.0398C154.134 12.6397 154.011 13.1849 153.766 13.6754C153.524 14.166 153.149 14.5571 152.642 14.8487C152.135 15.1371 151.485 15.2812 150.693 15.2812H148.227V14.1875H150.653C151.2 14.1875 151.639 14.093 151.971 13.9041C152.302 13.7152 152.543 13.46 152.692 13.1385C152.844 12.8137 152.92 12.4474 152.92 12.0398C152.92 11.6321 152.844 11.2675 152.692 10.946C152.543 10.6245 152.301 10.3726 151.966 10.1903C151.631 10.0047 151.187 9.91193 150.634 9.91193H148.466V19H147.233ZM155.961 19V11.3636H157.094V12.517H157.174C157.313 12.1392 157.565 11.8326 157.929 11.5973C158.294 11.362 158.705 11.2443 159.162 11.2443C159.248 11.2443 159.356 11.246 159.485 11.2493C159.615 11.2526 159.712 11.2576 159.779 11.2642V12.4574C159.739 12.4474 159.648 12.4325 159.505 12.4126C159.366 12.3894 159.219 12.3778 159.063 12.3778C158.692 12.3778 158.36 12.4557 158.069 12.6115C157.78 12.764 157.551 12.9761 157.382 13.2479C157.217 13.5163 157.134 13.8229 157.134 14.1676V19H155.961ZM164.039 19.1591C163.35 19.1591 162.745 18.995 162.225 18.6669C161.708 18.3388 161.303 17.8797 161.012 17.2898C160.723 16.6998 160.579 16.0104 160.579 15.2216C160.579 14.4261 160.723 13.7318 161.012 13.1385C161.303 12.5452 161.708 12.0845 162.225 11.7564C162.745 11.4283 163.35 11.2642 164.039 11.2642C164.729 11.2642 165.332 11.4283 165.849 11.7564C166.369 12.0845 166.774 12.5452 167.062 13.1385C167.354 13.7318 167.5 14.4261 167.5 15.2216C167.5 16.0104 167.354 16.6998 167.062 17.2898C166.774 17.8797 166.369 18.3388 165.849 18.6669C165.332 18.995 164.729 19.1591 164.039 19.1591ZM164.039 18.1051C164.563 18.1051 164.994 17.9709 165.332 17.7024C165.67 17.4339 165.92 17.081 166.083 16.6435C166.245 16.206 166.326 15.732 166.326 15.2216C166.326 14.7112 166.245 14.2356 166.083 13.7947C165.92 13.3539 165.67 12.9976 165.332 12.7259C164.994 12.4541 164.563 12.3182 164.039 12.3182C163.516 12.3182 163.085 12.4541 162.747 12.7259C162.409 12.9976 162.158 13.3539 161.996 13.7947C161.834 14.2356 161.752 14.7112 161.752 15.2216C161.752 15.732 161.834 16.206 161.996 16.6435C162.158 17.081 162.409 17.4339 162.747 17.7024C163.085 17.9709 163.516 18.1051 164.039 18.1051ZM169.291 19V11.3636H170.424V12.5568H170.524C170.683 12.1491 170.94 11.8326 171.294 11.6072C171.649 11.3786 172.075 11.2642 172.572 11.2642C173.076 11.2642 173.495 11.3786 173.83 11.6072C174.168 11.8326 174.431 12.1491 174.62 12.5568H174.7C174.895 12.1624 175.189 11.8492 175.58 11.6172C175.971 11.3819 176.44 11.2642 176.987 11.2642C177.669 11.2642 178.228 11.478 178.662 11.9055C179.096 12.3298 179.313 12.991 179.313 13.8892V19H178.14V13.8892C178.14 13.3258 177.986 12.9231 177.678 12.6811C177.369 12.4392 177.007 12.3182 176.589 12.3182C176.052 12.3182 175.636 12.4806 175.341 12.8054C175.046 13.1269 174.899 13.5346 174.899 14.0284V19H173.705V13.7699C173.705 13.3357 173.565 12.986 173.283 12.7209C173.001 12.4524 172.638 12.3182 172.194 12.3182C171.889 12.3182 171.604 12.3994 171.339 12.5618C171.077 12.7242 170.865 12.9496 170.703 13.2379C170.544 13.523 170.464 13.8527 170.464 14.2273V19H169.291ZM184.561 19.1591C183.872 19.1591 183.267 18.995 182.746 18.6669C182.229 18.3388 181.825 17.8797 181.533 17.2898C181.245 16.6998 181.101 16.0104 181.101 15.2216C181.101 14.4261 181.245 13.7318 181.533 13.1385C181.825 12.5452 182.229 12.0845 182.746 11.7564C183.267 11.4283 183.872 11.2642 184.561 11.2642C185.25 11.2642 185.854 11.4283 186.371 11.7564C186.891 12.0845 187.295 12.5452 187.584 13.1385C187.875 13.7318 188.021 14.4261 188.021 15.2216C188.021 16.0104 187.875 16.6998 187.584 17.2898C187.295 17.8797 186.891 18.3388 186.371 18.6669C185.854 18.995 185.25 19.1591 184.561 19.1591ZM184.561 18.1051C185.085 18.1051 185.515 17.9709 185.854 17.7024C186.192 17.4339 186.442 17.081 186.604 16.6435C186.767 16.206 186.848 15.732 186.848 15.2216C186.848 14.7112 186.767 14.2356 186.604 13.7947C186.442 13.3539 186.192 12.9976 185.854 12.7259C185.515 12.4541 185.085 12.3182 184.561 12.3182C184.037 12.3182 183.606 12.4541 183.268 12.7259C182.93 12.9976 182.68 13.3539 182.518 13.7947C182.355 14.2356 182.274 14.7112 182.274 15.2216C182.274 15.732 182.355 16.206 182.518 16.6435C182.68 17.081 182.93 17.4339 183.268 17.7024C183.606 17.9709 184.037 18.1051 184.561 18.1051ZM193.133 11.3636V12.358H189.176V11.3636H193.133ZM190.329 9.53409H191.502V16.8125C191.502 17.1439 191.551 17.3925 191.647 17.5582C191.746 17.7206 191.872 17.83 192.025 17.8864C192.18 17.9394 192.344 17.9659 192.517 17.9659C192.646 17.9659 192.752 17.9593 192.835 17.946C192.918 17.9295 192.984 17.9162 193.034 17.9062L193.272 18.9602C193.193 18.9901 193.082 19.0199 192.939 19.0497C192.797 19.0829 192.616 19.0994 192.397 19.0994C192.066 19.0994 191.741 19.0282 191.423 18.8857C191.108 18.7431 190.846 18.526 190.637 18.2344C190.432 17.9427 190.329 17.5748 190.329 17.1307V9.53409ZM194.898 19V11.3636H196.071V19H194.898ZM195.495 10.0909C195.266 10.0909 195.069 10.013 194.903 9.85724C194.741 9.70147 194.659 9.5142 194.659 9.29545C194.659 9.0767 194.741 8.88944 194.903 8.73366C195.069 8.57789 195.266 8.5 195.495 8.5C195.723 8.5 195.919 8.57789 196.081 8.73366C196.247 8.88944 196.33 9.0767 196.33 9.29545C196.33 9.5142 196.247 9.70147 196.081 9.85724C195.919 10.013 195.723 10.0909 195.495 10.0909ZM201.323 19.1591C200.633 19.1591 200.028 18.995 199.508 18.6669C198.991 18.3388 198.587 17.8797 198.295 17.2898C198.007 16.6998 197.862 16.0104 197.862 15.2216C197.862 14.4261 198.007 13.7318 198.295 13.1385C198.587 12.5452 198.991 12.0845 199.508 11.7564C200.028 11.4283 200.633 11.2642 201.323 11.2642C202.012 11.2642 202.615 11.4283 203.132 11.7564C203.653 12.0845 204.057 12.5452 204.345 13.1385C204.637 13.7318 204.783 14.4261 204.783 15.2216C204.783 16.0104 204.637 16.6998 204.345 17.2898C204.057 17.8797 203.653 18.3388 203.132 18.6669C202.615 18.995 202.012 19.1591 201.323 19.1591ZM201.323 18.1051C201.846 18.1051 202.277 17.9709 202.615 17.7024C202.953 17.4339 203.204 17.081 203.366 16.6435C203.528 16.206 203.61 15.732 203.61 15.2216C203.61 14.7112 203.528 14.2356 203.366 13.7947C203.204 13.3539 202.953 12.9976 202.615 12.7259C202.277 12.4541 201.846 12.3182 201.323 12.3182C200.799 12.3182 200.368 12.4541 200.03 12.7259C199.692 12.9976 199.442 13.3539 199.279 13.7947C199.117 14.2356 199.036 14.7112 199.036 15.2216C199.036 15.732 199.117 16.206 199.279 16.6435C199.442 17.081 199.692 17.4339 200.03 17.7024C200.368 17.9709 200.799 18.1051 201.323 18.1051ZM207.747 14.4062V19H206.574V11.3636H207.707V12.5568H207.807C207.986 12.169 208.258 11.8575 208.622 11.6222C208.987 11.3835 209.457 11.2642 210.034 11.2642C210.551 11.2642 211.004 11.3703 211.391 11.5824C211.779 11.7912 212.081 12.1094 212.296 12.5369C212.512 12.9612 212.619 13.4981 212.619 14.1477V19H211.446V14.2273C211.446 13.6274 211.29 13.16 210.979 12.8253C210.667 12.4872 210.24 12.3182 209.696 12.3182C209.321 12.3182 208.987 12.3994 208.692 12.5618C208.4 12.7242 208.17 12.9612 208.001 13.2727C207.832 13.5843 207.747 13.9621 207.747 14.4062Z" fill="#3D3D3D"/>
<path d="M245 9L235 19M235 9L245 19" stroke="#3D3D3D" stroke-width="1.66667" stroke-linecap="round" stroke-linejoin="round"/>
</g>
<rect x="0.5" y="0.5" width="257" height="27" rx="3.5" stroke="#E0E0E0"/>
<defs>
<clipPath id="clip0_11013_50369">
<rect width="258" height="28" rx="4" fill="white"/>
</clipPath>
<clipPath id="clip1_11013_50369">
<rect width="16" height="16" fill="white" transform="translate(8 6)"/>
</clipPath>
</defs>
</svg>
