<svg width="44" height="748" viewBox="0 0 44 748" fill="none" xmlns="http://www.w3.org/2000/svg">
<mask id="path-1-inside-1_5990_19734" fill="white">
<path d="M0 0H44V748H0V0Z"/>
</mask>
<path d="M0 0H44V748H0V0Z" fill="white"/>
<path d="M0 0V-1H-1V0H0ZM0 748H-1V749H0V748ZM0 1H44V-1H0V1ZM44 747H0V749H44V747ZM1 748V0H-1V748H1Z" fill="#B8B8B8" mask="url(#path-1-inside-1_5990_19734)"/>
<g clip-path="url(#clip0_5990_19734)">
<path d="M22 25.3333V22M22 18.6666H22.0083M30.3333 22C30.3333 26.6023 26.6023 30.3333 22 30.3333C17.3976 30.3333 13.6666 26.6023 13.6666 22C13.6666 17.3976 17.3976 13.6666 22 13.6666C26.6023 13.6666 30.3333 17.3976 30.3333 22Z" stroke="#8F8F8F" stroke-width="2" stroke-linecap="round" stroke-linejoin="round"/>
</g>
<g clip-path="url(#clip1_5990_19734)">
<path d="M18.6666 72.6666H18.675M13.6666 70.3333V74.0621C13.6666 74.4697 13.6666 74.6735 13.7127 74.8654C13.7535 75.0354 13.8208 75.198 13.9122 75.3471C14.0153 75.5153 14.1594 75.6595 14.4477 75.9477L20.8382 82.3382C21.8282 83.3282 22.3233 83.8233 22.894 84.0087C23.3962 84.1719 23.937 84.1719 24.4391 84.0087C25.01 83.8233 25.505 83.3282 26.495 82.3382L28.3382 80.495C29.3282 79.505 29.8233 79.01 30.0087 78.4391C30.1719 77.937 30.1719 77.3962 30.0087 76.894C29.8233 76.3233 29.3282 75.8282 28.3382 74.8382L21.9477 68.4477C21.6595 68.1594 21.5153 68.0153 21.3471 67.9122C21.198 67.8208 21.0354 67.7535 20.8654 67.7127C20.6735 67.6666 20.4697 67.6666 20.0621 67.6666H16.3333C15.3999 67.6666 14.9332 67.6666 14.5766 67.8483C14.263 68.0081 14.0081 68.263 13.8483 68.5766C13.6666 68.9332 13.6666 69.3999 13.6666 70.3333ZM19.0833 72.6666C19.0833 72.8967 18.8967 73.0833 18.6666 73.0833C18.4365 73.0833 18.25 72.8967 18.25 72.6666C18.25 72.4365 18.4365 72.25 18.6666 72.25C18.8967 72.25 19.0833 72.4365 19.0833 72.6666Z" stroke="#8F8F8F" stroke-width="2" stroke-linecap="round" stroke-linejoin="round"/>
</g>
<path d="M19.5 125.833H15.8333C15.3666 125.833 15.1333 125.833 14.955 125.924C14.7982 126.004 14.6707 126.132 14.5908 126.288C14.5 126.467 14.5 126.7 14.5 127.167V136.167C14.5 136.633 14.5 136.867 14.5908 137.045C14.6707 137.202 14.7982 137.329 14.955 137.409C15.1333 137.5 15.3666 137.5 15.8333 137.5H19.5M19.5 137.5H24.5M19.5 137.5V123.833C19.5 123.367 19.5 123.133 19.5908 122.955C19.6707 122.798 19.7982 122.671 19.955 122.591C20.1333 122.5 20.3666 122.5 20.8333 122.5H23.1667C23.6334 122.5 23.8668 122.5 24.045 122.591C24.2018 122.671 24.3292 122.798 24.4092 122.955C24.5 123.133 24.5 123.367 24.5 123.833V137.5M24.5 137.5H28.1667C28.6334 137.5 28.8668 137.5 29.045 137.409C29.2018 137.329 29.3293 137.202 29.4092 137.045C29.5 136.867 29.5 136.633 29.5 136.167V130.5C29.5 130.033 29.5 129.8 29.4092 129.622C29.3293 129.465 29.2018 129.337 29.045 129.258C28.8668 129.167 28.6334 129.167 28.1667 129.167H24.5" stroke="#8F8F8F" stroke-width="2" stroke-linecap="round" stroke-linejoin="round"/>
<path d="M22 184H29.5M22 176.5V191.5M18.5 176.5H25.5C26.9002 176.5 27.6002 176.5 28.135 176.772C28.6054 177.012 28.9878 177.395 29.2275 177.865C29.5 178.4 29.5 179.1 29.5 180.5V187.5C29.5 188.9 29.5 189.6 29.2275 190.135C28.9878 190.605 28.6054 190.988 28.135 191.227C27.6002 191.5 26.9002 191.5 25.5 191.5H18.5C17.0999 191.5 16.3998 191.5 15.865 191.227C15.3946 190.988 15.0122 190.605 14.7725 190.135C14.5 189.6 14.5 188.9 14.5 187.5V180.5C14.5 179.1 14.5 178.4 14.7725 177.865C15.0122 177.395 15.3946 177.012 15.865 176.772C16.3998 176.5 17.0999 176.5 18.5 176.5Z" stroke="#8F8F8F" stroke-width="2" stroke-linecap="round" stroke-linejoin="round"/>
<path d="M18.25 230.5H24.1667C26.0335 230.5 26.9669 230.5 27.68 230.863C28.3072 231.183 28.8171 231.693 29.1367 232.32C29.5 233.033 29.5 233.966 29.5 235.833V241.75M17.1667 245.5H23.9167C24.8501 245.5 25.3168 245.5 25.6733 245.318C25.9869 245.159 26.2419 244.904 26.4017 244.59C26.5833 244.234 26.5833 243.767 26.5833 242.833V236.083C26.5833 235.15 26.5833 234.683 26.4017 234.327C26.2419 234.013 25.9869 233.758 25.6733 233.598C25.3168 233.417 24.8501 233.417 23.9167 233.417H17.1667C16.2332 233.417 15.7665 233.417 15.41 233.598C15.0964 233.758 14.8414 234.013 14.6817 234.327C14.5 234.683 14.5 235.15 14.5 236.083V242.833C14.5 243.767 14.5 244.234 14.6817 244.59C14.8414 244.904 15.0964 245.159 15.41 245.318C15.7665 245.5 16.2332 245.5 17.1667 245.5Z" stroke="#8F8F8F" stroke-width="2" stroke-linecap="round" stroke-linejoin="round"/>
<path d="M26.9999 290.333L23.6666 287M14.0833 299.917L16.9036 299.603C17.2481 299.565 17.4204 299.546 17.5815 299.494C17.7243 299.448 17.8603 299.382 17.9857 299.3C18.127 299.206 18.2495 299.084 18.4947 298.839L29.4999 287.833C30.4204 286.913 30.4204 285.421 29.4999 284.5C28.5794 283.58 27.0871 283.58 26.1666 284.5L15.1614 295.505C14.9162 295.75 14.7936 295.873 14.7005 296.014C14.6178 296.14 14.5524 296.276 14.5062 296.419C14.4541 296.58 14.4349 296.752 14.3966 297.096L14.0833 299.917Z" stroke="#8F8F8F" stroke-width="2" stroke-linecap="round" stroke-linejoin="round"/>
<defs>
<clipPath id="clip0_5990_19734">
<rect width="20" height="20" fill="white" transform="translate(12 12)"/>
</clipPath>
<clipPath id="clip1_5990_19734">
<rect width="20" height="20" fill="white" transform="translate(12 66)"/>
</clipPath>
</defs>
</svg>
