<svg width="322" height="44" viewBox="0 0 322 44" fill="none" xmlns="http://www.w3.org/2000/svg">
<rect y="6" width="52" height="32" rx="16" fill="#075850"/>
<path d="M14.7933 19.1818L16.9602 23.0043L19.1463 19.1818H21.2365L18.1747 24.0909L21.2621 29H19.1719L16.9602 25.331L14.755 29H12.6584L15.7138 24.0909L12.6967 19.1818H14.7933Z" fill="white"/>
<path d="M32.2259 15.9091V29H30.2443V17.8906H30.1676L27.0355 19.9361V18.044L30.3018 15.9091H32.2259Z" fill="white"/>
<path d="M84 22H93M84 13V31M79.8 13H88.2C89.8802 13 90.7202 13 91.362 13.327C91.9265 13.6146 92.3854 14.0735 92.673 14.638C93 15.2798 93 16.1198 93 17.8V26.2C93 27.8802 93 28.7202 92.673 29.362C92.3854 29.9265 91.9265 30.3854 91.362 30.673C90.7202 31 89.8802 31 88.2 31H79.8C78.1198 31 77.2798 31 76.638 30.673C76.0735 30.3854 75.6146 29.9265 75.327 29.362C75 28.7202 75 27.8802 75 26.2V17.8C75 16.1198 75 15.2798 75.327 14.638C75.6146 14.0735 76.0735 13.6146 76.638 13.327C77.2798 13 78.1198 13 79.8 13Z" stroke="#3D3D3D" stroke-width="2" stroke-linecap="round" stroke-linejoin="round"/>
<rect x="122" y="6" width="32" height="32" rx="16" fill="rgba(100, 115, 255, 0.12)" stroke="#6473FF" stroke-width="1.5"/>
<path d="M138.708 28.3639L137.293 29.7781C135.341 31.7308 132.175 31.7308 130.222 29.7781C128.27 27.8255 128.27 24.6597 130.222 22.7071L131.636 21.2929M144.364 22.7071L145.779 21.2929C147.731 19.3402 147.731 16.1744 145.779 14.2218C143.826 12.2692 140.66 12.2692 138.708 14.2218L137.293 15.636M134.5 25.4999L141.5 18.4999" stroke="#3D3D3D" stroke-width="2" stroke-linecap="round" stroke-linejoin="round"/>
<path d="M201 25V26.2C201 27.8802 201 28.7202 200.673 29.362C200.385 29.9265 199.926 30.3854 199.362 30.673C198.72 31 197.88 31 196.2 31H187.8C186.12 31 185.28 31 184.638 30.673C184.074 30.3854 183.615 29.9265 183.327 29.362C183 28.7202 183 27.8802 183 26.2V25M197 20L192 25M192 25L187 20M192 25V13" stroke="#3D3D3D" stroke-width="2" stroke-linecap="round" stroke-linejoin="round"/>
<path d="M242 18H242.01M236 15.2V19.6745C236 20.1637 236 20.4083 236.055 20.6385C236.104 20.8425 236.185 21.0376 236.295 21.2166C236.418 21.4184 236.591 21.5914 236.937 21.9373L244.606 29.6059C245.794 30.7939 246.388 31.388 247.073 31.6105C247.675 31.8063 248.325 31.8063 248.927 31.6105C249.612 31.388 250.206 30.7939 251.394 29.6059L253.606 27.3941C254.794 26.2061 255.388 25.612 255.611 24.927C255.806 24.3245 255.806 23.6755 255.611 23.0729C255.388 22.388 254.794 21.7939 253.606 20.6059L245.937 12.9373C245.591 12.5913 245.418 12.4184 245.217 12.2947C245.038 12.1851 244.843 12.1042 244.639 12.0553C244.408 12 244.164 12 243.675 12H239.2C238.08 12 237.52 12 237.092 12.218C236.716 12.4097 236.41 12.7157 236.218 13.092C236 13.5198 236 14.0799 236 15.2ZM242.5 18C242.5 18.2761 242.276 18.5 242 18.5C241.724 18.5 241.5 18.2761 241.5 18C241.5 17.7239 241.724 17.5 242 17.5C242.276 17.5 242.5 17.7239 242.5 18Z" stroke="#3D3D3D" stroke-width="2" stroke-linecap="round" stroke-linejoin="round"/>
<path d="M291 16H293M293 16H309M293 16V30C293 30.5304 293.211 31.0391 293.586 31.4142C293.961 31.7893 294.47 32 295 32H305C305.53 32 306.039 31.7893 306.414 31.4142C306.789 31.0391 307 30.5304 307 30V16M296 16V14C296 13.4696 296.211 12.9609 296.586 12.5858C296.961 12.2107 297.47 12 298 12H302C302.53 12 303.039 12.2107 303.414 12.5858C303.789 12.9609 304 13.4696 304 14V16M298 21V27M302 21V27" stroke="#1E1E1E" stroke-width="2" stroke-linecap="round" stroke-linejoin="round"/>
</svg>
