<svg width="234" height="328" viewBox="0 0 234 328" fill="none" xmlns="http://www.w3.org/2000/svg">
<g filter="url(#filter0_d_7527_8211)">
<rect x="6" y="4" width="222" height="316" rx="20" fill="white" shape-rendering="crispEdges"/>
<path d="M55.5 40.3334H40.5M51.3333 33.6667V37.0001M44.6667 33.6667V37.0001M44.5 50.3334H51.5C52.9002 50.3334 53.6002 50.3334 54.135 50.0609C54.6054 49.8212 54.9878 49.4388 55.2275 48.9684C55.5 48.4336 55.5 47.7336 55.5 46.3334V39.3334C55.5 37.9333 55.5 37.2332 55.2275 36.6984C54.9878 36.228 54.6054 35.8456 54.135 35.6059C53.6002 35.3334 52.9002 35.3334 51.5 35.3334H44.5C43.0999 35.3334 42.3998 35.3334 41.865 35.6059C41.3946 35.8456 41.0122 36.228 40.7725 36.6984C40.5 37.2332 40.5 37.9333 40.5 39.3334V46.3334C40.5 47.7336 40.5 48.4336 40.7725 48.9684C41.0122 49.4388 41.3946 49.8212 41.865 50.0609C42.3998 50.3334 43.0999 50.3334 44.5 50.3334Z" stroke="#3D3D3D" stroke-width="2" stroke-linecap="round" stroke-linejoin="round"/>
<path d="M73.9148 37.3182H75.1477V44.0597C75.1477 44.7557 74.9837 45.3771 74.6555 45.924C74.3307 46.4676 73.8717 46.8968 73.2784 47.2116C72.6851 47.5232 71.9891 47.679 71.1903 47.679C70.3916 47.679 69.6955 47.5232 69.1023 47.2116C68.509 46.8968 68.0483 46.4676 67.7202 45.924C67.3954 45.3771 67.233 44.7557 67.233 44.0597V37.3182H68.4659V43.9602C68.4659 44.4574 68.5753 44.8999 68.794 45.2876C69.0128 45.6721 69.3243 45.9754 69.7287 46.1974C70.1364 46.4162 70.6236 46.5256 71.1903 46.5256C71.7571 46.5256 72.2443 46.4162 72.652 46.1974C73.0597 45.9754 73.3712 45.6721 73.5866 45.2876C73.8054 44.8999 73.9148 44.4574 73.9148 43.9602V37.3182ZM77.4508 50.3636V39.8636H78.5843V41.0767H78.7235C78.8097 40.9441 78.929 40.7751 79.0815 40.5696C79.2373 40.3608 79.4593 40.1752 79.7477 40.0128C80.0394 39.8471 80.4338 39.7642 80.9309 39.7642C81.5739 39.7642 82.1407 39.925 82.6312 40.2464C83.1217 40.5679 83.5046 41.0237 83.7797 41.6136C84.0547 42.2036 84.1923 42.8996 84.1923 43.7017C84.1923 44.5104 84.0547 45.2114 83.7797 45.8047C83.5046 46.3946 83.1234 46.852 82.6362 47.1768C82.149 47.4983 81.5872 47.6591 80.9508 47.6591C80.4603 47.6591 80.0675 47.5779 79.7725 47.4155C79.4776 47.2498 79.2505 47.0625 79.0914 46.8537C78.9324 46.6416 78.8097 46.4659 78.7235 46.3267H78.6241V50.3636H77.4508ZM78.6042 43.6818C78.6042 44.2585 78.6887 44.7673 78.8578 45.2081C79.0268 45.6456 79.2737 45.9886 79.5985 46.2372C79.9234 46.4825 80.3211 46.6051 80.7917 46.6051C81.2823 46.6051 81.6916 46.4759 82.0197 46.2173C82.3511 45.9555 82.5997 45.6042 82.7654 45.1634C82.9345 44.7192 83.019 44.2254 83.019 43.6818C83.019 43.1449 82.9361 42.661 82.7704 42.2301C82.608 41.7959 82.3611 41.4529 82.0297 41.201C81.7015 40.9458 81.2889 40.8182 80.7917 40.8182C80.3145 40.8182 79.9134 40.9392 79.5886 41.1811C79.2638 41.4197 79.0185 41.7545 78.8528 42.1854C78.6871 42.6129 78.6042 43.1117 78.6042 43.6818ZM87.1554 37.3182V47.5H85.9821V37.3182H87.1554ZM92.4066 47.6591C91.7172 47.6591 91.1123 47.495 90.592 47.1669C90.0749 46.8388 89.6706 46.3797 89.3789 45.7898C89.0906 45.1998 88.9464 44.5104 88.9464 43.7216C88.9464 42.9261 89.0906 42.2318 89.3789 41.6385C89.6706 41.0452 90.0749 40.5845 90.592 40.2564C91.1123 39.9283 91.7172 39.7642 92.4066 39.7642C93.096 39.7642 93.6992 39.9283 94.2163 40.2564C94.7366 40.5845 95.141 41.0452 95.4293 41.6385C95.721 42.2318 95.8668 42.9261 95.8668 43.7216C95.8668 44.5104 95.721 45.1998 95.4293 45.7898C95.141 46.3797 94.7366 46.8388 94.2163 47.1669C93.6992 47.495 93.096 47.6591 92.4066 47.6591ZM92.4066 46.6051C92.9303 46.6051 93.3612 46.4709 93.6992 46.2024C94.0373 45.9339 94.2875 45.581 94.4499 45.1435C94.6123 44.706 94.6935 44.232 94.6935 43.7216C94.6935 43.2112 94.6123 42.7356 94.4499 42.2947C94.2875 41.8539 94.0373 41.4976 93.6992 41.2259C93.3612 40.9541 92.9303 40.8182 92.4066 40.8182C91.8829 40.8182 91.4521 40.9541 91.114 41.2259C90.7759 41.4976 90.5257 41.8539 90.3633 42.2947C90.2009 42.7356 90.1197 43.2112 90.1197 43.7216C90.1197 44.232 90.2009 44.706 90.3633 45.1435C90.5257 45.581 90.7759 45.9339 91.114 46.2024C91.4521 46.4709 91.8829 46.6051 92.4066 46.6051ZM99.905 47.679C99.4211 47.679 98.9819 47.5878 98.5875 47.4055C98.1931 47.2199 97.8799 46.9531 97.6479 46.6051C97.4159 46.2538 97.2999 45.8295 97.2999 45.3324C97.2999 44.8949 97.3861 44.5402 97.5584 44.2685C97.7308 43.9934 97.9611 43.7779 98.2495 43.6222C98.5378 43.4664 98.856 43.3504 99.204 43.2741C99.5553 43.1946 99.9083 43.1316 100.263 43.0852C100.727 43.0256 101.103 42.9808 101.392 42.951C101.683 42.9179 101.895 42.8632 102.028 42.7869C102.164 42.7107 102.232 42.5781 102.232 42.3892V42.3494C102.232 41.8589 102.097 41.4777 101.829 41.206C101.564 40.9342 101.161 40.7983 100.621 40.7983C100.061 40.7983 99.6216 40.9209 99.3034 41.1662C98.9853 41.4115 98.7615 41.6733 98.6323 41.9517L97.5186 41.554C97.7175 41.09 97.9827 40.7287 98.3141 40.4702C98.6489 40.2083 99.0134 40.026 99.4078 39.9233C99.8056 39.8172 100.197 39.7642 100.581 39.7642C100.826 39.7642 101.108 39.794 101.426 39.8537C101.748 39.91 102.058 40.0277 102.356 40.2067C102.658 40.3857 102.908 40.6558 103.107 41.017C103.306 41.3783 103.405 41.8622 103.405 42.4688V47.5H102.232V46.4659H102.172C102.093 46.6316 101.96 46.8089 101.774 46.9979C101.589 47.1868 101.342 47.3475 101.034 47.4801C100.725 47.6127 100.349 47.679 99.905 47.679ZM100.084 46.625C100.548 46.625 100.939 46.5339 101.257 46.3516C101.579 46.1693 101.821 45.9339 101.983 45.6456C102.149 45.3572 102.232 45.054 102.232 44.7358V43.6619C102.182 43.7216 102.073 43.7763 101.904 43.826C101.738 43.8724 101.546 43.9138 101.327 43.9503C101.111 43.9834 100.901 44.0133 100.695 44.0398C100.493 44.063 100.329 44.0829 100.203 44.0994C99.8984 44.1392 99.6133 44.2038 99.3482 44.2933C99.0864 44.3795 98.8742 44.5104 98.7118 44.6861C98.5527 44.8584 98.4732 45.0937 98.4732 45.392C98.4732 45.7997 98.624 46.108 98.9256 46.3168C99.2305 46.5223 99.6167 46.625 100.084 46.625ZM108.43 47.6591C107.794 47.6591 107.232 47.4983 106.745 47.1768C106.257 46.852 105.876 46.3946 105.601 45.8047C105.326 45.2114 105.189 44.5104 105.189 43.7017C105.189 42.8996 105.326 42.2036 105.601 41.6136C105.876 41.0237 106.259 40.5679 106.75 40.2464C107.24 39.925 107.807 39.7642 108.45 39.7642C108.947 39.7642 109.34 39.8471 109.628 40.0128C109.92 40.1752 110.142 40.3608 110.294 40.5696C110.45 40.7751 110.571 40.9441 110.657 41.0767H110.757V37.3182H111.93V47.5H110.797V46.3267H110.657C110.571 46.4659 110.449 46.6416 110.289 46.8537C110.13 47.0625 109.903 47.2498 109.608 47.4155C109.313 47.5779 108.921 47.6591 108.43 47.6591ZM108.589 46.6051C109.06 46.6051 109.458 46.4825 109.782 46.2372C110.107 45.9886 110.354 45.6456 110.523 45.2081C110.692 44.7673 110.777 44.2585 110.777 43.6818C110.777 43.1117 110.694 42.6129 110.528 42.1854C110.362 41.7545 110.117 41.4197 109.792 41.1811C109.467 40.9392 109.066 40.8182 108.589 40.8182C108.092 40.8182 107.678 40.9458 107.346 41.201C107.018 41.4529 106.771 41.7959 106.605 42.2301C106.443 42.661 106.362 43.1449 106.362 43.6818C106.362 44.2254 106.445 44.7192 106.61 45.1634C106.779 45.6042 107.028 45.9555 107.356 46.2173C107.688 46.4759 108.099 46.6051 108.589 46.6051ZM117.444 47.6591C116.708 47.6591 116.073 47.4967 115.539 47.1719C115.009 46.8438 114.6 46.3864 114.311 45.7997C114.026 45.2098 113.884 44.5237 113.884 43.7415C113.884 42.9593 114.026 42.2699 114.311 41.6733C114.6 41.0734 115.001 40.6061 115.515 40.2713C116.032 39.9332 116.635 39.7642 117.324 39.7642C117.722 39.7642 118.115 39.8305 118.502 39.9631C118.89 40.0956 119.243 40.3111 119.561 40.6094C119.88 40.9044 120.133 41.2955 120.322 41.7827C120.511 42.2699 120.605 42.8698 120.605 43.5824V44.0795H114.719V43.0653H119.412C119.412 42.6345 119.326 42.25 119.154 41.9119C118.985 41.5739 118.743 41.3071 118.428 41.1115C118.116 40.916 117.748 40.8182 117.324 40.8182C116.857 40.8182 116.453 40.9342 116.111 41.1662C115.773 41.3949 115.513 41.6932 115.331 42.0611C115.148 42.429 115.057 42.8234 115.057 43.2443V43.9205C115.057 44.4972 115.157 44.986 115.355 45.3871C115.558 45.7848 115.838 46.0881 116.196 46.2969C116.554 46.5024 116.97 46.6051 117.444 46.6051C117.752 46.6051 118.03 46.562 118.279 46.4759C118.531 46.3864 118.748 46.2538 118.93 46.0781C119.112 45.8991 119.253 45.6771 119.353 45.4119L120.486 45.7301C120.367 46.1146 120.166 46.4527 119.885 46.7443C119.603 47.0327 119.255 47.258 118.841 47.4205C118.426 47.5795 117.961 47.6591 117.444 47.6591ZM125.274 47.6591C124.637 47.6591 124.076 47.4983 123.588 47.1768C123.101 46.852 122.72 46.3946 122.445 45.8047C122.17 45.2114 122.032 44.5104 122.032 43.7017C122.032 42.8996 122.17 42.2036 122.445 41.6136C122.72 41.0237 123.103 40.5679 123.593 40.2464C124.084 39.925 124.651 39.7642 125.294 39.7642C125.791 39.7642 126.184 39.8471 126.472 40.0128C126.764 40.1752 126.986 40.3608 127.138 40.5696C127.294 40.7751 127.415 40.9441 127.501 41.0767H127.6V37.3182H128.774V47.5H127.64V46.3267H127.501C127.415 46.4659 127.292 46.6416 127.133 46.8537C126.974 47.0625 126.747 47.2498 126.452 47.4155C126.157 47.5779 125.764 47.6591 125.274 47.6591ZM125.433 46.6051C125.904 46.6051 126.301 46.4825 126.626 46.2372C126.951 45.9886 127.198 45.6456 127.367 45.2081C127.536 44.7673 127.62 44.2585 127.62 43.6818C127.62 43.1117 127.538 42.6129 127.372 42.1854C127.206 41.7545 126.961 41.4197 126.636 41.1811C126.311 40.9392 125.91 40.8182 125.433 40.8182C124.936 40.8182 124.521 40.9458 124.19 41.201C123.862 41.4529 123.615 41.7959 123.449 42.2301C123.287 42.661 123.206 43.1449 123.206 43.6818C123.206 44.2254 123.288 44.7192 123.454 45.1634C123.623 45.6042 123.872 45.9555 124.2 46.2173C124.531 46.4759 124.942 46.6051 125.433 46.6051ZM138.324 47.5H135.182V37.3182H138.463C139.451 37.3182 140.296 37.522 140.999 37.9297C141.702 38.334 142.24 38.9157 142.615 39.6747C142.989 40.4304 143.176 41.3352 143.176 42.3892C143.176 43.4498 142.988 44.3629 142.61 45.1286C142.232 45.8909 141.682 46.4775 140.959 46.8885C140.237 47.2962 139.358 47.5 138.324 47.5ZM136.415 46.4062H138.245C139.087 46.4062 139.784 46.2438 140.338 45.919C140.891 45.5942 141.304 45.1319 141.576 44.532C141.847 43.9321 141.983 43.2178 141.983 42.3892C141.983 41.5672 141.849 40.8596 141.581 40.2663C141.312 39.6697 140.911 39.2124 140.377 38.8942C139.844 38.5727 139.179 38.4119 138.384 38.4119H136.415V46.4062ZM147.333 47.679C146.849 47.679 146.41 47.5878 146.015 47.4055C145.621 47.2199 145.308 46.9531 145.076 46.6051C144.844 46.2538 144.728 45.8295 144.728 45.3324C144.728 44.8949 144.814 44.5402 144.986 44.2685C145.158 43.9934 145.389 43.7779 145.677 43.6222C145.966 43.4664 146.284 43.3504 146.632 43.2741C146.983 43.1946 147.336 43.1316 147.691 43.0852C148.155 43.0256 148.531 42.9808 148.819 42.951C149.111 42.9179 149.323 42.8632 149.456 42.7869C149.592 42.7107 149.659 42.5781 149.659 42.3892V42.3494C149.659 41.8589 149.525 41.4777 149.257 41.206C148.992 40.9342 148.589 40.7983 148.049 40.7983C147.489 40.7983 147.049 40.9209 146.731 41.1662C146.413 41.4115 146.189 41.6733 146.06 41.9517L144.946 41.554C145.145 41.09 145.41 40.7287 145.742 40.4702C146.077 40.2083 146.441 40.026 146.836 39.9233C147.233 39.8172 147.624 39.7642 148.009 39.7642C148.254 39.7642 148.536 39.794 148.854 39.8537C149.176 39.91 149.485 40.0277 149.784 40.2067C150.085 40.3857 150.336 40.6558 150.534 41.017C150.733 41.3783 150.833 41.8622 150.833 42.4688V47.5H149.659V46.4659H149.6C149.52 46.6316 149.388 46.8089 149.202 46.9979C149.016 47.1868 148.77 47.3475 148.461 47.4801C148.153 47.6127 147.777 47.679 147.333 47.679ZM147.512 46.625C147.976 46.625 148.367 46.5339 148.685 46.3516C149.007 46.1693 149.248 45.9339 149.411 45.6456C149.577 45.3572 149.659 45.054 149.659 44.7358V43.6619C149.61 43.7216 149.5 43.7763 149.331 43.826C149.166 43.8724 148.973 43.9138 148.755 43.9503C148.539 43.9834 148.329 44.0133 148.123 44.0398C147.921 44.063 147.757 44.0829 147.631 44.0994C147.326 44.1392 147.041 44.2038 146.776 44.2933C146.514 44.3795 146.302 44.5104 146.14 44.6861C145.98 44.8584 145.901 45.0937 145.901 45.392C145.901 45.7997 146.052 46.108 146.353 46.3168C146.658 46.5223 147.044 46.625 147.512 46.625ZM156.295 39.8636V40.858H152.338V39.8636H156.295ZM153.491 38.0341H154.665V45.3125C154.665 45.6439 154.713 45.8925 154.809 46.0582C154.908 46.2206 155.034 46.33 155.187 46.3864C155.342 46.4394 155.506 46.4659 155.679 46.4659C155.808 46.4659 155.914 46.4593 155.997 46.446C156.08 46.4295 156.146 46.4162 156.196 46.4062L156.434 47.4602C156.355 47.4901 156.244 47.5199 156.101 47.5497C155.959 47.5829 155.778 47.5994 155.559 47.5994C155.228 47.5994 154.903 47.5282 154.585 47.3857C154.27 47.2431 154.008 47.026 153.8 46.7344C153.594 46.4427 153.491 46.0748 153.491 45.6307V38.0341ZM161.18 47.6591C160.444 47.6591 159.809 47.4967 159.276 47.1719C158.745 46.8438 158.336 46.3864 158.048 45.7997C157.763 45.2098 157.62 44.5237 157.62 43.7415C157.62 42.9593 157.763 42.2699 158.048 41.6733C158.336 41.0734 158.737 40.6061 159.251 40.2713C159.768 39.9332 160.371 39.7642 161.061 39.7642C161.458 39.7642 161.851 39.8305 162.239 39.9631C162.627 40.0956 162.98 40.3111 163.298 40.6094C163.616 40.9044 163.869 41.2955 164.058 41.7827C164.247 42.2699 164.342 42.8698 164.342 43.5824V44.0795H158.455V43.0653H163.149C163.149 42.6345 163.062 42.25 162.89 41.9119C162.721 41.5739 162.479 41.3071 162.164 41.1115C161.853 40.916 161.485 40.8182 161.061 40.8182C160.593 40.8182 160.189 40.9342 159.847 41.1662C159.509 41.3949 159.249 41.6932 159.067 42.0611C158.885 42.429 158.794 42.8234 158.794 43.2443V43.9205C158.794 44.4972 158.893 44.986 159.092 45.3871C159.294 45.7848 159.574 46.0881 159.932 46.2969C160.29 46.5024 160.706 46.6051 161.18 46.6051C161.488 46.6051 161.767 46.562 162.015 46.4759C162.267 46.3864 162.484 46.2538 162.666 46.0781C162.849 45.8991 162.99 45.6771 163.089 45.4119L164.222 45.7301C164.103 46.1146 163.903 46.4527 163.621 46.7443C163.339 47.0327 162.991 47.258 162.577 47.4205C162.163 47.5795 161.697 47.6591 161.18 47.6591Z" fill="#3D3D3D"/>
<path d="M55.5 88.3334H40.5M51.3333 81.6667V85.0001M44.6667 81.6667V85.0001M44.5 98.3334H51.5C52.9002 98.3334 53.6002 98.3334 54.135 98.0609C54.6054 97.8212 54.9878 97.4388 55.2275 96.9684C55.5 96.4336 55.5 95.7336 55.5 94.3334V87.3334C55.5 85.9333 55.5 85.2332 55.2275 84.6984C54.9878 84.228 54.6054 83.8456 54.135 83.6059C53.6002 83.3334 52.9002 83.3334 51.5 83.3334H44.5C43.0999 83.3334 42.3998 83.3334 41.865 83.6059C41.3946 83.8456 41.0122 84.228 40.7725 84.6984C40.5 85.2332 40.5 85.9333 40.5 87.3334V94.3334C40.5 95.7336 40.5 96.4336 40.7725 96.9684C41.0122 97.4388 41.3946 97.8212 41.865 98.0609C42.3998 98.3334 43.0999 98.3334 44.5 98.3334Z" stroke="#3D3D3D" stroke-width="2" stroke-linecap="round" stroke-linejoin="round"/>
<path d="M67.233 95.5V85.3182H68.4659V94.4062H73.1989V95.5H67.233ZM77.196 95.679C76.7121 95.679 76.273 95.5878 75.8786 95.4055C75.4841 95.2199 75.1709 94.9531 74.9389 94.6051C74.7069 94.2538 74.5909 93.8295 74.5909 93.3324C74.5909 92.8949 74.6771 92.5402 74.8494 92.2685C75.0218 91.9934 75.2521 91.7779 75.5405 91.6222C75.8288 91.4664 76.147 91.3504 76.495 91.2741C76.8464 91.1946 77.1993 91.1316 77.554 91.0852C78.018 91.0256 78.3942 90.9808 78.6825 90.951C78.9742 90.9179 79.1863 90.8632 79.3189 90.7869C79.4548 90.7107 79.5227 90.5781 79.5227 90.3892V90.3494C79.5227 89.8589 79.3885 89.4777 79.12 89.206C78.8549 88.9342 78.4522 88.7983 77.9119 88.7983C77.3518 88.7983 76.9126 88.9209 76.5945 89.1662C76.2763 89.4115 76.0526 89.6733 75.9233 89.9517L74.8097 89.554C75.0085 89.09 75.2737 88.7287 75.6051 88.4702C75.9399 88.2083 76.3045 88.026 76.6989 87.9233C77.0966 87.8172 77.4877 87.7642 77.8722 87.7642C78.1174 87.7642 78.3991 87.794 78.7173 87.8537C79.0388 87.91 79.3487 88.0277 79.647 88.2067C79.9486 88.3857 80.1989 88.6558 80.3977 89.017C80.5966 89.3783 80.696 89.8622 80.696 90.4688V95.5H79.5227V94.4659H79.4631C79.3835 94.6316 79.2509 94.8089 79.0653 94.9979C78.8797 95.1868 78.6328 95.3475 78.3246 95.4801C78.0163 95.6127 77.6402 95.679 77.196 95.679ZM77.375 94.625C77.839 94.625 78.2301 94.5339 78.5483 94.3516C78.8698 94.1693 79.1117 93.9339 79.2741 93.6456C79.4399 93.3572 79.5227 93.054 79.5227 92.7358V91.6619C79.473 91.7216 79.3636 91.7763 79.1946 91.826C79.0289 91.8724 78.8366 91.9138 78.6179 91.9503C78.4025 91.9834 78.192 92.0133 77.9865 92.0398C77.7843 92.063 77.6203 92.0829 77.4943 92.0994C77.1894 92.1392 76.9044 92.2038 76.6392 92.2933C76.3774 92.3795 76.1652 92.5104 76.0028 92.6861C75.8438 92.8584 75.7642 93.0937 75.7642 93.392C75.7642 93.7997 75.915 94.108 76.2166 94.3168C76.5215 94.5223 76.9077 94.625 77.375 94.625ZM88.2466 89.5739L87.1926 89.8722C87.1264 89.6965 87.0286 89.5258 86.8993 89.3601C86.7734 89.1911 86.601 89.0518 86.3823 88.9425C86.1635 88.8331 85.8835 88.7784 85.5421 88.7784C85.0748 88.7784 84.6853 88.8861 84.3738 89.1016C84.0655 89.3137 83.9114 89.5838 83.9114 89.9119C83.9114 90.2036 84.0175 90.4339 84.2296 90.603C84.4417 90.772 84.7731 90.9129 85.2239 91.0256L86.3574 91.304C87.0402 91.4697 87.5489 91.7232 87.8837 92.0646C88.2185 92.4027 88.3858 92.8385 88.3858 93.3722C88.3858 93.8097 88.2599 94.2008 88.008 94.5455C87.7594 94.8902 87.4114 95.1619 86.964 95.3608C86.5165 95.5597 85.9962 95.6591 85.4029 95.6591C84.624 95.6591 83.9793 95.4901 83.4689 95.152C82.9585 94.8139 82.6354 94.3201 82.4995 93.6705L83.6131 93.392C83.7192 93.803 83.9197 94.1113 84.2147 94.3168C84.513 94.5223 84.9024 94.625 85.383 94.625C85.9299 94.625 86.3641 94.509 86.6855 94.277C87.0104 94.0417 87.1728 93.7599 87.1728 93.4318C87.1728 93.1667 87.08 92.9446 86.8944 92.7656C86.7087 92.5833 86.4237 92.4474 86.0392 92.358L84.7665 92.0597C84.0672 91.8939 83.5534 91.6371 83.2253 91.2891C82.9005 90.9377 82.7381 90.4986 82.7381 89.9716C82.7381 89.5407 82.8591 89.1596 83.101 88.8281C83.3463 88.4967 83.6794 88.2365 84.1003 88.0476C84.5246 87.8587 85.0051 87.7642 85.5421 87.7642C86.2978 87.7642 86.891 87.9299 87.3219 88.2614C87.7561 88.5928 88.0643 89.0303 88.2466 89.5739ZM93.473 87.8636V88.858H89.5156V87.8636H93.473ZM90.669 86.0341H91.8423V93.3125C91.8423 93.6439 91.8904 93.8925 91.9865 94.0582C92.0859 94.2206 92.2119 94.33 92.3643 94.3864C92.5201 94.4394 92.6842 94.4659 92.8565 94.4659C92.9858 94.4659 93.0919 94.4593 93.1747 94.446C93.2576 94.4295 93.3239 94.4162 93.3736 94.4062L93.6122 95.4602C93.5327 95.4901 93.4216 95.5199 93.2791 95.5497C93.1366 95.5829 92.956 95.5994 92.7372 95.5994C92.4058 95.5994 92.081 95.5282 91.7628 95.3857C91.4479 95.2431 91.1861 95.026 90.9773 94.7344C90.7718 94.4427 90.669 94.0748 90.669 93.6307V86.0341ZM99.3345 85.3182H100.806L104.266 93.7699H104.386L107.846 85.3182H109.317V95.5H108.164V87.7642H108.065L104.883 95.5H103.769L100.587 87.7642H100.488V95.5H99.3345V85.3182ZM114.733 95.6591C114.043 95.6591 113.439 95.495 112.918 95.1669C112.401 94.8388 111.997 94.3797 111.705 93.7898C111.417 93.1998 111.273 92.5104 111.273 91.7216C111.273 90.9261 111.417 90.2318 111.705 89.6385C111.997 89.0452 112.401 88.5845 112.918 88.2564C113.439 87.9283 114.043 87.7642 114.733 87.7642C115.422 87.7642 116.025 87.9283 116.542 88.2564C117.063 88.5845 117.467 89.0452 117.756 89.6385C118.047 90.2318 118.193 90.9261 118.193 91.7216C118.193 92.5104 118.047 93.1998 117.756 93.7898C117.467 94.3797 117.063 94.8388 116.542 95.1669C116.025 95.495 115.422 95.6591 114.733 95.6591ZM114.733 94.6051C115.256 94.6051 115.687 94.4709 116.025 94.2024C116.363 93.9339 116.614 93.581 116.776 93.1435C116.939 92.706 117.02 92.232 117.02 91.7216C117.02 91.2112 116.939 90.7356 116.776 90.2947C116.614 89.8539 116.363 89.4976 116.025 89.2259C115.687 88.9541 115.256 88.8182 114.733 88.8182C114.209 88.8182 113.778 88.9541 113.44 89.2259C113.102 89.4976 112.852 89.8539 112.689 90.2947C112.527 90.7356 112.446 91.2112 112.446 91.7216C112.446 92.232 112.527 92.706 112.689 93.1435C112.852 93.581 113.102 93.9339 113.44 94.2024C113.778 94.4709 114.209 94.6051 114.733 94.6051ZM122.868 95.6591C122.231 95.6591 121.669 95.4983 121.182 95.1768C120.695 94.852 120.314 94.3946 120.039 93.8047C119.764 93.2114 119.626 92.5104 119.626 91.7017C119.626 90.8996 119.764 90.2036 120.039 89.6136C120.314 89.0237 120.697 88.5679 121.187 88.2464C121.678 87.925 122.244 87.7642 122.887 87.7642C123.385 87.7642 123.777 87.8471 124.066 88.0128C124.357 88.1752 124.579 88.3608 124.732 88.5696C124.888 88.7751 125.009 88.9441 125.095 89.0767H125.194V85.3182H126.368V95.5H125.234V94.3267H125.095C125.009 94.4659 124.886 94.6416 124.727 94.8537C124.568 95.0625 124.341 95.2498 124.046 95.4155C123.751 95.5779 123.358 95.6591 122.868 95.6591ZM123.027 94.6051C123.497 94.6051 123.895 94.4825 124.22 94.2372C124.545 93.9886 124.792 93.6456 124.961 93.2081C125.13 92.7673 125.214 92.2585 125.214 91.6818C125.214 91.1117 125.131 90.6129 124.966 90.1854C124.8 89.7545 124.555 89.4197 124.23 89.1811C123.905 88.9392 123.504 88.8182 123.027 88.8182C122.529 88.8182 122.115 88.9458 121.784 89.201C121.456 89.4529 121.209 89.7959 121.043 90.2301C120.881 90.661 120.799 91.1449 120.799 91.6818C120.799 92.2254 120.882 92.7192 121.048 93.1634C121.217 93.6042 121.466 93.9555 121.794 94.2173C122.125 94.4759 122.536 94.6051 123.027 94.6051ZM128.679 95.5V87.8636H129.853V95.5H128.679ZM129.276 86.5909C129.047 86.5909 128.85 86.513 128.684 86.3572C128.522 86.2015 128.441 86.0142 128.441 85.7955C128.441 85.5767 128.522 85.3894 128.684 85.2337C128.85 85.0779 129.047 85 129.276 85C129.505 85 129.7 85.0779 129.863 85.2337C130.028 85.3894 130.111 85.5767 130.111 85.7955C130.111 86.0142 130.028 86.2015 129.863 86.3572C129.7 86.513 129.505 86.5909 129.276 86.5909ZM135.402 87.8636V88.858H131.286V87.8636H135.402ZM132.519 95.5V86.8097C132.519 86.3722 132.621 86.0076 132.827 85.7159C133.032 85.4242 133.299 85.2055 133.627 85.0597C133.955 84.9138 134.302 84.8409 134.666 84.8409C134.955 84.8409 135.19 84.8641 135.372 84.9105C135.555 84.9569 135.691 85 135.78 85.0398L135.442 86.054C135.382 86.0341 135.299 86.0092 135.193 85.9794C135.091 85.9496 134.955 85.9347 134.786 85.9347C134.398 85.9347 134.118 86.0324 133.945 86.228C133.776 86.4235 133.692 86.7102 133.692 87.0881V95.5H132.519ZM137.047 95.5V87.8636H138.22V95.5H137.047ZM137.643 86.5909C137.414 86.5909 137.217 86.513 137.051 86.3572C136.889 86.2015 136.808 86.0142 136.808 85.7955C136.808 85.5767 136.889 85.3894 137.051 85.2337C137.217 85.0779 137.414 85 137.643 85C137.872 85 138.067 85.0779 138.23 85.2337C138.395 85.3894 138.478 85.5767 138.478 85.7955C138.478 86.0142 138.395 86.2015 138.23 86.3572C138.067 86.513 137.872 86.5909 137.643 86.5909ZM143.57 95.6591C142.835 95.6591 142.2 95.4967 141.666 95.1719C141.136 94.8438 140.727 94.3864 140.438 93.7997C140.153 93.2098 140.011 92.5237 140.011 91.7415C140.011 90.9593 140.153 90.2699 140.438 89.6733C140.727 89.0734 141.128 88.6061 141.642 88.2713C142.159 87.9332 142.762 87.7642 143.451 87.7642C143.849 87.7642 144.242 87.8305 144.629 87.9631C145.017 88.0956 145.37 88.3111 145.688 88.6094C146.007 88.9044 146.26 89.2955 146.449 89.7827C146.638 90.2699 146.732 90.8698 146.732 91.5824V92.0795H140.846V91.0653H145.539C145.539 90.6345 145.453 90.25 145.281 89.9119C145.112 89.5739 144.87 89.3071 144.555 89.1115C144.243 88.916 143.875 88.8182 143.451 88.8182C142.984 88.8182 142.579 88.9342 142.238 89.1662C141.9 89.3949 141.64 89.6932 141.458 90.0611C141.275 90.429 141.184 90.8234 141.184 91.2443V91.9205C141.184 92.4972 141.284 92.986 141.482 93.3871C141.685 93.7848 141.965 94.0881 142.323 94.2969C142.681 94.5024 143.097 94.6051 143.57 94.6051C143.879 94.6051 144.157 94.562 144.406 94.4759C144.658 94.3864 144.875 94.2538 145.057 94.0781C145.239 93.8991 145.38 93.6771 145.48 93.4119L146.613 93.7301C146.494 94.1146 146.293 94.4527 146.012 94.7443C145.73 95.0327 145.382 95.258 144.968 95.4205C144.553 95.5795 144.088 95.6591 143.57 95.6591ZM151.401 95.6591C150.764 95.6591 150.203 95.4983 149.715 95.1768C149.228 94.852 148.847 94.3946 148.572 93.8047C148.297 93.2114 148.159 92.5104 148.159 91.7017C148.159 90.8996 148.297 90.2036 148.572 89.6136C148.847 89.0237 149.23 88.5679 149.72 88.2464C150.211 87.925 150.778 87.7642 151.421 87.7642C151.918 87.7642 152.311 87.8471 152.599 88.0128C152.891 88.1752 153.113 88.3608 153.265 88.5696C153.421 88.7751 153.542 88.9441 153.628 89.0767H153.727V85.3182H154.901V95.5H153.767V94.3267H153.628C153.542 94.4659 153.419 94.6416 153.26 94.8537C153.101 95.0625 152.874 95.2498 152.579 95.4155C152.284 95.5779 151.891 95.6591 151.401 95.6591ZM151.56 94.6051C152.03 94.6051 152.428 94.4825 152.753 94.2372C153.078 93.9886 153.325 93.6456 153.494 93.2081C153.663 92.7673 153.747 92.2585 153.747 91.6818C153.747 91.1117 153.664 90.6129 153.499 90.1854C153.333 89.7545 153.088 89.4197 152.763 89.1811C152.438 88.9392 152.037 88.8182 151.56 88.8182C151.063 88.8182 150.648 88.9458 150.317 89.201C149.989 89.4529 149.742 89.7959 149.576 90.2301C149.414 90.661 149.333 91.1449 149.333 91.6818C149.333 92.2254 149.415 92.7192 149.581 93.1634C149.75 93.6042 149.999 93.9555 150.327 94.2173C150.658 94.4759 151.069 94.6051 151.56 94.6051ZM164.451 95.5H161.309V85.3182H164.59C165.578 85.3182 166.423 85.522 167.126 85.9297C167.829 86.334 168.367 86.9157 168.742 87.6747C169.116 88.4304 169.303 89.3352 169.303 90.3892C169.303 91.4498 169.115 92.3629 168.737 93.1286C168.359 93.8909 167.809 94.4775 167.086 94.8885C166.364 95.2962 165.485 95.5 164.451 95.5ZM162.542 94.4062H164.372C165.213 94.4062 165.911 94.2438 166.465 93.919C167.018 93.5942 167.431 93.1319 167.703 92.532C167.974 91.9321 168.11 91.2178 168.11 90.3892C168.11 89.5672 167.976 88.8596 167.708 88.2663C167.439 87.6697 167.038 87.2124 166.504 86.8942C165.971 86.5727 165.306 86.4119 164.511 86.4119H162.542V94.4062ZM173.46 95.679C172.976 95.679 172.537 95.5878 172.142 95.4055C171.748 95.2199 171.435 94.9531 171.203 94.6051C170.971 94.2538 170.855 93.8295 170.855 93.3324C170.855 92.8949 170.941 92.5402 171.113 92.2685C171.285 91.9934 171.516 91.7779 171.804 91.6222C172.093 91.4664 172.411 91.3504 172.759 91.2741C173.11 91.1946 173.463 91.1316 173.818 91.0852C174.282 91.0256 174.658 90.9808 174.946 90.951C175.238 90.9179 175.45 90.8632 175.583 90.7869C175.718 90.7107 175.786 90.5781 175.786 90.3892V90.3494C175.786 89.8589 175.652 89.4777 175.384 89.206C175.119 88.9342 174.716 88.7983 174.176 88.7983C173.615 88.7983 173.176 88.9209 172.858 89.1662C172.54 89.4115 172.316 89.6733 172.187 89.9517L171.073 89.554C171.272 89.09 171.537 88.7287 171.869 88.4702C172.204 88.2083 172.568 88.026 172.963 87.9233C173.36 87.8172 173.751 87.7642 174.136 87.7642C174.381 87.7642 174.663 87.794 174.981 87.8537C175.302 87.91 175.612 88.0277 175.911 88.2067C176.212 88.3857 176.463 88.6558 176.661 89.017C176.86 89.3783 176.96 89.8622 176.96 90.4688V95.5H175.786V94.4659H175.727C175.647 94.6316 175.515 94.8089 175.329 94.9979C175.143 95.1868 174.896 95.3475 174.588 95.4801C174.28 95.6127 173.904 95.679 173.46 95.679ZM173.639 94.625C174.103 94.625 174.494 94.5339 174.812 94.3516C175.133 94.1693 175.375 93.9339 175.538 93.6456C175.704 93.3572 175.786 93.054 175.786 92.7358V91.6619C175.737 91.7216 175.627 91.7763 175.458 91.826C175.293 91.8724 175.1 91.9138 174.882 91.9503C174.666 91.9834 174.456 92.0133 174.25 92.0398C174.048 92.063 173.884 92.0829 173.758 92.0994C173.453 92.1392 173.168 92.2038 172.903 92.2933C172.641 92.3795 172.429 92.5104 172.267 92.6861C172.107 92.8584 172.028 93.0937 172.028 93.392C172.028 93.7997 172.179 94.108 172.48 94.3168C172.785 94.5223 173.171 94.625 173.639 94.625ZM182.422 87.8636V88.858H178.465V87.8636H182.422ZM179.618 86.0341H180.792V93.3125C180.792 93.6439 180.84 93.8925 180.936 94.0582C181.035 94.2206 181.161 94.33 181.314 94.3864C181.469 94.4394 181.633 94.4659 181.806 94.4659C181.935 94.4659 182.041 94.4593 182.124 94.446C182.207 94.4295 182.273 94.4162 182.323 94.4062L182.561 95.4602C182.482 95.4901 182.371 95.5199 182.228 95.5497C182.086 95.5829 181.905 95.5994 181.686 95.5994C181.355 95.5994 181.03 95.5282 180.712 95.3857C180.397 95.2431 180.135 95.026 179.926 94.7344C179.721 94.4427 179.618 94.0748 179.618 93.6307V86.0341ZM187.307 95.6591C186.571 95.6591 185.936 95.4967 185.403 95.1719C184.872 94.8438 184.463 94.3864 184.175 93.7997C183.89 93.2098 183.747 92.5237 183.747 91.7415C183.747 90.9593 183.89 90.2699 184.175 89.6733C184.463 89.0734 184.864 88.6061 185.378 88.2713C185.895 87.9332 186.498 87.7642 187.188 87.7642C187.585 87.7642 187.978 87.8305 188.366 87.9631C188.754 88.0956 189.107 88.3111 189.425 88.6094C189.743 88.9044 189.996 89.2955 190.185 89.7827C190.374 90.2699 190.469 90.8698 190.469 91.5824V92.0795H184.582V91.0653H189.276C189.276 90.6345 189.189 90.25 189.017 89.9119C188.848 89.5739 188.606 89.3071 188.291 89.1115C187.98 88.916 187.612 88.8182 187.188 88.8182C186.72 88.8182 186.316 88.9342 185.974 89.1662C185.636 89.3949 185.376 89.6932 185.194 90.0611C185.012 90.429 184.92 90.8234 184.92 91.2443V91.9205C184.92 92.4972 185.02 92.986 185.219 93.3871C185.421 93.7848 185.701 94.0881 186.059 94.2969C186.417 94.5024 186.833 94.6051 187.307 94.6051C187.615 94.6051 187.893 94.562 188.142 94.4759C188.394 94.3864 188.611 94.2538 188.793 94.0781C188.976 93.8991 189.116 93.6771 189.216 93.4119L190.349 93.7301C190.23 94.1146 190.03 94.4527 189.748 94.7443C189.466 95.0327 189.118 95.258 188.704 95.4205C188.29 95.5795 187.824 95.6591 187.307 95.6591Z" fill="#3D3D3D"/>
<g clip-path="url(#clip0_7527_8211)">
<path d="M44.6667 134.667H44.6751M39.6667 132.333V136.062C39.6667 136.47 39.6667 136.674 39.7128 136.865C39.7536 137.035 39.821 137.198 39.9123 137.347C40.0154 137.515 40.1595 137.66 40.4478 137.948L46.8383 144.338C47.8283 145.328 48.3234 145.823 48.8942 146.009C49.3963 146.172 49.9372 146.172 50.4392 146.009C51.0101 145.823 51.5052 145.328 52.4952 144.338L54.3383 142.495C55.3283 141.505 55.8234 141.01 56.0088 140.439C56.172 139.937 56.172 139.396 56.0088 138.894C55.8234 138.323 55.3283 137.828 54.3383 136.838L47.9478 130.448C47.6596 130.16 47.5154 130.015 47.3472 129.912C47.1981 129.821 47.0355 129.754 46.8655 129.713C46.6737 129.667 46.4698 129.667 46.0622 129.667H42.3334C41.4 129.667 40.9333 129.667 40.5768 129.848C40.2632 130.008 40.0082 130.263 39.8484 130.577C39.6667 130.933 39.6667 131.4 39.6667 132.333ZM45.0834 134.667C45.0834 134.897 44.8969 135.083 44.6667 135.083C44.4366 135.083 44.2501 134.897 44.2501 134.667C44.2501 134.437 44.4366 134.25 44.6667 134.25C44.8969 134.25 45.0834 134.437 45.0834 134.667Z" stroke="#3D3D3D" stroke-width="2" stroke-linecap="round" stroke-linejoin="round"/>
</g>
<path d="M66.6761 134.412V133.318H74.3125V134.412H71.1108V143.5H69.8778V134.412H66.6761ZM77.2644 143.679C76.7805 143.679 76.3413 143.588 75.9469 143.406C75.5525 143.22 75.2393 142.953 75.0073 142.605C74.7753 142.254 74.6593 141.83 74.6593 141.332C74.6593 140.895 74.7454 140.54 74.9178 140.268C75.0901 139.993 75.3205 139.778 75.6088 139.622C75.8972 139.466 76.2154 139.35 76.5634 139.274C76.9147 139.195 77.2677 139.132 77.6223 139.085C78.0864 139.026 78.4625 138.981 78.7509 138.951C79.0426 138.918 79.2547 138.863 79.3873 138.787C79.5231 138.711 79.5911 138.578 79.5911 138.389V138.349C79.5911 137.859 79.4569 137.478 79.1884 137.206C78.9232 136.934 78.5205 136.798 77.9803 136.798C77.4202 136.798 76.981 136.921 76.6628 137.166C76.3446 137.411 76.1209 137.673 75.9917 137.952L74.878 137.554C75.0769 137.09 75.342 136.729 75.6735 136.47C76.0082 136.208 76.3728 136.026 76.7672 135.923C77.165 135.817 77.556 135.764 77.9405 135.764C78.1858 135.764 78.4675 135.794 78.7857 135.854C79.1072 135.91 79.4171 136.028 79.7154 136.207C80.017 136.386 80.2672 136.656 80.4661 137.017C80.665 137.378 80.7644 137.862 80.7644 138.469V143.5H79.5911V142.466H79.5314C79.4519 142.632 79.3193 142.809 79.1337 142.998C78.9481 143.187 78.7012 143.348 78.3929 143.48C78.0847 143.613 77.7085 143.679 77.2644 143.679ZM77.4434 142.625C77.9074 142.625 78.2985 142.534 78.6167 142.352C78.9382 142.169 79.1801 141.934 79.3425 141.646C79.5082 141.357 79.5911 141.054 79.5911 140.736V139.662C79.5414 139.722 79.432 139.776 79.263 139.826C79.0972 139.872 78.905 139.914 78.6863 139.95C78.4708 139.983 78.2604 140.013 78.0549 140.04C77.8527 140.063 77.6886 140.083 77.5627 140.099C77.2578 140.139 76.9727 140.204 76.7076 140.293C76.4457 140.379 76.2336 140.51 76.0712 140.686C75.9121 140.858 75.8326 141.094 75.8326 141.392C75.8326 141.8 75.9834 142.108 76.285 142.317C76.5899 142.522 76.976 142.625 77.4434 142.625ZM85.9883 146.523C85.4215 146.523 84.9343 146.45 84.5266 146.304C84.119 146.161 83.7792 145.973 83.5075 145.737C83.239 145.505 83.0252 145.257 82.8661 144.991L83.8008 144.335C83.9068 144.474 84.0411 144.634 84.2035 144.812C84.3659 144.995 84.5879 145.152 84.8697 145.285C85.1547 145.421 85.5276 145.489 85.9883 145.489C86.6048 145.489 87.1135 145.339 87.5146 145.041C87.9156 144.743 88.1161 144.276 88.1161 143.639V142.088H88.0167C87.9305 142.227 87.8079 142.4 87.6488 142.605C87.493 142.807 87.2676 142.988 86.9727 143.147C86.681 143.303 86.2866 143.381 85.7894 143.381C85.1729 143.381 84.6194 143.235 84.1289 142.943C83.6417 142.652 83.2556 142.227 82.9705 141.67C82.6888 141.114 82.5479 140.437 82.5479 139.642C82.5479 138.86 82.6855 138.179 82.9606 137.599C83.2357 137.015 83.6185 136.565 84.109 136.246C84.5996 135.925 85.1663 135.764 85.8093 135.764C86.3065 135.764 86.7009 135.847 86.9925 136.013C87.2875 136.175 87.5129 136.361 87.6687 136.57C87.8278 136.775 87.9504 136.944 88.0366 137.077H88.1559V135.864H89.2894V143.719C89.2894 144.375 89.1403 144.909 88.842 145.32C88.547 145.734 88.1493 146.037 87.6488 146.229C87.1516 146.425 86.5981 146.523 85.9883 146.523ZM85.9485 142.327C86.4192 142.327 86.8169 142.219 87.1417 142.004C87.4665 141.788 87.7134 141.478 87.8825 141.074C88.0515 140.67 88.136 140.186 88.136 139.622C88.136 139.072 88.0531 138.586 87.8874 138.165C87.7217 137.745 87.4764 137.415 87.1516 137.176C86.8268 136.937 86.4258 136.818 85.9485 136.818C85.4513 136.818 85.0371 136.944 84.7056 137.196C84.3775 137.448 84.1306 137.786 83.9648 138.21C83.8024 138.634 83.7212 139.105 83.7212 139.622C83.7212 140.152 83.8041 140.621 83.9698 141.029C84.1388 141.433 84.3874 141.752 84.7156 141.984C85.047 142.212 85.458 142.327 85.9485 142.327ZM96.8462 137.574L95.7923 137.872C95.726 137.696 95.6282 137.526 95.4989 137.36C95.373 137.191 95.2006 137.052 94.9819 136.942C94.7631 136.833 94.4831 136.778 94.1417 136.778C93.6744 136.778 93.2849 136.886 92.9734 137.102C92.6651 137.314 92.511 137.584 92.511 137.912C92.511 138.204 92.6171 138.434 92.8292 138.603C93.0413 138.772 93.3728 138.913 93.8235 139.026L94.957 139.304C95.6398 139.47 96.1486 139.723 96.4833 140.065C96.8181 140.403 96.9854 140.839 96.9854 141.372C96.9854 141.81 96.8595 142.201 96.6076 142.545C96.359 142.89 96.011 143.162 95.5636 143.361C95.1161 143.56 94.5958 143.659 94.0025 143.659C93.2236 143.659 92.579 143.49 92.0685 143.152C91.5581 142.814 91.235 142.32 91.0991 141.67L92.2127 141.392C92.3188 141.803 92.5193 142.111 92.8143 142.317C93.1126 142.522 93.502 142.625 93.9826 142.625C94.5295 142.625 94.9637 142.509 95.2852 142.277C95.61 142.042 95.7724 141.76 95.7724 141.432C95.7724 141.167 95.6796 140.945 95.494 140.766C95.3084 140.583 95.0233 140.447 94.6388 140.358L93.3661 140.06C92.6668 139.894 92.1531 139.637 91.8249 139.289C91.5001 138.938 91.3377 138.499 91.3377 137.972C91.3377 137.541 91.4587 137.16 91.7006 136.828C91.9459 136.497 92.279 136.237 92.6999 136.048C93.1242 135.859 93.6048 135.764 94.1417 135.764C94.8974 135.764 95.4906 135.93 95.9215 136.261C96.3557 136.593 96.6639 137.03 96.8462 137.574Z" fill="#3D3D3D"/>
<path d="M49.6666 177.891V181.333C49.6666 181.8 49.6666 182.033 49.7574 182.212C49.8373 182.369 49.9648 182.496 50.1216 182.576C50.2998 182.667 50.5332 182.667 50.9999 182.667H54.442M54.6666 184.324V190.333C54.6666 191.734 54.6666 192.434 54.3941 192.968C54.1544 193.439 53.772 193.821 53.3016 194.061C52.7668 194.333 52.0668 194.333 50.6666 194.333H45.3333C43.9331 194.333 43.2331 194.333 42.6983 194.061C42.2279 193.821 41.8454 193.439 41.6057 192.968C41.3333 192.434 41.3333 191.734 41.3333 190.333V181.667C41.3333 180.267 41.3333 179.567 41.6057 179.032C41.8454 178.561 42.2279 178.179 42.6983 177.939C43.2331 177.667 43.9331 177.667 45.3333 177.667H48.0098C48.6212 177.667 48.9269 177.667 49.2147 177.736C49.4698 177.797 49.7136 177.898 49.9373 178.035C50.1896 178.19 50.4058 178.406 50.8382 178.838L53.495 181.495C53.9274 181.928 54.1436 182.144 54.2982 182.396C54.4353 182.62 54.5363 182.864 54.5975 183.119C54.6666 183.406 54.6666 183.712 54.6666 184.324Z" stroke="#3D3D3D" stroke-width="2" stroke-linecap="round" stroke-linejoin="round"/>
<path d="M67.233 191.5V181.318H73.3381V182.412H68.4659V185.852H72.8807V186.946H68.4659V191.5H67.233ZM75.2907 191.5V183.864H76.464V191.5H75.2907ZM75.8873 182.591C75.6586 182.591 75.4614 182.513 75.2956 182.357C75.1332 182.201 75.052 182.014 75.052 181.795C75.052 181.577 75.1332 181.389 75.2956 181.234C75.4614 181.078 75.6586 181 75.8873 181C76.1159 181 76.3115 181.078 76.4739 181.234C76.6396 181.389 76.7225 181.577 76.7225 181.795C76.7225 182.014 76.6396 182.201 76.4739 182.357C76.3115 182.513 76.1159 182.591 75.8873 182.591ZM79.7862 181.318V191.5H78.6129V181.318H79.7862ZM85.1369 191.659C84.4011 191.659 83.7664 191.497 83.2328 191.172C82.7025 190.844 82.2931 190.386 82.0048 189.8C81.7198 189.21 81.5772 188.524 81.5772 187.741C81.5772 186.959 81.7198 186.27 82.0048 185.673C82.2931 185.073 82.6942 184.606 83.2079 184.271C83.725 183.933 84.3282 183.764 85.0176 183.764C85.4153 183.764 85.8081 183.83 86.1958 183.963C86.5836 184.096 86.9366 184.311 87.2548 184.609C87.573 184.904 87.8265 185.295 88.0154 185.783C88.2044 186.27 88.2988 186.87 88.2988 187.582V188.08H82.4125V187.065H87.1056C87.1056 186.634 87.0195 186.25 86.8471 185.912C86.6781 185.574 86.4361 185.307 86.1213 185.112C85.8097 184.916 85.4418 184.818 85.0176 184.818C84.5502 184.818 84.1459 184.934 83.8045 185.166C83.4664 185.395 83.2063 185.693 83.024 186.061C82.8417 186.429 82.7505 186.823 82.7505 187.244V187.92C82.7505 188.497 82.85 188.986 83.0488 189.387C83.251 189.785 83.5311 190.088 83.889 190.297C84.247 190.502 84.6629 190.605 85.1369 190.605C85.4451 190.605 85.7235 190.562 85.9721 190.476C86.224 190.386 86.4411 190.254 86.6234 190.078C86.8057 189.899 86.9466 189.677 87.046 189.412L88.1795 189.73C88.0602 190.115 87.8597 190.453 87.5779 190.744C87.2962 191.033 86.9482 191.258 86.5339 191.42C86.1196 191.58 85.6539 191.659 85.1369 191.659ZM93.6234 182.412V181.318H101.26V182.412H98.0581V191.5H96.8251V182.412H93.6234ZM102.884 194.364C102.685 194.364 102.508 194.347 102.352 194.314C102.196 194.284 102.089 194.254 102.029 194.224L102.327 193.19C102.612 193.263 102.864 193.29 103.083 193.27C103.302 193.25 103.496 193.152 103.665 192.977C103.837 192.804 103.995 192.524 104.137 192.136L104.356 191.54L101.532 183.864H102.805L104.913 189.949H104.992L107.1 183.864H108.373L105.131 192.614C104.986 193.008 104.805 193.335 104.589 193.593C104.374 193.855 104.124 194.049 103.839 194.175C103.557 194.301 103.239 194.364 102.884 194.364ZM109.922 194.364V183.864H111.055V185.077H111.194C111.28 184.944 111.4 184.775 111.552 184.57C111.708 184.361 111.93 184.175 112.218 184.013C112.51 183.847 112.904 183.764 113.402 183.764C114.045 183.764 114.611 183.925 115.102 184.246C115.592 184.568 115.975 185.024 116.25 185.614C116.525 186.204 116.663 186.9 116.663 187.702C116.663 188.51 116.525 189.211 116.25 189.805C115.975 190.395 115.594 190.852 115.107 191.177C114.62 191.498 114.058 191.659 113.422 191.659C112.931 191.659 112.538 191.578 112.243 191.415C111.948 191.25 111.721 191.062 111.562 190.854C111.403 190.642 111.28 190.466 111.194 190.327H111.095V194.364H109.922ZM111.075 187.682C111.075 188.259 111.159 188.767 111.328 189.208C111.498 189.646 111.744 189.989 112.069 190.237C112.394 190.482 112.792 190.605 113.262 190.605C113.753 190.605 114.162 190.476 114.49 190.217C114.822 189.955 115.07 189.604 115.236 189.163C115.405 188.719 115.49 188.225 115.49 187.682C115.49 187.145 115.407 186.661 115.241 186.23C115.079 185.796 114.832 185.453 114.5 185.201C114.172 184.946 113.76 184.818 113.262 184.818C112.785 184.818 112.384 184.939 112.059 185.181C111.734 185.42 111.489 185.754 111.324 186.185C111.158 186.613 111.075 187.112 111.075 187.682ZM121.654 191.659C120.919 191.659 120.284 191.497 119.75 191.172C119.22 190.844 118.811 190.386 118.522 189.8C118.237 189.21 118.095 188.524 118.095 187.741C118.095 186.959 118.237 186.27 118.522 185.673C118.811 185.073 119.212 184.606 119.725 184.271C120.243 183.933 120.846 183.764 121.535 183.764C121.933 183.764 122.326 183.83 122.713 183.963C123.101 184.096 123.454 184.311 123.772 184.609C124.091 184.904 124.344 185.295 124.533 185.783C124.722 186.27 124.816 186.87 124.816 187.582V188.08H118.93V187.065H123.623C123.623 186.634 123.537 186.25 123.365 185.912C123.196 185.574 122.954 185.307 122.639 185.112C122.327 184.916 121.959 184.818 121.535 184.818C121.068 184.818 120.663 184.934 120.322 185.166C119.984 185.395 119.724 185.693 119.542 186.061C119.359 186.429 119.268 186.823 119.268 187.244V187.92C119.268 188.497 119.368 188.986 119.566 189.387C119.769 189.785 120.049 190.088 120.407 190.297C120.765 190.502 121.181 190.605 121.654 190.605C121.963 190.605 122.241 190.562 122.49 190.476C122.742 190.386 122.959 190.254 123.141 190.078C123.323 189.899 123.464 189.677 123.564 189.412L124.697 189.73C124.578 190.115 124.377 190.453 124.096 190.744C123.814 191.033 123.466 191.258 123.051 191.42C122.637 191.58 122.172 191.659 121.654 191.659Z" fill="#3D3D3D"/>
<path d="M52.1666 232.333V230.667C52.1666 228.365 50.3011 226.5 47.9999 226.5C45.6987 226.5 43.8333 228.365 43.8333 230.667V232.333M47.9999 236.083V237.75M45.3333 241.5H50.6666C52.0668 241.5 52.7668 241.5 53.3016 241.227C53.772 240.988 54.1544 240.605 54.3941 240.135C54.6666 239.6 54.6666 238.9 54.6666 237.5V236.333C54.6666 234.933 54.6666 234.233 54.3941 233.698C54.1544 233.228 53.772 232.845 53.3016 232.606C52.7668 232.333 52.0668 232.333 50.6666 232.333H45.3333C43.9331 232.333 43.2331 232.333 42.6983 232.606C42.2279 232.845 41.8454 233.228 41.6057 233.698C41.3333 234.233 41.3333 234.933 41.3333 236.333V237.5C41.3333 238.9 41.3333 239.6 41.6057 240.135C41.8454 240.605 42.2279 240.988 42.6983 241.227C43.2331 241.5 43.9331 241.5 45.3333 241.5Z" stroke="#3D3D3D" stroke-width="2" stroke-linecap="round" stroke-linejoin="round"/>
<path d="M67.233 239.5V229.318H70.6733C71.4721 229.318 72.125 229.462 72.6321 229.751C73.1425 230.036 73.5204 230.422 73.7656 230.909C74.0109 231.396 74.1335 231.94 74.1335 232.54C74.1335 233.14 74.0109 233.685 73.7656 234.175C73.5237 234.666 73.1491 235.057 72.642 235.349C72.1349 235.637 71.4853 235.781 70.6932 235.781H68.2273V234.688H70.6534C71.2003 234.688 71.6394 234.593 71.9709 234.404C72.3023 234.215 72.5426 233.96 72.6918 233.638C72.8442 233.314 72.9205 232.947 72.9205 232.54C72.9205 232.132 72.8442 231.768 72.6918 231.446C72.5426 231.125 72.3007 230.873 71.9659 230.69C71.6312 230.505 71.187 230.412 70.6335 230.412H68.4659V239.5H67.233ZM79.0803 239.659C78.3445 239.659 77.7098 239.497 77.1761 239.172C76.6458 238.844 76.2365 238.386 75.9482 237.8C75.6631 237.21 75.5206 236.524 75.5206 235.741C75.5206 234.959 75.6631 234.27 75.9482 233.673C76.2365 233.073 76.6375 232.606 77.1513 232.271C77.6683 231.933 78.2715 231.764 78.9609 231.764C79.3587 231.764 79.7514 231.83 80.1392 231.963C80.527 232.096 80.88 232.311 81.1982 232.609C81.5163 232.904 81.7699 233.295 81.9588 233.783C82.1477 234.27 82.2422 234.87 82.2422 235.582V236.08H76.3558V235.065H81.049C81.049 234.634 80.9628 234.25 80.7905 233.912C80.6214 233.574 80.3795 233.307 80.0646 233.112C79.7531 232.916 79.3852 232.818 78.9609 232.818C78.4936 232.818 78.0893 232.934 77.7479 233.166C77.4098 233.395 77.1496 233.693 76.9673 234.061C76.785 234.429 76.6939 234.823 76.6939 235.244V235.92C76.6939 236.497 76.7933 236.986 76.9922 237.387C77.1944 237.785 77.4744 238.088 77.8324 238.297C78.1903 238.502 78.6063 238.605 79.0803 238.605C79.3885 238.605 79.6669 238.562 79.9155 238.476C80.1674 238.386 80.3845 238.254 80.5668 238.078C80.7491 237.899 80.8899 237.677 80.9893 237.412L82.1229 237.73C82.0036 238.115 81.803 238.453 81.5213 238.744C81.2396 239.033 80.8916 239.258 80.4773 239.42C80.063 239.58 79.5973 239.659 79.0803 239.659ZM84.027 239.5V231.864H85.1605V233.017H85.2401C85.3793 232.639 85.6312 232.333 85.9957 232.097C86.3603 231.862 86.7713 231.744 87.2287 231.744C87.3149 231.744 87.4226 231.746 87.5518 231.749C87.6811 231.753 87.7789 231.758 87.8452 231.764V232.957C87.8054 232.947 87.7143 232.933 87.5717 232.913C87.4325 232.889 87.285 232.878 87.1293 232.878C86.758 232.878 86.4266 232.956 86.1349 233.112C85.8466 233.264 85.6179 233.476 85.4489 233.748C85.2831 234.016 85.2003 234.323 85.2003 234.668V239.5H84.027ZM89.236 239.5V231.864H90.3695V233.057H90.4689C90.628 232.649 90.8849 232.333 91.2395 232.107C91.5942 231.879 92.0201 231.764 92.5172 231.764C93.021 231.764 93.4403 231.879 93.775 232.107C94.1131 232.333 94.3766 232.649 94.5655 233.057H94.6451C94.8406 232.662 95.1339 232.349 95.525 232.117C95.9161 231.882 96.3851 231.764 96.932 231.764C97.6148 231.764 98.1732 231.978 98.6074 232.406C99.0416 232.83 99.2587 233.491 99.2587 234.389V239.5H98.0854V234.389C98.0854 233.826 97.9313 233.423 97.623 233.181C97.3148 232.939 96.9519 232.818 96.5343 232.818C95.9973 232.818 95.5814 232.981 95.2864 233.305C94.9914 233.627 94.8439 234.035 94.8439 234.528V239.5H93.6507V234.27C93.6507 233.836 93.5099 233.486 93.2282 233.221C92.9464 232.952 92.5835 232.818 92.1394 232.818C91.8345 232.818 91.5494 232.899 91.2843 233.062C91.0224 233.224 90.8103 233.45 90.6479 233.738C90.4888 234.023 90.4093 234.353 90.4093 234.727V239.5H89.236ZM101.404 239.5V231.864H102.577V239.5H101.404ZM102.001 230.591C101.772 230.591 101.575 230.513 101.409 230.357C101.247 230.201 101.165 230.014 101.165 229.795C101.165 229.577 101.247 229.389 101.409 229.234C101.575 229.078 101.772 229 102.001 229C102.229 229 102.425 229.078 102.587 229.234C102.753 229.389 102.836 229.577 102.836 229.795C102.836 230.014 102.753 230.201 102.587 230.357C102.425 230.513 102.229 230.591 102.001 230.591ZM110.135 233.574L109.081 233.872C109.015 233.696 108.917 233.526 108.788 233.36C108.662 233.191 108.49 233.052 108.271 232.942C108.052 232.833 107.772 232.778 107.431 232.778C106.963 232.778 106.574 232.886 106.262 233.102C105.954 233.314 105.8 233.584 105.8 233.912C105.8 234.204 105.906 234.434 106.118 234.603C106.33 234.772 106.662 234.913 107.113 235.026L108.246 235.304C108.929 235.47 109.438 235.723 109.772 236.065C110.107 236.403 110.275 236.839 110.275 237.372C110.275 237.81 110.149 238.201 109.897 238.545C109.648 238.89 109.3 239.162 108.853 239.361C108.405 239.56 107.885 239.659 107.292 239.659C106.513 239.659 105.868 239.49 105.358 239.152C104.847 238.814 104.524 238.32 104.388 237.67L105.502 237.392C105.608 237.803 105.808 238.111 106.103 238.317C106.402 238.522 106.791 238.625 107.272 238.625C107.819 238.625 108.253 238.509 108.574 238.277C108.899 238.042 109.061 237.76 109.061 237.432C109.061 237.167 108.969 236.945 108.783 236.766C108.597 236.583 108.312 236.447 107.928 236.358L106.655 236.06C105.956 235.894 105.442 235.637 105.114 235.289C104.789 234.938 104.627 234.499 104.627 233.972C104.627 233.541 104.748 233.16 104.99 232.828C105.235 232.497 105.568 232.237 105.989 232.048C106.413 231.859 106.894 231.764 107.431 231.764C108.186 231.764 108.78 231.93 109.211 232.261C109.645 232.593 109.953 233.03 110.135 233.574ZM117.45 233.574L116.396 233.872C116.329 233.696 116.232 233.526 116.102 233.36C115.977 233.191 115.804 233.052 115.585 232.942C115.367 232.833 115.087 232.778 114.745 232.778C114.278 232.778 113.888 232.886 113.577 233.102C113.269 233.314 113.115 233.584 113.115 233.912C113.115 234.204 113.221 234.434 113.433 234.603C113.645 234.772 113.976 234.913 114.427 235.026L115.561 235.304C116.243 235.47 116.752 235.723 117.087 236.065C117.422 236.403 117.589 236.839 117.589 237.372C117.589 237.81 117.463 238.201 117.211 238.545C116.963 238.89 116.615 239.162 116.167 239.361C115.72 239.56 115.199 239.659 114.606 239.659C113.827 239.659 113.182 239.49 112.672 239.152C112.162 238.814 111.838 238.32 111.703 237.67L112.816 237.392C112.922 237.803 113.123 238.111 113.418 238.317C113.716 238.522 114.106 238.625 114.586 238.625C115.133 238.625 115.567 238.509 115.889 238.277C116.213 238.042 116.376 237.76 116.376 237.432C116.376 237.167 116.283 236.945 116.097 236.766C115.912 236.583 115.627 236.447 115.242 236.358L113.97 236.06C113.27 235.894 112.757 235.637 112.428 235.289C112.104 234.938 111.941 234.499 111.941 233.972C111.941 233.541 112.062 233.16 112.304 232.828C112.549 232.497 112.883 232.237 113.303 232.048C113.728 231.859 114.208 231.764 114.745 231.764C115.501 231.764 116.094 231.93 116.525 232.261C116.959 232.593 117.267 233.03 117.45 233.574ZM119.355 239.5V231.864H120.528V239.5H119.355ZM119.952 230.591C119.723 230.591 119.526 230.513 119.36 230.357C119.198 230.201 119.116 230.014 119.116 229.795C119.116 229.577 119.198 229.389 119.36 229.234C119.526 229.078 119.723 229 119.952 229C120.18 229 120.376 229.078 120.538 229.234C120.704 229.389 120.787 229.577 120.787 229.795C120.787 230.014 120.704 230.201 120.538 230.357C120.376 230.513 120.18 230.591 119.952 230.591ZM125.78 239.659C125.09 239.659 124.485 239.495 123.965 239.167C123.448 238.839 123.044 238.38 122.752 237.79C122.464 237.2 122.319 236.51 122.319 235.722C122.319 234.926 122.464 234.232 122.752 233.638C123.044 233.045 123.448 232.585 123.965 232.256C124.485 231.928 125.09 231.764 125.78 231.764C126.469 231.764 127.072 231.928 127.589 232.256C128.11 232.585 128.514 233.045 128.802 233.638C129.094 234.232 129.24 234.926 129.24 235.722C129.24 236.51 129.094 237.2 128.802 237.79C128.514 238.38 128.11 238.839 127.589 239.167C127.072 239.495 126.469 239.659 125.78 239.659ZM125.78 238.605C126.303 238.605 126.734 238.471 127.072 238.202C127.41 237.934 127.661 237.581 127.823 237.143C127.985 236.706 128.067 236.232 128.067 235.722C128.067 235.211 127.985 234.736 127.823 234.295C127.661 233.854 127.41 233.498 127.072 233.226C126.734 232.954 126.303 232.818 125.78 232.818C125.256 232.818 124.825 232.954 124.487 233.226C124.149 233.498 123.899 233.854 123.736 234.295C123.574 234.736 123.493 235.211 123.493 235.722C123.493 236.232 123.574 236.706 123.736 237.143C123.899 237.581 124.149 237.934 124.487 238.202C124.825 238.471 125.256 238.605 125.78 238.605ZM132.204 234.906V239.5H131.031V231.864H132.164V233.057H132.264C132.443 232.669 132.715 232.357 133.079 232.122C133.444 231.884 133.914 231.764 134.491 231.764C135.008 231.764 135.461 231.87 135.848 232.082C136.236 232.291 136.538 232.609 136.753 233.037C136.969 233.461 137.076 233.998 137.076 234.648V239.5H135.903V234.727C135.903 234.127 135.747 233.66 135.436 233.325C135.124 232.987 134.697 232.818 134.153 232.818C133.779 232.818 133.444 232.899 133.149 233.062C132.857 233.224 132.627 233.461 132.458 233.773C132.289 234.084 132.204 234.462 132.204 234.906Z" fill="#3D3D3D"/>
<g clip-path="url(#clip1_7527_8211)">
<path d="M39.6667 277H50.3334C51.2668 277 51.7336 277 52.0901 277.182C52.4037 277.342 52.6587 277.596 52.8184 277.91C53.0001 278.267 53.0001 278.733 53.0001 279.667V290.333M56.3334 287H45.6667C44.7333 287 44.2666 287 43.9101 286.818C43.5965 286.659 43.3415 286.404 43.1817 286.09C43.0001 285.734 43.0001 285.267 43.0001 284.333V273.667" stroke="#3D3D3D" stroke-width="2" stroke-linecap="round" stroke-linejoin="round"/>
</g>
<path d="M75.8239 282.409C75.8239 283.483 75.63 284.411 75.2422 285.193C74.8544 285.975 74.3224 286.579 73.6463 287.003C72.9702 287.427 72.1979 287.639 71.3295 287.639C70.4612 287.639 69.6889 287.427 69.0128 287.003C68.3366 286.579 67.8047 285.975 67.4169 285.193C67.0291 284.411 66.8352 283.483 66.8352 282.409C66.8352 281.335 67.0291 280.407 67.4169 279.625C67.8047 278.843 68.3366 278.24 69.0128 277.815C69.6889 277.391 70.4612 277.179 71.3295 277.179C72.1979 277.179 72.9702 277.391 73.6463 277.815C74.3224 278.24 74.8544 278.843 75.2422 279.625C75.63 280.407 75.8239 281.335 75.8239 282.409ZM74.6307 282.409C74.6307 281.527 74.4832 280.783 74.1882 280.177C73.8965 279.57 73.5005 279.111 73 278.8C72.5028 278.488 71.946 278.332 71.3295 278.332C70.7131 278.332 70.1546 278.488 69.6541 278.8C69.157 279.111 68.7609 279.57 68.4659 280.177C68.1742 280.783 68.0284 281.527 68.0284 282.409C68.0284 283.291 68.1742 284.035 68.4659 284.641C68.7609 285.248 69.157 285.707 69.6541 286.018C70.1546 286.33 70.7131 286.486 71.3295 286.486C71.946 286.486 72.5028 286.33 73 286.018C73.5005 285.707 73.8965 285.248 74.1882 284.641C74.4832 284.035 74.6307 283.291 74.6307 282.409ZM77.7379 287.5V279.864H78.8714V281.017H78.951C79.0902 280.639 79.3421 280.333 79.7067 280.097C80.0713 279.862 80.4822 279.744 80.9396 279.744C81.0258 279.744 81.1335 279.746 81.2628 279.749C81.392 279.753 81.4898 279.758 81.5561 279.764V280.957C81.5163 280.947 81.4252 280.933 81.2827 280.913C81.1435 280.889 80.996 280.878 80.8402 280.878C80.469 280.878 80.1375 280.956 79.8459 281.112C79.5575 281.264 79.3288 281.476 79.1598 281.748C78.9941 282.016 78.9112 282.323 78.9112 282.668V287.5H77.7379ZM82.9469 287.5V279.864H84.1202V287.5H82.9469ZM83.5435 278.591C83.3148 278.591 83.1176 278.513 82.9519 278.357C82.7895 278.201 82.7083 278.014 82.7083 277.795C82.7083 277.577 82.7895 277.389 82.9519 277.234C83.1176 277.078 83.3148 277 83.5435 277C83.7722 277 83.9677 277.078 84.1301 277.234C84.2959 277.389 84.3787 277.577 84.3787 277.795C84.3787 278.014 84.2959 278.201 84.1301 278.357C83.9677 278.513 83.7722 278.591 83.5435 278.591ZM89.4709 287.659C88.7351 287.659 88.1004 287.497 87.5668 287.172C87.0365 286.844 86.6271 286.386 86.3388 285.8C86.0537 285.21 85.9112 284.524 85.9112 283.741C85.9112 282.959 86.0537 282.27 86.3388 281.673C86.6271 281.073 87.0282 280.606 87.5419 280.271C88.0589 279.933 88.6622 279.764 89.3516 279.764C89.7493 279.764 90.142 279.83 90.5298 279.963C90.9176 280.096 91.2706 280.311 91.5888 280.609C91.907 280.904 92.1605 281.295 92.3494 281.783C92.5384 282.27 92.6328 282.87 92.6328 283.582V284.08H86.7464V283.065H91.4396C91.4396 282.634 91.3535 282.25 91.1811 281.912C91.0121 281.574 90.7701 281.307 90.4553 281.112C90.1437 280.916 89.7758 280.818 89.3516 280.818C88.8842 280.818 88.4799 280.934 88.1385 281.166C87.8004 281.395 87.5402 281.693 87.358 282.061C87.1757 282.429 87.0845 282.823 87.0845 283.244V283.92C87.0845 284.497 87.1839 284.986 87.3828 285.387C87.585 285.785 87.8651 286.088 88.223 286.297C88.581 286.502 88.9969 286.605 89.4709 286.605C89.7791 286.605 90.0575 286.562 90.3061 286.476C90.558 286.386 90.7751 286.254 90.9574 286.078C91.1397 285.899 91.2805 285.677 91.38 285.412L92.5135 285.73C92.3942 286.115 92.1937 286.453 91.9119 286.744C91.6302 287.033 91.2822 287.258 90.8679 287.42C90.4536 287.58 89.9879 287.659 89.4709 287.659ZM95.5909 282.906V287.5H94.4176V279.864H95.5511V281.057H95.6506C95.8295 280.669 96.1013 280.357 96.4659 280.122C96.8305 279.884 97.3011 279.764 97.8778 279.764C98.3949 279.764 98.8473 279.87 99.2351 280.082C99.6229 280.291 99.9245 280.609 100.14 281.037C100.355 281.461 100.463 281.998 100.463 282.648V287.5H99.2898V282.727C99.2898 282.127 99.134 281.66 98.8224 281.325C98.5109 280.987 98.0833 280.818 97.5398 280.818C97.1652 280.818 96.8305 280.899 96.5355 281.062C96.2438 281.224 96.0135 281.461 95.8445 281.773C95.6754 282.084 95.5909 282.462 95.5909 282.906ZM105.928 279.864V280.858H101.971V279.864H105.928ZM103.124 278.034H104.297V285.312C104.297 285.644 104.345 285.893 104.442 286.058C104.541 286.221 104.667 286.33 104.819 286.386C104.975 286.439 105.139 286.466 105.312 286.466C105.441 286.466 105.547 286.459 105.63 286.446C105.713 286.429 105.779 286.416 105.829 286.406L106.067 287.46C105.988 287.49 105.877 287.52 105.734 287.55C105.592 287.583 105.411 287.599 105.192 287.599C104.861 287.599 104.536 287.528 104.218 287.386C103.903 287.243 103.641 287.026 103.432 286.734C103.227 286.443 103.124 286.075 103.124 285.631V278.034ZM109.94 287.679C109.456 287.679 109.017 287.588 108.623 287.406C108.228 287.22 107.915 286.953 107.683 286.605C107.451 286.254 107.335 285.83 107.335 285.332C107.335 284.895 107.421 284.54 107.594 284.268C107.766 283.993 107.996 283.778 108.285 283.622C108.573 283.466 108.891 283.35 109.239 283.274C109.59 283.195 109.943 283.132 110.298 283.085C110.762 283.026 111.138 282.981 111.427 282.951C111.718 282.918 111.93 282.863 112.063 282.787C112.199 282.711 112.267 282.578 112.267 282.389V282.349C112.267 281.859 112.133 281.478 111.864 281.206C111.599 280.934 111.196 280.798 110.656 280.798C110.096 280.798 109.657 280.921 109.339 281.166C109.02 281.411 108.797 281.673 108.667 281.952L107.554 281.554C107.753 281.09 108.018 280.729 108.349 280.47C108.684 280.208 109.049 280.026 109.443 279.923C109.841 279.817 110.232 279.764 110.616 279.764C110.862 279.764 111.143 279.794 111.461 279.854C111.783 279.91 112.093 280.028 112.391 280.207C112.693 280.386 112.943 280.656 113.142 281.017C113.341 281.378 113.44 281.862 113.44 282.469V287.5H112.267V286.466H112.207C112.128 286.632 111.995 286.809 111.809 286.998C111.624 287.187 111.377 287.348 111.069 287.48C110.76 287.613 110.384 287.679 109.94 287.679ZM110.119 286.625C110.583 286.625 110.974 286.534 111.292 286.352C111.614 286.169 111.856 285.934 112.018 285.646C112.184 285.357 112.267 285.054 112.267 284.736V283.662C112.217 283.722 112.108 283.776 111.939 283.826C111.773 283.872 111.581 283.914 111.362 283.95C111.147 283.983 110.936 284.013 110.731 284.04C110.528 284.063 110.364 284.083 110.238 284.099C109.934 284.139 109.648 284.204 109.383 284.293C109.122 284.379 108.909 284.51 108.747 284.686C108.588 284.858 108.508 285.094 108.508 285.392C108.508 285.8 108.659 286.108 108.961 286.317C109.266 286.522 109.652 286.625 110.119 286.625ZM118.903 279.864V280.858H114.945V279.864H118.903ZM116.099 278.034H117.272V285.312C117.272 285.644 117.32 285.893 117.416 286.058C117.516 286.221 117.642 286.33 117.794 286.386C117.95 286.439 118.114 286.466 118.286 286.466C118.415 286.466 118.522 286.459 118.604 286.446C118.687 286.429 118.754 286.416 118.803 286.406L119.042 287.46C118.962 287.49 118.851 287.52 118.709 287.55C118.566 287.583 118.386 287.599 118.167 287.599C117.835 287.599 117.511 287.528 117.192 287.386C116.878 287.243 116.616 287.026 116.407 286.734C116.201 286.443 116.099 286.075 116.099 285.631V278.034ZM120.668 287.5V279.864H121.841V287.5H120.668ZM121.264 278.591C121.036 278.591 120.838 278.513 120.673 278.357C120.51 278.201 120.429 278.014 120.429 277.795C120.429 277.577 120.51 277.389 120.673 277.234C120.838 277.078 121.036 277 121.264 277C121.493 277 121.688 277.078 121.851 277.234C122.017 277.389 122.099 277.577 122.099 277.795C122.099 278.014 122.017 278.201 121.851 278.357C121.688 278.513 121.493 278.591 121.264 278.591ZM127.092 287.659C126.403 287.659 125.798 287.495 125.278 287.167C124.76 286.839 124.356 286.38 124.064 285.79C123.776 285.2 123.632 284.51 123.632 283.722C123.632 282.926 123.776 282.232 124.064 281.638C124.356 281.045 124.76 280.585 125.278 280.256C125.798 279.928 126.403 279.764 127.092 279.764C127.782 279.764 128.385 279.928 128.902 280.256C129.422 280.585 129.827 281.045 130.115 281.638C130.407 282.232 130.552 282.926 130.552 283.722C130.552 284.51 130.407 285.2 130.115 285.79C129.827 286.38 129.422 286.839 128.902 287.167C128.385 287.495 127.782 287.659 127.092 287.659ZM127.092 286.605C127.616 286.605 128.047 286.471 128.385 286.202C128.723 285.934 128.973 285.581 129.135 285.143C129.298 284.706 129.379 284.232 129.379 283.722C129.379 283.211 129.298 282.736 129.135 282.295C128.973 281.854 128.723 281.498 128.385 281.226C128.047 280.954 127.616 280.818 127.092 280.818C126.568 280.818 126.138 280.954 125.8 281.226C125.461 281.498 125.211 281.854 125.049 282.295C124.886 282.736 124.805 283.211 124.805 283.722C124.805 284.232 124.886 284.706 125.049 285.143C125.211 285.581 125.461 285.934 125.8 286.202C126.138 286.471 126.568 286.605 127.092 286.605ZM133.517 282.906V287.5H132.343V279.864H133.477V281.057H133.576C133.755 280.669 134.027 280.357 134.392 280.122C134.756 279.884 135.227 279.764 135.804 279.764C136.321 279.764 136.773 279.87 137.161 280.082C137.549 280.291 137.85 280.609 138.066 281.037C138.281 281.461 138.389 281.998 138.389 282.648V287.5H137.216V282.727C137.216 282.127 137.06 281.66 136.748 281.325C136.437 280.987 136.009 280.818 135.466 280.818C135.091 280.818 134.756 280.899 134.461 281.062C134.17 281.224 133.939 281.461 133.77 281.773C133.601 282.084 133.517 282.462 133.517 282.906Z" fill="#3D3D3D"/>
</g>
<defs>
<filter id="filter0_d_7527_8211" x="0" y="0" width="234" height="328" filterUnits="userSpaceOnUse" color-interpolation-filters="sRGB">
<feFlood flood-opacity="0" result="BackgroundImageFix"/>
<feColorMatrix in="SourceAlpha" type="matrix" values="0 0 0 0 0 0 0 0 0 0 0 0 0 0 0 0 0 0 127 0" result="hardAlpha"/>
<feOffset dy="2"/>
<feGaussianBlur stdDeviation="3"/>
<feComposite in2="hardAlpha" operator="out"/>
<feColorMatrix type="matrix" values="0 0 0 0 0 0 0 0 0 0 0 0 0 0 0 0 0 0 0.1 0"/>
<feBlend mode="normal" in2="BackgroundImageFix" result="effect1_dropShadow_7527_8211"/>
<feBlend mode="normal" in="SourceGraphic" in2="effect1_dropShadow_7527_8211" result="shape"/>
</filter>
<clipPath id="clip0_7527_8211">
<rect width="20" height="20" fill="white" transform="translate(38 128)"/>
</clipPath>
<clipPath id="clip1_7527_8211">
<rect width="20" height="20" fill="white" transform="translate(38 272)"/>
</clipPath>
</defs>
</svg>
