<svg width="168" height="202" viewBox="0 0 168 202" fill="none" xmlns="http://www.w3.org/2000/svg">
<rect x="0.5" y="0.5" width="167" height="201" rx="7.5" fill="white"/>
<rect x="0.5" y="0.5" width="167" height="201" rx="7.5" stroke="#E0E0E0"/>
<path d="M88.1663 60.1667L83.5184 50.8705C82.1805 48.195 81.5118 46.8572 80.5138 45.8798C79.6313 45.0155 78.5676 44.3582 77.4001 43.9555C76.0797 43.5 74.5839 43.5 71.5926 43.5H55.6663C50.9993 43.5 48.6657 43.5 46.8831 44.4083C45.315 45.2072 44.0402 46.482 43.2413 48.0501C42.333 49.8327 42.333 52.1662 42.333 56.8333V60.1667M42.333 60.1667H105.666C112.667 60.1667 116.167 60.1667 118.841 61.5291C121.193 62.7275 123.106 64.6397 124.304 66.9918C125.666 69.6657 125.666 73.1658 125.666 80.1667V98.5C125.666 105.501 125.666 109.001 124.304 111.675C123.106 114.027 121.193 115.939 118.841 117.137C116.167 118.5 112.667 118.5 105.666 118.5H62.333C55.3323 118.5 51.832 118.5 49.1581 117.137C46.8061 115.939 44.8938 114.027 43.6954 111.675C42.333 109.001 42.333 105.501 42.333 98.5V60.1667Z" stroke="#3D3D3D" stroke-width="4" stroke-linecap="round" stroke-linejoin="round"/>
<path d="M12.8789 170V162H15.7305C16.3529 162 16.8685 162.113 17.2773 162.34C17.6862 162.566 17.9922 162.876 18.1953 163.27C18.3984 163.66 18.5 164.1 18.5 164.59C18.5 165.082 18.3971 165.525 18.1914 165.918C17.9883 166.309 17.681 166.618 17.2695 166.848C16.8607 167.074 16.3464 167.188 15.7266 167.188H13.7656V166.164H15.6172C16.0104 166.164 16.3294 166.096 16.5742 165.961C16.819 165.823 16.9987 165.635 17.1133 165.398C17.2279 165.161 17.2852 164.892 17.2852 164.59C17.2852 164.288 17.2279 164.02 17.1133 163.785C16.9987 163.551 16.8177 163.367 16.5703 163.234C16.3255 163.102 16.0026 163.035 15.6016 163.035H14.0859V170H12.8789ZM19.8213 170V164H20.9502V164.953H21.0127C21.1221 164.63 21.3148 164.376 21.5908 164.191C21.8695 164.004 22.1846 163.91 22.5361 163.91C22.609 163.91 22.695 163.913 22.7939 163.918C22.8955 163.923 22.9749 163.93 23.0322 163.937V165.055C22.9854 165.042 22.902 165.027 22.7822 165.012C22.6624 164.993 22.5426 164.984 22.4229 164.984C22.1468 164.984 21.9007 165.043 21.6846 165.16C21.471 165.275 21.3018 165.435 21.1768 165.641C21.0518 165.844 20.9893 166.076 20.9893 166.336V170H19.8213ZM26.3555 170.121C25.793 170.121 25.3021 169.992 24.8828 169.734C24.4635 169.477 24.138 169.116 23.9063 168.652C23.6745 168.189 23.5586 167.647 23.5586 167.027C23.5586 166.405 23.6745 165.861 23.9063 165.395C24.138 164.928 24.4635 164.566 24.8828 164.309C25.3021 164.051 25.793 163.922 26.3555 163.922C26.918 163.922 27.4089 164.051 27.8281 164.309C28.2474 164.566 28.5729 164.928 28.8047 165.395C29.0365 165.861 29.1523 166.405 29.1523 167.027C29.1523 167.647 29.0365 168.189 28.8047 168.652C28.5729 169.116 28.2474 169.477 27.8281 169.734C27.4089 169.992 26.918 170.121 26.3555 170.121ZM26.3594 169.141C26.724 169.141 27.026 169.044 27.2656 168.852C27.5052 168.659 27.6823 168.402 27.7969 168.082C27.9141 167.762 27.9727 167.409 27.9727 167.023C27.9727 166.641 27.9141 166.289 27.7969 165.969C27.6823 165.646 27.5052 165.387 27.2656 165.191C27.026 164.996 26.724 164.898 26.3594 164.898C25.9922 164.898 25.6875 164.996 25.4453 165.191C25.2057 165.387 25.0273 165.646 24.9102 165.969C24.7956 166.289 24.7383 166.641 24.7383 167.023C24.7383 167.409 24.7956 167.762 24.9102 168.082C25.0273 168.402 25.2057 168.659 25.4453 168.852C25.6875 169.044 25.9922 169.141 26.3594 169.141ZM32.7021 170.117C32.2178 170.117 31.7855 169.993 31.4053 169.746C31.0277 169.496 30.7308 169.141 30.5146 168.68C30.3011 168.216 30.1943 167.66 30.1943 167.012C30.1943 166.363 30.3024 165.809 30.5186 165.348C30.7373 164.887 31.0368 164.534 31.417 164.289C31.7972 164.044 32.2282 163.922 32.71 163.922C33.0824 163.922 33.3818 163.984 33.6084 164.109C33.8376 164.232 34.0146 164.375 34.1396 164.539C34.2673 164.703 34.3662 164.848 34.4365 164.973H34.5068V162H35.6748V170H34.5342V169.066H34.4365C34.3662 169.194 34.2646 169.34 34.1318 169.504C34.0016 169.668 33.8219 169.811 33.5928 169.934C33.3636 170.056 33.0667 170.117 32.7021 170.117ZM32.96 169.121C33.2959 169.121 33.5798 169.033 33.8115 168.855C34.0459 168.676 34.223 168.427 34.3428 168.109C34.4652 167.792 34.5264 167.422 34.5264 167C34.5264 166.583 34.4665 166.219 34.3467 165.906C34.2269 165.594 34.0511 165.35 33.8193 165.176C33.5876 165.001 33.3011 164.914 32.96 164.914C32.6084 164.914 32.3154 165.005 32.0811 165.188C31.8467 165.37 31.6696 165.618 31.5498 165.934C31.4326 166.249 31.374 166.604 31.374 167C31.374 167.401 31.4339 167.762 31.5537 168.082C31.6735 168.402 31.8506 168.656 32.085 168.844C32.3219 169.029 32.6136 169.121 32.96 169.121ZM41.1426 167.512V164H42.3145V170H41.166V168.961H41.1035C40.9655 169.281 40.7441 169.548 40.4395 169.762C40.1374 169.973 39.7611 170.078 39.3105 170.078C38.9251 170.078 38.584 169.993 38.2871 169.824C37.9928 169.652 37.7611 169.398 37.5918 169.062C37.4251 168.727 37.3418 168.311 37.3418 167.816V164H38.5098V167.676C38.5098 168.085 38.623 168.41 38.8496 168.652C39.0762 168.895 39.3704 169.016 39.7324 169.016C39.9512 169.016 40.1686 168.961 40.3848 168.852C40.6035 168.742 40.7845 168.577 40.9277 168.355C41.0736 168.134 41.1452 167.853 41.1426 167.512ZM46.4111 170.121C45.8304 170.121 45.3304 169.99 44.9111 169.727C44.4945 169.461 44.1742 169.095 43.9502 168.629C43.7262 168.163 43.6143 167.629 43.6143 167.027C43.6143 166.418 43.7288 165.88 43.958 165.414C44.1872 164.945 44.5101 164.579 44.9268 164.316C45.3434 164.053 45.8343 163.922 46.3994 163.922C46.8551 163.922 47.2614 164.007 47.6182 164.176C47.9749 164.342 48.2627 164.577 48.4814 164.879C48.7028 165.181 48.8343 165.534 48.876 165.937H47.7393C47.6768 165.656 47.5335 165.414 47.3096 165.211C47.0882 165.008 46.7913 164.906 46.4189 164.906C46.0934 164.906 45.8083 164.992 45.5635 165.164C45.3213 165.333 45.1325 165.576 44.9971 165.891C44.8617 166.203 44.7939 166.573 44.7939 167C44.7939 167.437 44.8604 167.815 44.9932 168.133C45.126 168.451 45.3135 168.697 45.5557 168.871C45.8005 169.046 46.0882 169.133 46.4189 169.133C46.6403 169.133 46.8408 169.092 47.0205 169.012C47.2028 168.928 47.3551 168.81 47.4775 168.656C47.6025 168.503 47.6898 168.318 47.7393 168.102H48.876C48.8343 168.49 48.708 168.836 48.4971 169.141C48.2861 169.445 48.0036 169.685 47.6494 169.859C47.2979 170.034 46.8851 170.121 46.4111 170.121ZM52.9258 164V164.937H49.6484V164H52.9258ZM50.5273 162.562H51.6953V168.238C51.6953 168.465 51.7292 168.635 51.7969 168.75C51.8646 168.862 51.9518 168.939 52.0586 168.98C52.168 169.02 52.2865 169.039 52.4141 169.039C52.5078 169.039 52.5898 169.033 52.6602 169.02C52.7305 169.007 52.7852 168.996 52.8242 168.988L53.0352 169.953C52.9674 169.979 52.8711 170.005 52.7461 170.031C52.6211 170.06 52.4648 170.076 52.2773 170.078C51.9701 170.083 51.6836 170.029 51.418 169.914C51.1523 169.799 50.9375 169.622 50.7734 169.383C50.6094 169.143 50.5273 168.842 50.5273 168.48V162.562ZM57.2227 170V162H60.0742C60.6966 162 61.2122 162.113 61.6211 162.34C62.0299 162.566 62.3359 162.876 62.5391 163.27C62.7422 163.66 62.8438 164.1 62.8438 164.59C62.8438 165.082 62.7409 165.525 62.5352 165.918C62.332 166.309 62.0247 166.618 61.6133 166.848C61.2044 167.074 60.6901 167.188 60.0703 167.188H58.1094V166.164H59.9609C60.3542 166.164 60.6732 166.096 60.918 165.961C61.1628 165.823 61.3424 165.635 61.457 165.398C61.5716 165.161 61.6289 164.892 61.6289 164.59C61.6289 164.288 61.5716 164.02 61.457 163.785C61.3424 163.551 61.1615 163.367 60.9141 163.234C60.6693 163.102 60.3464 163.035 59.9453 163.035H58.4297V170H57.2227ZM65.333 166.437V170H64.165V162H65.3174V164.977H65.3916C65.5322 164.654 65.7471 164.397 66.0361 164.207C66.3252 164.017 66.7028 163.922 67.1689 163.922C67.5804 163.922 67.9398 164.007 68.2471 164.176C68.557 164.345 68.7965 164.598 68.9658 164.934C69.1377 165.267 69.2236 165.684 69.2236 166.184V170H68.0557V166.324C68.0557 165.884 67.9424 165.543 67.7158 165.301C67.4893 165.056 67.1742 164.934 66.7705 164.934C66.4945 164.934 66.2471 164.992 66.0283 165.109C65.8122 165.227 65.6416 165.398 65.5166 165.625C65.3942 165.849 65.333 166.12 65.333 166.437ZM73.3096 170.121C72.7471 170.121 72.2562 169.992 71.8369 169.734C71.4176 169.477 71.0921 169.116 70.8604 168.652C70.6286 168.189 70.5127 167.647 70.5127 167.027C70.5127 166.405 70.6286 165.861 70.8604 165.395C71.0921 164.928 71.4176 164.566 71.8369 164.309C72.2562 164.051 72.7471 163.922 73.3096 163.922C73.8721 163.922 74.363 164.051 74.7822 164.309C75.2015 164.566 75.527 164.928 75.7588 165.395C75.9906 165.861 76.1064 166.405 76.1064 167.027C76.1064 167.647 75.9906 168.189 75.7588 168.652C75.527 169.116 75.2015 169.477 74.7822 169.734C74.363 169.992 73.8721 170.121 73.3096 170.121ZM73.3135 169.141C73.6781 169.141 73.9801 169.044 74.2197 168.852C74.4593 168.659 74.6364 168.402 74.751 168.082C74.8682 167.762 74.9268 167.409 74.9268 167.023C74.9268 166.641 74.8682 166.289 74.751 165.969C74.6364 165.646 74.4593 165.387 74.2197 165.191C73.9801 164.996 73.6781 164.898 73.3135 164.898C72.9463 164.898 72.6416 164.996 72.3994 165.191C72.1598 165.387 71.9814 165.646 71.8643 165.969C71.7497 166.289 71.6924 166.641 71.6924 167.023C71.6924 167.409 71.7497 167.762 71.8643 168.082C71.9814 168.402 72.1598 168.659 72.3994 168.852C72.6416 169.044 72.9463 169.141 73.3135 169.141ZM80.2109 164V164.937H76.9336V164H80.2109ZM77.8125 162.562H78.9805V168.238C78.9805 168.465 79.0143 168.635 79.082 168.75C79.1497 168.862 79.237 168.939 79.3438 168.98C79.4531 169.02 79.5716 169.039 79.6992 169.039C79.793 169.039 79.875 169.033 79.9453 169.02C80.0156 169.007 80.0703 168.996 80.1094 168.988L80.3203 169.953C80.2526 169.979 80.1563 170.005 80.0313 170.031C79.9063 170.06 79.75 170.076 79.5625 170.078C79.2552 170.083 78.9688 170.029 78.7031 169.914C78.4375 169.799 78.2227 169.622 78.0586 169.383C77.8945 169.143 77.8125 168.842 77.8125 168.48V162.562ZM83.9658 170.121C83.4033 170.121 82.9124 169.992 82.4932 169.734C82.0739 169.477 81.7484 169.116 81.5166 168.652C81.2848 168.189 81.1689 167.647 81.1689 167.027C81.1689 166.405 81.2848 165.861 81.5166 165.395C81.7484 164.928 82.0739 164.566 82.4932 164.309C82.9124 164.051 83.4033 163.922 83.9658 163.922C84.5283 163.922 85.0192 164.051 85.4385 164.309C85.8577 164.566 86.1833 164.928 86.415 165.395C86.6468 165.861 86.7627 166.405 86.7627 167.027C86.7627 167.647 86.6468 168.189 86.415 168.652C86.1833 169.116 85.8577 169.477 85.4385 169.734C85.0192 169.992 84.5283 170.121 83.9658 170.121ZM83.9697 169.141C84.3343 169.141 84.6364 169.044 84.876 168.852C85.1156 168.659 85.2926 168.402 85.4072 168.082C85.5244 167.762 85.583 167.409 85.583 167.023C85.583 166.641 85.5244 166.289 85.4072 165.969C85.2926 165.646 85.1156 165.387 84.876 165.191C84.6364 164.996 84.3343 164.898 83.9697 164.898C83.6025 164.898 83.2979 164.996 83.0557 165.191C82.8161 165.387 82.6377 165.646 82.5205 165.969C82.4059 166.289 82.3486 166.641 82.3486 167.023C82.3486 167.409 82.4059 167.762 82.5205 168.082C82.6377 168.402 82.8161 168.659 83.0557 168.852C83.2979 169.044 83.6025 169.141 83.9697 169.141ZM90.582 172.375C90.1055 172.375 89.6953 172.313 89.3516 172.188C89.0104 172.063 88.7318 171.897 88.5156 171.691C88.2995 171.486 88.138 171.26 88.0313 171.016L89.0352 170.602C89.1055 170.716 89.1992 170.837 89.3164 170.965C89.4362 171.095 89.5977 171.206 89.8008 171.297C90.0065 171.388 90.2708 171.434 90.5938 171.434C91.0365 171.434 91.4023 171.326 91.6914 171.109C91.9805 170.896 92.125 170.555 92.125 170.086V168.906H92.0508C91.9805 169.034 91.8789 169.176 91.7461 169.332C91.6159 169.488 91.4362 169.624 91.207 169.738C90.9779 169.853 90.6797 169.91 90.3125 169.91C89.8385 169.91 89.4115 169.799 89.0312 169.578C88.6536 169.354 88.3542 169.025 88.1328 168.59C87.9141 168.152 87.8047 167.615 87.8047 166.977C87.8047 166.339 87.9128 165.792 88.1289 165.336C88.3477 164.88 88.6471 164.531 89.0273 164.289C89.4076 164.044 89.8385 163.922 90.3203 163.922C90.6927 163.922 90.9935 163.984 91.2227 164.109C91.4518 164.232 91.6302 164.375 91.7578 164.539C91.888 164.703 91.9883 164.848 92.0586 164.973H92.1445V164H93.2891V170.133C93.2891 170.648 93.1693 171.072 92.9297 171.402C92.6901 171.733 92.3659 171.978 91.957 172.137C91.5508 172.296 91.0924 172.375 90.582 172.375ZM90.5703 168.941C90.9063 168.941 91.1901 168.863 91.4219 168.707C91.6563 168.548 91.8333 168.322 91.9531 168.027C92.0755 167.73 92.1367 167.375 92.1367 166.961C92.1367 166.557 92.0768 166.202 91.957 165.895C91.8372 165.587 91.6615 165.348 91.4297 165.176C91.1979 165.001 90.9115 164.914 90.5703 164.914C90.2188 164.914 89.9258 165.005 89.6914 165.188C89.457 165.367 89.2799 165.612 89.1602 165.922C89.043 166.232 88.9844 166.578 88.9844 166.961C88.9844 167.354 89.0443 167.699 89.1641 167.996C89.2839 168.293 89.4609 168.525 89.6953 168.691C89.9323 168.858 90.224 168.941 90.5703 168.941ZM94.8555 170V164H95.9844V164.953H96.0469C96.1563 164.63 96.349 164.376 96.625 164.191C96.9036 164.004 97.2188 163.91 97.5703 163.91C97.6432 163.91 97.7292 163.913 97.8281 163.918C97.9297 163.923 98.0091 163.93 98.0664 163.937V165.055C98.0195 165.042 97.9362 165.027 97.8164 165.012C97.6966 164.993 97.5768 164.984 97.457 164.984C97.181 164.984 96.9349 165.043 96.7188 165.16C96.5052 165.275 96.3359 165.435 96.2109 165.641C96.0859 165.844 96.0234 166.076 96.0234 166.336V170H94.8555ZM100.77 170.133C100.389 170.133 100.046 170.063 99.7383 169.922C99.431 169.779 99.1875 169.572 99.0078 169.301C98.8307 169.03 98.7422 168.698 98.7422 168.305C98.7422 167.966 98.8073 167.687 98.9375 167.469C99.0677 167.25 99.2435 167.077 99.4648 166.949C99.6862 166.822 99.9336 166.725 100.207 166.66C100.48 166.595 100.759 166.546 101.043 166.512C101.402 166.47 101.694 166.436 101.918 166.41C102.142 166.382 102.305 166.336 102.406 166.273C102.508 166.211 102.559 166.109 102.559 165.969V165.941C102.559 165.6 102.462 165.336 102.27 165.148C102.079 164.961 101.796 164.867 101.418 164.867C101.025 164.867 100.715 164.954 100.488 165.129C100.264 165.301 100.109 165.492 100.023 165.703L98.9258 165.453C99.056 165.089 99.2461 164.794 99.4961 164.57C99.7487 164.344 100.039 164.18 100.367 164.078C100.695 163.974 101.04 163.922 101.402 163.922C101.642 163.922 101.896 163.951 102.164 164.008C102.435 164.062 102.688 164.164 102.922 164.312C103.159 164.461 103.353 164.673 103.504 164.949C103.655 165.223 103.73 165.578 103.73 166.016V170H102.59V169.18H102.543C102.467 169.331 102.354 169.479 102.203 169.625C102.052 169.771 101.858 169.892 101.621 169.988C101.384 170.085 101.1 170.133 100.77 170.133ZM101.023 169.195C101.346 169.195 101.622 169.132 101.852 169.004C102.083 168.876 102.259 168.71 102.379 168.504C102.501 168.296 102.563 168.073 102.563 167.836V167.062C102.521 167.104 102.44 167.143 102.32 167.18C102.203 167.214 102.069 167.243 101.918 167.27C101.767 167.293 101.62 167.315 101.477 167.336C101.333 167.354 101.214 167.37 101.117 167.383C100.891 167.411 100.684 167.46 100.496 167.527C100.311 167.595 100.163 167.693 100.051 167.82C99.9414 167.945 99.8867 168.112 99.8867 168.32C99.8867 168.609 99.9935 168.828 100.207 168.977C100.421 169.122 100.693 169.195 101.023 169.195ZM105.286 172.25V164H106.427V164.973H106.524C106.592 164.848 106.69 164.703 106.817 164.539C106.945 164.375 107.122 164.232 107.349 164.109C107.575 163.984 107.875 163.922 108.247 163.922C108.731 163.922 109.164 164.044 109.544 164.289C109.924 164.534 110.222 164.887 110.438 165.348C110.657 165.809 110.767 166.363 110.767 167.012C110.767 167.66 110.659 168.216 110.442 168.68C110.226 169.141 109.929 169.496 109.552 169.746C109.174 169.993 108.743 170.117 108.259 170.117C107.894 170.117 107.596 170.056 107.364 169.934C107.135 169.811 106.955 169.668 106.825 169.504C106.695 169.34 106.595 169.194 106.524 169.066H106.454V172.25H105.286ZM106.431 167C106.431 167.422 106.492 167.792 106.614 168.109C106.737 168.427 106.914 168.676 107.146 168.855C107.377 169.033 107.661 169.121 107.997 169.121C108.346 169.121 108.638 169.029 108.872 168.844C109.106 168.656 109.284 168.402 109.403 168.082C109.526 167.762 109.587 167.401 109.587 167C109.587 166.604 109.527 166.249 109.407 165.934C109.29 165.618 109.113 165.37 108.876 165.188C108.642 165.005 108.349 164.914 107.997 164.914C107.659 164.914 107.372 165.001 107.138 165.176C106.906 165.35 106.73 165.594 106.61 165.906C106.491 166.219 106.431 166.583 106.431 167ZM113.243 166.437V170H112.075V162H113.228V164.977H113.302C113.442 164.654 113.657 164.397 113.946 164.207C114.235 164.017 114.613 163.922 115.079 163.922C115.491 163.922 115.85 164.007 116.157 164.176C116.467 164.345 116.707 164.598 116.876 164.934C117.048 165.267 117.134 165.684 117.134 166.184V170H115.966V166.324C115.966 165.884 115.853 165.543 115.626 165.301C115.399 165.056 115.084 164.934 114.681 164.934C114.405 164.934 114.157 164.992 113.938 165.109C113.722 165.227 113.552 165.398 113.427 165.625C113.304 165.849 113.243 166.12 113.243 166.437ZM119.216 172.25C119.041 172.25 118.882 172.236 118.739 172.207C118.596 172.181 118.489 172.152 118.419 172.121L118.7 171.164C118.914 171.221 119.104 171.246 119.271 171.238C119.437 171.23 119.584 171.168 119.712 171.051C119.842 170.934 119.957 170.742 120.056 170.477L120.2 170.078L118.005 164H119.255L120.774 168.656H120.837L122.356 164H123.61L121.138 170.801C121.023 171.113 120.877 171.378 120.7 171.594C120.523 171.813 120.312 171.977 120.067 172.086C119.823 172.195 119.539 172.25 119.216 172.25Z" fill="#3D3D3D"/>
<path d="M12.6776 187V186.425L14.8381 184.06C15.0916 183.783 15.3004 183.542 15.4645 183.337C15.6286 183.131 15.75 182.937 15.8288 182.756C15.9098 182.572 15.9503 182.381 15.9503 182.18C15.9503 181.95 15.8949 181.751 15.7841 181.583C15.6754 181.414 15.5263 181.284 15.3366 181.193C15.147 181.101 14.9339 181.055 14.6974 181.055C14.446 181.055 14.2266 181.108 14.0391 181.212C13.8537 181.314 13.7099 181.458 13.6076 181.643C13.5075 181.829 13.4574 182.046 13.4574 182.295H12.7031C12.7031 181.912 12.7915 181.575 12.9684 181.286C13.1452 180.996 13.386 180.77 13.6907 180.608C13.9975 180.446 14.3416 180.365 14.723 180.365C15.1065 180.365 15.4464 180.446 15.7425 180.608C16.0387 180.77 16.271 180.988 16.4393 181.263C16.6076 181.538 16.6918 181.844 16.6918 182.18C16.6918 182.421 16.6481 182.657 16.5607 182.887C16.4755 183.115 16.3263 183.369 16.1133 183.651C15.9023 183.93 15.6094 184.271 15.2344 184.673L13.7642 186.246V186.297H16.8068V187H12.6776ZM20.1722 187.089C19.7972 187.089 19.4595 187.015 19.1591 186.866C18.8587 186.717 18.6179 186.512 18.4368 186.252C18.2557 185.992 18.1566 185.696 18.1396 185.364H18.9066C18.9364 185.66 19.0707 185.905 19.3093 186.099C19.5501 186.29 19.8377 186.386 20.1722 186.386C20.4407 186.386 20.6793 186.324 20.8881 186.198C21.0991 186.072 21.2642 185.9 21.3835 185.68C21.505 185.458 21.5657 185.208 21.5657 184.929C21.5657 184.643 21.5028 184.389 21.3771 184.165C21.2536 183.939 21.0831 183.761 20.8658 183.631C20.6484 183.501 20.4002 183.435 20.1211 183.433C19.9208 183.431 19.7152 183.462 19.5043 183.526C19.2933 183.588 19.1197 183.668 18.9833 183.766L18.2418 183.676L18.6381 180.455H22.0387V181.158H19.3029L19.0728 183.088H19.1112C19.2454 182.982 19.4137 182.893 19.6161 182.823C19.8185 182.752 20.0295 182.717 20.2489 182.717C20.6495 182.717 21.0064 182.813 21.3196 183.005C21.6349 183.195 21.8821 183.455 22.0611 183.785C22.2422 184.115 22.3327 184.492 22.3327 184.916C22.3327 185.334 22.239 185.707 22.0515 186.035C21.8661 186.361 21.6104 186.619 21.2844 186.808C20.9585 186.996 20.5877 187.089 20.1722 187.089ZM25.6478 187.089C25.2728 187.089 24.9351 187.015 24.6347 186.866C24.3343 186.717 24.0935 186.512 23.9124 186.252C23.7313 185.992 23.6322 185.696 23.6151 185.364H24.3822C24.412 185.66 24.5463 185.905 24.7849 186.099C25.0257 186.29 25.3133 186.386 25.6478 186.386C25.9163 186.386 26.1549 186.324 26.3637 186.198C26.5747 186.072 26.7398 185.9 26.8591 185.68C26.9806 185.458 27.0413 185.208 27.0413 184.929C27.0413 184.643 26.9784 184.389 26.8527 184.165C26.7291 183.939 26.5587 183.761 26.3414 183.631C26.124 183.501 25.8758 183.435 25.5967 183.433C25.3964 183.431 25.1908 183.462 24.9798 183.526C24.7689 183.588 24.5953 183.668 24.4589 183.766L23.7174 183.676L24.1137 180.455H27.5143V181.158H24.7785L24.5484 183.088H24.5867C24.721 182.982 24.8893 182.893 25.0917 182.823C25.2941 182.752 25.5051 182.717 25.7245 182.717C26.1251 182.717 26.482 182.813 26.7952 183.005C27.1105 183.195 27.3577 183.455 27.5367 183.785C27.7178 184.115 27.8083 184.492 27.8083 184.916C27.8083 185.334 27.7146 185.707 27.5271 186.035C27.3417 186.361 27.086 186.619 26.76 186.808C26.434 186.996 26.0633 187.089 25.6478 187.089ZM33.0666 187.115C32.7555 187.115 32.4732 187.056 32.2196 186.939C31.9661 186.82 31.7647 186.648 31.6156 186.425C31.4664 186.199 31.3919 185.926 31.3919 185.607C31.3919 185.325 31.4473 185.097 31.5581 184.923C31.6689 184.746 31.8169 184.607 32.0023 184.507C32.1877 184.407 32.3922 184.332 32.6159 184.283C32.8418 184.232 33.0687 184.192 33.2967 184.162C33.595 184.124 33.8368 184.095 34.0222 184.076C34.2097 184.054 34.3461 184.019 34.4313 183.97C34.5186 183.921 34.5623 183.836 34.5623 183.714V183.689C34.5623 183.374 34.476 183.129 34.3034 182.954C34.133 182.779 33.8741 182.692 33.5268 182.692C33.1667 182.692 32.8844 182.771 32.6799 182.928C32.4753 183.086 32.3315 183.254 32.2484 183.433L31.5325 183.178C31.6603 182.879 31.8308 182.647 32.0439 182.481C32.2591 182.312 32.4934 182.195 32.747 182.129C33.0027 182.061 33.2541 182.027 33.5012 182.027C33.6589 182.027 33.84 182.046 34.0446 182.085C34.2512 182.121 34.4505 182.196 34.6422 182.311C34.8361 182.426 34.997 182.6 35.1248 182.832C35.2527 183.065 35.3166 183.376 35.3166 183.766V187H34.5623V186.335H34.524C34.4728 186.442 34.3876 186.556 34.2683 186.677C34.149 186.799 33.9902 186.902 33.7921 186.987C33.5939 187.072 33.3521 187.115 33.0666 187.115ZM33.1816 186.438C33.4799 186.438 33.7314 186.379 33.9359 186.262C34.1426 186.145 34.2981 185.993 34.4025 185.808C34.5091 185.623 34.5623 185.428 34.5623 185.223V184.533C34.5304 184.571 34.46 184.606 34.3514 184.638C34.2449 184.668 34.1213 184.695 33.9806 184.718C33.8422 184.739 33.7069 184.759 33.5748 184.776C33.4448 184.79 33.3393 184.803 33.2583 184.814C33.0623 184.839 32.8791 184.881 32.7086 184.939C32.5403 184.994 32.4039 185.078 32.2995 185.191C32.1973 185.302 32.1461 185.453 32.1461 185.645C32.1461 185.907 32.2431 186.105 32.437 186.239C32.633 186.371 32.8812 186.438 33.1816 186.438ZM40.1705 183.19L39.493 183.382C39.4504 183.269 39.3875 183.159 39.3044 183.053C39.2235 182.944 39.1127 182.855 38.972 182.784C38.8314 182.714 38.6514 182.679 38.4319 182.679C38.1315 182.679 37.8811 182.748 37.6808 182.887C37.4827 183.023 37.3836 183.197 37.3836 183.408C37.3836 183.595 37.4518 183.743 37.5882 183.852C37.7245 183.961 37.9376 184.051 38.2274 184.124L38.9561 184.303C39.395 184.409 39.722 184.572 39.9372 184.792C40.1524 185.009 40.26 185.289 40.26 185.632C40.26 185.913 40.1791 186.165 40.0171 186.386C39.8573 186.608 39.6336 186.783 39.346 186.911C39.0583 187.038 38.7238 187.102 38.3424 187.102C37.8417 187.102 37.4273 186.994 37.0992 186.776C36.771 186.559 36.5633 186.241 36.4759 185.824L37.1919 185.645C37.26 185.909 37.3889 186.107 37.5786 186.239C37.7703 186.371 38.0207 186.438 38.3296 186.438C38.6812 186.438 38.9603 186.363 39.167 186.214C39.3758 186.062 39.4802 185.881 39.4802 185.67C39.4802 185.5 39.4205 185.357 39.3012 185.242C39.1819 185.125 38.9987 185.038 38.7515 184.98L37.9333 184.788C37.4838 184.682 37.1535 184.517 36.9426 184.293C36.7338 184.067 36.6294 183.785 36.6294 183.446C36.6294 183.169 36.7071 182.924 36.8627 182.711C37.0203 182.498 37.2345 182.331 37.5051 182.209C37.7778 182.088 38.0867 182.027 38.4319 182.027C38.9177 182.027 39.2991 182.134 39.5761 182.347C39.8552 182.56 40.0534 182.841 40.1705 183.19ZM44.8727 183.19L44.1951 183.382C44.1525 183.269 44.0897 183.159 44.0066 183.053C43.9256 182.944 43.8148 182.855 43.6742 182.784C43.5336 182.714 43.3535 182.679 43.1341 182.679C42.8336 182.679 42.5833 182.748 42.383 182.887C42.1848 183.023 42.0858 183.197 42.0858 183.408C42.0858 183.595 42.1539 183.743 42.2903 183.852C42.4267 183.961 42.6397 184.051 42.9295 184.124L43.6582 184.303C44.0971 184.409 44.4242 184.572 44.6394 184.792C44.8546 185.009 44.9622 185.289 44.9622 185.632C44.9622 185.913 44.8812 186.165 44.7193 186.386C44.5595 186.608 44.3358 186.783 44.0481 186.911C43.7605 187.038 43.426 187.102 43.0446 187.102C42.5439 187.102 42.1294 186.994 41.8013 186.776C41.4732 186.559 41.2654 186.241 41.1781 185.824L41.894 185.645C41.9622 185.909 42.0911 186.107 42.2807 186.239C42.4725 186.371 42.7228 186.438 43.0318 186.438C43.3833 186.438 43.6625 186.363 43.8691 186.214C44.0779 186.062 44.1824 185.881 44.1824 185.67C44.1824 185.5 44.1227 185.357 44.0034 185.242C43.8841 185.125 43.7008 185.038 43.4537 184.98L42.6355 184.788C42.1859 184.682 41.8556 184.517 41.6447 184.293C41.4359 184.067 41.3315 183.785 41.3315 183.446C41.3315 183.169 41.4093 182.924 41.5648 182.711C41.7225 182.498 41.9366 182.331 42.2072 182.209C42.4799 182.088 42.7889 182.027 43.1341 182.027C43.6199 182.027 44.0012 182.134 44.2782 182.347C44.5574 182.56 44.7555 182.841 44.8727 183.19ZM48.1558 187.102C47.6828 187.102 47.2748 186.998 46.9317 186.789C46.5908 186.578 46.3277 186.284 46.1423 185.907C45.9591 185.528 45.8675 185.087 45.8675 184.584C45.8675 184.081 45.9591 183.638 46.1423 183.254C46.3277 182.869 46.5855 182.568 46.9157 182.353C47.2481 182.136 47.6359 182.027 48.0791 182.027C48.3348 182.027 48.5873 182.07 48.8366 182.155C49.0858 182.24 49.3128 182.379 49.5173 182.57C49.7219 182.76 49.8849 183.011 50.0063 183.325C50.1278 183.638 50.1885 184.023 50.1885 184.482V184.801H46.4044V184.149H49.4214C49.4214 183.872 49.366 183.625 49.2552 183.408C49.1466 183.19 48.991 183.019 48.7886 182.893C48.5883 182.767 48.3518 182.705 48.0791 182.705C47.7787 182.705 47.5187 182.779 47.2993 182.928C47.0819 183.075 46.9147 183.267 46.7975 183.504C46.6803 183.74 46.6217 183.994 46.6217 184.264V184.699C46.6217 185.07 46.6856 185.384 46.8135 185.642C46.9434 185.897 47.1235 186.092 47.3536 186.227C47.5837 186.359 47.8511 186.425 48.1558 186.425C48.354 186.425 48.5329 186.397 48.6927 186.342C48.8547 186.284 48.9942 186.199 49.1114 186.086C49.2286 185.971 49.3192 185.828 49.3831 185.658L50.1118 185.862C50.0351 186.109 49.9062 186.327 49.7251 186.514C49.5439 186.7 49.3202 186.844 49.0539 186.949C48.7876 187.051 48.4882 187.102 48.1558 187.102ZM53.4708 182.091V182.73H50.9268V182.091H53.4708ZM51.6682 180.915H52.4225V185.594C52.4225 185.807 52.4534 185.967 52.5152 186.073C52.5791 186.178 52.6601 186.248 52.7581 186.284C52.8582 186.318 52.9637 186.335 53.0745 186.335C53.1576 186.335 53.2258 186.331 53.279 186.322C53.3323 186.312 53.3749 186.303 53.4069 186.297L53.5603 186.974C53.5091 186.994 53.4378 187.013 53.3461 187.032C53.2545 187.053 53.1384 187.064 52.9978 187.064C52.7847 187.064 52.5759 187.018 52.3714 186.926C52.1689 186.835 52.0006 186.695 51.8664 186.508C51.7343 186.32 51.6682 186.084 51.6682 185.798V180.915ZM57.9948 183.19L57.3172 183.382C57.2746 183.269 57.2117 183.159 57.1286 183.053C57.0477 182.944 56.9369 182.855 56.7963 182.784C56.6556 182.714 56.4756 182.679 56.2561 182.679C55.9557 182.679 55.7053 182.748 55.5051 182.887C55.3069 183.023 55.2078 183.197 55.2078 183.408C55.2078 183.595 55.276 183.743 55.4124 183.852C55.5487 183.961 55.7618 184.051 56.0516 184.124L56.7803 184.303C57.2192 184.409 57.5463 184.572 57.7615 184.792C57.9767 185.009 58.0843 185.289 58.0843 185.632C58.0843 185.913 58.0033 186.165 57.8414 186.386C57.6816 186.608 57.4578 186.783 57.1702 186.911C56.8825 187.038 56.548 187.102 56.1666 187.102C55.6659 187.102 55.2515 186.994 54.9234 186.776C54.5953 186.559 54.3875 186.241 54.3002 185.824L55.0161 185.645C55.0843 185.909 55.2132 186.107 55.4028 186.239C55.5945 186.371 55.8449 186.438 56.1539 186.438C56.5054 186.438 56.7845 186.363 56.9912 186.214C57.2 186.062 57.3044 185.881 57.3044 185.67C57.3044 185.5 57.2448 185.357 57.1254 185.242C57.0061 185.125 56.8229 185.038 56.5757 184.98L55.7575 184.788C55.308 184.682 54.9777 184.517 54.7668 184.293C54.558 184.067 54.4536 183.785 54.4536 183.446C54.4536 183.169 54.5313 182.924 54.6869 182.711C54.8445 182.498 55.0587 182.331 55.3293 182.209C55.602 182.088 55.911 182.027 56.2561 182.027C56.7419 182.027 57.1233 182.134 57.4003 182.347C57.6794 182.56 57.8776 182.841 57.9948 183.19Z" fill="#525252"/>
</svg>
