<svg width="342" height="36" viewBox="0 0 342 36" fill="none" xmlns="http://www.w3.org/2000/svg">
<g clip-path="url(#clip0_7694_21776)">
<rect width="342" height="36" rx="5" fill="#D9D9D9"/>
<g filter="url(#filter0_d_7694_21776)">
<rect x="4" y="4" width="51" height="28" rx="4" fill="white" shape-rendering="crispEdges"/>
<path d="M22.6399 23H20.3331L23.848 12.8182H26.6222L30.1321 23H27.8253L25.2749 15.1449H25.1953L22.6399 23ZM22.4957 18.9979H27.9446V20.6783H22.4957V18.9979ZM33.4357 12.8182V23H31.3178V12.8182H33.4357ZM37.2502 12.8182V23H35.1323V12.8182H37.2502Z" fill="#3D3D3D"/>
</g>
<path d="M76.9787 23H75.348L79.0121 12.8182H80.7869L84.451 23H82.8203L79.9418 14.6676H79.8622L76.9787 23ZM77.2521 19.0128H82.5419V20.3054H77.2521V19.0128ZM91.4696 17.228L90.1223 17.4666C90.066 17.2943 89.9765 17.1302 89.8539 16.9744C89.7346 16.8187 89.5721 16.6911 89.3667 16.5916C89.1612 16.4922 88.9043 16.4425 88.5961 16.4425C88.1751 16.4425 87.8238 16.5369 87.5421 16.7259C87.2604 16.9115 87.1195 17.1518 87.1195 17.4467C87.1195 17.7019 87.214 17.9074 87.4029 18.0632C87.5918 18.219 87.8967 18.3466 88.3176 18.446L89.5307 18.7244C90.2334 18.8868 90.757 19.1371 91.1017 19.4751C91.4464 19.8132 91.6188 20.2524 91.6188 20.7926C91.6188 21.25 91.4862 21.6577 91.2211 22.0156C90.9592 22.3703 90.593 22.6487 90.1223 22.8509C89.655 23.053 89.1131 23.1541 88.4966 23.1541C87.6415 23.1541 86.9438 22.9718 86.4036 22.6072C85.8633 22.2393 85.5319 21.7173 85.4093 21.0412L86.8461 20.8224C86.9355 21.197 87.1195 21.4804 87.3979 21.6726C87.6763 21.8615 88.0392 21.956 88.4867 21.956C88.9739 21.956 89.3633 21.8549 89.655 21.6527C89.9467 21.4472 90.0925 21.197 90.0925 20.902C90.0925 20.6634 90.003 20.4628 89.824 20.3004C89.6484 20.138 89.3783 20.0154 89.0137 19.9325L87.7211 19.6491C87.0085 19.4867 86.4815 19.2282 86.1401 18.8736C85.802 18.5189 85.633 18.0698 85.633 17.5263C85.633 17.0755 85.7589 16.6811 86.0108 16.343C86.2627 16.005 86.6107 15.7415 87.0549 15.5526C87.499 15.3603 88.0078 15.2642 88.5811 15.2642C89.4064 15.2642 90.056 15.4432 90.53 15.8011C91.004 16.1558 91.3172 16.6314 91.4696 17.228ZM98.9755 17.228L97.6282 17.4666C97.5719 17.2943 97.4824 17.1302 97.3597 16.9744C97.2404 16.8187 97.078 16.6911 96.8725 16.5916C96.667 16.4922 96.4102 16.4425 96.1019 16.4425C95.681 16.4425 95.3297 16.5369 95.0479 16.7259C94.7662 16.9115 94.6254 17.1518 94.6254 17.4467C94.6254 17.7019 94.7198 17.9074 94.9087 18.0632C95.0977 18.219 95.4026 18.3466 95.8235 18.446L97.0366 18.7244C97.7392 18.8868 98.2629 19.1371 98.6076 19.4751C98.9523 19.8132 99.1246 20.2524 99.1246 20.7926C99.1246 21.25 98.9921 21.6577 98.7269 22.0156C98.4651 22.3703 98.0988 22.6487 97.6282 22.8509C97.1609 23.053 96.619 23.1541 96.0025 23.1541C95.1474 23.1541 94.4497 22.9718 93.9094 22.6072C93.3692 22.2393 93.0378 21.7173 92.9151 21.0412L94.3519 20.8224C94.4414 21.197 94.6254 21.4804 94.9038 21.6726C95.1822 21.8615 95.5451 21.956 95.9925 21.956C96.4798 21.956 96.8692 21.8549 97.1609 21.6527C97.4525 21.4472 97.5984 21.197 97.5984 20.902C97.5984 20.6634 97.5089 20.4628 97.3299 20.3004C97.1542 20.138 96.8841 20.0154 96.5195 19.9325L95.2269 19.6491C94.5143 19.4867 93.9873 19.2282 93.646 18.8736C93.3079 18.5189 93.1388 18.0698 93.1388 17.5263C93.1388 17.0755 93.2648 16.6811 93.5167 16.343C93.7686 16.005 94.1166 15.7415 94.5607 15.5526C95.0049 15.3603 95.5136 15.2642 96.087 15.2642C96.9123 15.2642 97.5619 15.4432 98.0359 15.8011C98.5098 16.1558 98.823 16.6314 98.9755 17.228ZM104.05 23.1541C103.298 23.1541 102.65 22.9934 102.106 22.6719C101.566 22.3471 101.148 21.8913 100.854 21.3047C100.562 20.7147 100.416 20.0237 100.416 19.2315C100.416 18.4493 100.562 17.7599 100.854 17.1634C101.148 16.5668 101.559 16.1011 102.086 15.7663C102.617 15.4316 103.237 15.2642 103.946 15.2642C104.377 15.2642 104.794 15.3355 105.199 15.478C105.603 15.6205 105.966 15.8442 106.287 16.1491C106.609 16.4541 106.863 16.8501 107.048 17.3374C107.234 17.8213 107.327 18.4096 107.327 19.1023V19.6293H101.256V18.5156H105.87C105.87 18.1245 105.79 17.7782 105.631 17.4766C105.472 17.1716 105.248 16.9313 104.96 16.7557C104.675 16.58 104.34 16.4922 103.956 16.4922C103.538 16.4922 103.174 16.5949 102.862 16.8004C102.554 17.0026 102.315 17.2678 102.146 17.5959C101.98 17.9207 101.898 18.2737 101.898 18.6548V19.5249C101.898 20.0353 101.987 20.4695 102.166 20.8274C102.348 21.1854 102.602 21.4588 102.927 21.6477C103.251 21.8333 103.631 21.9261 104.065 21.9261C104.347 21.9261 104.604 21.8864 104.836 21.8068C105.068 21.724 105.268 21.6013 105.437 21.4389C105.606 21.2765 105.736 21.076 105.825 20.8374L107.232 21.0909C107.119 21.5052 106.917 21.8681 106.626 22.1797C106.337 22.4879 105.974 22.7282 105.537 22.9006C105.103 23.0696 104.607 23.1541 104.05 23.1541ZM112.54 15.3636V16.5568H108.369V15.3636H112.54ZM109.488 13.5341H110.974V20.7578C110.974 21.0462 111.018 21.2633 111.104 21.4091C111.19 21.5516 111.301 21.6494 111.437 21.7024C111.576 21.7521 111.727 21.777 111.889 21.777C112.009 21.777 112.113 21.7687 112.202 21.7521C112.292 21.7356 112.362 21.7223 112.411 21.7124L112.68 22.9403C112.594 22.9735 112.471 23.0066 112.312 23.0398C112.153 23.0762 111.954 23.0961 111.715 23.0994C111.324 23.1061 110.96 23.0365 110.621 22.8906C110.283 22.7448 110.01 22.5194 109.801 22.2145C109.592 21.9096 109.488 21.5268 109.488 21.0661V13.5341ZM119.784 17.228L118.437 17.4666C118.38 17.2943 118.291 17.1302 118.168 16.9744C118.049 16.8187 117.887 16.6911 117.681 16.5916C117.476 16.4922 117.219 16.4425 116.911 16.4425C116.49 16.4425 116.138 16.5369 115.857 16.7259C115.575 16.9115 115.434 17.1518 115.434 17.4467C115.434 17.7019 115.528 17.9074 115.717 18.0632C115.906 18.219 116.211 18.3466 116.632 18.446L117.845 18.7244C118.548 18.8868 119.071 19.1371 119.416 19.4751C119.761 19.8132 119.933 20.2524 119.933 20.7926C119.933 21.25 119.801 21.6577 119.536 22.0156C119.274 22.3703 118.907 22.6487 118.437 22.8509C117.969 23.053 117.428 23.1541 116.811 23.1541C115.956 23.1541 115.258 22.9718 114.718 22.6072C114.178 22.2393 113.846 21.7173 113.724 21.0412L115.161 20.8224C115.25 21.197 115.434 21.4804 115.712 21.6726C115.991 21.8615 116.354 21.956 116.801 21.956C117.288 21.956 117.678 21.8549 117.969 21.6527C118.261 21.4472 118.407 21.197 118.407 20.902C118.407 20.6634 118.317 20.4628 118.138 20.3004C117.963 20.138 117.693 20.0154 117.328 19.9325L116.036 19.6491C115.323 19.4867 114.796 19.2282 114.455 18.8736C114.116 18.5189 113.947 18.0698 113.947 17.5263C113.947 17.0755 114.073 16.6811 114.325 16.343C114.577 16.005 114.925 15.7415 115.369 15.5526C115.813 15.3603 116.322 15.2642 116.896 15.2642C117.721 15.2642 118.371 15.4432 118.844 15.8011C119.318 16.1558 119.632 16.6314 119.784 17.228Z" fill="#525252"/>
<path d="M166.575 16.1293H165.024C164.964 15.7978 164.853 15.5062 164.691 15.2543C164.529 15.0024 164.33 14.7886 164.094 14.6129C163.859 14.4373 163.596 14.3047 163.304 14.2152C163.016 14.1257 162.709 14.081 162.384 14.081C161.798 14.081 161.272 14.2285 160.808 14.5234C160.348 14.8184 159.983 15.2509 159.714 15.821C159.449 16.3911 159.317 17.0871 159.317 17.9091C159.317 18.7377 159.449 19.437 159.714 20.0071C159.983 20.5772 160.349 21.008 160.813 21.2997C161.277 21.5914 161.799 21.7372 162.379 21.7372C162.701 21.7372 163.006 21.6941 163.294 21.608C163.586 21.5185 163.849 21.3875 164.085 21.2152C164.32 21.0429 164.519 20.8324 164.681 20.5838C164.847 20.3319 164.961 20.0436 165.024 19.7188L166.575 19.7237C166.492 20.2242 166.332 20.6849 166.093 21.1058C165.858 21.5234 165.554 21.8847 165.183 22.1896C164.815 22.4912 164.394 22.7249 163.92 22.8906C163.446 23.0563 162.929 23.1392 162.369 23.1392C161.488 23.1392 160.702 22.9304 160.013 22.5128C159.323 22.0919 158.78 21.4903 158.382 20.7081C157.988 19.9259 157.79 18.9929 157.79 17.9091C157.79 16.822 157.989 15.889 158.387 15.1101C158.785 14.3279 159.328 13.728 160.018 13.3104C160.707 12.8894 161.491 12.679 162.369 12.679C162.91 12.679 163.413 12.7569 163.881 12.9126C164.351 13.0651 164.774 13.2905 165.148 13.5888C165.523 13.8838 165.833 14.245 166.078 14.6726C166.323 15.0968 166.489 15.5824 166.575 16.1293ZM171.511 23.1541C170.795 23.1541 170.17 22.9901 169.637 22.6619C169.103 22.3338 168.689 21.8748 168.394 21.2848C168.099 20.6948 167.951 20.0054 167.951 19.2166C167.951 18.4245 168.099 17.7318 168.394 17.1385C168.689 16.5452 169.103 16.0845 169.637 15.7564C170.17 15.4283 170.795 15.2642 171.511 15.2642C172.227 15.2642 172.852 15.4283 173.385 15.7564C173.919 16.0845 174.333 16.5452 174.628 17.1385C174.923 17.7318 175.07 18.4245 175.07 19.2166C175.07 20.0054 174.923 20.6948 174.628 21.2848C174.333 21.8748 173.919 22.3338 173.385 22.6619C172.852 22.9901 172.227 23.1541 171.511 23.1541ZM171.516 21.9062C171.98 21.9062 172.364 21.7836 172.669 21.5384C172.974 21.2931 173.2 20.9666 173.345 20.5589C173.494 20.1513 173.569 19.7022 173.569 19.2116C173.569 18.7244 173.494 18.277 173.345 17.8693C173.2 17.4583 172.974 17.1286 172.669 16.88C172.364 16.6314 171.98 16.5071 171.516 16.5071C171.048 16.5071 170.661 16.6314 170.352 16.88C170.048 17.1286 169.82 17.4583 169.671 17.8693C169.526 18.277 169.453 18.7244 169.453 19.2116C169.453 19.7022 169.526 20.1513 169.671 20.5589C169.82 20.9666 170.048 21.2931 170.352 21.5384C170.661 21.7836 171.048 21.9062 171.516 21.9062ZM178.216 12.8182V23H176.73V12.8182H178.216ZM181.703 12.8182V23H180.216V12.8182H181.703ZM185.925 23.169C185.441 23.169 185.003 23.0795 184.612 22.9006C184.221 22.7183 183.911 22.4548 183.683 22.1101C183.457 21.7654 183.344 21.3428 183.344 20.8423C183.344 20.4115 183.427 20.0568 183.593 19.7784C183.759 19.5 183.982 19.2796 184.264 19.1172C184.546 18.9548 184.861 18.8321 185.209 18.7493C185.557 18.6664 185.911 18.6035 186.273 18.5604C186.73 18.5073 187.101 18.4643 187.386 18.4311C187.671 18.3946 187.879 18.3366 188.008 18.2571C188.137 18.1776 188.202 18.0483 188.202 17.8693V17.8345C188.202 17.4003 188.079 17.0639 187.834 16.8253C187.592 16.5866 187.231 16.4673 186.75 16.4673C186.25 16.4673 185.855 16.5784 185.567 16.8004C185.282 17.0192 185.085 17.2628 184.975 17.5312L183.578 17.2131C183.744 16.7491 183.986 16.3745 184.304 16.0895C184.625 15.8011 184.995 15.5923 185.413 15.4631C185.83 15.3305 186.269 15.2642 186.73 15.2642C187.035 15.2642 187.358 15.3007 187.7 15.3736C188.044 15.4432 188.366 15.5724 188.664 15.7614C188.966 15.9503 189.213 16.2204 189.405 16.5717C189.597 16.9197 189.693 17.3722 189.693 17.929V23H188.241V21.956H188.182C188.086 22.1482 187.942 22.3371 187.749 22.5227C187.557 22.7083 187.31 22.8625 187.009 22.9851C186.707 23.1077 186.346 23.169 185.925 23.169ZM186.248 21.9759C186.659 21.9759 187.01 21.8946 187.302 21.7322C187.597 21.5698 187.821 21.3577 187.973 21.0959C188.129 20.8307 188.207 20.5473 188.207 20.2457V19.2614C188.154 19.3144 188.051 19.3641 187.898 19.4105C187.749 19.4536 187.579 19.4917 187.386 19.5249C187.194 19.5547 187.007 19.5829 186.825 19.6094C186.642 19.6326 186.49 19.6525 186.367 19.669C186.079 19.7055 185.815 19.7668 185.577 19.853C185.341 19.9392 185.152 20.0634 185.01 20.2259C184.871 20.3849 184.801 20.5971 184.801 20.8622C184.801 21.2301 184.937 21.5085 185.209 21.6974C185.481 21.883 185.827 21.9759 186.248 21.9759ZM194.875 26.0227C194.268 26.0227 193.746 25.9432 193.309 25.7841C192.875 25.625 192.52 25.4145 192.245 25.1527C191.97 24.8909 191.764 24.6042 191.628 24.2926L192.906 23.7656C192.996 23.9115 193.115 24.0656 193.264 24.228C193.416 24.3937 193.622 24.5346 193.881 24.6506C194.142 24.7666 194.479 24.8246 194.89 24.8246C195.453 24.8246 195.919 24.687 196.287 24.4119C196.655 24.1402 196.839 23.706 196.839 23.1094V21.608H196.744C196.655 21.7704 196.525 21.951 196.356 22.1499C196.191 22.3487 195.962 22.5211 195.67 22.6669C195.379 22.8127 194.999 22.8857 194.532 22.8857C193.929 22.8857 193.385 22.7448 192.901 22.4631C192.421 22.178 192.039 21.7588 191.758 21.2053C191.479 20.6484 191.34 19.964 191.34 19.152C191.34 18.34 191.478 17.6439 191.753 17.0639C192.031 16.4839 192.412 16.0398 192.896 15.7315C193.38 15.42 193.929 15.2642 194.542 15.2642C195.016 15.2642 195.398 15.3438 195.69 15.5028C195.982 15.6586 196.209 15.8409 196.371 16.0497C196.537 16.2585 196.665 16.4425 196.754 16.6016H196.863V15.3636H198.32V23.169C198.32 23.8253 198.168 24.3639 197.863 24.7848C197.558 25.2057 197.145 25.5173 196.625 25.7195C196.108 25.9216 195.524 26.0227 194.875 26.0227ZM194.86 21.6527C195.287 21.6527 195.649 21.5533 195.944 21.3544C196.242 21.1522 196.467 20.8639 196.62 20.4893C196.776 20.1115 196.854 19.6591 196.854 19.1321C196.854 18.6184 196.777 18.166 196.625 17.7749C196.472 17.3838 196.249 17.0788 195.954 16.8601C195.659 16.638 195.294 16.527 194.86 16.527C194.412 16.527 194.04 16.643 193.741 16.875C193.443 17.1037 193.218 17.4152 193.065 17.8097C192.916 18.2041 192.841 18.6449 192.841 19.1321C192.841 19.6326 192.918 20.0717 193.07 20.4496C193.223 20.8274 193.448 21.1224 193.746 21.3345C194.048 21.5466 194.419 21.6527 194.86 21.6527ZM203.605 23.1541C202.853 23.1541 202.205 22.9934 201.661 22.6719C201.121 22.3471 200.703 21.8913 200.408 21.3047C200.117 20.7147 199.971 20.0237 199.971 19.2315C199.971 18.4493 200.117 17.7599 200.408 17.1634C200.703 16.5668 201.114 16.1011 201.641 15.7663C202.171 15.4316 202.791 15.2642 203.501 15.2642C203.931 15.2642 204.349 15.3355 204.753 15.478C205.158 15.6205 205.521 15.8442 205.842 16.1491C206.164 16.4541 206.417 16.8501 206.603 17.3374C206.788 17.8213 206.881 18.4096 206.881 19.1023V19.6293H200.811V18.5156H205.425C205.425 18.1245 205.345 17.7782 205.186 17.4766C205.027 17.1716 204.803 16.9313 204.515 16.7557C204.23 16.58 203.895 16.4922 203.51 16.4922C203.093 16.4922 202.728 16.5949 202.417 16.8004C202.108 17.0026 201.87 17.2678 201.701 17.5959C201.535 17.9207 201.452 18.2737 201.452 18.6548V19.5249C201.452 20.0353 201.542 20.4695 201.721 20.8274C201.903 21.1854 202.157 21.4588 202.481 21.6477C202.806 21.8333 203.186 21.9261 203.62 21.9261C203.902 21.9261 204.158 21.8864 204.39 21.8068C204.622 21.724 204.823 21.6013 204.992 21.4389C205.161 21.2765 205.29 21.076 205.38 20.8374L206.787 21.0909C206.674 21.5052 206.472 21.8681 206.18 22.1797C205.892 22.4879 205.529 22.7282 205.091 22.9006C204.657 23.0696 204.162 23.1541 203.605 23.1541ZM214.253 17.228L212.906 17.4666C212.849 17.2943 212.76 17.1302 212.637 16.9744C212.518 16.8187 212.355 16.6911 212.15 16.5916C211.944 16.4922 211.688 16.4425 211.379 16.4425C210.958 16.4425 210.607 16.5369 210.325 16.7259C210.044 16.9115 209.903 17.1518 209.903 17.4467C209.903 17.7019 209.997 17.9074 210.186 18.0632C210.375 18.219 210.68 18.3466 211.101 18.446L212.314 18.7244C213.017 18.8868 213.54 19.1371 213.885 19.4751C214.23 19.8132 214.402 20.2524 214.402 20.7926C214.402 21.25 214.269 21.6577 214.004 22.0156C213.742 22.3703 213.376 22.6487 212.906 22.8509C212.438 23.053 211.896 23.1541 211.28 23.1541C210.425 23.1541 209.727 22.9718 209.187 22.6072C208.647 22.2393 208.315 21.7173 208.192 21.0412L209.629 20.8224C209.719 21.197 209.903 21.4804 210.181 21.6726C210.46 21.8615 210.822 21.956 211.27 21.956C211.757 21.956 212.147 21.8549 212.438 21.6527C212.73 21.4472 212.876 21.197 212.876 20.902C212.876 20.6634 212.786 20.4628 212.607 20.3004C212.432 20.138 212.161 20.0154 211.797 19.9325L210.504 19.6491C209.792 19.4867 209.265 19.2282 208.923 18.8736C208.585 18.5189 208.416 18.0698 208.416 17.5263C208.416 17.0755 208.542 16.6811 208.794 16.343C209.046 16.005 209.394 15.7415 209.838 15.5526C210.282 15.3603 210.791 15.2642 211.364 15.2642C212.19 15.2642 212.839 15.4432 213.313 15.8011C213.787 16.1558 214.1 16.6314 214.253 17.228Z" fill="#525252"/>
<path d="M253.119 23V12.8182H259.433V14.1406H254.655V17.2429H258.98V18.5604H254.655V23H253.119ZM263.858 23.1541C263.143 23.1541 262.518 22.9901 261.984 22.6619C261.451 22.3338 261.036 21.8748 260.741 21.2848C260.446 20.6948 260.299 20.0054 260.299 19.2166C260.299 18.4245 260.446 17.7318 260.741 17.1385C261.036 16.5452 261.451 16.0845 261.984 15.7564C262.518 15.4283 263.143 15.2642 263.858 15.2642C264.574 15.2642 265.199 15.4283 265.733 15.7564C266.266 16.0845 266.681 16.5452 266.976 17.1385C267.271 17.7318 267.418 18.4245 267.418 19.2166C267.418 20.0054 267.271 20.6948 266.976 21.2848C266.681 21.8748 266.266 22.3338 265.733 22.6619C265.199 22.9901 264.574 23.1541 263.858 23.1541ZM263.863 21.9062C264.327 21.9062 264.712 21.7836 265.017 21.5384C265.322 21.2931 265.547 20.9666 265.693 20.5589C265.842 20.1513 265.917 19.7022 265.917 19.2116C265.917 18.7244 265.842 18.277 265.693 17.8693C265.547 17.4583 265.322 17.1286 265.017 16.88C264.712 16.6314 264.327 16.5071 263.863 16.5071C263.396 16.5071 263.008 16.6314 262.7 16.88C262.395 17.1286 262.168 17.4583 262.019 17.8693C261.873 18.277 261.8 18.7244 261.8 19.2116C261.8 19.7022 261.873 20.1513 262.019 20.5589C262.168 20.9666 262.395 21.2931 262.7 21.5384C263.008 21.7836 263.396 21.9062 263.863 21.9062ZM270.564 12.8182V23H269.077V12.8182H270.564ZM275.422 23.1491C274.806 23.1491 274.256 22.9917 273.772 22.6768C273.291 22.3587 272.913 21.9062 272.638 21.3196C272.367 20.7296 272.231 20.022 272.231 19.1967C272.231 18.3714 272.368 17.6655 272.643 17.0788C272.922 16.4922 273.303 16.0431 273.787 15.7315C274.271 15.42 274.819 15.2642 275.432 15.2642C275.906 15.2642 276.287 15.3438 276.576 15.5028C276.867 15.6586 277.093 15.8409 277.252 16.0497C277.414 16.2585 277.54 16.4425 277.63 16.6016H277.719V12.8182H279.206V23H277.754V21.8118H277.63C277.54 21.9742 277.411 22.1598 277.242 22.3686C277.076 22.5774 276.848 22.7597 276.556 22.9155C276.264 23.0713 275.886 23.1491 275.422 23.1491ZM275.751 21.8814C276.178 21.8814 276.539 21.7687 276.834 21.5433C277.133 21.3146 277.358 20.9981 277.51 20.5938C277.666 20.1894 277.744 19.7187 277.744 19.1818C277.744 18.6515 277.668 18.1875 277.515 17.7898C277.363 17.392 277.139 17.0821 276.844 16.8601C276.549 16.638 276.185 16.527 275.751 16.527C275.303 16.527 274.93 16.643 274.632 16.875C274.334 17.107 274.108 17.4235 273.956 17.8246C273.807 18.2256 273.732 18.678 273.732 19.1818C273.732 19.6922 273.808 20.1513 273.961 20.5589C274.113 20.9666 274.339 21.2898 274.637 21.5284C274.939 21.7637 275.31 21.8814 275.751 21.8814ZM284.619 23.1541C283.866 23.1541 283.218 22.9934 282.675 22.6719C282.134 22.3471 281.717 21.8913 281.422 21.3047C281.13 20.7147 280.984 20.0237 280.984 19.2315C280.984 18.4493 281.13 17.7599 281.422 17.1634C281.717 16.5668 282.128 16.1011 282.655 15.7663C283.185 15.4316 283.805 15.2642 284.514 15.2642C284.945 15.2642 285.363 15.3355 285.767 15.478C286.171 15.6205 286.534 15.8442 286.856 16.1491C287.177 16.4541 287.431 16.8501 287.616 17.3374C287.802 17.8213 287.895 18.4096 287.895 19.1023V19.6293H281.825V18.5156H286.438C286.438 18.1245 286.359 17.7782 286.2 17.4766C286.04 17.1716 285.817 16.9313 285.528 16.7557C285.243 16.58 284.909 16.4922 284.524 16.4922C284.107 16.4922 283.742 16.5949 283.43 16.8004C283.122 17.0026 282.884 17.2678 282.714 17.5959C282.549 17.9207 282.466 18.2737 282.466 18.6548V19.5249C282.466 20.0353 282.555 20.4695 282.734 20.8274C282.917 21.1854 283.17 21.4588 283.495 21.6477C283.82 21.8333 284.199 21.9261 284.634 21.9261C284.915 21.9261 285.172 21.8864 285.404 21.8068C285.636 21.724 285.837 21.6013 286.006 21.4389C286.175 21.2765 286.304 21.076 286.393 20.8374L287.8 21.0909C287.688 21.5052 287.486 21.8681 287.194 22.1797C286.906 22.4879 286.543 22.7282 286.105 22.9006C285.671 23.0696 285.175 23.1541 284.619 23.1541ZM289.544 23V15.3636H290.981V16.5767H291.061C291.2 16.1657 291.445 15.8426 291.796 15.6072C292.151 15.3686 292.552 15.2493 292.999 15.2493C293.092 15.2493 293.202 15.2526 293.328 15.2592C293.457 15.2659 293.558 15.2741 293.631 15.2841V16.706C293.571 16.6894 293.465 16.6712 293.313 16.6513C293.16 16.6281 293.008 16.6165 292.855 16.6165C292.504 16.6165 292.191 16.6911 291.916 16.8402C291.644 16.986 291.428 17.1899 291.269 17.4517C291.11 17.7102 291.031 18.0052 291.031 18.3366V23H289.544ZM300.64 17.228L299.292 17.4666C299.236 17.2943 299.146 17.1302 299.024 16.9744C298.904 16.8187 298.742 16.6911 298.537 16.5916C298.331 16.4922 298.074 16.4425 297.766 16.4425C297.345 16.4425 296.994 16.5369 296.712 16.7259C296.43 16.9115 296.289 17.1518 296.289 17.4467C296.289 17.7019 296.384 17.9074 296.573 18.0632C296.762 18.219 297.067 18.3466 297.488 18.446L298.701 18.7244C299.403 18.8868 299.927 19.1371 300.272 19.4751C300.616 19.8132 300.789 20.2524 300.789 20.7926C300.789 21.25 300.656 21.6577 300.391 22.0156C300.129 22.3703 299.763 22.6487 299.292 22.8509C298.825 23.053 298.283 23.1541 297.667 23.1541C296.811 23.1541 296.114 22.9718 295.574 22.6072C295.033 22.2393 294.702 21.7173 294.579 21.0412L296.016 20.8224C296.105 21.197 296.289 21.4804 296.568 21.6726C296.846 21.8615 297.209 21.956 297.657 21.956C298.144 21.956 298.533 21.8549 298.825 21.6527C299.117 21.4472 299.262 21.197 299.262 20.902C299.262 20.6634 299.173 20.4628 298.994 20.3004C298.818 20.138 298.548 20.0154 298.184 19.9325L296.891 19.6491C296.178 19.4867 295.651 19.2282 295.31 18.8736C294.972 18.5189 294.803 18.0698 294.803 17.5263C294.803 17.0755 294.929 16.6811 295.181 16.343C295.433 16.005 295.781 15.7415 296.225 15.5526C296.669 15.3603 297.178 15.2642 297.751 15.2642C298.576 15.2642 299.226 15.4432 299.7 15.8011C300.174 16.1558 300.487 16.6314 300.64 17.228Z" fill="#525252"/>
</g>
<defs>
<filter id="filter0_d_7694_21776" x="-2" y="0" width="63" height="40" filterUnits="userSpaceOnUse" color-interpolation-filters="sRGB">
<feFlood flood-opacity="0" result="BackgroundImageFix"/>
<feColorMatrix in="SourceAlpha" type="matrix" values="0 0 0 0 0 0 0 0 0 0 0 0 0 0 0 0 0 0 127 0" result="hardAlpha"/>
<feOffset dy="2"/>
<feGaussianBlur stdDeviation="3"/>
<feComposite in2="hardAlpha" operator="out"/>
<feColorMatrix type="matrix" values="0 0 0 0 0 0 0 0 0 0 0 0 0 0 0 0 0 0 0.1 0"/>
<feBlend mode="normal" in2="BackgroundImageFix" result="effect1_dropShadow_7694_21776"/>
<feBlend mode="normal" in="SourceGraphic" in2="effect1_dropShadow_7694_21776" result="shape"/>
</filter>
<clipPath id="clip0_7694_21776">
<rect width="342" height="36" rx="5" fill="white"/>
</clipPath>
</defs>
</svg>
