<svg width="210" height="280" viewBox="0 0 210 280" fill="none" xmlns="http://www.w3.org/2000/svg">
<g filter="url(#filter0_d_1222_4923)">
<rect x="6" y="4" width="198" height="268" rx="20" fill="white" shape-rendering="crispEdges"/>
<path d="M48 42H55.5M48 34.5V49.5M44.5 34.5H51.5C52.9002 34.5 53.6002 34.5 54.135 34.7725C54.6054 35.0122 54.9878 35.3946 55.2275 35.865C55.5 36.3998 55.5 37.0999 55.5 38.5V45.5C55.5 46.9002 55.5 47.6002 55.2275 48.135C54.9878 48.6054 54.6054 48.9878 54.135 49.2275C53.6002 49.5 52.9002 49.5 51.5 49.5H44.5C43.0999 49.5 42.3998 49.5 41.865 49.2275C41.3946 48.9878 41.0122 48.6054 40.7725 48.135C40.5 47.6002 40.5 46.9002 40.5 45.5V38.5C40.5 37.0999 40.5 36.3998 40.7725 35.865C41.0122 35.3946 41.3946 35.0122 41.865 34.7725C42.3998 34.5 43.0999 34.5 44.5 34.5Z" stroke="#3D3D3D" stroke-width="2" stroke-linecap="round" stroke-linejoin="round"/>
<path d="M67.6506 47.5H66.358L70.0966 37.3182H71.3693L75.108 47.5H73.8153L70.7727 38.929H70.6932L67.6506 47.5ZM68.1278 43.5227H73.3381V44.6165H68.1278V43.5227ZM79.4183 47.6591C78.782 47.6591 78.2202 47.4983 77.733 47.1768C77.2457 46.852 76.8646 46.3946 76.5895 45.8047C76.3144 45.2114 76.1768 44.5104 76.1768 43.7017C76.1768 42.8996 76.3144 42.2036 76.5895 41.6136C76.8646 41.0237 77.2474 40.5679 77.7379 40.2464C78.2285 39.925 78.7952 39.7642 79.4382 39.7642C79.9354 39.7642 80.3281 39.8471 80.6165 40.0128C80.9081 40.1752 81.1302 40.3608 81.2827 40.5696C81.4384 40.7751 81.5594 40.9441 81.6456 41.0767H81.745V37.3182H82.9183V47.5H81.7848V46.3267H81.6456C81.5594 46.4659 81.4368 46.6416 81.2777 46.8537C81.1186 47.0625 80.8916 47.2498 80.5966 47.4155C80.3016 47.5779 79.9089 47.6591 79.4183 47.6591ZM79.5774 46.6051C80.0481 46.6051 80.4458 46.4825 80.7706 46.2372C81.0954 45.9886 81.3423 45.6456 81.5114 45.2081C81.6804 44.7673 81.7649 44.2585 81.7649 43.6818C81.7649 43.1117 81.6821 42.6129 81.5163 42.1854C81.3506 41.7545 81.1054 41.4197 80.7805 41.1811C80.4557 40.9392 80.0547 40.8182 79.5774 40.8182C79.0803 40.8182 78.666 40.9458 78.3345 41.201C78.0064 41.4529 77.7595 41.7959 77.5938 42.2301C77.4313 42.661 77.3501 43.1449 77.3501 43.6818C77.3501 44.2254 77.433 44.7192 77.5987 45.1634C77.7678 45.6042 78.0163 45.9555 78.3445 46.2173C78.6759 46.4759 79.0869 46.6051 79.5774 46.6051ZM88.1136 47.6591C87.4773 47.6591 86.9155 47.4983 86.4283 47.1768C85.9411 46.852 85.5599 46.3946 85.2848 45.8047C85.0097 45.2114 84.8722 44.5104 84.8722 43.7017C84.8722 42.8996 85.0097 42.2036 85.2848 41.6136C85.5599 41.0237 85.9427 40.5679 86.4332 40.2464C86.9238 39.925 87.4905 39.7642 88.1335 39.7642C88.6307 39.7642 89.0234 39.8471 89.3118 40.0128C89.6035 40.1752 89.8255 40.3608 89.978 40.5696C90.1338 40.7751 90.2547 40.9441 90.3409 41.0767H90.4403V37.3182H91.6136V47.5H90.4801V46.3267H90.3409C90.2547 46.4659 90.1321 46.6416 89.973 46.8537C89.8139 47.0625 89.5869 47.2498 89.2919 47.4155C88.9969 47.5779 88.6042 47.6591 88.1136 47.6591ZM88.2727 46.6051C88.7434 46.6051 89.1411 46.4825 89.4659 46.2372C89.7907 45.9886 90.0376 45.6456 90.2067 45.2081C90.3757 44.7673 90.4602 44.2585 90.4602 43.6818C90.4602 43.1117 90.3774 42.6129 90.2116 42.1854C90.0459 41.7545 89.8007 41.4197 89.4759 41.1811C89.151 40.9392 88.75 40.8182 88.2727 40.8182C87.7756 40.8182 87.3613 40.9458 87.0298 41.201C86.7017 41.4529 86.4548 41.7959 86.2891 42.2301C86.1267 42.661 86.0455 43.1449 86.0455 43.6818C86.0455 44.2254 86.1283 44.7192 86.294 45.1634C86.4631 45.6042 86.7116 45.9555 87.0398 46.2173C87.3712 46.4759 87.7822 46.6051 88.2727 46.6051ZM101.184 39.8636V40.858H97.2266V39.8636H101.184ZM98.38 38.0341H99.5533V45.3125C99.5533 45.6439 99.6013 45.8925 99.6974 46.0582C99.7969 46.2206 99.9228 46.33 100.075 46.3864C100.231 46.4394 100.395 46.4659 100.567 46.4659C100.697 46.4659 100.803 46.4593 100.886 46.446C100.969 46.4295 101.035 46.4162 101.085 46.4062L101.323 47.4602C101.244 47.4901 101.133 47.5199 100.99 47.5497C100.848 47.5829 100.667 47.5994 100.448 47.5994C100.117 47.5994 99.7919 47.5282 99.4737 47.3857C99.1589 47.2431 98.897 47.026 98.6882 46.7344C98.4827 46.4427 98.38 46.0748 98.38 45.6307V38.0341ZM105.969 47.6591C105.28 47.6591 104.675 47.495 104.154 47.1669C103.637 46.8388 103.233 46.3797 102.941 45.7898C102.653 45.1998 102.509 44.5104 102.509 43.7216C102.509 42.9261 102.653 42.2318 102.941 41.6385C103.233 41.0452 103.637 40.5845 104.154 40.2564C104.675 39.9283 105.28 39.7642 105.969 39.7642C106.658 39.7642 107.262 39.9283 107.779 40.2564C108.299 40.5845 108.703 41.0452 108.992 41.6385C109.283 42.2318 109.429 42.9261 109.429 43.7216C109.429 44.5104 109.283 45.1998 108.992 45.7898C108.703 46.3797 108.299 46.8388 107.779 47.1669C107.262 47.495 106.658 47.6591 105.969 47.6591ZM105.969 46.6051C106.493 46.6051 106.924 46.4709 107.262 46.2024C107.6 45.9339 107.85 45.581 108.012 45.1435C108.175 44.706 108.256 44.232 108.256 43.7216C108.256 43.2112 108.175 42.7356 108.012 42.2947C107.85 41.8539 107.6 41.4976 107.262 41.2259C106.924 40.9541 106.493 40.8182 105.969 40.8182C105.445 40.8182 105.015 40.9541 104.676 41.2259C104.338 41.4976 104.088 41.8539 103.926 42.2947C103.763 42.7356 103.682 43.2112 103.682 43.7216C103.682 44.232 103.763 44.706 103.926 45.1435C104.088 45.581 104.338 45.9339 104.676 46.2024C105.015 46.4709 105.445 46.6051 105.969 46.6051ZM123.51 40.5H122.277C122.204 40.1454 122.077 39.8338 121.894 39.5653C121.715 39.2969 121.497 39.0715 121.238 38.8892C120.983 38.7036 120.7 38.5644 120.388 38.4716C120.076 38.3788 119.752 38.3324 119.414 38.3324C118.797 38.3324 118.239 38.4882 117.738 38.7997C117.241 39.1113 116.845 39.5703 116.55 40.1768C116.258 40.7834 116.112 41.5275 116.112 42.4091C116.112 43.2907 116.258 44.0348 116.55 44.6413C116.845 45.2479 117.241 45.7069 117.738 46.0185C118.239 46.33 118.797 46.4858 119.414 46.4858C119.752 46.4858 120.076 46.4394 120.388 46.3466C120.7 46.2538 120.983 46.1162 121.238 45.9339C121.497 45.7483 121.715 45.5213 121.894 45.2528C122.077 44.9811 122.204 44.6695 122.277 44.3182H123.51C123.417 44.8385 123.248 45.3042 123.003 45.7152C122.758 46.1262 122.453 46.4759 122.088 46.7642C121.724 47.0492 121.314 47.2663 120.86 47.4155C120.41 47.5646 119.927 47.6392 119.414 47.6392C118.545 47.6392 117.773 47.4271 117.097 47.0028C116.421 46.5786 115.889 45.9754 115.501 45.1932C115.113 44.411 114.919 43.483 114.919 42.4091C114.919 41.3352 115.113 40.4072 115.501 39.625C115.889 38.8428 116.421 38.2396 117.097 37.8153C117.773 37.3911 118.545 37.179 119.414 37.179C119.927 37.179 120.41 37.2536 120.86 37.4027C121.314 37.5518 121.724 37.7706 122.088 38.0589C122.453 38.344 122.758 38.692 123.003 39.103C123.248 39.5107 123.417 39.9763 123.51 40.5ZM128.446 47.6591C127.756 47.6591 127.151 47.495 126.631 47.1669C126.114 46.8388 125.71 46.3797 125.418 45.7898C125.13 45.1998 124.985 44.5104 124.985 43.7216C124.985 42.9261 125.13 42.2318 125.418 41.6385C125.71 41.0452 126.114 40.5845 126.631 40.2564C127.151 39.9283 127.756 39.7642 128.446 39.7642C129.135 39.7642 129.738 39.9283 130.255 40.2564C130.776 40.5845 131.18 41.0452 131.468 41.6385C131.76 42.2318 131.906 42.9261 131.906 43.7216C131.906 44.5104 131.76 45.1998 131.468 45.7898C131.18 46.3797 130.776 46.8388 130.255 47.1669C129.738 47.495 129.135 47.6591 128.446 47.6591ZM128.446 46.6051C128.969 46.6051 129.4 46.4709 129.738 46.2024C130.076 45.9339 130.327 45.581 130.489 45.1435C130.651 44.706 130.733 44.232 130.733 43.7216C130.733 43.2112 130.651 42.7356 130.489 42.2947C130.327 41.8539 130.076 41.4976 129.738 41.2259C129.4 40.9541 128.969 40.8182 128.446 40.8182C127.922 40.8182 127.491 40.9541 127.153 41.2259C126.815 41.4976 126.565 41.8539 126.402 42.2947C126.24 42.7356 126.159 43.2112 126.159 43.7216C126.159 44.232 126.24 44.706 126.402 45.1435C126.565 45.581 126.815 45.9339 127.153 46.2024C127.491 46.4709 127.922 46.6051 128.446 46.6051ZM134.87 37.3182V47.5H133.697V37.3182H134.87ZM138.192 37.3182V47.5H137.019V37.3182H138.192ZM142.589 47.679C142.105 47.679 141.666 47.5878 141.271 47.4055C140.877 47.2199 140.564 46.9531 140.331 46.6051C140.099 46.2538 139.983 45.8295 139.983 45.3324C139.983 44.8949 140.07 44.5402 140.242 44.2685C140.414 43.9934 140.645 43.7779 140.933 43.6222C141.221 43.4664 141.54 43.3504 141.888 43.2741C142.239 43.1946 142.592 43.1316 142.947 43.0852C143.411 43.0256 143.787 42.9808 144.075 42.951C144.367 42.9179 144.579 42.8632 144.711 42.7869C144.847 42.7107 144.915 42.5781 144.915 42.3892V42.3494C144.915 41.8589 144.781 41.4777 144.513 41.206C144.247 40.9342 143.845 40.7983 143.305 40.7983C142.744 40.7983 142.305 40.9209 141.987 41.1662C141.669 41.4115 141.445 41.6733 141.316 41.9517L140.202 41.554C140.401 41.09 140.666 40.7287 140.998 40.4702C141.332 40.2083 141.697 40.026 142.091 39.9233C142.489 39.8172 142.88 39.7642 143.265 39.7642C143.51 39.7642 143.792 39.794 144.11 39.8537C144.431 39.91 144.741 40.0277 145.04 40.2067C145.341 40.3857 145.591 40.6558 145.79 41.017C145.989 41.3783 146.089 41.8622 146.089 42.4688V47.5H144.915V46.4659H144.856C144.776 46.6316 144.644 46.8089 144.458 46.9979C144.272 47.1868 144.025 47.3475 143.717 47.4801C143.409 47.6127 143.033 47.679 142.589 47.679ZM142.768 46.625C143.232 46.625 143.623 46.5339 143.941 46.3516C144.262 46.1693 144.504 45.9339 144.667 45.6456C144.832 45.3572 144.915 45.054 144.915 44.7358V43.6619C144.866 43.7216 144.756 43.7763 144.587 43.826C144.421 43.8724 144.229 43.9138 144.01 43.9503C143.795 43.9834 143.585 44.0133 143.379 44.0398C143.177 44.063 143.013 44.0829 142.887 44.0994C142.582 44.1392 142.297 44.2038 142.032 44.2933C141.77 44.3795 141.558 44.5104 141.395 44.6861C141.236 44.8584 141.157 45.0937 141.157 45.392C141.157 45.7997 141.308 46.108 141.609 46.3168C141.914 46.5223 142.3 46.625 142.768 46.625ZM151.312 50.5227C150.746 50.5227 150.259 50.4498 149.851 50.304C149.443 50.1615 149.103 49.9725 148.832 49.7372C148.563 49.5052 148.349 49.2566 148.19 48.9915L149.125 48.3352C149.231 48.4744 149.365 48.6335 149.528 48.8125C149.69 48.9948 149.912 49.1522 150.194 49.2848C150.479 49.4207 150.852 49.4886 151.312 49.4886C151.929 49.4886 152.438 49.3395 152.839 49.0412C153.24 48.7429 153.44 48.2756 153.44 47.6392V46.0881H153.341C153.255 46.2273 153.132 46.3996 152.973 46.6051C152.817 46.8073 152.592 46.9879 152.297 47.147C152.005 47.3028 151.611 47.3807 151.114 47.3807C150.497 47.3807 149.944 47.2348 149.453 46.9432C148.966 46.6515 148.58 46.2273 148.295 45.6705C148.013 45.1136 147.872 44.4375 147.872 43.642C147.872 42.8598 148.01 42.1787 148.285 41.5987C148.56 41.0154 148.943 40.5646 149.433 40.2464C149.924 39.925 150.491 39.7642 151.134 39.7642C151.631 39.7642 152.025 39.8471 152.317 40.0128C152.612 40.1752 152.837 40.3608 152.993 40.5696C153.152 40.7751 153.275 40.9441 153.361 41.0767H153.48V39.8636H154.614V47.7188C154.614 48.375 154.464 48.9086 154.166 49.3196C153.871 49.7339 153.473 50.0372 152.973 50.2294C152.476 50.425 151.922 50.5227 151.312 50.5227ZM151.273 46.3267C151.743 46.3267 152.141 46.219 152.466 46.0036C152.791 45.7881 153.038 45.4782 153.207 45.0739C153.376 44.6695 153.46 44.1856 153.46 43.6222C153.46 43.072 153.377 42.5864 153.212 42.1655C153.046 41.7446 152.801 41.4148 152.476 41.1761C152.151 40.9375 151.75 40.8182 151.273 40.8182C150.776 40.8182 150.361 40.9441 150.03 41.196C149.702 41.4479 149.455 41.786 149.289 42.2102C149.127 42.6345 149.045 43.1051 149.045 43.6222C149.045 44.1525 149.128 44.6214 149.294 45.0291C149.463 45.4335 149.712 45.7517 150.04 45.9837C150.371 46.2124 150.782 46.3267 151.273 46.3267ZM159.963 47.6591C159.227 47.6591 158.593 47.4967 158.059 47.1719C157.529 46.8438 157.119 46.3864 156.831 45.7997C156.546 45.2098 156.403 44.5237 156.403 43.7415C156.403 42.9593 156.546 42.2699 156.831 41.6733C157.119 41.0734 157.52 40.6061 158.034 40.2713C158.551 39.9332 159.154 39.7642 159.844 39.7642C160.241 39.7642 160.634 39.8305 161.022 39.9631C161.41 40.0956 161.763 40.3111 162.081 40.6094C162.399 40.9044 162.653 41.2955 162.842 41.7827C163.031 42.2699 163.125 42.8698 163.125 43.5824V44.0795H157.239V43.0653H161.932C161.932 42.6345 161.846 42.25 161.673 41.9119C161.504 41.5739 161.262 41.3071 160.947 41.1115C160.636 40.916 160.268 40.8182 159.844 40.8182C159.376 40.8182 158.972 40.9342 158.631 41.1662C158.293 41.3949 158.032 41.6932 157.85 42.0611C157.668 42.429 157.577 42.8234 157.577 43.2443V43.9205C157.577 44.4972 157.676 44.986 157.875 45.3871C158.077 45.7848 158.357 46.0881 158.715 46.2969C159.073 46.5024 159.489 46.6051 159.963 46.6051C160.271 46.6051 160.55 46.562 160.798 46.4759C161.05 46.3864 161.267 46.2538 161.45 46.0781C161.632 45.8991 161.773 45.6771 161.872 45.4119L163.006 45.7301C162.886 46.1146 162.686 46.4527 162.404 46.7443C162.122 47.0327 161.774 47.258 161.36 47.4205C160.946 47.5795 160.48 47.6591 159.963 47.6591Z" fill="#3D3D3D"/>
<path d="M55.3262 90.5062C55.5296 90.3318 55.6312 90.2446 55.6686 90.1408C55.7012 90.0498 55.7012 89.9502 55.6686 89.8592C55.6312 89.7554 55.5296 89.6682 55.3262 89.4938L48.2672 83.4433C47.917 83.1431 47.7419 82.9931 47.5937 82.9894C47.4648 82.9862 47.3418 83.0428 47.2603 83.1427C47.1667 83.2576 47.1667 83.4883 47.1667 83.9495V87.5289C45.3878 87.8401 43.7597 88.7414 42.5498 90.0949C41.2307 91.5704 40.501 93.4799 40.5 95.4592V95.9691C41.3745 94.9158 42.4663 94.0638 43.7006 93.4716C44.7889 92.9495 45.9654 92.6403 47.1667 92.5588V96.0505C47.1667 96.5118 47.1667 96.7423 47.2603 96.8573C47.3418 96.9572 47.4648 97.0138 47.5937 97.0106C47.7419 97.0069 47.917 96.8568 48.2672 96.5567L55.3262 90.5062Z" stroke="#3D3D3D" stroke-width="2" stroke-linecap="round" stroke-linejoin="round"/>
<path d="M72.8011 87.8636C72.7415 87.3598 72.4995 86.9688 72.0753 86.6903C71.651 86.4119 71.1307 86.2727 70.5142 86.2727C70.0634 86.2727 69.669 86.3456 69.331 86.4915C68.9962 86.6373 68.7344 86.8378 68.5455 87.093C68.3598 87.3482 68.267 87.6383 68.267 87.9631C68.267 88.2348 68.3317 88.4685 68.4609 88.6641C68.5935 88.8563 68.7625 89.017 68.968 89.1463C69.1735 89.2723 69.389 89.3767 69.6143 89.4595C69.8397 89.5391 70.0469 89.6037 70.2358 89.6534L71.2699 89.9318C71.535 90.0014 71.83 90.0975 72.1548 90.2202C72.483 90.3428 72.7962 90.5102 73.0945 90.7223C73.3961 90.9311 73.6446 91.1996 73.8402 91.5277C74.0357 91.8558 74.1335 92.2585 74.1335 92.7358C74.1335 93.286 73.9893 93.7831 73.701 94.2273C73.416 94.6714 72.9983 95.0244 72.4482 95.2862C71.9013 95.5481 71.2367 95.679 70.4545 95.679C69.7254 95.679 69.094 95.5613 68.5604 95.326C68.0301 95.0907 67.6125 94.7625 67.3075 94.3416C67.0059 93.9207 66.8352 93.4318 66.7955 92.875H68.0682C68.1013 93.2595 68.2306 93.5777 68.456 93.8295C68.6847 94.0781 68.973 94.2637 69.321 94.3864C69.6723 94.5057 70.0502 94.5653 70.4545 94.5653C70.9252 94.5653 71.3478 94.4891 71.7223 94.3366C72.0968 94.1809 72.3935 93.9654 72.6122 93.6903C72.831 93.4119 72.9403 93.0871 72.9403 92.7159C72.9403 92.3778 72.8459 92.1027 72.657 91.8906C72.468 91.6785 72.2195 91.5062 71.9112 91.3736C71.603 91.241 71.2699 91.125 70.9119 91.0256L69.6591 90.6676C68.8636 90.4389 68.2339 90.1125 67.7699 89.6882C67.3059 89.264 67.0739 88.7088 67.0739 88.0227C67.0739 87.4527 67.228 86.9555 67.5362 86.5312C67.8478 86.1037 68.2654 85.7723 68.7891 85.5369C69.3161 85.2983 69.9044 85.179 70.554 85.179C71.2102 85.179 71.7936 85.2966 72.304 85.532C72.8144 85.764 73.2188 86.0821 73.517 86.4865C73.8187 86.8909 73.9777 87.3499 73.9943 87.8636H72.8011ZM77.1749 90.9062V95.5H76.0016V85.3182H77.1749V89.0568H77.2743C77.4533 88.6624 77.7218 88.3492 78.0797 88.1172C78.441 87.8819 78.9216 87.7642 79.5215 87.7642C80.0418 87.7642 80.4976 87.8686 80.8887 88.0774C81.2798 88.2829 81.583 88.5994 81.7985 89.027C82.0172 89.4512 82.1266 89.9915 82.1266 90.6477V95.5H80.9533V90.7273C80.9533 90.1207 80.7959 89.6518 80.481 89.3203C80.1694 88.9856 79.7369 88.8182 79.1834 88.8182C78.7989 88.8182 78.4542 88.8994 78.1493 89.0618C77.8477 89.2242 77.6091 89.4612 77.4334 89.7727C77.2611 90.0843 77.1749 90.4621 77.1749 90.9062ZM86.5202 95.679C86.0363 95.679 85.5972 95.5878 85.2028 95.4055C84.8084 95.2199 84.4951 94.9531 84.2631 94.6051C84.0311 94.2538 83.9151 93.8295 83.9151 93.3324C83.9151 92.8949 84.0013 92.5402 84.1737 92.2685C84.346 91.9934 84.5763 91.7779 84.8647 91.6222C85.1531 91.4664 85.4712 91.3504 85.8192 91.2741C86.1706 91.1946 86.5236 91.1316 86.8782 91.0852C87.3422 91.0256 87.7184 90.9808 88.0067 90.951C88.2984 90.9179 88.5105 90.8632 88.6431 90.7869C88.779 90.7107 88.8469 90.5781 88.8469 90.3892V90.3494C88.8469 89.8589 88.7127 89.4777 88.4442 89.206C88.1791 88.9342 87.7764 88.7983 87.2362 88.7983C86.676 88.7983 86.2369 88.9209 85.9187 89.1662C85.6005 89.4115 85.3768 89.6733 85.2475 89.9517L84.1339 89.554C84.3327 89.09 84.5979 88.7287 84.9293 88.4702C85.2641 88.2083 85.6287 88.026 86.0231 87.9233C86.4208 87.8172 86.8119 87.7642 87.1964 87.7642C87.4416 87.7642 87.7234 87.794 88.0415 87.8537C88.363 87.91 88.6729 88.0277 88.9712 88.2067C89.2728 88.3857 89.5231 88.6558 89.7219 89.017C89.9208 89.3783 90.0202 89.8622 90.0202 90.4688V95.5H88.8469V94.4659H88.7873C88.7077 94.6316 88.5752 94.8089 88.3896 94.9979C88.204 95.1868 87.957 95.3475 87.6488 95.4801C87.3406 95.6127 86.9644 95.679 86.5202 95.679ZM86.6992 94.625C87.1632 94.625 87.5543 94.5339 87.8725 94.3516C88.194 94.1693 88.436 93.9339 88.5984 93.6456C88.7641 93.3572 88.8469 93.054 88.8469 92.7358V91.6619C88.7972 91.7216 88.6879 91.7763 88.5188 91.826C88.3531 91.8724 88.1609 91.9138 87.9421 91.9503C87.7267 91.9834 87.5162 92.0133 87.3107 92.0398C87.1085 92.063 86.9445 92.0829 86.8185 92.0994C86.5136 92.1392 86.2286 92.2038 85.9634 92.2933C85.7016 92.3795 85.4895 92.5104 85.3271 92.6861C85.168 92.8584 85.0884 93.0937 85.0884 93.392C85.0884 93.7997 85.2392 94.108 85.5408 94.3168C85.8458 94.5223 86.2319 94.625 86.6992 94.625ZM92.1618 95.5V87.8636H93.2953V89.017H93.3748C93.514 88.6392 93.7659 88.3326 94.1305 88.0973C94.4951 87.862 94.9061 87.7443 95.3635 87.7443C95.4496 87.7443 95.5574 87.746 95.6866 87.7493C95.8159 87.7526 95.9136 87.7576 95.9799 87.7642V88.9574C95.9402 88.9474 95.849 88.9325 95.7065 88.9126C95.5673 88.8894 95.4198 88.8778 95.264 88.8778C94.8928 88.8778 94.5614 88.9557 94.2697 89.1115C93.9814 89.264 93.7527 89.4761 93.5836 89.7479C93.4179 90.0163 93.335 90.3229 93.335 90.6676V95.5H92.1618ZM100.34 95.6591C99.6042 95.6591 98.9695 95.4967 98.4359 95.1719C97.9056 94.8438 97.4963 94.3864 97.2079 93.7997C96.9229 93.2098 96.7804 92.5237 96.7804 91.7415C96.7804 90.9593 96.9229 90.2699 97.2079 89.6733C97.4963 89.0734 97.8973 88.6061 98.411 88.2713C98.9281 87.9332 99.5313 87.7642 100.221 87.7642C100.618 87.7642 101.011 87.8305 101.399 87.9631C101.787 88.0956 102.14 88.3111 102.458 88.6094C102.776 88.9044 103.03 89.2955 103.219 89.7827C103.407 90.2699 103.502 90.8698 103.502 91.5824V92.0795H97.6156V91.0653H102.309C102.309 90.6345 102.223 90.25 102.05 89.9119C101.881 89.5739 101.639 89.3071 101.324 89.1115C101.013 88.916 100.645 88.8182 100.221 88.8182C99.7534 88.8182 99.349 88.9342 99.0076 89.1662C98.6696 89.3949 98.4094 89.6932 98.2271 90.0611C98.0448 90.429 97.9537 90.8234 97.9537 91.2443V91.9205C97.9537 92.4972 98.0531 92.986 98.252 93.3871C98.4541 93.7848 98.7342 94.0881 99.0922 94.2969C99.4501 94.5024 99.8661 94.6051 100.34 94.6051C100.648 94.6051 100.927 94.562 101.175 94.4759C101.427 94.3864 101.644 94.2538 101.827 94.0781C102.009 93.8991 102.15 93.6771 102.249 93.4119L103.383 93.7301C103.263 94.1146 103.063 94.4527 102.781 94.7443C102.499 95.0327 102.151 95.258 101.737 95.4205C101.323 95.5795 100.857 95.6591 100.34 95.6591Z" fill="#3D3D3D"/>
<path d="M48.8337 133.833L47.9041 131.974C47.6365 131.439 47.5027 131.171 47.3032 130.976C47.1267 130.803 46.9139 130.672 46.6804 130.591C46.4163 130.5 46.1172 130.5 45.5189 130.5H42.3337C41.4002 130.5 40.9335 130.5 40.577 130.682C40.2634 130.841 40.0084 131.096 39.8487 131.41C39.667 131.767 39.667 132.233 39.667 133.167V133.833M39.667 133.833H52.3337C53.7338 133.833 54.4338 133.833 54.9687 134.106C55.4391 134.346 55.8215 134.728 56.0612 135.198C56.3337 135.733 56.3337 136.433 56.3337 137.833V141.5C56.3337 142.9 56.3337 143.6 56.0612 144.135C55.8215 144.605 55.4391 144.988 54.9687 145.227C54.4338 145.5 53.7338 145.5 52.3337 145.5H43.667C42.2669 145.5 41.5668 145.5 41.032 145.227C40.5616 144.988 40.1792 144.605 39.9395 144.135C39.667 143.6 39.667 142.9 39.667 141.5V133.833Z" stroke="#3D3D3D" stroke-width="2" stroke-linecap="round" stroke-linejoin="round"/>
<path d="M48 142.167L50.5 139.667M50.5 139.667L48 137.167M50.5 139.667L45.5 139.667" stroke="#3D3D3D" stroke-width="2" stroke-linecap="round" stroke-linejoin="round"/>
<path d="M67.233 133.318H68.7045L72.1648 141.77H72.2841L75.7443 133.318H77.2159V143.5H76.0625V135.764H75.9631L72.7812 143.5H71.6676L68.4858 135.764H68.3864V143.5H67.233V133.318ZM82.6312 143.659C81.9418 143.659 81.3369 143.495 80.8166 143.167C80.2995 142.839 79.8952 142.38 79.6035 141.79C79.3152 141.2 79.171 140.51 79.171 139.722C79.171 138.926 79.3152 138.232 79.6035 137.638C79.8952 137.045 80.2995 136.585 80.8166 136.256C81.3369 135.928 81.9418 135.764 82.6312 135.764C83.3206 135.764 83.9238 135.928 84.4409 136.256C84.9612 136.585 85.3656 137.045 85.6539 137.638C85.9456 138.232 86.0914 138.926 86.0914 139.722C86.0914 140.51 85.9456 141.2 85.6539 141.79C85.3656 142.38 84.9612 142.839 84.4409 143.167C83.9238 143.495 83.3206 143.659 82.6312 143.659ZM82.6312 142.605C83.1549 142.605 83.5858 142.471 83.9238 142.202C84.2619 141.934 84.5121 141.581 84.6745 141.143C84.8369 140.706 84.9181 140.232 84.9181 139.722C84.9181 139.211 84.8369 138.736 84.6745 138.295C84.5121 137.854 84.2619 137.498 83.9238 137.226C83.5858 136.954 83.1549 136.818 82.6312 136.818C82.1075 136.818 81.6767 136.954 81.3386 137.226C81.0005 137.498 80.7503 137.854 80.5879 138.295C80.4255 138.736 80.3443 139.211 80.3443 139.722C80.3443 140.232 80.4255 140.706 80.5879 141.143C80.7503 141.581 81.0005 141.934 81.3386 142.202C81.6767 142.471 82.1075 142.605 82.6312 142.605ZM93.8533 135.864L91.0295 143.5H89.8363L87.0124 135.864H88.2852L90.3931 141.949H90.4727L92.5806 135.864H93.8533ZM98.3303 143.659C97.5945 143.659 96.9598 143.497 96.4261 143.172C95.8958 142.844 95.4865 142.386 95.1982 141.8C94.9131 141.21 94.7706 140.524 94.7706 139.741C94.7706 138.959 94.9131 138.27 95.1982 137.673C95.4865 137.073 95.8875 136.606 96.4013 136.271C96.9183 135.933 97.5215 135.764 98.2109 135.764C98.6087 135.764 99.0014 135.83 99.3892 135.963C99.777 136.096 100.13 136.311 100.448 136.609C100.766 136.904 101.02 137.295 101.209 137.783C101.398 138.27 101.492 138.87 101.492 139.582V140.08H95.6058V139.065H100.299C100.299 138.634 100.213 138.25 100.04 137.912C99.8714 137.574 99.6295 137.307 99.3146 137.112C99.0031 136.916 98.6352 136.818 98.2109 136.818C97.7436 136.818 97.3393 136.934 96.9979 137.166C96.6598 137.395 96.3996 137.693 96.2173 138.061C96.035 138.429 95.9439 138.823 95.9439 139.244V139.92C95.9439 140.497 96.0433 140.986 96.2422 141.387C96.4444 141.785 96.7244 142.088 97.0824 142.297C97.4403 142.502 97.8563 142.605 98.3303 142.605C98.6385 142.605 98.9169 142.562 99.1655 142.476C99.4174 142.386 99.6345 142.254 99.8168 142.078C99.9991 141.899 100.14 141.677 100.239 141.412L101.373 141.73C101.254 142.115 101.053 142.453 100.771 142.744C100.49 143.033 100.142 143.258 99.7273 143.42C99.313 143.58 98.8473 143.659 98.3303 143.659Z" fill="#3D3D3D"/>
<path d="M41.3337 182.664C41.197 182.66 41.0977 182.652 41.0085 182.635C40.3474 182.503 39.8305 181.986 39.699 181.325C39.667 181.164 39.667 180.971 39.667 180.583C39.667 180.196 39.667 180.003 39.699 179.842C39.8305 179.18 40.3474 178.664 41.0085 178.532C41.1695 178.5 41.3631 178.5 41.7503 178.5H54.2503C54.6376 178.5 54.8312 178.5 54.9922 178.532C55.6533 178.664 56.1702 179.18 56.3017 179.842C56.3337 180.003 56.3337 180.196 56.3337 180.583C56.3337 180.971 56.3337 181.164 56.3017 181.325C56.1702 181.986 55.6533 182.503 54.9922 182.635C54.9029 182.652 54.8037 182.66 54.667 182.664M46.3337 186.833H49.667M41.3337 182.667H54.667V189.5C54.667 190.9 54.667 191.6 54.3945 192.135C54.1548 192.605 53.7724 192.988 53.302 193.227C52.7672 193.5 52.0672 193.5 50.667 193.5H45.3337C43.9335 193.5 43.2335 193.5 42.6987 193.227C42.2283 192.988 41.8458 192.605 41.6061 192.135C41.3337 191.6 41.3337 190.9 41.3337 189.5V182.667Z" stroke="#3D3D3D" stroke-width="2" stroke-linecap="round" stroke-linejoin="round"/>
<path d="M67.6506 191.5H66.358L70.0966 181.318H71.3693L75.108 191.5H73.8153L70.7727 182.929H70.6932L67.6506 191.5ZM68.1278 187.523H73.3381V188.616H68.1278V187.523ZM76.5348 191.5V183.864H77.6683V185.017H77.7479C77.8871 184.639 78.139 184.333 78.5036 184.097C78.8681 183.862 79.2791 183.744 79.7365 183.744C79.8227 183.744 79.9304 183.746 80.0597 183.749C80.1889 183.753 80.2867 183.758 80.353 183.764V184.957C80.3132 184.947 80.2221 184.933 80.0795 184.913C79.9403 184.889 79.7929 184.878 79.6371 184.878C79.2659 184.878 78.9344 184.956 78.6428 185.112C78.3544 185.264 78.1257 185.476 77.9567 185.748C77.791 186.016 77.7081 186.323 77.7081 186.668V191.5H76.5348ZM84.6136 191.659C83.8977 191.659 83.2813 191.49 82.7642 191.152C82.2472 190.814 81.8494 190.348 81.571 189.755C81.2926 189.162 81.1534 188.484 81.1534 187.722C81.1534 186.946 81.2959 186.262 81.581 185.668C81.8693 185.072 82.2704 184.606 82.7841 184.271C83.3011 183.933 83.9044 183.764 84.5938 183.764C85.1307 183.764 85.6146 183.864 86.0455 184.062C86.4763 184.261 86.8293 184.54 87.1044 184.898C87.3795 185.256 87.5502 185.673 87.6165 186.151H86.4432C86.3537 185.803 86.1548 185.494 85.8466 185.226C85.5417 184.954 85.1307 184.818 84.6136 184.818C84.1563 184.818 83.7552 184.937 83.4105 185.176C83.0691 185.411 82.8023 185.745 82.6101 186.175C82.4212 186.603 82.3267 187.105 82.3267 187.682C82.3267 188.272 82.4195 188.786 82.6051 189.223C82.794 189.661 83.0592 190 83.4006 190.242C83.7453 190.484 84.1496 190.605 84.6136 190.605C84.9186 190.605 85.1953 190.552 85.4439 190.446C85.6925 190.34 85.9029 190.188 86.0753 189.989C86.2476 189.79 86.3703 189.551 86.4432 189.273H87.6165C87.5502 189.723 87.3861 190.129 87.1243 190.491C86.8658 190.849 86.5227 191.134 86.0952 191.346C85.6709 191.555 85.1771 191.659 84.6136 191.659ZM90.505 186.906V191.5H89.3317V181.318H90.505V185.057H90.6044C90.7834 184.662 91.0518 184.349 91.4098 184.117C91.7711 183.882 92.2517 183.764 92.8516 183.764C93.3719 183.764 93.8277 183.869 94.2188 184.077C94.6098 184.283 94.9131 184.599 95.1286 185.027C95.3473 185.451 95.4567 185.991 95.4567 186.648V191.5H94.2834V186.727C94.2834 186.121 94.1259 185.652 93.8111 185.32C93.4995 184.986 93.067 184.818 92.5135 184.818C92.129 184.818 91.7843 184.899 91.4794 185.062C91.1778 185.224 90.9392 185.461 90.7635 185.773C90.5911 186.084 90.505 186.462 90.505 186.906ZM97.6032 191.5V183.864H98.7765V191.5H97.6032ZM98.1998 182.591C97.9711 182.591 97.7739 182.513 97.6081 182.357C97.4457 182.201 97.3645 182.014 97.3645 181.795C97.3645 181.577 97.4457 181.389 97.6081 181.234C97.7739 181.078 97.9711 181 98.1998 181C98.4284 181 98.624 181.078 98.7864 181.234C98.9521 181.389 99.035 181.577 99.035 181.795C99.035 182.014 98.9521 182.201 98.7864 182.357C98.624 182.513 98.4284 182.591 98.1998 182.591ZM107.17 183.864L104.346 191.5H103.153L100.329 183.864H101.602L103.71 189.949H103.789L105.897 183.864H107.17ZM111.647 191.659C110.911 191.659 110.276 191.497 109.743 191.172C109.212 190.844 108.803 190.386 108.515 189.8C108.23 189.21 108.087 188.524 108.087 187.741C108.087 186.959 108.23 186.27 108.515 185.673C108.803 185.073 109.204 184.606 109.718 184.271C110.235 183.933 110.838 183.764 111.527 183.764C111.925 183.764 112.318 183.83 112.706 183.963C113.093 184.096 113.446 184.311 113.765 184.609C114.083 184.904 114.336 185.295 114.525 185.783C114.714 186.27 114.809 186.87 114.809 187.582V188.08H108.922V187.065H113.615C113.615 186.634 113.529 186.25 113.357 185.912C113.188 185.574 112.946 185.307 112.631 185.112C112.319 184.916 111.952 184.818 111.527 184.818C111.06 184.818 110.656 184.934 110.314 185.166C109.976 185.395 109.716 185.693 109.534 186.061C109.351 186.429 109.26 186.823 109.26 187.244V187.92C109.26 188.497 109.36 188.986 109.559 189.387C109.761 189.785 110.041 190.088 110.399 190.297C110.757 190.502 111.173 190.605 111.647 190.605C111.955 190.605 112.233 190.562 112.482 190.476C112.734 190.386 112.951 190.254 113.133 190.078C113.315 189.899 113.456 189.677 113.556 189.412L114.689 189.73C114.57 190.115 114.369 190.453 114.088 190.744C113.806 191.033 113.458 191.258 113.044 191.42C112.629 191.58 112.164 191.659 111.647 191.659Z" fill="#3D3D3D"/>
<path d="M51.3333 229V228.333C51.3333 227.4 51.3333 226.933 51.1517 226.577C50.9919 226.263 50.7369 226.008 50.4233 225.848C50.0668 225.667 49.6001 225.667 48.6667 225.667H47.3333C46.3999 225.667 45.9332 225.667 45.5767 225.848C45.2631 226.008 45.0081 226.263 44.8483 226.577C44.6667 226.933 44.6667 227.4 44.6667 228.333V229M40.5 229H55.5M53.8333 229V238.333C53.8333 239.733 53.8333 240.433 53.5608 240.968C53.3212 241.439 52.9387 241.821 52.4683 242.061C51.9335 242.333 51.2335 242.333 49.8333 242.333H46.1667C44.7665 242.333 44.0665 242.333 43.5317 242.061C43.0613 241.821 42.6788 241.439 42.4392 240.968C42.1667 240.433 42.1667 239.733 42.1667 238.333V229" stroke="#3D3D3D" stroke-width="2" stroke-linecap="round" stroke-linejoin="round"/>
<path d="M70.375 239.5H67.233V229.318H70.5142C71.5019 229.318 72.3471 229.522 73.0497 229.93C73.7524 230.334 74.291 230.916 74.6655 231.675C75.04 232.43 75.2273 233.335 75.2273 234.389C75.2273 235.45 75.0384 236.363 74.6605 237.129C74.2827 237.891 73.7325 238.478 73.0099 238.888C72.2874 239.296 71.4091 239.5 70.375 239.5ZM68.4659 238.406H70.2955C71.1373 238.406 71.835 238.244 72.3885 237.919C72.942 237.594 73.3546 237.132 73.6264 236.532C73.8982 235.932 74.0341 235.218 74.0341 234.389C74.0341 233.567 73.8999 232.86 73.6314 232.266C73.3629 231.67 72.9619 231.212 72.4283 230.894C71.8946 230.573 71.2301 230.412 70.4347 230.412H68.4659V238.406ZM80.3381 239.659C79.6023 239.659 78.9676 239.497 78.4339 239.172C77.9036 238.844 77.4943 238.386 77.206 237.8C76.9209 237.21 76.7784 236.524 76.7784 235.741C76.7784 234.959 76.9209 234.27 77.206 233.673C77.4943 233.073 77.8954 232.606 78.4091 232.271C78.9261 231.933 79.5294 231.764 80.2188 231.764C80.6165 231.764 81.0092 231.83 81.397 231.963C81.7848 232.096 82.1378 232.311 82.456 232.609C82.7741 232.904 83.0277 233.295 83.2166 233.783C83.4055 234.27 83.5 234.87 83.5 235.582V236.08H77.6136V235.065H82.3068C82.3068 234.634 82.2206 234.25 82.0483 233.912C81.8793 233.574 81.6373 233.307 81.3224 233.112C81.0109 232.916 80.643 232.818 80.2188 232.818C79.7514 232.818 79.3471 232.934 79.0057 233.166C78.6676 233.395 78.4074 233.693 78.2251 234.061C78.0429 234.429 77.9517 234.823 77.9517 235.244V235.92C77.9517 236.497 78.0511 236.986 78.25 237.387C78.4522 237.785 78.7322 238.088 79.0902 238.297C79.4482 238.502 79.8641 238.605 80.3381 238.605C80.6463 238.605 80.9247 238.562 81.1733 238.476C81.4252 238.386 81.6423 238.254 81.8246 238.078C82.0069 237.899 82.1477 237.677 82.2472 237.412L83.3807 237.73C83.2614 238.115 83.0608 238.453 82.7791 238.744C82.4974 239.033 82.1494 239.258 81.7351 239.42C81.3208 239.58 80.8551 239.659 80.3381 239.659ZM86.4581 229.318V239.5H85.2848V229.318H86.4581ZM91.8088 239.659C91.073 239.659 90.4383 239.497 89.9047 239.172C89.3743 238.844 88.965 238.386 88.6767 237.8C88.3916 237.21 88.2491 236.524 88.2491 235.741C88.2491 234.959 88.3916 234.27 88.6767 233.673C88.965 233.073 89.3661 232.606 89.8798 232.271C90.3968 231.933 91.0001 231.764 91.6895 231.764C92.0872 231.764 92.4799 231.83 92.8677 231.963C93.2555 232.096 93.6085 232.311 93.9267 232.609C94.2449 232.904 94.4984 233.295 94.6873 233.783C94.8762 234.27 94.9707 234.87 94.9707 235.582V236.08H89.0843V235.065H93.7775C93.7775 234.634 93.6913 234.25 93.519 233.912C93.35 233.574 93.108 233.307 92.7931 233.112C92.4816 232.916 92.1137 232.818 91.6895 232.818C91.2221 232.818 90.8178 232.934 90.4764 233.166C90.1383 233.395 89.8781 233.693 89.6958 234.061C89.5136 234.429 89.4224 234.823 89.4224 235.244V235.92C89.4224 236.497 89.5218 236.986 89.7207 237.387C89.9229 237.785 90.2029 238.088 90.5609 238.297C90.9189 238.502 91.3348 238.605 91.8088 238.605C92.117 238.605 92.3954 238.562 92.644 238.476C92.8959 238.386 93.113 238.254 93.2953 238.078C93.4776 237.899 93.6184 237.677 93.7179 237.412L94.8514 237.73C94.7321 238.115 94.5315 238.453 94.2498 238.744C93.9681 239.033 93.6201 239.258 93.2058 239.42C92.7915 239.58 92.3258 239.659 91.8088 239.659ZM100.077 231.864V232.858H96.1191V231.864H100.077ZM97.2725 230.034H98.4458V237.312C98.4458 237.644 98.4939 237.893 98.59 238.058C98.6895 238.221 98.8154 238.33 98.9679 238.386C99.1236 238.439 99.2877 238.466 99.46 238.466C99.5893 238.466 99.6954 238.459 99.7782 238.446C99.8611 238.429 99.9274 238.416 99.9771 238.406L100.216 239.46C100.136 239.49 100.025 239.52 99.8826 239.55C99.7401 239.583 99.5595 239.599 99.3407 239.599C99.0093 239.599 98.6845 239.528 98.3663 239.386C98.0514 239.243 97.7896 239.026 97.5808 238.734C97.3753 238.443 97.2725 238.075 97.2725 237.631V230.034ZM104.961 239.659C104.225 239.659 103.591 239.497 103.057 239.172C102.527 238.844 102.117 238.386 101.829 237.8C101.544 237.21 101.401 236.524 101.401 235.741C101.401 234.959 101.544 234.27 101.829 233.673C102.117 233.073 102.518 232.606 103.032 232.271C103.549 231.933 104.152 231.764 104.842 231.764C105.24 231.764 105.632 231.83 106.02 231.963C106.408 232.096 106.761 232.311 107.079 232.609C107.397 232.904 107.651 233.295 107.84 233.783C108.029 234.27 108.123 234.87 108.123 235.582V236.08H102.237V235.065H106.93C106.93 234.634 106.844 234.25 106.671 233.912C106.502 233.574 106.26 233.307 105.945 233.112C105.634 232.916 105.266 232.818 104.842 232.818C104.374 232.818 103.97 232.934 103.629 233.166C103.291 233.395 103.03 233.693 102.848 234.061C102.666 234.429 102.575 234.823 102.575 235.244V235.92C102.575 236.497 102.674 236.986 102.873 237.387C103.075 237.785 103.355 238.088 103.713 238.297C104.071 238.502 104.487 238.605 104.961 238.605C105.269 238.605 105.548 238.562 105.796 238.476C106.048 238.386 106.265 238.254 106.448 238.078C106.63 237.899 106.771 237.677 106.87 237.412L108.004 237.73C107.884 238.115 107.684 238.453 107.402 238.744C107.12 239.033 106.772 239.258 106.358 239.42C105.944 239.58 105.478 239.659 104.961 239.659Z" fill="#3D3D3D"/>
</g>
<defs>
<filter id="filter0_d_1222_4923" x="0" y="0" width="210" height="280" filterUnits="userSpaceOnUse" color-interpolation-filters="sRGB">
<feFlood flood-opacity="0" result="BackgroundImageFix"/>
<feColorMatrix in="SourceAlpha" type="matrix" values="0 0 0 0 0 0 0 0 0 0 0 0 0 0 0 0 0 0 127 0" result="hardAlpha"/>
<feOffset dy="2"/>
<feGaussianBlur stdDeviation="3"/>
<feComposite in2="hardAlpha" operator="out"/>
<feColorMatrix type="matrix" values="0 0 0 0 0 0 0 0 0 0 0 0 0 0 0 0 0 0 0.1 0"/>
<feBlend mode="normal" in2="BackgroundImageFix" result="effect1_dropShadow_1222_4923"/>
<feBlend mode="normal" in="SourceGraphic" in2="effect1_dropShadow_1222_4923" result="shape"/>
</filter>
</defs>
</svg>
