<svg width="312" height="65" viewBox="0 0 312 65" fill="none" xmlns="http://www.w3.org/2000/svg">
<rect x="0.5" y="0.5" width="311" height="64" rx="7.5" stroke="#E0E0E0"/>
<path d="M42.5884 14.1016C42.5467 13.7318 42.3748 13.4453 42.0728 13.2422C41.7707 13.0365 41.3905 12.9336 40.9321 12.9336C40.604 12.9336 40.3201 12.9857 40.0806 13.0898C39.841 13.1914 39.6548 13.332 39.522 13.5117C39.3918 13.6888 39.3267 13.8906 39.3267 14.1172C39.3267 14.3073 39.3709 14.4714 39.4595 14.6094C39.5506 14.7474 39.6691 14.8633 39.8149 14.957C39.9634 15.0482 40.1222 15.125 40.2915 15.1875C40.4608 15.2474 40.6235 15.2969 40.7798 15.3359L41.561 15.5391C41.8162 15.6016 42.078 15.6862 42.3462 15.793C42.6144 15.8997 42.8631 16.0404 43.0923 16.2148C43.3215 16.3893 43.5063 16.6055 43.647 16.8633C43.7902 17.1211 43.8618 17.4297 43.8618 17.7891C43.8618 18.2422 43.7446 18.6445 43.5103 18.9961C43.2785 19.3477 42.9412 19.625 42.4985 19.8281C42.0584 20.0313 41.5259 20.1328 40.9009 20.1328C40.3019 20.1328 39.7837 20.0378 39.3462 19.8477C38.9087 19.6576 38.5662 19.388 38.3188 19.0391C38.0715 18.6875 37.9347 18.2708 37.9087 17.7891H39.1196C39.1431 18.0781 39.2368 18.319 39.4009 18.5117C39.5675 18.7018 39.7798 18.8437 40.0376 18.9375C40.298 19.0286 40.5832 19.0742 40.8931 19.0742C41.2342 19.0742 41.5376 19.0208 41.8032 18.9141C42.0715 18.8047 42.2824 18.6536 42.436 18.4609C42.5897 18.2656 42.6665 18.0378 42.6665 17.7773C42.6665 17.5404 42.5988 17.3464 42.4634 17.1953C42.3306 17.0443 42.1496 16.9193 41.9204 16.8203C41.6938 16.7214 41.4373 16.6341 41.1509 16.5586L40.2056 16.3008C39.5649 16.1263 39.0571 15.8698 38.6821 15.5312C38.3097 15.1927 38.1235 14.7448 38.1235 14.1875C38.1235 13.7266 38.2485 13.3242 38.4985 12.9805C38.7485 12.6367 39.0871 12.3698 39.5142 12.1797C39.9412 11.987 40.423 11.8906 40.9595 11.8906C41.5011 11.8906 41.979 11.9857 42.3931 12.1758C42.8097 12.3659 43.1379 12.6276 43.3774 12.9609C43.617 13.2917 43.742 13.6719 43.7524 14.1016H42.5884ZM46.3784 16.4375V20H45.2104V12H46.3628V14.9766H46.437C46.5776 14.6536 46.7925 14.3971 47.0815 14.207C47.3706 14.0169 47.7482 13.9219 48.2144 13.9219C48.6258 13.9219 48.9852 14.0065 49.2925 14.1758C49.6024 14.3451 49.842 14.5977 50.0112 14.9336C50.1831 15.2669 50.269 15.6836 50.269 16.1836V20H49.1011V16.3242C49.1011 15.8841 48.9878 15.543 48.7612 15.3008C48.5347 15.056 48.2196 14.9336 47.8159 14.9336C47.5399 14.9336 47.2925 14.9922 47.0737 15.1094C46.8576 15.2266 46.687 15.3984 46.562 15.625C46.4396 15.849 46.3784 16.1198 46.3784 16.4375ZM53.5737 20.1328C53.1935 20.1328 52.8498 20.0625 52.5425 19.9219C52.2352 19.7786 51.9917 19.5716 51.812 19.3008C51.6349 19.0299 51.5464 18.6979 51.5464 18.3047C51.5464 17.9661 51.6115 17.6875 51.7417 17.4687C51.8719 17.25 52.0477 17.0768 52.269 16.9492C52.4904 16.8216 52.7378 16.7253 53.0112 16.6602C53.2847 16.5951 53.5633 16.5456 53.8472 16.5117C54.2065 16.4701 54.4982 16.4362 54.7222 16.4102C54.9461 16.3815 55.1089 16.3359 55.2104 16.2734C55.312 16.2109 55.3628 16.1094 55.3628 15.9687V15.9414C55.3628 15.6003 55.2664 15.3359 55.0737 15.1484C54.8836 14.9609 54.5998 14.8672 54.2222 14.8672C53.8289 14.8672 53.519 14.9544 53.2925 15.1289C53.0685 15.3008 52.9136 15.4922 52.8276 15.7031L51.73 15.4531C51.8602 15.0885 52.0503 14.7943 52.3003 14.5703C52.5529 14.3437 52.8433 14.1797 53.1714 14.0781C53.4995 13.974 53.8446 13.9219 54.2065 13.9219C54.4461 13.9219 54.7 13.9505 54.9683 14.0078C55.2391 14.0625 55.4917 14.1641 55.7261 14.3125C55.9631 14.4609 56.1571 14.6732 56.3081 14.9492C56.4591 15.2227 56.5347 15.5781 56.5347 16.0156V20H55.394V19.1797H55.3472C55.2716 19.3307 55.1584 19.4792 55.0073 19.625C54.8563 19.7708 54.6623 19.8919 54.4253 19.9883C54.1883 20.0846 53.9045 20.1328 53.5737 20.1328ZM53.8276 19.1953C54.1506 19.1953 54.4266 19.1315 54.6558 19.0039C54.8875 18.8763 55.0633 18.7096 55.1831 18.5039C55.3055 18.2956 55.3667 18.0729 55.3667 17.8359V17.0625C55.325 17.1042 55.2443 17.1432 55.1245 17.1797C55.0073 17.2135 54.8732 17.2435 54.7222 17.2695C54.5711 17.293 54.424 17.3151 54.2808 17.3359C54.1375 17.3542 54.0177 17.3698 53.9214 17.3828C53.6948 17.4115 53.4878 17.4596 53.3003 17.5273C53.1154 17.5951 52.967 17.6927 52.855 17.8203C52.7456 17.9453 52.6909 18.112 52.6909 18.3203C52.6909 18.6094 52.7977 18.8281 53.0112 18.9766C53.2248 19.1224 53.4969 19.1953 53.8276 19.1953ZM58.0903 20V14H59.2192V14.9531H59.2817C59.3911 14.6302 59.5838 14.3763 59.8599 14.1914C60.1385 14.0039 60.4536 13.9102 60.8052 13.9102C60.8781 13.9102 60.964 13.9128 61.063 13.918C61.1646 13.9232 61.244 13.9297 61.3013 13.9375V15.0547C61.2544 15.0417 61.1711 15.0273 61.0513 15.0117C60.9315 14.9935 60.8117 14.9844 60.6919 14.9844C60.4159 14.9844 60.1698 15.043 59.9536 15.1602C59.7401 15.2747 59.5708 15.4349 59.4458 15.6406C59.3208 15.8437 59.2583 16.0755 59.2583 16.3359V20H58.0903ZM64.6831 20.1211C64.092 20.1211 63.5828 19.9948 63.1558 19.7422C62.7313 19.487 62.4032 19.1289 62.1714 18.668C61.9422 18.2044 61.8276 17.6615 61.8276 17.0391C61.8276 16.4245 61.9422 15.8828 62.1714 15.4141C62.4032 14.9453 62.7261 14.5794 63.1401 14.3164C63.5568 14.0534 64.0438 13.9219 64.6011 13.9219C64.9396 13.9219 65.2677 13.9779 65.5854 14.0898C65.9032 14.2018 66.1883 14.3776 66.4409 14.6172C66.6935 14.8568 66.8927 15.168 67.0386 15.5508C67.1844 15.931 67.2573 16.3932 67.2573 16.9375V17.3516H62.4878V16.4766H66.1128C66.1128 16.1693 66.0503 15.8971 65.9253 15.6602C65.8003 15.4206 65.6245 15.2318 65.3979 15.0937C65.174 14.9557 64.911 14.8867 64.6089 14.8867C64.2808 14.8867 63.9943 14.9674 63.7495 15.1289C63.5073 15.2878 63.3198 15.4961 63.187 15.7539C63.0568 16.0091 62.9917 16.2865 62.9917 16.5859V17.2695C62.9917 17.6706 63.062 18.0117 63.2026 18.293C63.3459 18.5742 63.5451 18.7891 63.8003 18.9375C64.0555 19.0833 64.3537 19.1562 64.6948 19.1562C64.9162 19.1562 65.118 19.125 65.3003 19.0625C65.4826 18.9974 65.6401 18.901 65.7729 18.7734C65.9058 18.6458 66.0073 18.4883 66.0776 18.3008L67.1831 18.5C67.0946 18.8255 66.9357 19.1107 66.7065 19.3555C66.48 19.5977 66.1948 19.7865 65.8511 19.9219C65.5099 20.0547 65.1206 20.1211 64.6831 20.1211ZM70.7993 20.1172C70.3149 20.1172 69.8826 19.9935 69.5024 19.7461C69.1248 19.4961 68.828 19.1406 68.6118 18.6797C68.3983 18.2161 68.2915 17.6602 68.2915 17.0117C68.2915 16.3633 68.3996 15.8086 68.6157 15.3477C68.8345 14.8867 69.134 14.5339 69.5142 14.2891C69.8944 14.0443 70.3254 13.9219 70.8071 13.9219C71.1795 13.9219 71.479 13.9844 71.7056 14.1094C71.9347 14.2318 72.1118 14.375 72.2368 14.5391C72.3644 14.7031 72.4634 14.8477 72.5337 14.9727H72.604V12H73.772V20H72.6313V19.0664H72.5337C72.4634 19.194 72.3618 19.3398 72.229 19.5039C72.0988 19.668 71.9191 19.8112 71.6899 19.9336C71.4608 20.056 71.1639 20.1172 70.7993 20.1172ZM71.0571 19.1211C71.3931 19.1211 71.6769 19.0326 71.9087 18.8555C72.1431 18.6758 72.3201 18.4271 72.4399 18.1094C72.5623 17.7917 72.6235 17.4219 72.6235 17C72.6235 16.5833 72.5636 16.2187 72.4438 15.9062C72.3241 15.5937 72.1483 15.3503 71.9165 15.1758C71.6847 15.0013 71.3983 14.9141 71.0571 14.9141C70.7056 14.9141 70.4126 15.0052 70.1782 15.1875C69.9438 15.3698 69.7668 15.6185 69.647 15.9336C69.5298 16.2487 69.4712 16.6042 69.4712 17C69.4712 17.401 69.5311 17.7617 69.6509 18.082C69.7707 18.4023 69.9478 18.6562 70.1821 18.8437C70.4191 19.0286 70.7108 19.1211 71.0571 19.1211Z" fill="#525252"/>
<path d="M37.492 51.2784C36.0072 51.2784 34.6847 51.0232 33.5247 50.5128C32.3713 49.9957 31.4598 49.2865 30.7903 48.3849C30.1274 47.4768 29.786 46.4295 29.7662 45.2429H34.1014C34.1279 45.7401 34.2903 46.1776 34.5886 46.5554C34.8935 46.9266 35.2979 47.215 35.8017 47.4205C36.3055 47.6259 36.8722 47.7287 37.502 47.7287C38.1582 47.7287 38.7382 47.6127 39.242 47.3807C39.7458 47.1487 40.1402 46.8272 40.4252 46.4162C40.7103 46.0052 40.8528 45.5312 40.8528 44.9943C40.8528 44.4508 40.7003 43.9702 40.3954 43.5526C40.0971 43.1283 39.6663 42.7969 39.1028 42.5582C38.546 42.3196 37.8831 42.2003 37.1142 42.2003H35.215V39.0384H37.1142C37.7638 39.0384 38.3372 38.9257 38.8343 38.7003C39.3381 38.4749 39.7292 38.1634 40.0076 37.7656C40.286 37.3613 40.4252 36.8906 40.4252 36.3537C40.4252 35.8433 40.3026 35.3958 40.0574 35.0114C39.8187 34.6203 39.4806 34.3153 39.0431 34.0966C38.6123 33.8778 38.1085 33.7685 37.5318 33.7685C36.9484 33.7685 36.4148 33.8745 35.9309 34.0866C35.447 34.2921 35.0592 34.5871 34.7676 34.9716C34.4759 35.3561 34.3201 35.8068 34.3002 36.3239H30.1738C30.1937 35.1506 30.5285 34.1165 31.1781 33.2216C31.8277 32.3267 32.7027 31.6274 33.8031 31.1236C34.9101 30.6132 36.1596 30.358 37.5517 30.358C38.957 30.358 40.1866 30.6132 41.2406 31.1236C42.2946 31.634 43.1132 32.3234 43.6966 33.1918C44.2865 34.0535 44.5782 35.0213 44.5716 36.0952C44.5782 37.2353 44.2235 38.1866 43.5076 38.9489C42.7984 39.7112 41.8736 40.1951 40.7335 40.4006V40.5597C42.2316 40.7519 43.3717 41.2723 44.1539 42.1207C44.9428 42.9626 45.3339 44.0166 45.3272 45.2827C45.3339 46.4427 44.9991 47.4735 44.323 48.375C43.6535 49.2765 42.7288 49.9858 41.5488 50.5028C40.3689 51.0199 39.0166 51.2784 37.492 51.2784ZM48.4221 51V47.8977L55.6706 41.1861C56.2871 40.5895 56.8042 40.0526 57.2218 39.5753C57.646 39.098 57.9675 38.6307 58.1863 38.1733C58.405 37.7093 58.5144 37.2088 58.5144 36.6719C58.5144 36.0753 58.3785 35.5616 58.1067 35.1307C57.8349 34.6932 57.4637 34.3584 56.9931 34.1264C56.5224 33.8878 55.9888 33.7685 55.3922 33.7685C54.7691 33.7685 54.2256 33.8944 53.7615 34.1463C53.2975 34.3982 52.9396 34.7595 52.6877 35.2301C52.4358 35.7008 52.3098 36.2609 52.3098 36.9105H48.2232C48.2232 35.5781 48.5248 34.4214 49.128 33.4403C49.7312 32.4593 50.5764 31.7003 51.6635 31.1634C52.7507 30.6264 54.0035 30.358 55.4221 30.358C56.8804 30.358 58.1498 30.6165 59.2303 31.1335C60.3174 31.6439 61.1626 32.3532 61.7658 33.2614C62.369 34.1695 62.6706 35.2102 62.6706 36.3835C62.6706 37.1525 62.5182 37.9115 62.2132 38.6605C61.915 39.4096 61.3813 40.2415 60.6124 41.1562C59.8435 42.0644 58.7596 43.1548 57.361 44.4276L54.388 47.3409V47.4801H62.9391V51H48.4221ZM74.0431 51.4474C72.3329 51.4408 70.8613 51.0199 69.6284 50.1847C68.402 49.3494 67.4574 48.1397 66.7946 46.5554C66.1383 44.9711 65.8135 43.0653 65.8201 40.8381C65.8201 38.6174 66.1483 36.7249 66.8045 35.1605C67.4674 33.5961 68.412 32.4062 69.6383 31.5909C70.8713 30.7689 72.3395 30.358 74.0431 30.358C75.7467 30.358 77.2117 30.7689 78.438 31.5909C79.671 32.4129 80.6189 33.6061 81.2818 35.1705C81.9447 36.7282 82.2728 38.6174 82.2662 40.8381C82.2662 43.072 81.9347 44.9811 81.2718 46.5653C80.6156 48.1496 79.6743 49.3594 78.448 50.1946C77.2217 51.0298 75.7534 51.4474 74.0431 51.4474ZM74.0431 47.8778C75.2098 47.8778 76.1412 47.2912 76.8372 46.1179C77.5332 44.9446 77.8779 43.1847 77.8713 40.8381C77.8713 39.2936 77.7122 38.0076 77.394 36.9801C77.0824 35.9527 76.6383 35.1804 76.0616 34.6634C75.4915 34.1463 74.8187 33.8878 74.0431 33.8878C72.8831 33.8878 71.9551 34.4678 71.2591 35.6278C70.563 36.7879 70.2117 38.5246 70.2051 40.8381C70.2051 42.4025 70.3609 43.7083 70.6724 44.7557C70.9906 45.7964 71.438 46.5786 72.0147 47.1023C72.5914 47.6193 73.2676 47.8778 74.0431 47.8778Z" fill="#3D3D3D"/>
<rect x="116" y="23.5" width="18" height="16" fill="#B6B6F2"/>
<rect x="142" y="23.5" width="18" height="16" fill="#B6B6F2"/>
<rect x="168" y="30.5" width="18" height="9" fill="#B6B6F2"/>
<rect x="194" y="30.5" width="18" height="9" fill="#B6B6F2"/>
<rect x="220" y="20.5" width="18" height="19" fill="#B6B6F2"/>
<rect x="246" y="36.5" width="18" height="3" fill="#B6B6F2"/>
<rect x="272" y="38.5667" width="18.2857" height="0.933333" fill="#B6B6F2"/>
<path d="M121.932 45.9545H122.878L125.103 51.3878H125.179L127.404 45.9545H128.35V52.5H127.608V47.527H127.544L125.499 52.5H124.783L122.737 47.527H122.674V52.5H121.932V45.9545Z" fill="#3D3D3D"/>
<path d="M148.976 46.6577V45.9545H153.885V46.6577H151.827V52.5H151.034V46.6577H148.976Z" fill="#3D3D3D"/>
<path d="M175.424 52.5L173.634 45.9545H174.44L175.808 51.2855H175.872L177.265 45.9545H178.16L179.553 51.2855H179.617L180.985 45.9545H181.791L180.001 52.5H179.183L177.738 47.2841H177.687L176.242 52.5H175.424Z" fill="#3D3D3D"/>
<path d="M201.547 46.6577V45.9545H206.456V46.6577H204.398V52.5H203.605V46.6577H201.547Z" fill="#3D3D3D"/>
<path d="M228.437 52.5V45.9545H232.362V46.6577H229.23V48.8693H232.068V49.5724H229.23V52.5H228.437Z" fill="#3D3D3D"/>
<path d="M258.074 47.5909C258.036 47.267 257.88 47.0156 257.607 46.8366C257.335 46.6577 257 46.5682 256.604 46.5682C256.314 46.5682 256.061 46.6151 255.843 46.7088C255.628 46.8026 255.46 46.9315 255.338 47.0955C255.219 47.2596 255.159 47.446 255.159 47.6548C255.159 47.8295 255.201 47.9798 255.284 48.1055C255.369 48.229 255.478 48.3324 255.61 48.4155C255.742 48.4964 255.881 48.5636 256.025 48.6168C256.17 48.668 256.304 48.7095 256.425 48.7415L257.09 48.9205C257.26 48.9652 257.45 49.027 257.659 49.1058C257.87 49.1847 258.071 49.2923 258.263 49.4286C258.457 49.5629 258.616 49.7354 258.742 49.9464C258.868 50.1573 258.931 50.4162 258.931 50.723C258.931 51.0767 258.838 51.3963 258.653 51.6818C258.469 51.9673 258.201 52.1942 257.847 52.3626C257.496 52.5309 257.068 52.6151 256.566 52.6151C256.097 52.6151 255.691 52.5394 255.348 52.3881C255.007 52.2369 254.739 52.0259 254.542 51.7553C254.349 51.4847 254.239 51.1705 254.213 50.8125H255.031C255.053 51.0597 255.136 51.2642 255.281 51.4261C255.428 51.5859 255.613 51.7053 255.837 51.7841C256.063 51.8608 256.306 51.8991 256.566 51.8991C256.868 51.8991 257.14 51.8501 257.381 51.7521C257.621 51.652 257.812 51.5135 257.953 51.3366C258.093 51.1577 258.164 50.9489 258.164 50.7102C258.164 50.4929 258.103 50.3161 257.981 50.1797C257.86 50.0433 257.7 49.9325 257.502 49.8473C257.304 49.7621 257.09 49.6875 256.86 49.6236L256.054 49.3935C255.543 49.2464 255.138 49.0366 254.84 48.7638C254.541 48.4911 254.392 48.1342 254.392 47.6932C254.392 47.3267 254.491 47.0071 254.69 46.7344C254.89 46.4595 255.158 46.2464 255.495 46.0952C255.834 45.9418 256.212 45.8651 256.629 45.8651C257.051 45.8651 257.426 45.9407 257.754 46.092C258.083 46.2411 258.343 46.4457 258.534 46.7056C258.728 46.9656 258.83 47.2607 258.841 47.5909H258.074Z" fill="#3D3D3D"/>
<path d="M284.36 47.5909C284.321 47.267 284.166 47.0156 283.893 46.8366C283.62 46.6577 283.286 46.5682 282.89 46.5682C282.6 46.5682 282.346 46.6151 282.129 46.7088C281.914 46.8026 281.745 46.9315 281.624 47.0955C281.505 47.2596 281.445 47.446 281.445 47.6548C281.445 47.8295 281.487 47.9798 281.57 48.1055C281.655 48.229 281.764 48.3324 281.896 48.4155C282.028 48.4964 282.166 48.5636 282.311 48.6168C282.456 48.668 282.589 48.7095 282.711 48.7415L283.375 48.9205C283.546 48.9652 283.735 49.027 283.944 49.1058C284.155 49.1847 284.357 49.2923 284.548 49.4286C284.742 49.5629 284.902 49.7354 285.028 49.9464C285.153 50.1573 285.216 50.4162 285.216 50.723C285.216 51.0767 285.124 51.3963 284.938 51.6818C284.755 51.9673 284.487 52.1942 284.133 52.3626C283.781 52.5309 283.354 52.6151 282.851 52.6151C282.382 52.6151 281.977 52.5394 281.634 52.3881C281.293 52.2369 281.024 52.0259 280.828 51.7553C280.634 51.4847 280.525 51.1705 280.499 50.8125H281.317C281.338 51.0597 281.422 51.2642 281.566 51.4261C281.713 51.5859 281.899 51.7053 282.123 51.7841C282.348 51.8608 282.591 51.8991 282.851 51.8991C283.154 51.8991 283.425 51.8501 283.666 51.7521C283.907 51.652 284.098 51.5135 284.238 51.3366C284.379 51.1577 284.449 50.9489 284.449 50.7102C284.449 50.4929 284.389 50.3161 284.267 50.1797C284.146 50.0433 283.986 49.9325 283.788 49.8473C283.59 49.7621 283.375 49.6875 283.145 49.6236L282.34 49.3935C281.828 49.2464 281.424 49.0366 281.125 48.7638C280.827 48.4911 280.678 48.1342 280.678 47.6932C280.678 47.3267 280.777 47.0071 280.975 46.7344C281.175 46.4595 281.444 46.2464 281.781 46.0952C282.119 45.9418 282.498 45.8651 282.915 45.8651C283.337 45.8651 283.712 45.9407 284.04 46.092C284.368 46.2411 284.628 46.4457 284.82 46.7056C285.014 46.9656 285.116 47.2607 285.127 47.5909H284.36Z" fill="#3D3D3D"/>
</svg>
