<svg width="584" height="360" viewBox="0 0 584 360" fill="none" xmlns="http://www.w3.org/2000/svg">
<g filter="url(#filter0_d_1222_5051)">
<rect x="8" y="8" width="560" height="332" rx="20" fill="white" shape-rendering="crispEdges"/>
<path d="M56.5781 67.348C56.5099 66.7429 56.2287 66.2741 55.7344 65.9418C55.2401 65.6051 54.6179 65.4368 53.8679 65.4368C53.331 65.4368 52.8665 65.522 52.4744 65.6925C52.0824 65.8587 51.7777 66.0888 51.5604 66.3828C51.3473 66.6726 51.2408 67.0028 51.2408 67.3736C51.2408 67.6847 51.3132 67.9531 51.4581 68.179C51.6072 68.4048 51.8011 68.5945 52.0398 68.7479C52.2827 68.897 52.5426 69.0227 52.8196 69.125C53.0966 69.223 53.3629 69.304 53.6186 69.3679L54.897 69.7003C55.3146 69.8026 55.7429 69.9411 56.1818 70.1158C56.6207 70.2905 57.0277 70.5206 57.4027 70.8061C57.7777 71.0916 58.0803 71.4453 58.3104 71.8672C58.5447 72.2891 58.6619 72.794 58.6619 73.3821C58.6619 74.1236 58.4702 74.782 58.0866 75.3572C57.7074 75.9325 57.1555 76.3864 56.4311 76.7188C55.7109 77.0511 54.8395 77.2173 53.8168 77.2173C52.8366 77.2173 51.9886 77.0618 51.2727 76.7507C50.5568 76.4396 49.9964 75.9986 49.5916 75.4276C49.1868 74.8523 48.9631 74.1705 48.9205 73.3821H50.902C50.9403 73.8551 51.0938 74.2493 51.3622 74.5646C51.6349 74.8757 51.9822 75.108 52.4041 75.2614C52.8303 75.4105 53.2969 75.4851 53.804 75.4851C54.3622 75.4851 54.8587 75.3977 55.2933 75.223C55.7322 75.044 56.0774 74.7969 56.3288 74.4815C56.5803 74.1619 56.706 73.7891 56.706 73.3629C56.706 72.9751 56.5952 72.6577 56.3736 72.4105C56.1563 72.1634 55.8601 71.9588 55.4851 71.7969C55.1143 71.6349 54.6946 71.4922 54.2259 71.3686L52.679 70.9467C51.6307 70.6612 50.7997 70.2415 50.1861 69.6875C49.5767 69.1335 49.272 68.4006 49.272 67.4886C49.272 66.7344 49.4766 66.076 49.8857 65.5135C50.2947 64.951 50.8487 64.5142 51.5476 64.2031C52.2464 63.8878 53.0348 63.7301 53.9126 63.7301C54.799 63.7301 55.581 63.8857 56.2585 64.1967C56.9403 64.5078 57.4773 64.9361 57.8693 65.4815C58.2614 66.0227 58.4659 66.6449 58.483 67.348H56.5781ZM62.78 71.1705V77H60.8688V63.9091H62.7544V68.7798H62.8759C63.106 68.2514 63.4576 67.8317 63.9306 67.5206C64.4036 67.2095 65.0215 67.054 65.7843 67.054C66.4576 67.054 67.0456 67.1925 67.5485 67.4695C68.0556 67.7464 68.4476 68.1598 68.7246 68.7095C69.0059 69.255 69.1465 69.9368 69.1465 70.755V77H67.2353V70.9851C67.2353 70.2649 67.0499 69.7067 66.6792 69.3104C66.3084 68.9098 65.7928 68.7095 65.1323 68.7095C64.6806 68.7095 64.2757 68.8054 63.9178 68.9972C63.5641 69.1889 63.285 69.4702 63.0804 69.8409C62.8801 70.2074 62.78 70.6506 62.78 71.1705ZM74.5542 77.2173C73.932 77.2173 73.3695 77.1023 72.8667 76.8722C72.3638 76.6378 71.9654 76.299 71.6713 75.8558C71.3816 75.4126 71.2367 74.8693 71.2367 74.2259C71.2367 73.6719 71.3432 73.2159 71.5563 72.858C71.7694 72.5 72.057 72.2166 72.4192 72.0078C72.7814 71.799 73.1863 71.6413 73.6337 71.5348C74.0811 71.4283 74.5371 71.3473 75.0016 71.2919C75.5897 71.2237 76.0669 71.1683 76.4334 71.1257C76.7999 71.0788 77.0662 71.0043 77.2324 70.902C77.3986 70.7997 77.4817 70.6335 77.4817 70.4034V70.3587C77.4817 69.8004 77.324 69.3679 77.0087 69.0611C76.6976 68.7543 76.2331 68.6009 75.6152 68.6009C74.9718 68.6009 74.4647 68.7436 74.0939 69.0291C73.7275 69.3104 73.4739 69.6236 73.3333 69.9688L71.5371 69.5597C71.7502 68.9631 72.0613 68.4815 72.4703 68.1151C72.8837 67.7443 73.3588 67.4759 73.8958 67.3097C74.4327 67.1392 74.9973 67.054 75.5897 67.054C75.9817 67.054 76.3972 67.1009 76.8361 67.1946C77.2793 67.2841 77.6926 67.4503 78.0762 67.6932C78.464 67.9361 78.7814 68.2834 79.0286 68.7351C79.2757 69.1825 79.3993 69.7642 79.3993 70.4801V77H77.5328V75.6577H77.4561C77.3326 75.9048 77.1472 76.1477 76.9 76.3864C76.6529 76.625 76.3354 76.8232 75.9476 76.9808C75.5598 77.1385 75.0953 77.2173 74.5542 77.2173ZM74.9696 75.6832C75.498 75.6832 75.9498 75.5788 76.3248 75.37C76.704 75.1612 76.9917 74.8885 77.1877 74.5518C77.388 74.2109 77.4881 73.8466 77.4881 73.4588V72.1932C77.4199 72.2614 77.2878 72.3253 77.0918 72.3849C76.9 72.4403 76.6806 72.4893 76.4334 72.532C76.1863 72.5703 75.9455 72.6065 75.7111 72.6406C75.4767 72.6705 75.2807 72.696 75.123 72.7173C74.7523 72.7642 74.4135 72.843 74.1067 72.9538C73.8042 73.0646 73.5613 73.2244 73.378 73.4332C73.199 73.6378 73.1096 73.9105 73.1096 74.2514C73.1096 74.7244 73.2843 75.0824 73.6337 75.3253C73.9831 75.5639 74.4284 75.6832 74.9696 75.6832ZM81.945 77V67.1818H83.7923V68.7415H83.8945C84.0735 68.2131 84.3888 67.7976 84.8406 67.495C85.2965 67.1882 85.8121 67.0348 86.3874 67.0348C86.5067 67.0348 86.6474 67.0391 86.8093 67.0476C86.9755 67.0561 87.1055 67.0668 87.1992 67.0795V68.9077C87.1225 68.8864 86.9862 68.8629 86.7901 68.8374C86.5941 68.8075 86.3981 68.7926 86.2021 68.7926C85.7504 68.7926 85.3477 68.8885 84.994 69.0803C84.6445 69.2678 84.3675 69.5298 84.163 69.8665C83.9585 70.1989 83.8562 70.5781 83.8562 71.0043V77H81.945ZM92.7331 77.1982C91.7658 77.1982 90.9327 76.9915 90.2338 76.5781C89.5392 76.1605 89.0023 75.5746 88.623 74.8203C88.248 74.0618 88.0605 73.1733 88.0605 72.1548C88.0605 71.1491 88.248 70.2628 88.623 69.4957C89.0023 68.7287 89.5307 68.13 90.2083 67.6996C90.8901 67.2692 91.687 67.054 92.5989 67.054C93.1529 67.054 93.6898 67.1456 94.2097 67.3288C94.7296 67.5121 95.1962 67.7997 95.6096 68.1918C96.0229 68.5838 96.3489 69.093 96.5875 69.7195C96.8262 70.3416 96.9455 71.098 96.9455 71.9886V72.6662H89.1408V71.2344H95.0726C95.0726 70.7315 94.9703 70.2862 94.7658 69.8984C94.5613 69.5064 94.2736 69.1974 93.9029 68.9716C93.5364 68.7457 93.106 68.6328 92.6117 68.6328C92.0748 68.6328 91.606 68.7649 91.2054 69.0291C90.8091 69.2891 90.5023 69.63 90.285 70.0518C90.0719 70.4695 89.9654 70.9233 89.9654 71.4134V72.532C89.9654 73.1882 90.0804 73.7464 90.3105 74.2067C90.5449 74.6669 90.8709 75.0185 91.2885 75.2614C91.7061 75.5 92.1941 75.6193 92.7523 75.6193C93.1145 75.6193 93.4448 75.5682 93.7431 75.4659C94.0414 75.3594 94.2992 75.2017 94.5165 74.9929C94.7338 74.7841 94.9 74.5263 95.0151 74.2195L96.824 74.5455C96.6792 75.0781 96.4192 75.5447 96.0442 75.9453C95.6735 76.3416 95.2069 76.6506 94.6444 76.8722C94.0861 77.0895 93.449 77.1982 92.7331 77.1982Z" fill="#3D3D3D"/>
<path d="M512 64L500 76M500 64L512 76" stroke="#3D3D3D" stroke-width="2" stroke-linecap="round" stroke-linejoin="round"/>
<mask id="path-4-inside-1_1222_5051" fill="white">
<path d="M48 112H288V156H48V112Z"/>
</mask>
<path d="M288 154H48V158H288V154Z" fill="#075850" mask="url(#path-4-inside-1_1222_5051)"/>
<path d="M130.589 139.303L129.411 140.482C127.784 142.109 125.145 142.109 123.518 140.482C121.891 138.855 121.891 136.216 123.518 134.589L124.697 133.411M135.303 134.589L136.482 133.411C138.109 131.784 138.109 129.145 136.482 127.518C134.855 125.891 132.217 125.891 130.589 127.518L129.411 128.697M127.083 136.917L132.917 131.083" stroke="#075850" stroke-width="1.66667" stroke-linecap="round" stroke-linejoin="round"/>
<path d="M150.408 131.746C150.369 131.345 150.198 131.034 149.896 130.812C149.595 130.59 149.185 130.479 148.668 130.479C148.317 130.479 148.02 130.528 147.778 130.628C147.536 130.724 147.351 130.858 147.222 131.031C147.096 131.203 147.033 131.398 147.033 131.617C147.026 131.799 147.064 131.959 147.147 132.094C147.233 132.23 147.351 132.348 147.5 132.447C147.649 132.544 147.821 132.628 148.017 132.701C148.213 132.771 148.421 132.83 148.643 132.88L149.558 133.099C150.002 133.198 150.41 133.331 150.781 133.496C151.152 133.662 151.474 133.866 151.746 134.108C152.018 134.35 152.228 134.635 152.377 134.963C152.53 135.291 152.607 135.667 152.611 136.092C152.607 136.715 152.448 137.255 152.134 137.712C151.822 138.166 151.371 138.519 150.781 138.771C150.195 139.02 149.487 139.144 148.658 139.144C147.836 139.144 147.121 139.018 146.511 138.766C145.904 138.514 145.43 138.142 145.089 137.648C144.751 137.151 144.573 136.536 144.557 135.803H146.64C146.663 136.145 146.761 136.43 146.933 136.658C147.109 136.884 147.343 137.054 147.634 137.17C147.929 137.283 148.262 137.339 148.634 137.339C148.998 137.339 149.315 137.286 149.583 137.18C149.855 137.074 150.065 136.927 150.214 136.738C150.364 136.549 150.438 136.332 150.438 136.087C150.438 135.858 150.37 135.666 150.234 135.51C150.102 135.354 149.906 135.222 149.648 135.112C149.393 135.003 149.079 134.903 148.708 134.814L147.599 134.536C146.741 134.327 146.063 134 145.566 133.556C145.069 133.112 144.822 132.514 144.825 131.761C144.822 131.145 144.986 130.606 145.317 130.146C145.652 129.685 146.111 129.325 146.695 129.067C147.278 128.808 147.941 128.679 148.683 128.679C149.439 128.679 150.098 128.808 150.662 129.067C151.229 129.325 151.67 129.685 151.984 130.146C152.299 130.606 152.462 131.14 152.472 131.746H150.408ZM156.137 134.585V139H154.019V128.818H156.077V132.711H156.167C156.339 132.26 156.617 131.907 157.002 131.652C157.386 131.393 157.869 131.264 158.449 131.264C158.979 131.264 159.441 131.38 159.836 131.612C160.233 131.841 160.542 132.171 160.76 132.602C160.983 133.029 161.092 133.541 161.089 134.138V139H158.971V134.516C158.974 134.045 158.855 133.679 158.613 133.417C158.374 133.155 158.039 133.024 157.608 133.024C157.32 133.024 157.065 133.085 156.843 133.208C156.624 133.331 156.452 133.51 156.326 133.745C156.203 133.977 156.14 134.257 156.137 134.585ZM164.933 139.144C164.446 139.144 164.011 139.06 163.63 138.891C163.249 138.718 162.948 138.465 162.725 138.13C162.507 137.792 162.397 137.371 162.397 136.867C162.397 136.443 162.475 136.087 162.631 135.798C162.787 135.51 162.999 135.278 163.267 135.102C163.536 134.927 163.841 134.794 164.182 134.705C164.527 134.615 164.888 134.552 165.266 134.516C165.71 134.469 166.068 134.426 166.34 134.386C166.612 134.343 166.809 134.28 166.931 134.197C167.054 134.115 167.115 133.992 167.115 133.83V133.8C167.115 133.485 167.016 133.241 166.817 133.069C166.622 132.897 166.343 132.81 165.982 132.81C165.601 132.81 165.297 132.895 165.072 133.064C164.847 133.23 164.698 133.438 164.625 133.69L162.666 133.531C162.765 133.067 162.961 132.666 163.252 132.328C163.544 131.987 163.92 131.725 164.381 131.543C164.845 131.357 165.382 131.264 165.992 131.264C166.416 131.264 166.822 131.314 167.21 131.413C167.601 131.513 167.947 131.667 168.249 131.876C168.554 132.085 168.794 132.353 168.97 132.681C169.145 133.006 169.233 133.395 169.233 133.849V139H167.225V137.941H167.165C167.042 138.18 166.878 138.39 166.673 138.572C166.467 138.751 166.221 138.892 165.932 138.995C165.644 139.094 165.311 139.144 164.933 139.144ZM165.539 137.683C165.851 137.683 166.126 137.621 166.365 137.499C166.603 137.373 166.791 137.204 166.926 136.991C167.062 136.779 167.13 136.539 167.13 136.271V135.46C167.064 135.503 166.973 135.543 166.857 135.58C166.744 135.613 166.617 135.644 166.474 135.674C166.332 135.701 166.189 135.725 166.047 135.749C165.904 135.768 165.775 135.787 165.659 135.803C165.41 135.84 165.193 135.898 165.007 135.977C164.822 136.057 164.678 136.165 164.575 136.3C164.472 136.433 164.421 136.599 164.421 136.798C164.421 137.086 164.525 137.306 164.734 137.459C164.946 137.608 165.215 137.683 165.539 137.683ZM170.876 139V131.364H172.93V132.696H173.009C173.148 132.222 173.382 131.864 173.71 131.622C174.038 131.377 174.416 131.254 174.844 131.254C174.95 131.254 175.064 131.261 175.187 131.274C175.309 131.287 175.417 131.306 175.51 131.329V133.208C175.411 133.178 175.273 133.152 175.097 133.129C174.922 133.105 174.761 133.094 174.615 133.094C174.304 133.094 174.025 133.162 173.78 133.298C173.538 133.43 173.346 133.616 173.203 133.854C173.064 134.093 172.994 134.368 172.994 134.68V139H170.876ZM179.73 139.149C178.944 139.149 178.268 138.99 177.701 138.672C177.138 138.35 176.704 137.896 176.399 137.31C176.094 136.72 175.941 136.022 175.941 135.217C175.941 134.431 176.094 133.742 176.399 133.148C176.704 132.555 177.133 132.093 177.686 131.761C178.243 131.43 178.896 131.264 179.645 131.264C180.149 131.264 180.618 131.345 181.052 131.508C181.49 131.667 181.871 131.907 182.195 132.229C182.524 132.55 182.779 132.955 182.961 133.442C183.143 133.926 183.235 134.492 183.235 135.142V135.724H176.786V134.411H181.241C181.241 134.106 181.175 133.836 181.042 133.601C180.91 133.366 180.726 133.182 180.49 133.049C180.258 132.913 179.988 132.845 179.68 132.845C179.358 132.845 179.073 132.92 178.825 133.069C178.579 133.215 178.387 133.412 178.248 133.661C178.109 133.906 178.038 134.179 178.034 134.481V135.729C178.034 136.107 178.104 136.433 178.243 136.708C178.386 136.983 178.586 137.195 178.845 137.344C179.103 137.494 179.41 137.568 179.764 137.568C180 137.568 180.215 137.535 180.411 137.469C180.606 137.402 180.774 137.303 180.913 137.17C181.052 137.038 181.158 136.875 181.231 136.683L183.19 136.812C183.09 137.283 182.887 137.694 182.578 138.045C182.273 138.393 181.879 138.665 181.395 138.861C180.914 139.053 180.359 139.149 179.73 139.149ZM187.897 139V128.818H190.049V137.225H194.414V139H187.897ZM195.8 139V131.364H197.918V139H195.8ZM196.864 130.379C196.549 130.379 196.279 130.275 196.054 130.066C195.832 129.854 195.721 129.6 195.721 129.305C195.721 129.014 195.832 128.763 196.054 128.555C196.279 128.343 196.549 128.237 196.864 128.237C197.179 128.237 197.448 128.343 197.67 128.555C197.895 128.763 198.008 129.014 198.008 129.305C198.008 129.6 197.895 129.854 197.67 130.066C197.448 130.275 197.179 130.379 196.864 130.379ZM201.733 134.585V139H199.615V131.364H201.633V132.711H201.723C201.892 132.267 202.175 131.915 202.573 131.657C202.971 131.395 203.453 131.264 204.02 131.264C204.55 131.264 205.012 131.38 205.407 131.612C205.801 131.844 206.108 132.176 206.326 132.607C206.545 133.034 206.654 133.545 206.654 134.138V139H204.537V134.516C204.54 134.048 204.421 133.684 204.179 133.422C203.937 133.157 203.604 133.024 203.179 133.024C202.894 133.024 202.642 133.085 202.424 133.208C202.208 133.331 202.039 133.51 201.917 133.745C201.797 133.977 201.736 134.257 201.733 134.585ZM210.243 136.803L210.248 134.262H210.556L213.002 131.364H215.433L212.147 135.202H211.645L210.243 136.803ZM208.324 139V128.818H210.442V139H208.324ZM213.096 139L210.849 135.674L212.261 134.178L215.577 139H213.096Z" fill="#075850"/>
<path d="M366.334 139L371.334 134L366.334 129M359.667 129L354.667 134L359.667 139" stroke="#8F8F8F" stroke-width="2" stroke-linecap="round" stroke-linejoin="round"/>
<path d="M378.233 139V128.818H384.378V129.912H379.466V133.352H384.06V134.446H379.466V137.906H384.457V139H378.233ZM386.441 139V131.364H387.575V132.557H387.674C387.833 132.149 388.09 131.833 388.445 131.607C388.799 131.379 389.225 131.264 389.722 131.264C390.226 131.264 390.645 131.379 390.98 131.607C391.318 131.833 391.582 132.149 391.771 132.557H391.85C392.046 132.162 392.339 131.849 392.73 131.617C393.121 131.382 393.59 131.264 394.137 131.264C394.82 131.264 395.378 131.478 395.812 131.906C396.247 132.33 396.464 132.991 396.464 133.889V139H395.29V133.889C395.29 133.326 395.136 132.923 394.828 132.681C394.52 132.439 394.157 132.318 393.739 132.318C393.202 132.318 392.786 132.481 392.491 132.805C392.196 133.127 392.049 133.535 392.049 134.028V139H390.856V133.77C390.856 133.336 390.715 132.986 390.433 132.721C390.152 132.452 389.789 132.318 389.344 132.318C389.04 132.318 388.754 132.399 388.489 132.562C388.228 132.724 388.015 132.95 387.853 133.238C387.694 133.523 387.614 133.853 387.614 134.227V139H386.441ZM398.768 139V128.818H399.941V132.577H400.041C400.127 132.444 400.246 132.275 400.399 132.07C400.555 131.861 400.777 131.675 401.065 131.513C401.357 131.347 401.751 131.264 402.248 131.264C402.891 131.264 403.458 131.425 403.949 131.746C404.439 132.068 404.822 132.524 405.097 133.114C405.372 133.704 405.51 134.4 405.51 135.202C405.51 136.01 405.372 136.711 405.097 137.305C404.822 137.895 404.441 138.352 403.953 138.677C403.466 138.998 402.904 139.159 402.268 139.159C401.778 139.159 401.385 139.078 401.09 138.915C400.795 138.75 400.568 138.562 400.409 138.354C400.25 138.142 400.127 137.966 400.041 137.827H399.902V139H398.768ZM399.922 135.182C399.922 135.759 400.006 136.267 400.175 136.708C400.344 137.146 400.591 137.489 400.916 137.737C401.241 137.982 401.638 138.105 402.109 138.105C402.6 138.105 403.009 137.976 403.337 137.717C403.668 137.455 403.917 137.104 404.083 136.663C404.252 136.219 404.336 135.725 404.336 135.182C404.336 134.645 404.253 134.161 404.088 133.73C403.925 133.296 403.678 132.953 403.347 132.701C403.019 132.446 402.606 132.318 402.109 132.318C401.632 132.318 401.231 132.439 400.906 132.681C400.581 132.92 400.336 133.254 400.17 133.685C400.004 134.113 399.922 134.612 399.922 135.182ZM410.506 139.159C409.77 139.159 409.136 138.997 408.602 138.672C408.072 138.344 407.662 137.886 407.374 137.3C407.089 136.71 406.946 136.024 406.946 135.241C406.946 134.459 407.089 133.77 407.374 133.173C407.662 132.573 408.063 132.106 408.577 131.771C409.094 131.433 409.697 131.264 410.387 131.264C410.784 131.264 411.177 131.33 411.565 131.463C411.953 131.596 412.306 131.811 412.624 132.109C412.942 132.404 413.196 132.795 413.385 133.283C413.574 133.77 413.668 134.37 413.668 135.082V135.58H407.782V134.565H412.475C412.475 134.134 412.389 133.75 412.216 133.412C412.047 133.074 411.805 132.807 411.49 132.612C411.179 132.416 410.811 132.318 410.387 132.318C409.919 132.318 409.515 132.434 409.174 132.666C408.836 132.895 408.575 133.193 408.393 133.561C408.211 133.929 408.12 134.323 408.12 134.744V135.42C408.12 135.997 408.219 136.486 408.418 136.887C408.62 137.285 408.9 137.588 409.258 137.797C409.616 138.002 410.032 138.105 410.506 138.105C410.814 138.105 411.093 138.062 411.341 137.976C411.593 137.886 411.81 137.754 411.993 137.578C412.175 137.399 412.316 137.177 412.415 136.912L413.549 137.23C413.429 137.615 413.229 137.953 412.947 138.244C412.665 138.533 412.317 138.758 411.903 138.92C411.489 139.08 411.023 139.159 410.506 139.159ZM418.336 139.159C417.7 139.159 417.138 138.998 416.651 138.677C416.164 138.352 415.783 137.895 415.507 137.305C415.232 136.711 415.095 136.01 415.095 135.202C415.095 134.4 415.232 133.704 415.507 133.114C415.783 132.524 416.165 132.068 416.656 131.746C417.146 131.425 417.713 131.264 418.356 131.264C418.853 131.264 419.246 131.347 419.534 131.513C419.826 131.675 420.048 131.861 420.201 132.07C420.356 132.275 420.477 132.444 420.564 132.577H420.663V128.818H421.836V139H420.703V137.827H420.564C420.477 137.966 420.355 138.142 420.196 138.354C420.037 138.562 419.81 138.75 419.515 138.915C419.22 139.078 418.827 139.159 418.336 139.159ZM418.495 138.105C418.966 138.105 419.364 137.982 419.689 137.737C420.013 137.489 420.26 137.146 420.429 136.708C420.598 136.267 420.683 135.759 420.683 135.182C420.683 134.612 420.6 134.113 420.434 133.685C420.269 133.254 420.023 132.92 419.699 132.681C419.374 132.439 418.973 132.318 418.495 132.318C417.998 132.318 417.584 132.446 417.252 132.701C416.924 132.953 416.677 133.296 416.512 133.73C416.349 134.161 416.268 134.645 416.268 135.182C416.268 135.725 416.351 136.219 416.517 136.663C416.686 137.104 416.934 137.455 417.262 137.717C417.594 137.976 418.005 138.105 418.495 138.105ZM436.438 132H435.205C435.132 131.645 435.004 131.334 434.822 131.065C434.643 130.797 434.424 130.571 434.166 130.389C433.911 130.204 433.627 130.064 433.316 129.972C433.004 129.879 432.679 129.832 432.341 129.832C431.725 129.832 431.166 129.988 430.666 130.3C430.169 130.611 429.773 131.07 429.478 131.677C429.186 132.283 429.04 133.027 429.04 133.909C429.04 134.791 429.186 135.535 429.478 136.141C429.773 136.748 430.169 137.207 430.666 137.518C431.166 137.83 431.725 137.986 432.341 137.986C432.679 137.986 433.004 137.939 433.316 137.847C433.627 137.754 433.911 137.616 434.166 137.434C434.424 137.248 434.643 137.021 434.822 136.753C435.004 136.481 435.132 136.17 435.205 135.818H436.438C436.345 136.339 436.176 136.804 435.931 137.215C435.685 137.626 435.381 137.976 435.016 138.264C434.651 138.549 434.242 138.766 433.788 138.915C433.337 139.065 432.855 139.139 432.341 139.139C431.473 139.139 430.701 138.927 430.025 138.503C429.348 138.079 428.816 137.475 428.429 136.693C428.041 135.911 427.847 134.983 427.847 133.909C427.847 132.835 428.041 131.907 428.429 131.125C428.816 130.343 429.348 129.74 430.025 129.315C430.701 128.891 431.473 128.679 432.341 128.679C432.855 128.679 433.337 128.754 433.788 128.903C434.242 129.052 434.651 129.271 435.016 129.559C435.381 129.844 435.685 130.192 435.931 130.603C436.176 131.011 436.345 131.476 436.438 132ZM441.373 139.159C440.684 139.159 440.079 138.995 439.559 138.667C439.042 138.339 438.637 137.88 438.346 137.29C438.057 136.7 437.913 136.01 437.913 135.222C437.913 134.426 438.057 133.732 438.346 133.138C438.637 132.545 439.042 132.085 439.559 131.756C440.079 131.428 440.684 131.264 441.373 131.264C442.063 131.264 442.666 131.428 443.183 131.756C443.703 132.085 444.108 132.545 444.396 133.138C444.688 133.732 444.834 134.426 444.834 135.222C444.834 136.01 444.688 136.7 444.396 137.29C444.108 137.88 443.703 138.339 443.183 138.667C442.666 138.995 442.063 139.159 441.373 139.159ZM441.373 138.105C441.897 138.105 442.328 137.971 442.666 137.702C443.004 137.434 443.254 137.081 443.417 136.643C443.579 136.206 443.66 135.732 443.66 135.222C443.66 134.711 443.579 134.236 443.417 133.795C443.254 133.354 443.004 132.998 442.666 132.726C442.328 132.454 441.897 132.318 441.373 132.318C440.85 132.318 440.419 132.454 440.081 132.726C439.743 132.998 439.492 133.354 439.33 133.795C439.168 134.236 439.086 134.711 439.086 135.222C439.086 135.732 439.168 136.206 439.33 136.643C439.492 137.081 439.743 137.434 440.081 137.702C440.419 137.971 440.85 138.105 441.373 138.105ZM449.508 139.159C448.872 139.159 448.31 138.998 447.823 138.677C447.336 138.352 446.954 137.895 446.679 137.305C446.404 136.711 446.267 136.01 446.267 135.202C446.267 134.4 446.404 133.704 446.679 133.114C446.954 132.524 447.337 132.068 447.828 131.746C448.318 131.425 448.885 131.264 449.528 131.264C450.025 131.264 450.418 131.347 450.706 131.513C450.998 131.675 451.22 131.861 451.373 132.07C451.528 132.275 451.649 132.444 451.735 132.577H451.835V128.818H453.008V139H451.875V137.827H451.735C451.649 137.966 451.527 138.142 451.368 138.354C451.208 138.562 450.981 138.75 450.686 138.915C450.391 139.078 449.999 139.159 449.508 139.159ZM449.667 138.105C450.138 138.105 450.536 137.982 450.86 137.737C451.185 137.489 451.432 137.146 451.601 136.708C451.77 136.267 451.855 135.759 451.855 135.182C451.855 134.612 451.772 134.113 451.606 133.685C451.44 133.254 451.195 132.92 450.87 132.681C450.546 132.439 450.145 132.318 449.667 132.318C449.17 132.318 448.756 132.446 448.424 132.701C448.096 132.953 447.849 133.296 447.684 133.73C447.521 134.161 447.44 134.645 447.44 135.182C447.44 135.725 447.523 136.219 447.689 136.663C447.858 137.104 448.106 137.455 448.434 137.717C448.766 137.976 449.177 138.105 449.667 138.105ZM458.522 139.159C457.786 139.159 457.151 138.997 456.618 138.672C456.087 138.344 455.678 137.886 455.39 137.3C455.105 136.71 454.962 136.024 454.962 135.241C454.962 134.459 455.105 133.77 455.39 133.173C455.678 132.573 456.079 132.106 456.593 131.771C457.11 131.433 457.713 131.264 458.402 131.264C458.8 131.264 459.193 131.33 459.581 131.463C459.968 131.596 460.321 131.811 460.64 132.109C460.958 132.404 461.211 132.795 461.4 133.283C461.589 133.77 461.684 134.37 461.684 135.082V135.58H455.797V134.565H460.49C460.49 134.134 460.404 133.75 460.232 133.412C460.063 133.074 459.821 132.807 459.506 132.612C459.194 132.416 458.827 132.318 458.402 132.318C457.935 132.318 457.531 132.434 457.189 132.666C456.851 132.895 456.591 133.193 456.409 133.561C456.226 133.929 456.135 134.323 456.135 134.744V135.42C456.135 135.997 456.235 136.486 456.434 136.887C456.636 137.285 456.916 137.588 457.274 137.797C457.632 138.002 458.048 138.105 458.522 138.105C458.83 138.105 459.108 138.062 459.357 137.976C459.609 137.886 459.826 137.754 460.008 137.578C460.19 137.399 460.331 137.177 460.431 136.912L461.564 137.23C461.445 137.615 461.244 137.953 460.963 138.244C460.681 138.533 460.333 138.758 459.919 138.92C459.504 139.08 459.039 139.159 458.522 139.159Z" fill="#8F8F8F"/>
<rect x="48.5" y="196.5" width="364" height="43" rx="3.5" fill="white"/>
<rect x="48.5" y="196.5" width="364" height="43" rx="3.5" stroke="#E0E0E0"/>
<path d="M62.2472 218.406V223H61.0739V212.818H62.2472V216.557H62.3466C62.5256 216.162 62.794 215.849 63.152 215.617C63.5133 215.382 63.9938 215.264 64.5938 215.264C65.1141 215.264 65.5698 215.369 65.9609 215.577C66.352 215.783 66.6553 216.099 66.8707 216.527C67.0895 216.951 67.1989 217.491 67.1989 218.148V223H66.0256V218.227C66.0256 217.621 65.8681 217.152 65.5533 216.82C65.2417 216.486 64.8092 216.318 64.2557 216.318C63.8712 216.318 63.5265 216.399 63.2216 216.562C62.92 216.724 62.6813 216.961 62.5057 217.273C62.3333 217.584 62.2472 217.962 62.2472 218.406ZM72.6664 215.364V216.358H68.709V215.364H72.6664ZM69.8624 213.534H71.0357V220.812C71.0357 221.144 71.0837 221.393 71.1799 221.558C71.2793 221.721 71.4052 221.83 71.5577 221.886C71.7135 221.939 71.8775 221.966 72.0499 221.966C72.1792 221.966 72.2852 221.959 72.3681 221.946C72.4509 221.929 72.5172 221.916 72.5669 221.906L72.8056 222.96C72.726 222.99 72.615 223.02 72.4725 223.05C72.33 223.083 72.1493 223.099 71.9306 223.099C71.5991 223.099 71.2743 223.028 70.9561 222.886C70.6413 222.743 70.3794 222.526 70.1706 222.234C69.9651 221.943 69.8624 221.575 69.8624 221.131V213.534ZM77.7523 215.364V216.358H73.7949V215.364H77.7523ZM74.9483 213.534H76.1216V220.812C76.1216 221.144 76.1697 221.393 76.2658 221.558C76.3652 221.721 76.4912 221.83 76.6436 221.886C76.7994 221.939 76.9635 221.966 77.1358 221.966C77.2651 221.966 77.3712 221.959 77.454 221.946C77.5369 221.929 77.6032 221.916 77.6529 221.906L77.8915 222.96C77.812 222.99 77.7009 223.02 77.5584 223.05C77.4159 223.083 77.2353 223.099 77.0165 223.099C76.6851 223.099 76.3603 223.028 76.0421 222.886C75.7272 222.743 75.4654 222.526 75.2566 222.234C75.0511 221.943 74.9483 221.575 74.9483 221.131V213.534ZM79.5172 225.864V215.364H80.6507V216.577H80.79C80.8761 216.444 80.9954 216.275 81.1479 216.07C81.3037 215.861 81.5257 215.675 81.8141 215.513C82.1058 215.347 82.5002 215.264 82.9973 215.264C83.6403 215.264 84.2071 215.425 84.6976 215.746C85.1882 216.068 85.571 216.524 85.8461 217.114C86.1212 217.704 86.2587 218.4 86.2587 219.202C86.2587 220.01 86.1212 220.711 85.8461 221.305C85.571 221.895 85.1898 222.352 84.7026 222.677C84.2154 222.998 83.6536 223.159 83.0172 223.159C82.5267 223.159 82.1339 223.078 81.839 222.915C81.544 222.75 81.3169 222.562 81.1578 222.354C80.9988 222.142 80.8761 221.966 80.79 221.827H80.6905V225.864H79.5172ZM80.6706 219.182C80.6706 219.759 80.7551 220.267 80.9242 220.708C81.0932 221.146 81.3401 221.489 81.665 221.737C81.9898 221.982 82.3875 222.105 82.8581 222.105C83.3487 222.105 83.758 221.976 84.0861 221.717C84.4176 221.455 84.6661 221.104 84.8319 220.663C85.0009 220.219 85.0854 219.725 85.0854 219.182C85.0854 218.645 85.0025 218.161 84.8368 217.73C84.6744 217.296 84.4275 216.953 84.0961 216.701C83.7679 216.446 83.3553 216.318 82.8581 216.318C82.3809 216.318 81.9798 216.439 81.655 216.681C81.3302 216.92 81.0849 217.254 80.9192 217.685C80.7535 218.113 80.6706 218.612 80.6706 219.182ZM93.4576 217.074L92.4036 217.372C92.3373 217.196 92.2395 217.026 92.1103 216.86C91.9843 216.691 91.812 216.552 91.5932 216.442C91.3745 216.333 91.0944 216.278 90.753 216.278C90.2857 216.278 89.8962 216.386 89.5847 216.602C89.2765 216.814 89.1223 217.084 89.1223 217.412C89.1223 217.704 89.2284 217.934 89.4405 218.103C89.6526 218.272 89.9841 218.413 90.4348 218.526L91.5684 218.804C92.2511 218.97 92.7599 219.223 93.0946 219.565C93.4294 219.903 93.5968 220.339 93.5968 220.872C93.5968 221.31 93.4708 221.701 93.2189 222.045C92.9703 222.39 92.6223 222.662 92.1749 222.861C91.7275 223.06 91.2071 223.159 90.6138 223.159C89.8349 223.159 89.1903 222.99 88.6799 222.652C88.1694 222.314 87.8463 221.82 87.7104 221.17L88.824 220.892C88.9301 221.303 89.1306 221.611 89.4256 221.817C89.7239 222.022 90.1133 222.125 90.5939 222.125C91.1408 222.125 91.575 222.009 91.8965 221.777C92.2213 221.542 92.3837 221.26 92.3837 220.932C92.3837 220.667 92.2909 220.445 92.1053 220.266C91.9197 220.083 91.6346 219.947 91.2502 219.858L89.9775 219.56C89.2781 219.394 88.7644 219.137 88.4363 218.789C88.1114 218.438 87.949 217.999 87.949 217.472C87.949 217.041 88.07 216.66 88.312 216.328C88.5572 215.997 88.8903 215.737 89.3113 215.548C89.7355 215.359 90.2161 215.264 90.753 215.264C91.5087 215.264 92.102 215.43 92.5328 215.761C92.967 216.093 93.2753 216.53 93.4576 217.074ZM96.218 223.08C95.9728 223.08 95.7623 222.992 95.5866 222.816C95.411 222.64 95.3232 222.43 95.3232 222.185C95.3232 221.939 95.411 221.729 95.5866 221.553C95.7623 221.378 95.9728 221.29 96.218 221.29C96.4633 221.29 96.6738 221.378 96.8494 221.553C97.0251 221.729 97.1129 221.939 97.1129 222.185C97.1129 222.347 97.0715 222.496 96.9886 222.632C96.9091 222.768 96.8014 222.877 96.6655 222.96C96.5329 223.04 96.3838 223.08 96.218 223.08ZM96.218 217.412C95.9728 217.412 95.7623 217.324 95.5866 217.148C95.411 216.973 95.3232 216.762 95.3232 216.517C95.3232 216.272 95.411 216.061 95.5866 215.886C95.7623 215.71 95.9728 215.622 96.218 215.622C96.4633 215.622 96.6738 215.71 96.8494 215.886C97.0251 216.061 97.1129 216.272 97.1129 216.517C97.1129 216.679 97.0715 216.829 96.9886 216.964C96.9091 217.1 96.8014 217.21 96.6655 217.293C96.5329 217.372 96.3838 217.412 96.218 217.412ZM102.818 212.341L99.5366 224.531H98.4627L101.744 212.341H102.818ZM107.808 212.341L104.527 224.531H103.453L106.734 212.341H107.808ZM111.446 223.179C110.962 223.179 110.523 223.088 110.129 222.906C109.734 222.72 109.421 222.453 109.189 222.105C108.957 221.754 108.841 221.33 108.841 220.832C108.841 220.395 108.927 220.04 109.099 219.768C109.272 219.493 109.502 219.278 109.79 219.122C110.079 218.966 110.397 218.85 110.745 218.774C111.096 218.695 111.449 218.632 111.804 218.585C112.268 218.526 112.644 218.481 112.933 218.451C113.224 218.418 113.436 218.363 113.569 218.287C113.705 218.211 113.773 218.078 113.773 217.889V217.849C113.773 217.359 113.638 216.978 113.37 216.706C113.105 216.434 112.702 216.298 112.162 216.298C111.602 216.298 111.163 216.421 110.844 216.666C110.526 216.911 110.303 217.173 110.173 217.452L109.06 217.054C109.259 216.59 109.524 216.229 109.855 215.97C110.19 215.708 110.554 215.526 110.949 215.423C111.347 215.317 111.738 215.264 112.122 215.264C112.367 215.264 112.649 215.294 112.967 215.354C113.289 215.41 113.599 215.528 113.897 215.707C114.199 215.886 114.449 216.156 114.648 216.517C114.847 216.878 114.946 217.362 114.946 217.969V223H113.773V221.966H113.713C113.634 222.132 113.501 222.309 113.315 222.498C113.13 222.687 112.883 222.848 112.575 222.98C112.266 223.113 111.89 223.179 111.446 223.179ZM111.625 222.125C112.089 222.125 112.48 222.034 112.798 221.852C113.12 221.669 113.362 221.434 113.524 221.146C113.69 220.857 113.773 220.554 113.773 220.236V219.162C113.723 219.222 113.614 219.276 113.445 219.326C113.279 219.372 113.087 219.414 112.868 219.45C112.652 219.483 112.442 219.513 112.237 219.54C112.034 219.563 111.87 219.583 111.744 219.599C111.439 219.639 111.154 219.704 110.889 219.793C110.627 219.879 110.415 220.01 110.253 220.186C110.094 220.358 110.014 220.594 110.014 220.892C110.014 221.3 110.165 221.608 110.467 221.817C110.772 222.022 111.158 222.125 111.625 222.125ZM117.088 225.864V215.364H118.221V216.577H118.36C118.446 216.444 118.566 216.275 118.718 216.07C118.874 215.861 119.096 215.675 119.384 215.513C119.676 215.347 120.07 215.264 120.568 215.264C121.211 215.264 121.777 215.425 122.268 215.746C122.758 216.068 123.141 216.524 123.416 217.114C123.691 217.704 123.829 218.4 123.829 219.202C123.829 220.01 123.691 220.711 123.416 221.305C123.141 221.895 122.76 222.352 122.273 222.677C121.786 222.998 121.224 223.159 120.588 223.159C120.097 223.159 119.704 223.078 119.409 222.915C119.114 222.75 118.887 222.562 118.728 222.354C118.569 222.142 118.446 221.966 118.36 221.827H118.261V225.864H117.088ZM118.241 219.182C118.241 219.759 118.325 220.267 118.494 220.708C118.664 221.146 118.91 221.489 119.235 221.737C119.56 221.982 119.958 222.105 120.428 222.105C120.919 222.105 121.328 221.976 121.656 221.717C121.988 221.455 122.236 221.104 122.402 220.663C122.571 220.219 122.656 219.725 122.656 219.182C122.656 218.645 122.573 218.161 122.407 217.73C122.245 217.296 121.998 216.953 121.666 216.701C121.338 216.446 120.926 216.318 120.428 216.318C119.951 216.318 119.55 216.439 119.225 216.681C118.901 216.92 118.655 217.254 118.49 217.685C118.324 218.113 118.241 218.612 118.241 219.182ZM125.619 225.864V215.364H126.752V216.577H126.892C126.978 216.444 127.097 216.275 127.249 216.07C127.405 215.861 127.627 215.675 127.916 215.513C128.207 215.347 128.602 215.264 129.099 215.264C129.742 215.264 130.309 215.425 130.799 215.746C131.29 216.068 131.673 216.524 131.948 217.114C132.223 217.704 132.36 218.4 132.36 219.202C132.36 220.01 132.223 220.711 131.948 221.305C131.673 221.895 131.291 222.352 130.804 222.677C130.317 222.998 129.755 223.159 129.119 223.159C128.628 223.159 128.235 223.078 127.941 222.915C127.646 222.75 127.419 222.562 127.259 222.354C127.1 222.142 126.978 221.966 126.892 221.827H126.792V225.864H125.619ZM126.772 219.182C126.772 219.759 126.857 220.267 127.026 220.708C127.195 221.146 127.442 221.489 127.767 221.737C128.091 221.982 128.489 222.105 128.96 222.105C129.45 222.105 129.86 221.976 130.188 221.717C130.519 221.455 130.768 221.104 130.933 220.663C131.102 220.219 131.187 219.725 131.187 219.182C131.187 218.645 131.104 218.161 130.938 217.73C130.776 217.296 130.529 216.953 130.198 216.701C129.869 216.446 129.457 216.318 128.96 216.318C128.482 216.318 128.081 216.439 127.757 216.681C127.432 216.92 127.186 217.254 127.021 217.685C126.855 218.113 126.772 218.612 126.772 219.182ZM135.005 223.08C134.76 223.08 134.549 222.992 134.374 222.816C134.198 222.64 134.11 222.43 134.11 222.185C134.11 221.939 134.198 221.729 134.374 221.553C134.549 221.378 134.76 221.29 135.005 221.29C135.25 221.29 135.461 221.378 135.637 221.553C135.812 221.729 135.9 221.939 135.9 222.185C135.9 222.347 135.859 222.496 135.776 222.632C135.696 222.768 135.588 222.877 135.453 222.96C135.32 223.04 135.171 223.08 135.005 223.08ZM141.108 223.159C140.392 223.159 139.775 222.99 139.258 222.652C138.741 222.314 138.344 221.848 138.065 221.255C137.787 220.662 137.648 219.984 137.648 219.222C137.648 218.446 137.79 217.762 138.075 217.168C138.363 216.572 138.765 216.106 139.278 215.771C139.795 215.433 140.398 215.264 141.088 215.264C141.625 215.264 142.109 215.364 142.54 215.562C142.97 215.761 143.323 216.04 143.599 216.398C143.874 216.756 144.044 217.173 144.111 217.651H142.937C142.848 217.303 142.649 216.994 142.341 216.726C142.036 216.454 141.625 216.318 141.108 216.318C140.65 216.318 140.249 216.437 139.905 216.676C139.563 216.911 139.296 217.245 139.104 217.675C138.915 218.103 138.821 218.605 138.821 219.182C138.821 219.772 138.914 220.286 139.099 220.723C139.288 221.161 139.553 221.5 139.895 221.742C140.239 221.984 140.644 222.105 141.108 222.105C141.413 222.105 141.689 222.052 141.938 221.946C142.187 221.84 142.397 221.688 142.569 221.489C142.742 221.29 142.864 221.051 142.937 220.773H144.111C144.044 221.223 143.88 221.629 143.618 221.991C143.36 222.349 143.017 222.634 142.589 222.846C142.165 223.055 141.671 223.159 141.108 223.159ZM148.928 223.159C148.239 223.159 147.634 222.995 147.113 222.667C146.596 222.339 146.192 221.88 145.9 221.29C145.612 220.7 145.468 220.01 145.468 219.222C145.468 218.426 145.612 217.732 145.9 217.138C146.192 216.545 146.596 216.085 147.113 215.756C147.634 215.428 148.239 215.264 148.928 215.264C149.617 215.264 150.221 215.428 150.738 215.756C151.258 216.085 151.662 216.545 151.951 217.138C152.242 217.732 152.388 218.426 152.388 219.222C152.388 220.01 152.242 220.7 151.951 221.29C151.662 221.88 151.258 222.339 150.738 222.667C150.221 222.995 149.617 223.159 148.928 223.159ZM148.928 222.105C149.452 222.105 149.883 221.971 150.221 221.702C150.559 221.434 150.809 221.081 150.971 220.643C151.134 220.206 151.215 219.732 151.215 219.222C151.215 218.711 151.134 218.236 150.971 217.795C150.809 217.354 150.559 216.998 150.221 216.726C149.883 216.454 149.452 216.318 148.928 216.318C148.404 216.318 147.974 216.454 147.635 216.726C147.297 216.998 147.047 217.354 146.885 217.795C146.722 218.236 146.641 218.711 146.641 219.222C146.641 219.732 146.722 220.206 146.885 220.643C147.047 221.081 147.297 221.434 147.635 221.702C147.974 221.971 148.404 222.105 148.928 222.105ZM155.353 212.818V223H154.179V212.818H155.353ZM158.675 212.818V223H157.502V212.818H158.675ZM163.071 223.179C162.587 223.179 162.148 223.088 161.754 222.906C161.359 222.72 161.046 222.453 160.814 222.105C160.582 221.754 160.466 221.33 160.466 220.832C160.466 220.395 160.552 220.04 160.724 219.768C160.897 219.493 161.127 219.278 161.415 219.122C161.704 218.966 162.022 218.85 162.37 218.774C162.721 218.695 163.074 218.632 163.429 218.585C163.893 218.526 164.269 218.481 164.558 218.451C164.849 218.418 165.061 218.363 165.194 218.287C165.33 218.211 165.398 218.078 165.398 217.889V217.849C165.398 217.359 165.263 216.978 164.995 216.706C164.73 216.434 164.327 216.298 163.787 216.298C163.227 216.298 162.788 216.421 162.469 216.666C162.151 216.911 161.928 217.173 161.798 217.452L160.685 217.054C160.884 216.59 161.149 216.229 161.48 215.97C161.815 215.708 162.179 215.526 162.574 215.423C162.972 215.317 163.363 215.264 163.747 215.264C163.992 215.264 164.274 215.294 164.592 215.354C164.914 215.41 165.224 215.528 165.522 215.707C165.824 215.886 166.074 216.156 166.273 216.517C166.472 216.878 166.571 217.362 166.571 217.969V223H165.398V221.966H165.338C165.259 222.132 165.126 222.309 164.94 222.498C164.755 222.687 164.508 222.848 164.2 222.98C163.891 223.113 163.515 223.179 163.071 223.179ZM163.25 222.125C163.714 222.125 164.105 222.034 164.423 221.852C164.745 221.669 164.987 221.434 165.149 221.146C165.315 220.857 165.398 220.554 165.398 220.236V219.162C165.348 219.222 165.239 219.276 165.07 219.326C164.904 219.372 164.712 219.414 164.493 219.45C164.277 219.483 164.067 219.513 163.862 219.54C163.659 219.563 163.495 219.583 163.369 219.599C163.064 219.639 162.779 219.704 162.514 219.793C162.252 219.879 162.04 220.01 161.878 220.186C161.719 220.358 161.639 220.594 161.639 220.892C161.639 221.3 161.79 221.608 162.092 221.817C162.397 222.022 162.783 222.125 163.25 222.125ZM171.795 226.023C171.228 226.023 170.741 225.95 170.333 225.804C169.926 225.661 169.586 225.473 169.314 225.237C169.046 225.005 168.832 224.757 168.673 224.491L169.607 223.835C169.713 223.974 169.848 224.134 170.01 224.312C170.173 224.495 170.395 224.652 170.676 224.785C170.961 224.921 171.334 224.989 171.795 224.989C172.411 224.989 172.92 224.839 173.321 224.541C173.722 224.243 173.923 223.776 173.923 223.139V221.588H173.823C173.737 221.727 173.615 221.9 173.455 222.105C173.3 222.307 173.074 222.488 172.779 222.647C172.488 222.803 172.093 222.881 171.596 222.881C170.98 222.881 170.426 222.735 169.936 222.443C169.448 222.152 169.062 221.727 168.777 221.17C168.495 220.614 168.355 219.937 168.355 219.142C168.355 218.36 168.492 217.679 168.767 217.099C169.042 216.515 169.425 216.065 169.916 215.746C170.406 215.425 170.973 215.264 171.616 215.264C172.113 215.264 172.508 215.347 172.799 215.513C173.094 215.675 173.32 215.861 173.475 216.07C173.634 216.275 173.757 216.444 173.843 216.577H173.963V215.364H175.096V223.219C175.096 223.875 174.947 224.409 174.649 224.82C174.354 225.234 173.956 225.537 173.455 225.729C172.958 225.925 172.405 226.023 171.795 226.023ZM171.755 221.827C172.226 221.827 172.624 221.719 172.948 221.504C173.273 221.288 173.52 220.978 173.689 220.574C173.858 220.17 173.943 219.686 173.943 219.122C173.943 218.572 173.86 218.086 173.694 217.665C173.528 217.245 173.283 216.915 172.958 216.676C172.633 216.437 172.232 216.318 171.755 216.318C171.258 216.318 170.844 216.444 170.512 216.696C170.184 216.948 169.937 217.286 169.771 217.71C169.609 218.134 169.528 218.605 169.528 219.122C169.528 219.652 169.611 220.121 169.776 220.529C169.945 220.933 170.194 221.252 170.522 221.484C170.854 221.712 171.265 221.827 171.755 221.827ZM180.445 223.159C179.71 223.159 179.075 222.997 178.541 222.672C178.011 222.344 177.602 221.886 177.313 221.3C177.028 220.71 176.886 220.024 176.886 219.241C176.886 218.459 177.028 217.77 177.313 217.173C177.602 216.573 178.003 216.106 178.517 215.771C179.034 215.433 179.637 215.264 180.326 215.264C180.724 215.264 181.117 215.33 181.504 215.463C181.892 215.596 182.245 215.811 182.563 216.109C182.882 216.404 183.135 216.795 183.324 217.283C183.513 217.77 183.607 218.37 183.607 219.082V219.58H177.721V218.565H182.414C182.414 218.134 182.328 217.75 182.156 217.412C181.987 217.074 181.745 216.807 181.43 216.612C181.118 216.416 180.75 216.318 180.326 216.318C179.859 216.318 179.454 216.434 179.113 216.666C178.775 216.895 178.515 217.193 178.333 217.561C178.15 217.929 178.059 218.323 178.059 218.744V219.42C178.059 219.997 178.159 220.486 178.357 220.887C178.56 221.285 178.84 221.588 179.198 221.797C179.556 222.002 179.972 222.105 180.445 222.105C180.754 222.105 181.032 222.062 181.281 221.976C181.533 221.886 181.75 221.754 181.932 221.578C182.114 221.399 182.255 221.177 182.355 220.912L183.488 221.23C183.369 221.615 183.168 221.953 182.887 222.244C182.605 222.533 182.257 222.758 181.843 222.92C181.428 223.08 180.963 223.159 180.445 223.159ZM186.247 223.08C186.002 223.08 185.792 222.992 185.616 222.816C185.44 222.64 185.352 222.43 185.352 222.185C185.352 221.939 185.44 221.729 185.616 221.553C185.792 221.378 186.002 221.29 186.247 221.29C186.493 221.29 186.703 221.378 186.879 221.553C187.054 221.729 187.142 221.939 187.142 222.185C187.142 222.347 187.101 222.496 187.018 222.632C186.938 222.768 186.831 222.877 186.695 222.96C186.562 223.04 186.413 223.08 186.247 223.08ZM189.248 223V215.364H190.421V223H189.248ZM189.844 214.091C189.616 214.091 189.418 214.013 189.253 213.857C189.09 213.701 189.009 213.514 189.009 213.295C189.009 213.077 189.09 212.889 189.253 212.734C189.418 212.578 189.616 212.5 189.844 212.5C190.073 212.5 190.269 212.578 190.431 212.734C190.597 212.889 190.68 213.077 190.68 213.295C190.68 213.514 190.597 213.701 190.431 213.857C190.269 214.013 190.073 214.091 189.844 214.091ZM193.743 218.406V223H192.57V215.364H193.703V216.557H193.803C193.982 216.169 194.254 215.857 194.618 215.622C194.983 215.384 195.453 215.264 196.03 215.264C196.547 215.264 197 215.37 197.387 215.582C197.775 215.791 198.077 216.109 198.292 216.537C198.508 216.961 198.615 217.498 198.615 218.148V223H197.442V218.227C197.442 217.627 197.286 217.16 196.975 216.825C196.663 216.487 196.236 216.318 195.692 216.318C195.318 216.318 194.983 216.399 194.688 216.562C194.396 216.724 194.166 216.961 193.997 217.273C193.828 217.584 193.743 217.962 193.743 218.406ZM203.862 223.159C203.146 223.159 202.529 222.99 202.012 222.652C201.495 222.314 201.097 221.848 200.819 221.255C200.541 220.662 200.401 219.984 200.401 219.222C200.401 218.446 200.544 217.762 200.829 217.168C201.117 216.572 201.518 216.106 202.032 215.771C202.549 215.433 203.152 215.264 203.842 215.264C204.379 215.264 204.863 215.364 205.294 215.562C205.724 215.761 206.077 216.04 206.352 216.398C206.628 216.756 206.798 217.173 206.865 217.651H205.691C205.602 217.303 205.403 216.994 205.095 216.726C204.79 216.454 204.379 216.318 203.862 216.318C203.404 216.318 203.003 216.437 202.659 216.676C202.317 216.911 202.05 217.245 201.858 217.675C201.669 218.103 201.575 218.605 201.575 219.182C201.575 219.772 201.668 220.286 201.853 220.723C202.042 221.161 202.307 221.5 202.649 221.742C202.993 221.984 203.398 222.105 203.862 222.105C204.167 222.105 204.443 222.052 204.692 221.946C204.941 221.84 205.151 221.688 205.323 221.489C205.496 221.29 205.618 221.051 205.691 220.773H206.865C206.798 221.223 206.634 221.629 206.372 221.991C206.114 222.349 205.771 222.634 205.343 222.846C204.919 223.055 204.425 223.159 203.862 223.159ZM212.179 212.341L208.898 224.531H207.824L211.105 212.341H212.179ZM218.979 217.074L217.925 217.372C217.859 217.196 217.761 217.026 217.632 216.86C217.506 216.691 217.333 216.552 217.115 216.442C216.896 216.333 216.616 216.278 216.275 216.278C215.807 216.278 215.418 216.386 215.106 216.602C214.798 216.814 214.644 217.084 214.644 217.412C214.644 217.704 214.75 217.934 214.962 218.103C215.174 218.272 215.506 218.413 215.956 218.526L217.09 218.804C217.773 218.97 218.281 219.223 218.616 219.565C218.951 219.903 219.118 220.339 219.118 220.872C219.118 221.31 218.992 221.701 218.74 222.045C218.492 222.39 218.144 222.662 217.696 222.861C217.249 223.06 216.729 223.159 216.135 223.159C215.356 223.159 214.712 222.99 214.201 222.652C213.691 222.314 213.368 221.82 213.232 221.17L214.346 220.892C214.452 221.303 214.652 221.611 214.947 221.817C215.245 222.022 215.635 222.125 216.115 222.125C216.662 222.125 217.096 222.009 217.418 221.777C217.743 221.542 217.905 221.26 217.905 220.932C217.905 220.667 217.812 220.445 217.627 220.266C217.441 220.083 217.156 219.947 216.772 219.858L215.499 219.56C214.8 219.394 214.286 219.137 213.958 218.789C213.633 218.438 213.471 217.999 213.471 217.472C213.471 217.041 213.592 216.66 213.833 216.328C214.079 215.997 214.412 215.737 214.833 215.548C215.257 215.359 215.738 215.264 216.275 215.264C217.03 215.264 217.623 215.43 218.054 215.761C218.489 216.093 218.797 216.53 218.979 217.074ZM222.058 218.406V223H220.884V212.818H222.058V216.557H222.157C222.336 216.162 222.605 215.849 222.963 215.617C223.324 215.382 223.804 215.264 224.404 215.264C224.925 215.264 225.38 215.369 225.771 215.577C226.163 215.783 226.466 216.099 226.681 216.527C226.9 216.951 227.009 217.491 227.009 218.148V223H225.836V218.227C225.836 217.621 225.679 217.152 225.364 216.82C225.052 216.486 224.62 216.318 224.066 216.318C223.682 216.318 223.337 216.399 223.032 216.562C222.731 216.724 222.492 216.961 222.316 217.273C222.144 217.584 222.058 217.962 222.058 218.406ZM231.403 223.179C230.919 223.179 230.48 223.088 230.086 222.906C229.691 222.72 229.378 222.453 229.146 222.105C228.914 221.754 228.798 221.33 228.798 220.832C228.798 220.395 228.884 220.04 229.056 219.768C229.229 219.493 229.459 219.278 229.748 219.122C230.036 218.966 230.354 218.85 230.702 218.774C231.053 218.695 231.406 218.632 231.761 218.585C232.225 218.526 232.601 218.481 232.89 218.451C233.181 218.418 233.393 218.363 233.526 218.287C233.662 218.211 233.73 218.078 233.73 217.889V217.849C233.73 217.359 233.596 216.978 233.327 216.706C233.062 216.434 232.659 216.298 232.119 216.298C231.559 216.298 231.12 216.421 230.801 216.666C230.483 216.911 230.26 217.173 230.13 217.452L229.017 217.054C229.216 216.59 229.481 216.229 229.812 215.97C230.147 215.708 230.511 215.526 230.906 215.423C231.304 215.317 231.695 215.264 232.079 215.264C232.324 215.264 232.606 215.294 232.924 215.354C233.246 215.41 233.556 215.528 233.854 215.707C234.156 215.886 234.406 216.156 234.605 216.517C234.804 216.878 234.903 217.362 234.903 217.969V223H233.73V221.966H233.67C233.591 222.132 233.458 222.309 233.272 222.498C233.087 222.687 232.84 222.848 232.532 222.98C232.223 223.113 231.847 223.179 231.403 223.179ZM231.582 222.125C232.046 222.125 232.437 222.034 232.755 221.852C233.077 221.669 233.319 221.434 233.481 221.146C233.647 220.857 233.73 220.554 233.73 220.236V219.162C233.68 219.222 233.571 219.276 233.402 219.326C233.236 219.372 233.044 219.414 232.825 219.45C232.609 219.483 232.399 219.513 232.194 219.54C231.991 219.563 231.827 219.583 231.701 219.599C231.396 219.639 231.111 219.704 230.846 219.793C230.584 219.879 230.372 220.01 230.21 220.186C230.051 220.358 229.971 220.594 229.971 220.892C229.971 221.3 230.122 221.608 230.424 221.817C230.729 222.022 231.115 222.125 231.582 222.125ZM237.045 223V215.364H238.178V216.517H238.258C238.397 216.139 238.649 215.833 239.013 215.597C239.378 215.362 239.789 215.244 240.246 215.244C240.332 215.244 240.44 215.246 240.569 215.249C240.699 215.253 240.796 215.258 240.863 215.264V216.457C240.823 216.447 240.732 216.433 240.589 216.413C240.45 216.389 240.303 216.378 240.147 216.378C239.776 216.378 239.444 216.456 239.153 216.612C238.864 216.764 238.635 216.976 238.466 217.248C238.301 217.516 238.218 217.823 238.218 218.168V223H237.045ZM245.223 223.159C244.487 223.159 243.852 222.997 243.319 222.672C242.788 222.344 242.379 221.886 242.091 221.3C241.806 220.71 241.663 220.024 241.663 219.241C241.663 218.459 241.806 217.77 242.091 217.173C242.379 216.573 242.78 216.106 243.294 215.771C243.811 215.433 244.414 215.264 245.104 215.264C245.501 215.264 245.894 215.33 246.282 215.463C246.67 215.596 247.023 215.811 247.341 216.109C247.659 216.404 247.912 216.795 248.101 217.283C248.29 217.77 248.385 218.37 248.385 219.082V219.58H242.498V218.565H247.192C247.192 218.134 247.105 217.75 246.933 217.412C246.764 217.074 246.522 216.807 246.207 216.612C245.896 216.416 245.528 216.318 245.104 216.318C244.636 216.318 244.232 216.434 243.89 216.666C243.552 216.895 243.292 217.193 243.11 217.561C242.928 217.929 242.836 218.323 242.836 218.744V219.42C242.836 219.997 242.936 220.486 243.135 220.887C243.337 221.285 243.617 221.588 243.975 221.797C244.333 222.002 244.749 222.105 245.223 222.105C245.531 222.105 245.809 222.062 246.058 221.976C246.31 221.886 246.527 221.754 246.709 221.578C246.892 221.399 247.032 221.177 247.132 220.912L248.265 221.23C248.146 221.615 247.946 221.953 247.664 222.244C247.382 222.533 247.034 222.758 246.62 222.92C246.206 223.08 245.74 223.159 245.223 223.159ZM253.053 223.159C252.417 223.159 251.855 222.998 251.368 222.677C250.881 222.352 250.499 221.895 250.224 221.305C249.949 220.711 249.812 220.01 249.812 219.202C249.812 218.4 249.949 217.704 250.224 217.114C250.499 216.524 250.882 216.068 251.373 215.746C251.863 215.425 252.43 215.264 253.073 215.264C253.57 215.264 253.963 215.347 254.251 215.513C254.543 215.675 254.765 215.861 254.917 216.07C255.073 216.275 255.194 216.444 255.28 216.577H255.38V212.818H256.553V223H255.42V221.827H255.28C255.194 221.966 255.072 222.142 254.912 222.354C254.753 222.562 254.526 222.75 254.231 222.915C253.936 223.078 253.544 223.159 253.053 223.159ZM253.212 222.105C253.683 222.105 254.081 221.982 254.405 221.737C254.73 221.489 254.977 221.146 255.146 220.708C255.315 220.267 255.4 219.759 255.4 219.182C255.4 218.612 255.317 218.113 255.151 217.685C254.985 217.254 254.74 216.92 254.415 216.681C254.09 216.439 253.689 216.318 253.212 216.318C252.715 216.318 252.301 216.446 251.969 216.701C251.641 216.953 251.394 217.296 251.229 217.73C251.066 218.161 250.985 218.645 250.985 219.182C250.985 219.725 251.068 220.219 251.233 220.663C251.403 221.104 251.651 221.455 251.979 221.717C252.311 221.976 252.722 222.105 253.212 222.105ZM263.24 218.088V219.182H258.785V218.088H263.24ZM267.551 223.179C267.068 223.179 266.628 223.088 266.234 222.906C265.84 222.72 265.526 222.453 265.294 222.105C265.062 221.754 264.946 221.33 264.946 220.832C264.946 220.395 265.033 220.04 265.205 219.768C265.377 219.493 265.608 219.278 265.896 219.122C266.184 218.966 266.502 218.85 266.85 218.774C267.202 218.695 267.555 218.632 267.909 218.585C268.373 218.526 268.75 218.481 269.038 218.451C269.33 218.418 269.542 218.363 269.674 218.287C269.81 218.211 269.878 218.078 269.878 217.889V217.849C269.878 217.359 269.744 216.978 269.475 216.706C269.21 216.434 268.808 216.298 268.267 216.298C267.707 216.298 267.268 216.421 266.95 216.666C266.632 216.911 266.408 217.173 266.279 217.452L265.165 217.054C265.364 216.59 265.629 216.229 265.961 215.97C266.295 215.708 266.66 215.526 267.054 215.423C267.452 215.317 267.843 215.264 268.228 215.264C268.473 215.264 268.755 215.294 269.073 215.354C269.394 215.41 269.704 215.528 270.002 215.707C270.304 215.886 270.554 216.156 270.753 216.517C270.952 216.878 271.051 217.362 271.051 217.969V223H269.878V221.966H269.819C269.739 222.132 269.606 222.309 269.421 222.498C269.235 222.687 268.988 222.848 268.68 222.98C268.372 223.113 267.996 223.179 267.551 223.179ZM267.73 222.125C268.194 222.125 268.586 222.034 268.904 221.852C269.225 221.669 269.467 221.434 269.63 221.146C269.795 220.857 269.878 220.554 269.878 220.236V219.162C269.828 219.222 269.719 219.276 269.55 219.326C269.384 219.372 269.192 219.414 268.973 219.45C268.758 219.483 268.547 219.513 268.342 219.54C268.14 219.563 267.976 219.583 267.85 219.599C267.545 219.639 267.26 219.704 266.995 219.793C266.733 219.879 266.521 220.01 266.358 220.186C266.199 220.358 266.12 220.594 266.12 220.892C266.12 221.3 266.27 221.608 266.572 221.817C266.877 222.022 267.263 222.125 267.73 222.125ZM278.602 217.074L277.548 217.372C277.482 217.196 277.384 217.026 277.255 216.86C277.129 216.691 276.956 216.552 276.738 216.442C276.519 216.333 276.239 216.278 275.898 216.278C275.43 216.278 275.041 216.386 274.729 216.602C274.421 216.814 274.267 217.084 274.267 217.412C274.267 217.704 274.373 217.934 274.585 218.103C274.797 218.272 275.129 218.413 275.579 218.526L276.713 218.804C277.396 218.97 277.904 219.223 278.239 219.565C278.574 219.903 278.741 220.339 278.741 220.872C278.741 221.31 278.615 221.701 278.363 222.045C278.115 222.39 277.767 222.662 277.319 222.861C276.872 223.06 276.352 223.159 275.758 223.159C274.979 223.159 274.335 222.99 273.824 222.652C273.314 222.314 272.991 221.82 272.855 221.17L273.969 220.892C274.075 221.303 274.275 221.611 274.57 221.817C274.868 222.022 275.258 222.125 275.738 222.125C276.285 222.125 276.72 222.009 277.041 221.777C277.366 221.542 277.528 221.26 277.528 220.932C277.528 220.667 277.435 220.445 277.25 220.266C277.064 220.083 276.779 219.947 276.395 219.858L275.122 219.56C274.423 219.394 273.909 219.137 273.581 218.789C273.256 218.438 273.094 217.999 273.094 217.472C273.094 217.041 273.215 216.66 273.456 216.328C273.702 215.997 274.035 215.737 274.456 215.548C274.88 215.359 275.361 215.264 275.898 215.264C276.653 215.264 277.247 215.43 277.677 215.761C278.112 216.093 278.42 216.53 278.602 217.074ZM285.917 217.074L284.863 217.372C284.796 217.196 284.699 217.026 284.569 216.86C284.443 216.691 284.271 216.552 284.052 216.442C283.833 216.333 283.553 216.278 283.212 216.278C282.745 216.278 282.355 216.386 282.044 216.602C281.735 216.814 281.581 217.084 281.581 217.412C281.581 217.704 281.687 217.934 281.9 218.103C282.112 218.272 282.443 218.413 282.894 218.526L284.027 218.804C284.71 218.97 285.219 219.223 285.554 219.565C285.888 219.903 286.056 220.339 286.056 220.872C286.056 221.31 285.93 221.701 285.678 222.045C285.429 222.39 285.081 222.662 284.634 222.861C284.186 223.06 283.666 223.159 283.073 223.159C282.294 223.159 281.649 222.99 281.139 222.652C280.628 222.314 280.305 221.82 280.169 221.17L281.283 220.892C281.389 221.303 281.59 221.611 281.885 221.817C282.183 222.022 282.572 222.125 283.053 222.125C283.6 222.125 284.034 222.009 284.355 221.777C284.68 221.542 284.843 221.26 284.843 220.932C284.843 220.667 284.75 220.445 284.564 220.266C284.379 220.083 284.094 219.947 283.709 219.858L282.436 219.56C281.737 219.394 281.223 219.137 280.895 218.789C280.57 218.438 280.408 217.999 280.408 217.472C280.408 217.041 280.529 216.66 280.771 216.328C281.016 215.997 281.349 215.737 281.77 215.548C282.194 215.359 282.675 215.264 283.212 215.264C283.968 215.264 284.561 215.43 284.992 215.761C285.426 216.093 285.734 216.53 285.917 217.074ZM291.024 223.159C290.288 223.159 289.653 222.997 289.119 222.672C288.589 222.344 288.18 221.886 287.892 221.3C287.606 220.71 287.464 220.024 287.464 219.241C287.464 218.459 287.606 217.77 287.892 217.173C288.18 216.573 288.581 216.106 289.095 215.771C289.612 215.433 290.215 215.264 290.904 215.264C291.302 215.264 291.695 215.33 292.083 215.463C292.47 215.596 292.823 215.811 293.142 216.109C293.46 216.404 293.713 216.795 293.902 217.283C294.091 217.77 294.186 218.37 294.186 219.082V219.58H288.299V218.565H292.992C292.992 218.134 292.906 217.75 292.734 217.412C292.565 217.074 292.323 216.807 292.008 216.612C291.696 216.416 291.329 216.318 290.904 216.318C290.437 216.318 290.033 216.434 289.691 216.666C289.353 216.895 289.093 217.193 288.911 217.561C288.728 217.929 288.637 218.323 288.637 218.744V219.42C288.637 219.997 288.737 220.486 288.936 220.887C289.138 221.285 289.418 221.588 289.776 221.797C290.134 222.002 290.55 222.105 291.024 222.105C291.332 222.105 291.61 222.062 291.859 221.976C292.111 221.886 292.328 221.754 292.51 221.578C292.692 221.399 292.833 221.177 292.933 220.912L294.066 221.23C293.947 221.615 293.746 221.953 293.465 222.244C293.183 222.533 292.835 222.758 292.421 222.92C292.006 223.08 291.541 223.159 291.024 223.159ZM299.291 215.364V216.358H295.334V215.364H299.291ZM296.487 213.534H297.661V220.812C297.661 221.144 297.709 221.393 297.805 221.558C297.904 221.721 298.03 221.83 298.183 221.886C298.338 221.939 298.503 221.966 298.675 221.966C298.804 221.966 298.91 221.959 298.993 221.946C299.076 221.929 299.142 221.916 299.192 221.906L299.431 222.96C299.351 222.99 299.24 223.02 299.097 223.05C298.955 223.083 298.774 223.099 298.556 223.099C298.224 223.099 297.899 223.028 297.581 222.886C297.266 222.743 297.004 222.526 296.796 222.234C296.59 221.943 296.487 221.575 296.487 221.131V213.534ZM306.329 217.074L305.275 217.372C305.208 217.196 305.111 217.026 304.981 216.86C304.855 216.691 304.683 216.552 304.464 216.442C304.246 216.333 303.965 216.278 303.624 216.278C303.157 216.278 302.767 216.386 302.456 216.602C302.148 216.814 301.993 217.084 301.993 217.412C301.993 217.704 302.099 217.934 302.312 218.103C302.524 218.272 302.855 218.413 303.306 218.526L304.439 218.804C305.122 218.97 305.631 219.223 305.966 219.565C306.3 219.903 306.468 220.339 306.468 220.872C306.468 221.31 306.342 221.701 306.09 222.045C305.841 222.39 305.493 222.662 305.046 222.861C304.599 223.06 304.078 223.159 303.485 223.159C302.706 223.159 302.061 222.99 301.551 222.652C301.041 222.314 300.717 221.82 300.581 221.17L301.695 220.892C301.801 221.303 302.002 221.611 302.297 221.817C302.595 222.022 302.984 222.125 303.465 222.125C304.012 222.125 304.446 222.009 304.768 221.777C305.092 221.542 305.255 221.26 305.255 220.932C305.255 220.667 305.162 220.445 304.976 220.266C304.791 220.083 304.506 219.947 304.121 219.858L302.849 219.56C302.149 219.394 301.635 219.137 301.307 218.789C300.983 218.438 300.82 217.999 300.82 217.472C300.82 217.041 300.941 216.66 301.183 216.328C301.428 215.997 301.761 215.737 302.182 215.548C302.607 215.359 303.087 215.264 303.624 215.264C304.38 215.264 304.973 215.43 305.404 215.761C305.838 216.093 306.146 216.53 306.329 217.074ZM311.833 212.341L308.552 224.531H307.478L310.76 212.341H311.833ZM313.383 212.818H314.855L318.315 221.27H318.434L321.895 212.818H323.366V223H322.213V215.264H322.113L318.932 223H317.818L314.636 215.264H314.537V223H313.383V212.818ZM325.679 215.364H326.853V223.557C326.853 224.027 326.771 224.435 326.609 224.78C326.45 225.125 326.208 225.391 325.883 225.58C325.562 225.769 325.156 225.864 324.665 225.864C324.625 225.864 324.586 225.864 324.546 225.864C324.506 225.864 324.466 225.864 324.426 225.864V224.77C324.466 224.77 324.503 224.77 324.536 224.77C324.569 224.77 324.605 224.77 324.645 224.77C325.003 224.77 325.265 224.664 325.431 224.452C325.596 224.243 325.679 223.945 325.679 223.557V215.364ZM326.256 214.091C326.027 214.091 325.83 214.013 325.664 213.857C325.502 213.701 325.421 213.514 325.421 213.295C325.421 213.077 325.502 212.889 325.664 212.734C325.83 212.578 326.027 212.5 326.256 212.5C326.485 212.5 326.68 212.578 326.843 212.734C327.008 212.889 327.091 213.077 327.091 213.295C327.091 213.514 327.008 213.701 326.843 213.857C326.68 214.013 326.485 214.091 326.256 214.091ZM329.161 223V212.818H335.306V213.912H330.394V217.352H334.987V218.446H330.394V221.906H335.385V223H329.161ZM340.789 223.139C340.133 223.139 339.548 223.027 339.034 222.801C338.524 222.576 338.118 222.263 337.816 221.862C337.518 221.457 337.356 220.988 337.329 220.455H338.582C338.608 220.783 338.721 221.066 338.92 221.305C339.119 221.54 339.379 221.722 339.7 221.852C340.022 221.981 340.378 222.045 340.769 222.045C341.207 222.045 341.595 221.969 341.933 221.817C342.271 221.664 342.536 221.452 342.728 221.18C342.92 220.909 343.017 220.594 343.017 220.236C343.017 219.861 342.924 219.531 342.738 219.246C342.552 218.958 342.281 218.733 341.923 218.57C341.565 218.408 341.127 218.327 340.61 218.327H339.795V217.233H340.61C341.015 217.233 341.369 217.16 341.674 217.014C341.982 216.868 342.223 216.663 342.395 216.398C342.571 216.133 342.659 215.821 342.659 215.463C342.659 215.118 342.582 214.818 342.43 214.563C342.277 214.308 342.062 214.109 341.784 213.967C341.508 213.824 341.184 213.753 340.809 213.753C340.458 213.753 340.126 213.817 339.815 213.947C339.507 214.073 339.255 214.257 339.059 214.499C338.864 214.737 338.758 215.026 338.741 215.364H337.548C337.568 214.83 337.728 214.363 338.03 213.962C338.332 213.557 338.726 213.242 339.213 213.017C339.704 212.792 340.242 212.679 340.829 212.679C341.459 212.679 341.999 212.807 342.45 213.062C342.901 213.314 343.247 213.647 343.489 214.061C343.731 214.475 343.852 214.923 343.852 215.403C343.852 215.977 343.701 216.466 343.399 216.87C343.101 217.274 342.695 217.554 342.181 217.71V217.79C342.824 217.896 343.326 218.169 343.688 218.61C344.049 219.048 344.23 219.589 344.23 220.236C344.23 220.789 344.079 221.286 343.777 221.727C343.479 222.165 343.071 222.509 342.554 222.761C342.037 223.013 341.449 223.139 340.789 223.139ZM354.516 212.818V223H353.323L347.774 215.006H347.675V223H346.442V212.818H347.635L353.203 220.832H353.303V212.818H354.516ZM359.906 226.023C359.339 226.023 358.852 225.95 358.445 225.804C358.037 225.661 357.697 225.473 357.425 225.237C357.157 225.005 356.943 224.757 356.784 224.491L357.719 223.835C357.825 223.974 357.959 224.134 358.121 224.312C358.284 224.495 358.506 224.652 358.788 224.785C359.073 224.921 359.446 224.989 359.906 224.989C360.523 224.989 361.031 224.839 361.433 224.541C361.834 224.243 362.034 223.776 362.034 223.139V221.588H361.935C361.848 221.727 361.726 221.9 361.567 222.105C361.411 222.307 361.186 222.488 360.891 222.647C360.599 222.803 360.205 222.881 359.707 222.881C359.091 222.881 358.537 222.735 358.047 222.443C357.56 222.152 357.174 221.727 356.888 221.17C356.607 220.614 356.466 219.937 356.466 219.142C356.466 218.36 356.603 217.679 356.879 217.099C357.154 216.515 357.536 216.065 358.027 215.746C358.518 215.425 359.084 215.264 359.727 215.264C360.224 215.264 360.619 215.347 360.911 215.513C361.205 215.675 361.431 215.861 361.587 216.07C361.746 216.275 361.868 216.444 361.955 216.577H362.074V215.364H363.207V223.219C363.207 223.875 363.058 224.409 362.76 224.82C362.465 225.234 362.067 225.537 361.567 225.729C361.07 225.925 360.516 226.023 359.906 226.023ZM359.866 221.827C360.337 221.827 360.735 221.719 361.06 221.504C361.384 221.288 361.631 220.978 361.8 220.574C361.969 220.17 362.054 219.686 362.054 219.122C362.054 218.572 361.971 218.086 361.805 217.665C361.64 217.245 361.394 216.915 361.07 216.676C360.745 216.437 360.344 216.318 359.866 216.318C359.369 216.318 358.955 216.444 358.624 216.696C358.295 216.948 358.049 217.286 357.883 217.71C357.72 218.134 357.639 218.605 357.639 219.122C357.639 219.652 357.722 220.121 357.888 220.529C358.057 220.933 358.305 221.252 358.634 221.484C358.965 221.712 359.376 221.827 359.866 221.827ZM365.832 218.088V217.014H371.957V218.088H365.832ZM365.832 221.031V219.957H371.957V221.031H365.832ZM375.061 218.088V217.014H381.186V218.088H375.061ZM375.061 221.031V219.957H381.186V221.031H375.061ZM385.343 220.136V220.077C385.35 219.444 385.416 218.94 385.542 218.565C385.668 218.191 385.847 217.888 386.079 217.656C386.311 217.424 386.59 217.21 386.914 217.014C387.11 216.895 387.286 216.754 387.441 216.592C387.597 216.426 387.72 216.235 387.809 216.02C387.902 215.804 387.949 215.566 387.949 215.304C387.949 214.979 387.872 214.697 387.72 214.459C387.567 214.22 387.364 214.036 387.108 213.907C386.853 213.778 386.57 213.713 386.258 213.713C385.986 213.713 385.725 213.769 385.473 213.882C385.221 213.995 385.01 214.172 384.841 214.414C384.672 214.656 384.574 214.973 384.548 215.364H383.295C383.322 214.8 383.467 214.318 383.733 213.917C384.001 213.516 384.354 213.209 384.792 212.997C385.232 212.785 385.721 212.679 386.258 212.679C386.842 212.679 387.349 212.795 387.779 213.027C388.214 213.259 388.548 213.577 388.784 213.982C389.022 214.386 389.142 214.847 389.142 215.364C389.142 215.728 389.085 216.058 388.973 216.353C388.863 216.648 388.704 216.911 388.495 217.143C388.29 217.375 388.041 217.581 387.75 217.76C387.458 217.942 387.224 218.134 387.049 218.337C386.873 218.536 386.745 218.772 386.666 219.048C386.586 219.323 386.543 219.666 386.537 220.077V220.136H385.343ZM385.98 223.08C385.734 223.08 385.524 222.992 385.348 222.816C385.173 222.64 385.085 222.43 385.085 222.185C385.085 221.939 385.173 221.729 385.348 221.553C385.524 221.378 385.734 221.29 385.98 221.29C386.225 221.29 386.435 221.378 386.611 221.553C386.787 221.729 386.875 221.939 386.875 222.185C386.875 222.347 386.833 222.496 386.75 222.632C386.671 222.768 386.563 222.877 386.427 222.96C386.295 223.04 386.145 223.08 385.98 223.08ZM391.763 223.08C391.518 223.08 391.307 222.992 391.132 222.816C390.956 222.64 390.868 222.43 390.868 222.185C390.868 221.939 390.956 221.729 391.132 221.553C391.307 221.378 391.518 221.29 391.763 221.29C392.008 221.29 392.219 221.378 392.394 221.553C392.57 221.729 392.658 221.939 392.658 222.185C392.658 222.347 392.616 222.496 392.534 222.632C392.454 222.768 392.346 222.877 392.21 222.96C392.078 223.04 391.929 223.08 391.763 223.08ZM395.581 223.08C395.336 223.08 395.125 222.992 394.95 222.816C394.774 222.64 394.686 222.43 394.686 222.185C394.686 221.939 394.774 221.729 394.95 221.553C395.125 221.378 395.336 221.29 395.581 221.29C395.826 221.29 396.037 221.378 396.213 221.553C396.388 221.729 396.476 221.939 396.476 222.185C396.476 222.347 396.435 222.496 396.352 222.632C396.272 222.768 396.164 222.877 396.029 222.96C395.896 223.04 395.747 223.08 395.581 223.08ZM399.399 223.08C399.154 223.08 398.944 222.992 398.768 222.816C398.592 222.64 398.504 222.43 398.504 222.185C398.504 221.939 398.592 221.729 398.768 221.553C398.944 221.378 399.154 221.29 399.399 221.29C399.645 221.29 399.855 221.378 400.031 221.553C400.206 221.729 400.294 221.939 400.294 222.185C400.294 222.347 400.253 222.496 400.17 222.632C400.09 222.768 399.983 222.877 399.847 222.96C399.714 223.04 399.565 223.08 399.399 223.08Z" fill="#3D3D3D"/>
<rect x="422" y="197" width="105" height="42" rx="7" stroke="#6473FF" stroke-width="2"/>
<path d="M450.575 216.129H449.024C448.964 215.798 448.853 215.506 448.691 215.254C448.529 215.002 448.33 214.789 448.094 214.613C447.859 214.437 447.596 214.305 447.304 214.215C447.016 214.126 446.709 214.081 446.384 214.081C445.798 214.081 445.272 214.228 444.808 214.523C444.348 214.818 443.983 215.251 443.714 215.821C443.449 216.391 443.317 217.087 443.317 217.909C443.317 218.738 443.449 219.437 443.714 220.007C443.983 220.577 444.349 221.008 444.813 221.3C445.277 221.591 445.799 221.737 446.379 221.737C446.701 221.737 447.006 221.694 447.294 221.608C447.586 221.518 447.849 221.388 448.085 221.215C448.32 221.043 448.519 220.832 448.681 220.584C448.847 220.332 448.961 220.044 449.024 219.719L450.575 219.724C450.492 220.224 450.332 220.685 450.093 221.106C449.858 221.523 449.554 221.885 449.183 222.19C448.815 222.491 448.394 222.725 447.92 222.891C447.446 223.056 446.929 223.139 446.369 223.139C445.488 223.139 444.702 222.93 444.013 222.513C443.323 222.092 442.78 221.49 442.382 220.708C441.988 219.926 441.79 218.993 441.79 217.909C441.79 216.822 441.989 215.889 442.387 215.11C442.785 214.328 443.328 213.728 444.018 213.31C444.707 212.889 445.491 212.679 446.369 212.679C446.91 212.679 447.413 212.757 447.881 212.913C448.351 213.065 448.774 213.29 449.148 213.589C449.523 213.884 449.833 214.245 450.078 214.673C450.323 215.097 450.489 215.582 450.575 216.129ZM455.511 223.154C454.795 223.154 454.17 222.99 453.637 222.662C453.103 222.334 452.689 221.875 452.394 221.285C452.099 220.695 451.951 220.005 451.951 219.217C451.951 218.424 452.099 217.732 452.394 217.138C452.689 216.545 453.103 216.085 453.637 215.756C454.17 215.428 454.795 215.264 455.511 215.264C456.227 215.264 456.852 215.428 457.385 215.756C457.919 216.085 458.333 216.545 458.628 217.138C458.923 217.732 459.07 218.424 459.07 219.217C459.07 220.005 458.923 220.695 458.628 221.285C458.333 221.875 457.919 222.334 457.385 222.662C456.852 222.99 456.227 223.154 455.511 223.154ZM455.516 221.906C455.98 221.906 456.364 221.784 456.669 221.538C456.974 221.293 457.2 220.967 457.345 220.559C457.494 220.151 457.569 219.702 457.569 219.212C457.569 218.724 457.494 218.277 457.345 217.869C457.2 217.458 456.974 217.129 456.669 216.88C456.364 216.631 455.98 216.507 455.516 216.507C455.048 216.507 454.661 216.631 454.352 216.88C454.048 217.129 453.82 217.458 453.671 217.869C453.526 218.277 453.453 218.724 453.453 219.212C453.453 219.702 453.526 220.151 453.671 220.559C453.82 220.967 454.048 221.293 454.352 221.538C454.661 221.784 455.048 221.906 455.516 221.906ZM460.73 225.864V215.364H462.181V216.602H462.306C462.392 216.442 462.516 216.259 462.679 216.05C462.841 215.841 463.066 215.659 463.355 215.503C463.643 215.344 464.024 215.264 464.498 215.264C465.115 215.264 465.665 215.42 466.149 215.732C466.633 216.043 467.012 216.492 467.287 217.079C467.566 217.665 467.705 218.371 467.705 219.197C467.705 220.022 467.567 220.73 467.292 221.32C467.017 221.906 466.639 222.359 466.159 222.677C465.678 222.992 465.13 223.149 464.513 223.149C464.049 223.149 463.67 223.071 463.375 222.915C463.083 222.76 462.854 222.577 462.689 222.369C462.523 222.16 462.395 221.974 462.306 221.812H462.216V225.864H460.73ZM462.186 219.182C462.186 219.719 462.264 220.189 462.42 220.594C462.576 220.998 462.801 221.315 463.096 221.543C463.391 221.769 463.752 221.881 464.18 221.881C464.624 221.881 464.995 221.764 465.294 221.528C465.592 221.29 465.817 220.967 465.97 220.559C466.126 220.151 466.203 219.692 466.203 219.182C466.203 218.678 466.127 218.226 465.975 217.825C465.826 217.424 465.6 217.107 465.299 216.875C465 216.643 464.627 216.527 464.18 216.527C463.749 216.527 463.385 216.638 463.086 216.86C462.791 217.082 462.568 217.392 462.415 217.79C462.263 218.187 462.186 218.652 462.186 219.182ZM470.05 225.864C469.828 225.864 469.626 225.845 469.444 225.809C469.261 225.776 469.126 225.739 469.036 225.7L469.394 224.482C469.666 224.554 469.908 224.586 470.12 224.576C470.332 224.566 470.519 224.487 470.682 224.337C470.847 224.188 470.993 223.945 471.119 223.607L471.303 223.099L468.509 215.364H470.1L472.034 221.29H472.113L474.047 215.364H475.643L472.496 224.019C472.35 224.417 472.165 224.753 471.939 225.028C471.714 225.307 471.446 225.516 471.134 225.655C470.823 225.794 470.461 225.864 470.05 225.864ZM480.865 223V212.818H482.401V221.678H487.015V223H480.865ZM488.648 223V215.364H490.134V223H488.648ZM489.398 214.185C489.14 214.185 488.918 214.099 488.732 213.927C488.55 213.751 488.459 213.542 488.459 213.3C488.459 213.055 488.55 212.846 488.732 212.674C488.918 212.498 489.14 212.411 489.398 212.411C489.657 212.411 489.877 212.498 490.06 212.674C490.245 212.846 490.338 213.055 490.338 213.3C490.338 213.542 490.245 213.751 490.06 213.927C489.877 214.099 489.657 214.185 489.398 214.185ZM493.621 218.466V223H492.134V215.364H493.561V216.607H493.655C493.831 216.202 494.106 215.877 494.481 215.632C494.858 215.387 495.334 215.264 495.907 215.264C496.428 215.264 496.884 215.374 497.275 215.592C497.666 215.808 497.969 216.129 498.184 216.557C498.4 216.984 498.508 217.513 498.508 218.143V223H497.021V218.322C497.021 217.768 496.877 217.336 496.589 217.024C496.3 216.709 495.904 216.552 495.4 216.552C495.056 216.552 494.749 216.626 494.481 216.776C494.215 216.925 494.005 217.143 493.849 217.432C493.697 217.717 493.621 218.062 493.621 218.466ZM501.868 220.41L501.858 218.595H502.117L505.16 215.364H506.939L503.469 219.043H503.236L501.868 220.41ZM500.501 223V212.818H501.988V223H500.501ZM505.324 223L502.589 219.371L503.613 218.332L507.148 223H505.324Z" fill="#6473FF"/>
<path d="M49.6506 295H48.358L52.0966 284.818H53.3693L57.108 295H55.8153L52.7727 286.429H52.6932L49.6506 295ZM50.1278 291.023H55.3381V292.116H50.1278V291.023ZM61.4183 295.159C60.782 295.159 60.2202 294.998 59.733 294.677C59.2457 294.352 58.8646 293.895 58.5895 293.305C58.3144 292.711 58.1768 292.01 58.1768 291.202C58.1768 290.4 58.3144 289.704 58.5895 289.114C58.8646 288.524 59.2474 288.068 59.7379 287.746C60.2285 287.425 60.7952 287.264 61.4382 287.264C61.9354 287.264 62.3281 287.347 62.6165 287.513C62.9081 287.675 63.1302 287.861 63.2827 288.07C63.4384 288.275 63.5594 288.444 63.6456 288.577H63.745V284.818H64.9183V295H63.7848V293.827H63.6456C63.5594 293.966 63.4368 294.142 63.2777 294.354C63.1186 294.562 62.8916 294.75 62.5966 294.915C62.3016 295.078 61.9089 295.159 61.4183 295.159ZM61.5774 294.105C62.0481 294.105 62.4458 293.982 62.7706 293.737C63.0954 293.489 63.3423 293.146 63.5114 292.708C63.6804 292.267 63.7649 291.759 63.7649 291.182C63.7649 290.612 63.6821 290.113 63.5163 289.685C63.3506 289.254 63.1054 288.92 62.7805 288.681C62.4557 288.439 62.0547 288.318 61.5774 288.318C61.0803 288.318 60.666 288.446 60.3345 288.701C60.0064 288.953 59.7595 289.296 59.5938 289.73C59.4313 290.161 59.3501 290.645 59.3501 291.182C59.3501 291.725 59.433 292.219 59.5987 292.663C59.7678 293.104 60.0163 293.455 60.3445 293.717C60.6759 293.976 61.0869 294.105 61.5774 294.105ZM73.4744 287.364L70.6506 295H69.4574L66.6335 287.364H67.9062L70.0142 293.449H70.0938L72.2017 287.364H73.4744ZM77.0378 295.179C76.5539 295.179 76.1148 295.088 75.7203 294.906C75.3259 294.72 75.0127 294.453 74.7807 294.105C74.5487 293.754 74.4327 293.33 74.4327 292.832C74.4327 292.395 74.5189 292.04 74.6912 291.768C74.8636 291.493 75.0939 291.278 75.3823 291.122C75.6706 290.966 75.9888 290.85 76.3368 290.774C76.6882 290.695 77.0411 290.632 77.3958 290.585C77.8598 290.526 78.236 290.481 78.5243 290.451C78.816 290.418 79.0281 290.363 79.1607 290.287C79.2966 290.211 79.3645 290.078 79.3645 289.889V289.849C79.3645 289.359 79.2303 288.978 78.9618 288.706C78.6967 288.434 78.294 288.298 77.7537 288.298C77.1936 288.298 76.7544 288.421 76.4363 288.666C76.1181 288.911 75.8944 289.173 75.7651 289.452L74.6515 289.054C74.8503 288.59 75.1155 288.229 75.4469 287.97C75.7817 287.708 76.1462 287.526 76.5407 287.423C76.9384 287.317 77.3295 287.264 77.714 287.264C77.9592 287.264 78.2409 287.294 78.5591 287.354C78.8806 287.41 79.1905 287.528 79.4888 287.707C79.7904 287.886 80.0407 288.156 80.2395 288.517C80.4384 288.878 80.5378 289.362 80.5378 289.969V295H79.3645V293.966H79.3049C79.2253 294.132 79.0927 294.309 78.9071 294.498C78.7215 294.687 78.4746 294.848 78.1664 294.98C77.8581 295.113 77.4819 295.179 77.0378 295.179ZM77.2168 294.125C77.6808 294.125 78.0719 294.034 78.3901 293.852C78.7116 293.669 78.9535 293.434 79.1159 293.146C79.2817 292.857 79.3645 292.554 79.3645 292.236V291.162C79.3148 291.222 79.2054 291.276 79.0364 291.326C78.8707 291.372 78.6784 291.414 78.4597 291.45C78.2443 291.483 78.0338 291.513 77.8283 291.54C77.6261 291.563 77.4621 291.583 77.3361 291.599C77.0312 291.639 76.7462 291.704 76.481 291.793C76.2192 291.879 76.007 292.01 75.8446 292.186C75.6855 292.358 75.606 292.594 75.606 292.892C75.606 293.3 75.7568 293.608 76.0584 293.817C76.3633 294.022 76.7495 294.125 77.2168 294.125ZM83.8526 290.406V295H82.6793V287.364H83.8129V288.557H83.9123C84.0913 288.169 84.363 287.857 84.7276 287.622C85.0922 287.384 85.5629 287.264 86.1396 287.264C86.6566 287.264 87.109 287.37 87.4968 287.582C87.8846 287.791 88.1862 288.109 88.4016 288.537C88.6171 288.961 88.7248 289.498 88.7248 290.148V295H87.5515V290.227C87.5515 289.627 87.3957 289.16 87.0842 288.825C86.7726 288.487 86.3451 288.318 85.8015 288.318C85.427 288.318 85.0922 288.399 84.7972 288.562C84.5056 288.724 84.2752 288.961 84.1062 289.273C83.9371 289.584 83.8526 289.962 83.8526 290.406ZM93.9711 295.159C93.2551 295.159 92.6387 294.99 92.1216 294.652C91.6046 294.314 91.2069 293.848 90.9284 293.255C90.65 292.662 90.5108 291.984 90.5108 291.222C90.5108 290.446 90.6533 289.762 90.9384 289.168C91.2267 288.572 91.6278 288.106 92.1415 287.771C92.6586 287.433 93.2618 287.264 93.9512 287.264C94.4881 287.264 94.972 287.364 95.4029 287.562C95.8337 287.761 96.1867 288.04 96.4618 288.398C96.7369 288.756 96.9076 289.173 96.9739 289.651H95.8006C95.7111 289.303 95.5123 288.994 95.204 288.726C94.8991 288.454 94.4881 288.318 93.9711 288.318C93.5137 288.318 93.1126 288.437 92.7679 288.676C92.4266 288.911 92.1597 289.245 91.9675 289.675C91.7786 290.103 91.6841 290.605 91.6841 291.182C91.6841 291.772 91.7769 292.286 91.9625 292.723C92.1515 293.161 92.4166 293.5 92.758 293.742C93.1027 293.984 93.507 294.105 93.9711 294.105C94.276 294.105 94.5527 294.052 94.8013 293.946C95.0499 293.84 95.2604 293.688 95.4327 293.489C95.6051 293.29 95.7277 293.051 95.8006 292.773H96.9739C96.9076 293.223 96.7435 293.629 96.4817 293.991C96.2232 294.349 95.8801 294.634 95.4526 294.846C95.0284 295.055 94.5345 295.159 93.9711 295.159ZM101.891 295.159C101.155 295.159 100.52 294.997 99.9867 294.672C99.4564 294.344 99.0471 293.886 98.7587 293.3C98.4737 292.71 98.3311 292.024 98.3311 291.241C98.3311 290.459 98.4737 289.77 98.7587 289.173C99.0471 288.573 99.4481 288.106 99.9618 287.771C100.479 287.433 101.082 287.264 101.771 287.264C102.169 287.264 102.562 287.33 102.95 287.463C103.338 287.596 103.691 287.811 104.009 288.109C104.327 288.404 104.58 288.795 104.769 289.283C104.958 289.77 105.053 290.37 105.053 291.082V291.58H99.1664V290.565H103.86C103.86 290.134 103.773 289.75 103.601 289.412C103.432 289.074 103.19 288.807 102.875 288.612C102.564 288.416 102.196 288.318 101.771 288.318C101.304 288.318 100.9 288.434 100.558 288.666C100.22 288.895 99.9602 289.193 99.7779 289.561C99.5956 289.929 99.5044 290.323 99.5044 290.744V291.42C99.5044 291.997 99.6039 292.486 99.8027 292.887C100.005 293.285 100.285 293.588 100.643 293.797C101.001 294.002 101.417 294.105 101.891 294.105C102.199 294.105 102.477 294.062 102.726 293.976C102.978 293.886 103.195 293.754 103.377 293.578C103.56 293.399 103.7 293.177 103.8 292.912L104.933 293.23C104.814 293.615 104.614 293.953 104.332 294.244C104.05 294.533 103.702 294.758 103.288 294.92C102.874 295.08 102.408 295.159 101.891 295.159ZM109.721 295.159C109.085 295.159 108.523 294.998 108.036 294.677C107.548 294.352 107.167 293.895 106.892 293.305C106.617 292.711 106.48 292.01 106.48 291.202C106.48 290.4 106.617 289.704 106.892 289.114C107.167 288.524 107.55 288.068 108.041 287.746C108.531 287.425 109.098 287.264 109.741 287.264C110.238 287.264 110.631 287.347 110.919 287.513C111.211 287.675 111.433 287.861 111.585 288.07C111.741 288.275 111.862 288.444 111.948 288.577H112.048V284.818H113.221V295H112.088V293.827H111.948C111.862 293.966 111.74 294.142 111.58 294.354C111.421 294.562 111.194 294.75 110.899 294.915C110.604 295.078 110.212 295.159 109.721 295.159ZM109.88 294.105C110.351 294.105 110.749 293.982 111.073 293.737C111.398 293.489 111.645 293.146 111.814 292.708C111.983 292.267 112.068 291.759 112.068 291.182C112.068 290.612 111.985 290.113 111.819 289.685C111.653 289.254 111.408 288.92 111.083 288.681C110.758 288.439 110.357 288.318 109.88 288.318C109.383 288.318 108.969 288.446 108.637 288.701C108.309 288.953 108.062 289.296 107.896 289.73C107.734 290.161 107.653 290.645 107.653 291.182C107.653 291.725 107.736 292.219 107.901 292.663C108.07 293.104 108.319 293.455 108.647 293.717C108.979 293.976 109.39 294.105 109.88 294.105ZM125.198 287.364C125.138 286.86 124.896 286.469 124.472 286.19C124.048 285.912 123.527 285.773 122.911 285.773C122.46 285.773 122.066 285.846 121.727 285.991C121.393 286.137 121.131 286.338 120.942 286.593C120.756 286.848 120.664 287.138 120.664 287.463C120.664 287.735 120.728 287.969 120.857 288.164C120.99 288.356 121.159 288.517 121.365 288.646C121.57 288.772 121.785 288.877 122.011 288.96C122.236 289.039 122.443 289.104 122.632 289.153L123.666 289.432C123.932 289.501 124.227 289.598 124.551 289.72C124.879 289.843 125.193 290.01 125.491 290.222C125.793 290.431 126.041 290.7 126.237 291.028C126.432 291.356 126.53 291.759 126.53 292.236C126.53 292.786 126.386 293.283 126.097 293.727C125.812 294.171 125.395 294.524 124.845 294.786C124.298 295.048 123.633 295.179 122.851 295.179C122.122 295.179 121.49 295.061 120.957 294.826C120.427 294.591 120.009 294.263 119.704 293.842C119.402 293.421 119.232 292.932 119.192 292.375H120.465C120.498 292.759 120.627 293.078 120.852 293.33C121.081 293.578 121.369 293.764 121.718 293.886C122.069 294.006 122.447 294.065 122.851 294.065C123.322 294.065 123.744 293.989 124.119 293.837C124.493 293.681 124.79 293.465 125.009 293.19C125.227 292.912 125.337 292.587 125.337 292.216C125.337 291.878 125.242 291.603 125.053 291.391C124.865 291.179 124.616 291.006 124.308 290.874C123.999 290.741 123.666 290.625 123.308 290.526L122.056 290.168C121.26 289.939 120.63 289.612 120.166 289.188C119.702 288.764 119.47 288.209 119.47 287.523C119.47 286.953 119.624 286.455 119.933 286.031C120.244 285.604 120.662 285.272 121.186 285.037C121.713 284.798 122.301 284.679 122.95 284.679C123.607 284.679 124.19 284.797 124.7 285.032C125.211 285.264 125.615 285.582 125.914 285.987C126.215 286.391 126.374 286.85 126.391 287.364H125.198ZM131.6 295.159C130.864 295.159 130.229 294.997 129.696 294.672C129.165 294.344 128.756 293.886 128.468 293.3C128.183 292.71 128.04 292.024 128.04 291.241C128.04 290.459 128.183 289.77 128.468 289.173C128.756 288.573 129.157 288.106 129.671 287.771C130.188 287.433 130.791 287.264 131.48 287.264C131.878 287.264 132.271 287.33 132.659 287.463C133.047 287.596 133.4 287.811 133.718 288.109C134.036 288.404 134.289 288.795 134.478 289.283C134.667 289.77 134.762 290.37 134.762 291.082V291.58H128.875V290.565H133.569C133.569 290.134 133.482 289.75 133.31 289.412C133.141 289.074 132.899 288.807 132.584 288.612C132.273 288.416 131.905 288.318 131.48 288.318C131.013 288.318 130.609 288.434 130.267 288.666C129.929 288.895 129.669 289.193 129.487 289.561C129.305 289.929 129.213 290.323 129.213 290.744V291.42C129.213 291.997 129.313 292.486 129.512 292.887C129.714 293.285 129.994 293.588 130.352 293.797C130.71 294.002 131.126 294.105 131.6 294.105C131.908 294.105 132.186 294.062 132.435 293.976C132.687 293.886 132.904 293.754 133.086 293.578C133.269 293.399 133.409 293.177 133.509 292.912L134.642 293.23C134.523 293.615 134.323 293.953 134.041 294.244C133.759 294.533 133.411 294.758 132.997 294.92C132.583 295.08 132.117 295.159 131.6 295.159ZM139.868 287.364V288.358H135.91V287.364H139.868ZM137.064 285.534H138.237V292.812C138.237 293.144 138.285 293.393 138.381 293.558C138.48 293.721 138.606 293.83 138.759 293.886C138.915 293.939 139.079 293.966 139.251 293.966C139.38 293.966 139.486 293.959 139.569 293.946C139.652 293.929 139.718 293.916 139.768 293.906L140.007 294.96C139.927 294.99 139.816 295.02 139.674 295.05C139.531 295.083 139.35 295.099 139.132 295.099C138.8 295.099 138.475 295.028 138.157 294.886C137.842 294.743 137.581 294.526 137.372 294.234C137.166 293.943 137.064 293.575 137.064 293.131V285.534ZM144.953 287.364V288.358H140.996V287.364H144.953ZM142.15 285.534H143.323V292.812C143.323 293.144 143.371 293.393 143.467 293.558C143.566 293.721 143.692 293.83 143.845 293.886C144.001 293.939 144.165 293.966 144.337 293.966C144.466 293.966 144.572 293.959 144.655 293.946C144.738 293.929 144.804 293.916 144.854 293.906L145.093 294.96C145.013 294.99 144.902 295.02 144.76 295.05C144.617 295.083 144.436 295.099 144.218 295.099C143.886 295.099 143.561 295.028 143.243 294.886C142.928 294.743 142.667 294.526 142.458 294.234C142.252 293.943 142.15 293.575 142.15 293.131V285.534ZM146.718 295V287.364H147.892V295H146.718ZM147.315 286.091C147.086 286.091 146.889 286.013 146.723 285.857C146.561 285.701 146.48 285.514 146.48 285.295C146.48 285.077 146.561 284.889 146.723 284.734C146.889 284.578 147.086 284.5 147.315 284.5C147.544 284.5 147.739 284.578 147.902 284.734C148.067 284.889 148.15 285.077 148.15 285.295C148.15 285.514 148.067 285.701 147.902 285.857C147.739 286.013 147.544 286.091 147.315 286.091ZM151.214 290.406V295H150.041V287.364H151.174V288.557H151.274C151.453 288.169 151.724 287.857 152.089 287.622C152.454 287.384 152.924 287.264 153.501 287.264C154.018 287.264 154.47 287.37 154.858 287.582C155.246 287.791 155.548 288.109 155.763 288.537C155.978 288.961 156.086 289.498 156.086 290.148V295H154.913V290.227C154.913 289.627 154.757 289.16 154.445 288.825C154.134 288.487 153.706 288.318 153.163 288.318C152.788 288.318 152.454 288.399 152.159 288.562C151.867 288.724 151.637 288.961 151.468 289.273C151.298 289.584 151.214 289.962 151.214 290.406ZM161.312 298.023C160.746 298.023 160.259 297.95 159.851 297.804C159.443 297.661 159.103 297.473 158.832 297.237C158.563 297.005 158.349 296.757 158.19 296.491L159.125 295.835C159.231 295.974 159.365 296.134 159.528 296.312C159.69 296.495 159.912 296.652 160.194 296.785C160.479 296.921 160.852 296.989 161.312 296.989C161.929 296.989 162.438 296.839 162.839 296.541C163.24 296.243 163.44 295.776 163.44 295.139V293.588H163.341C163.255 293.727 163.132 293.9 162.973 294.105C162.817 294.307 162.592 294.488 162.297 294.647C162.005 294.803 161.611 294.881 161.114 294.881C160.497 294.881 159.944 294.735 159.453 294.443C158.966 294.152 158.58 293.727 158.295 293.17C158.013 292.614 157.872 291.937 157.872 291.142C157.872 290.36 158.01 289.679 158.285 289.099C158.56 288.515 158.943 288.065 159.433 287.746C159.924 287.425 160.491 287.264 161.134 287.264C161.631 287.264 162.025 287.347 162.317 287.513C162.612 287.675 162.837 287.861 162.993 288.07C163.152 288.275 163.275 288.444 163.361 288.577H163.48V287.364H164.614V295.219C164.614 295.875 164.464 296.409 164.166 296.82C163.871 297.234 163.473 297.537 162.973 297.729C162.476 297.925 161.922 298.023 161.312 298.023ZM161.273 293.827C161.743 293.827 162.141 293.719 162.466 293.504C162.791 293.288 163.038 292.978 163.207 292.574C163.376 292.17 163.46 291.686 163.46 291.122C163.46 290.572 163.377 290.086 163.212 289.665C163.046 289.245 162.801 288.915 162.476 288.676C162.151 288.437 161.75 288.318 161.273 288.318C160.776 288.318 160.361 288.444 160.03 288.696C159.702 288.948 159.455 289.286 159.289 289.71C159.127 290.134 159.045 290.605 159.045 291.122C159.045 291.652 159.128 292.121 159.294 292.529C159.463 292.933 159.712 293.252 160.04 293.484C160.371 293.712 160.782 293.827 161.273 293.827ZM172.17 289.074L171.116 289.372C171.05 289.196 170.952 289.026 170.823 288.86C170.697 288.691 170.525 288.552 170.306 288.442C170.087 288.333 169.807 288.278 169.466 288.278C168.999 288.278 168.609 288.386 168.298 288.602C167.989 288.814 167.835 289.084 167.835 289.412C167.835 289.704 167.941 289.934 168.153 290.103C168.366 290.272 168.697 290.413 169.148 290.526L170.281 290.804C170.964 290.97 171.473 291.223 171.808 291.565C172.142 291.903 172.31 292.339 172.31 292.872C172.31 293.31 172.184 293.701 171.932 294.045C171.683 294.39 171.335 294.662 170.888 294.861C170.44 295.06 169.92 295.159 169.327 295.159C168.548 295.159 167.903 294.99 167.393 294.652C166.882 294.314 166.559 293.82 166.423 293.17L167.537 292.892C167.643 293.303 167.844 293.611 168.138 293.817C168.437 294.022 168.826 294.125 169.307 294.125C169.854 294.125 170.288 294.009 170.609 293.777C170.934 293.542 171.097 293.26 171.097 292.932C171.097 292.667 171.004 292.445 170.818 292.266C170.633 292.083 170.348 291.947 169.963 291.858L168.69 291.56C167.991 291.394 167.477 291.137 167.149 290.789C166.824 290.438 166.662 289.999 166.662 289.472C166.662 289.041 166.783 288.66 167.025 288.328C167.27 287.997 167.603 287.737 168.024 287.548C168.448 287.359 168.929 287.264 169.466 287.264C170.222 287.264 170.815 287.43 171.246 287.761C171.68 288.093 171.988 288.53 172.17 289.074Z" fill="#6473FF"/>
<path d="M183 287.5L188 292.5L193 287.5" stroke="#6473FF" stroke-width="1.66667" stroke-linecap="round" stroke-linejoin="round"/>
</g>
<defs>
<filter id="filter0_d_1222_5051" x="-8" y="-4" width="592" height="364" filterUnits="userSpaceOnUse" color-interpolation-filters="sRGB">
<feFlood flood-opacity="0" result="BackgroundImageFix"/>
<feColorMatrix in="SourceAlpha" type="matrix" values="0 0 0 0 0 0 0 0 0 0 0 0 0 0 0 0 0 0 127 0" result="hardAlpha"/>
<feOffset dy="4"/>
<feGaussianBlur stdDeviation="8"/>
<feComposite in2="hardAlpha" operator="out"/>
<feColorMatrix type="matrix" values="0 0 0 0 0 0 0 0 0 0 0 0 0 0 0 0 0 0 0.15 0"/>
<feBlend mode="normal" in2="BackgroundImageFix" result="effect1_dropShadow_1222_5051"/>
<feBlend mode="normal" in="SourceGraphic" in2="effect1_dropShadow_1222_5051" result="shape"/>
</filter>
</defs>
</svg>
