<svg width="584" height="300" viewBox="0 0 584 300" fill="none" xmlns="http://www.w3.org/2000/svg">
<g filter="url(#filter0_d_1585_2213)">
<rect x="16" y="8" width="560" height="272" rx="20" fill="white" shape-rendering="crispEdges"/>
<path d="M64.5781 67.348C64.5099 66.7429 64.2287 66.2741 63.7344 65.9418C63.2401 65.6051 62.6179 65.4368 61.8679 65.4368C61.331 65.4368 60.8665 65.522 60.4744 65.6925C60.0824 65.8587 59.7777 66.0888 59.5604 66.3828C59.3473 66.6726 59.2408 67.0028 59.2408 67.3736C59.2408 67.6847 59.3132 67.9531 59.4581 68.179C59.6072 68.4048 59.8011 68.5945 60.0398 68.7479C60.2827 68.897 60.5426 69.0227 60.8196 69.125C61.0966 69.223 61.3629 69.304 61.6186 69.3679L62.897 69.7003C63.3146 69.8026 63.7429 69.9411 64.1818 70.1158C64.6207 70.2905 65.0277 70.5206 65.4027 70.8061C65.7777 71.0916 66.0803 71.4453 66.3104 71.8672C66.5447 72.2891 66.6619 72.794 66.6619 73.3821C66.6619 74.1236 66.4702 74.782 66.0866 75.3572C65.7074 75.9325 65.1555 76.3864 64.4311 76.7188C63.7109 77.0511 62.8395 77.2173 61.8168 77.2173C60.8366 77.2173 59.9886 77.0618 59.2727 76.7507C58.5568 76.4396 57.9964 75.9986 57.5916 75.4276C57.1868 74.8523 56.9631 74.1705 56.9205 73.3821H58.902C58.9403 73.8551 59.0938 74.2493 59.3622 74.5646C59.6349 74.8757 59.9822 75.108 60.4041 75.2614C60.8303 75.4105 61.2969 75.4851 61.804 75.4851C62.3622 75.4851 62.8587 75.3977 63.2933 75.223C63.7322 75.044 64.0774 74.7969 64.3288 74.4815C64.5803 74.1619 64.706 73.7891 64.706 73.3629C64.706 72.9751 64.5952 72.6577 64.3736 72.4105C64.1563 72.1634 63.8601 71.9588 63.4851 71.7969C63.1143 71.6349 62.6946 71.4922 62.2259 71.3686L60.679 70.9467C59.6307 70.6612 58.7997 70.2415 58.1861 69.6875C57.5767 69.1335 57.272 68.4006 57.272 67.4886C57.272 66.7344 57.4766 66.076 57.8857 65.5135C58.2947 64.951 58.8487 64.5142 59.5476 64.2031C60.2464 63.8878 61.0348 63.7301 61.9126 63.7301C62.799 63.7301 63.581 63.8857 64.2585 64.1967C64.9403 64.5078 65.4773 64.9361 65.8693 65.4815C66.2614 66.0227 66.4659 66.6449 66.483 67.348H64.5781ZM70.78 71.1705V77H68.8688V63.9091H70.7544V68.7798H70.8759C71.106 68.2514 71.4576 67.8317 71.9306 67.5206C72.4036 67.2095 73.0215 67.054 73.7843 67.054C74.4576 67.054 75.0456 67.1925 75.5485 67.4695C76.0556 67.7464 76.4476 68.1598 76.7246 68.7095C77.0059 69.255 77.1465 69.9368 77.1465 70.755V77H75.2353V70.9851C75.2353 70.2649 75.0499 69.7067 74.6792 69.3104C74.3084 68.9098 73.7928 68.7095 73.1323 68.7095C72.6806 68.7095 72.2757 68.8054 71.9178 68.9972C71.5641 69.1889 71.285 69.4702 71.0804 69.8409C70.8801 70.2074 70.78 70.6506 70.78 71.1705ZM82.5542 77.2173C81.932 77.2173 81.3695 77.1023 80.8667 76.8722C80.3638 76.6378 79.9654 76.299 79.6713 75.8558C79.3816 75.4126 79.2367 74.8693 79.2367 74.2259C79.2367 73.6719 79.3432 73.2159 79.5563 72.858C79.7694 72.5 80.057 72.2166 80.4192 72.0078C80.7814 71.799 81.1863 71.6413 81.6337 71.5348C82.0811 71.4283 82.5371 71.3473 83.0016 71.2919C83.5897 71.2237 84.0669 71.1683 84.4334 71.1257C84.7999 71.0788 85.0662 71.0043 85.2324 70.902C85.3986 70.7997 85.4817 70.6335 85.4817 70.4034V70.3587C85.4817 69.8004 85.324 69.3679 85.0087 69.0611C84.6976 68.7543 84.2331 68.6009 83.6152 68.6009C82.9718 68.6009 82.4647 68.7436 82.0939 69.0291C81.7275 69.3104 81.4739 69.6236 81.3333 69.9688L79.5371 69.5597C79.7502 68.9631 80.0613 68.4815 80.4703 68.1151C80.8837 67.7443 81.3588 67.4759 81.8958 67.3097C82.4327 67.1392 82.9973 67.054 83.5897 67.054C83.9817 67.054 84.3972 67.1009 84.8361 67.1946C85.2793 67.2841 85.6926 67.4503 86.0762 67.6932C86.464 67.9361 86.7814 68.2834 87.0286 68.7351C87.2757 69.1825 87.3993 69.7642 87.3993 70.4801V77H85.5328V75.6577H85.4561C85.3326 75.9048 85.1472 76.1477 84.9 76.3864C84.6529 76.625 84.3354 76.8232 83.9476 76.9808C83.5598 77.1385 83.0953 77.2173 82.5542 77.2173ZM82.9696 75.6832C83.498 75.6832 83.9498 75.5788 84.3248 75.37C84.704 75.1612 84.9917 74.8885 85.1877 74.5518C85.388 74.2109 85.4881 73.8466 85.4881 73.4588V72.1932C85.4199 72.2614 85.2878 72.3253 85.0918 72.3849C84.9 72.4403 84.6806 72.4893 84.4334 72.532C84.1863 72.5703 83.9455 72.6065 83.7111 72.6406C83.4767 72.6705 83.2807 72.696 83.123 72.7173C82.7523 72.7642 82.4135 72.843 82.1067 72.9538C81.8042 73.0646 81.5613 73.2244 81.378 73.4332C81.199 73.6378 81.1096 73.9105 81.1096 74.2514C81.1096 74.7244 81.2843 75.0824 81.6337 75.3253C81.9831 75.5639 82.4284 75.6832 82.9696 75.6832ZM89.945 77V67.1818H91.7923V68.7415H91.8945C92.0735 68.2131 92.3888 67.7976 92.8406 67.495C93.2965 67.1882 93.8121 67.0348 94.3874 67.0348C94.5067 67.0348 94.6474 67.0391 94.8093 67.0476C94.9755 67.0561 95.1055 67.0668 95.1992 67.0795V68.9077C95.1225 68.8864 94.9862 68.8629 94.7901 68.8374C94.5941 68.8075 94.3981 68.7926 94.2021 68.7926C93.7504 68.7926 93.3477 68.8885 92.994 69.0803C92.6445 69.2678 92.3675 69.5298 92.163 69.8665C91.9585 70.1989 91.8562 70.5781 91.8562 71.0043V77H89.945ZM100.733 77.1982C99.7658 77.1982 98.9327 76.9915 98.2338 76.5781C97.5392 76.1605 97.0023 75.5746 96.623 74.8203C96.248 74.0618 96.0605 73.1733 96.0605 72.1548C96.0605 71.1491 96.248 70.2628 96.623 69.4957C97.0023 68.7287 97.5307 68.13 98.2083 67.6996C98.8901 67.2692 99.687 67.054 100.599 67.054C101.153 67.054 101.69 67.1456 102.21 67.3288C102.73 67.5121 103.196 67.7997 103.61 68.1918C104.023 68.5838 104.349 69.093 104.588 69.7195C104.826 70.3416 104.945 71.098 104.945 71.9886V72.6662H97.1408V71.2344H103.073C103.073 70.7315 102.97 70.2862 102.766 69.8984C102.561 69.5064 102.274 69.1974 101.903 68.9716C101.536 68.7457 101.106 68.6328 100.612 68.6328C100.075 68.6328 99.606 68.7649 99.2054 69.0291C98.8091 69.2891 98.5023 69.63 98.285 70.0518C98.0719 70.4695 97.9654 70.9233 97.9654 71.4134V72.532C97.9654 73.1882 98.0804 73.7464 98.3105 74.2067C98.5449 74.6669 98.8709 75.0185 99.2885 75.2614C99.7061 75.5 100.194 75.6193 100.752 75.6193C101.115 75.6193 101.445 75.5682 101.743 75.4659C102.041 75.3594 102.299 75.2017 102.517 74.9929C102.734 74.7841 102.9 74.5263 103.015 74.2195L104.824 74.5455C104.679 75.0781 104.419 75.5447 104.044 75.9453C103.673 76.3416 103.207 76.6506 102.644 76.8722C102.086 77.0895 101.449 77.1982 100.733 77.1982Z" fill="#3D3D3D"/>
<path d="M520 64L508 76M508 64L520 76" stroke="#3D3D3D" stroke-width="2" stroke-linecap="round" stroke-linejoin="round"/>
<path d="M139.59 139.303L138.412 140.482C136.785 142.109 134.146 142.109 132.519 140.482C130.892 138.855 130.892 136.216 132.519 134.589L133.698 133.411M144.304 134.589L145.483 133.411C147.11 131.784 147.11 129.145 145.483 127.518C143.856 125.891 141.217 125.891 139.59 127.518L138.412 128.697M136.084 136.917L141.918 131.083" stroke="#8F8F8F" stroke-width="1.66667" stroke-linecap="round" stroke-linejoin="round"/>
<path d="M159.801 131.364C159.741 130.86 159.5 130.469 159.075 130.19C158.651 129.912 158.131 129.773 157.514 129.773C157.063 129.773 156.669 129.846 156.331 129.991C155.996 130.137 155.734 130.338 155.545 130.593C155.36 130.848 155.267 131.138 155.267 131.463C155.267 131.735 155.332 131.969 155.461 132.164C155.594 132.356 155.763 132.517 155.968 132.646C156.174 132.772 156.389 132.877 156.614 132.96C156.84 133.039 157.047 133.104 157.236 133.153L158.27 133.432C158.535 133.501 158.83 133.598 159.155 133.72C159.483 133.843 159.796 134.01 160.094 134.222C160.396 134.431 160.645 134.7 160.84 135.028C161.036 135.356 161.134 135.759 161.134 136.236C161.134 136.786 160.989 137.283 160.701 137.727C160.416 138.171 159.998 138.524 159.448 138.786C158.901 139.048 158.237 139.179 157.455 139.179C156.725 139.179 156.094 139.061 155.56 138.826C155.03 138.591 154.612 138.263 154.308 137.842C154.006 137.421 153.835 136.932 153.795 136.375H155.068C155.101 136.759 155.231 137.078 155.456 137.33C155.685 137.578 155.973 137.764 156.321 137.886C156.672 138.006 157.05 138.065 157.455 138.065C157.925 138.065 158.348 137.989 158.722 137.837C159.097 137.681 159.393 137.465 159.612 137.19C159.831 136.912 159.94 136.587 159.94 136.216C159.94 135.878 159.846 135.603 159.657 135.391C159.468 135.179 159.219 135.006 158.911 134.874C158.603 134.741 158.27 134.625 157.912 134.526L156.659 134.168C155.864 133.939 155.234 133.612 154.77 133.188C154.306 132.764 154.074 132.209 154.074 131.523C154.074 130.953 154.228 130.455 154.536 130.031C154.848 129.604 155.265 129.272 155.789 129.037C156.316 128.798 156.904 128.679 157.554 128.679C158.21 128.679 158.794 128.797 159.304 129.032C159.814 129.264 160.219 129.582 160.517 129.987C160.819 130.391 160.978 130.85 160.994 131.364H159.801ZM164.175 134.406V139H163.002V128.818H164.175V132.557H164.274C164.453 132.162 164.722 131.849 165.08 131.617C165.441 131.382 165.922 131.264 166.521 131.264C167.042 131.264 167.498 131.369 167.889 131.577C168.28 131.783 168.583 132.099 168.798 132.527C169.017 132.951 169.127 133.491 169.127 134.148V139H167.953V134.227C167.953 133.621 167.796 133.152 167.481 132.82C167.169 132.486 166.737 132.318 166.183 132.318C165.799 132.318 165.454 132.399 165.149 132.562C164.848 132.724 164.609 132.961 164.433 133.273C164.261 133.584 164.175 133.962 164.175 134.406ZM173.52 139.179C173.036 139.179 172.597 139.088 172.203 138.906C171.808 138.72 171.495 138.453 171.263 138.105C171.031 137.754 170.915 137.33 170.915 136.832C170.915 136.395 171.001 136.04 171.174 135.768C171.346 135.493 171.576 135.278 171.865 135.122C172.153 134.966 172.471 134.85 172.819 134.774C173.171 134.695 173.524 134.632 173.878 134.585C174.342 134.526 174.718 134.481 175.007 134.451C175.298 134.418 175.511 134.363 175.643 134.287C175.779 134.211 175.847 134.078 175.847 133.889V133.849C175.847 133.359 175.713 132.978 175.444 132.706C175.179 132.434 174.776 132.298 174.236 132.298C173.676 132.298 173.237 132.421 172.919 132.666C172.6 132.911 172.377 133.173 172.248 133.452L171.134 133.054C171.333 132.59 171.598 132.229 171.929 131.97C172.264 131.708 172.629 131.526 173.023 131.423C173.421 131.317 173.812 131.264 174.196 131.264C174.442 131.264 174.723 131.294 175.042 131.354C175.363 131.41 175.673 131.528 175.971 131.707C176.273 131.886 176.523 132.156 176.722 132.517C176.921 132.878 177.02 133.362 177.02 133.969V139H175.847V137.966H175.787C175.708 138.132 175.575 138.309 175.39 138.498C175.204 138.687 174.957 138.848 174.649 138.98C174.341 139.113 173.964 139.179 173.52 139.179ZM173.699 138.125C174.163 138.125 174.554 138.034 174.873 137.852C175.194 137.669 175.436 137.434 175.598 137.146C175.764 136.857 175.847 136.554 175.847 136.236V135.162C175.797 135.222 175.688 135.276 175.519 135.326C175.353 135.372 175.161 135.414 174.942 135.45C174.727 135.483 174.516 135.513 174.311 135.54C174.109 135.563 173.944 135.583 173.819 135.599C173.514 135.639 173.229 135.704 172.963 135.793C172.702 135.879 172.489 136.01 172.327 136.186C172.168 136.358 172.088 136.594 172.088 136.892C172.088 137.3 172.239 137.608 172.541 137.817C172.846 138.022 173.232 138.125 173.699 138.125ZM179.162 139V131.364H180.295V132.517H180.375C180.514 132.139 180.766 131.833 181.131 131.597C181.495 131.362 181.906 131.244 182.363 131.244C182.45 131.244 182.557 131.246 182.687 131.249C182.816 131.253 182.914 131.258 182.98 131.264V132.457C182.94 132.447 182.849 132.433 182.706 132.413C182.567 132.389 182.42 132.378 182.264 132.378C181.893 132.378 181.561 132.456 181.27 132.612C180.981 132.764 180.753 132.976 180.584 133.248C180.418 133.516 180.335 133.823 180.335 134.168V139H179.162ZM187.34 139.159C186.604 139.159 185.97 138.997 185.436 138.672C184.906 138.344 184.496 137.886 184.208 137.3C183.923 136.71 183.78 136.024 183.78 135.241C183.78 134.459 183.923 133.77 184.208 133.173C184.496 132.573 184.897 132.106 185.411 131.771C185.928 131.433 186.531 131.264 187.221 131.264C187.618 131.264 188.011 131.33 188.399 131.463C188.787 131.596 189.14 131.811 189.458 132.109C189.776 132.404 190.03 132.795 190.219 133.283C190.407 133.77 190.502 134.37 190.502 135.082V135.58H184.616V134.565H189.309C189.309 134.134 189.223 133.75 189.05 133.412C188.881 133.074 188.639 132.807 188.324 132.612C188.013 132.416 187.645 132.318 187.221 132.318C186.753 132.318 186.349 132.434 186.008 132.666C185.67 132.895 185.409 133.193 185.227 133.561C185.045 133.929 184.954 134.323 184.954 134.744V135.42C184.954 135.997 185.053 136.486 185.252 136.887C185.454 137.285 185.734 137.588 186.092 137.797C186.45 138.002 186.866 138.105 187.34 138.105C187.648 138.105 187.927 138.062 188.175 137.976C188.427 137.886 188.644 137.754 188.827 137.578C189.009 137.399 189.15 137.177 189.249 136.912L190.383 137.23C190.263 137.615 190.063 137.953 189.781 138.244C189.499 138.533 189.151 138.758 188.737 138.92C188.323 139.08 187.857 139.159 187.34 139.159ZM196.383 139V128.818H197.616V137.906H202.349V139H196.383ZM204.099 139V131.364H205.273V139H204.099ZM204.696 130.091C204.467 130.091 204.27 130.013 204.104 129.857C203.942 129.701 203.861 129.514 203.861 129.295C203.861 129.077 203.942 128.889 204.104 128.734C204.27 128.578 204.467 128.5 204.696 128.5C204.925 128.5 205.12 128.578 205.282 128.734C205.448 128.889 205.531 129.077 205.531 129.295C205.531 129.514 205.448 129.701 205.282 129.857C205.12 130.013 204.925 130.091 204.696 130.091ZM208.595 134.406V139H207.422V131.364H208.555V132.557H208.654C208.833 132.169 209.105 131.857 209.47 131.622C209.834 131.384 210.305 131.264 210.882 131.264C211.399 131.264 211.851 131.37 212.239 131.582C212.627 131.791 212.928 132.109 213.144 132.537C213.359 132.961 213.467 133.498 213.467 134.148V139H212.294V134.227C212.294 133.627 212.138 133.16 211.826 132.825C211.515 132.487 211.087 132.318 210.544 132.318C210.169 132.318 209.834 132.399 209.539 132.562C209.248 132.724 209.017 132.961 208.848 133.273C208.679 133.584 208.595 133.962 208.595 134.406ZM216.705 136.216L216.685 134.764H216.923L220.264 131.364H221.716L218.156 134.963H218.057L216.705 136.216ZM215.611 139V128.818H216.784V139H215.611ZM220.463 139L217.48 135.222L218.316 134.406L221.955 139H220.463Z" fill="#8F8F8F"/>
<mask id="path-6-inside-1_1585_2213" fill="white">
<path d="M296 112H536V156H296V112Z"/>
</mask>
<path d="M536 154H296V158H536V154Z" fill="#075850" mask="url(#path-6-inside-1_1585_2213)"/>
<path d="M373.333 139L378.333 134L373.333 129M366.666 129L361.666 134L366.666 139" stroke="#075850" stroke-width="2" stroke-linecap="round" stroke-linejoin="round"/>
<path d="M384.885 139V128.818H391.746V130.593H387.038V133.019H391.393V134.794H387.038V137.225H391.766V139H384.885ZM393.417 139V131.364H395.436V132.711H395.525C395.684 132.263 395.95 131.911 396.321 131.652C396.692 131.393 397.136 131.264 397.653 131.264C398.177 131.264 398.623 131.395 398.991 131.657C399.358 131.915 399.604 132.267 399.726 132.711H399.806C399.962 132.273 400.243 131.924 400.651 131.662C401.062 131.397 401.548 131.264 402.108 131.264C402.82 131.264 403.399 131.491 403.843 131.945C404.29 132.396 404.514 133.036 404.514 133.864V139H402.401V134.282C402.401 133.858 402.288 133.54 402.063 133.327C401.838 133.115 401.556 133.009 401.218 133.009C400.833 133.009 400.533 133.132 400.318 133.377C400.103 133.619 399.995 133.939 399.995 134.337V139H397.942V134.237C397.942 133.863 397.834 133.564 397.618 133.342C397.406 133.12 397.126 133.009 396.778 133.009C396.543 133.009 396.331 133.069 396.142 133.188C395.956 133.304 395.809 133.468 395.699 133.68C395.59 133.889 395.535 134.134 395.535 134.416V139H393.417ZM406.227 139V128.818H408.345V132.646H408.409C408.502 132.441 408.636 132.232 408.812 132.02C408.991 131.804 409.223 131.625 409.508 131.483C409.796 131.337 410.154 131.264 410.582 131.264C411.139 131.264 411.652 131.41 412.123 131.702C412.594 131.99 412.97 132.426 413.252 133.009C413.533 133.589 413.674 134.317 413.674 135.192C413.674 136.044 413.537 136.763 413.262 137.349C412.99 137.933 412.619 138.375 412.148 138.677C411.681 138.975 411.157 139.124 410.577 139.124C410.166 139.124 409.816 139.056 409.528 138.92C409.243 138.785 409.009 138.614 408.827 138.408C408.645 138.2 408.505 137.989 408.409 137.777H408.315V139H406.227ZM408.3 135.182C408.3 135.636 408.363 136.032 408.489 136.37C408.615 136.708 408.797 136.972 409.036 137.161C409.274 137.346 409.564 137.439 409.906 137.439C410.25 137.439 410.542 137.344 410.781 137.156C411.019 136.963 411.2 136.698 411.323 136.36C411.449 136.019 411.512 135.626 411.512 135.182C411.512 134.741 411.45 134.353 411.328 134.018C411.205 133.684 411.024 133.422 410.786 133.233C410.547 133.044 410.254 132.95 409.906 132.95C409.561 132.95 409.269 133.041 409.031 133.223C408.795 133.405 408.615 133.664 408.489 133.999C408.363 134.333 408.3 134.728 408.3 135.182ZM418.567 139.149C417.782 139.149 417.106 138.99 416.539 138.672C415.976 138.35 415.541 137.896 415.237 137.31C414.932 136.72 414.779 136.022 414.779 135.217C414.779 134.431 414.932 133.742 415.237 133.148C415.541 132.555 415.971 132.093 416.524 131.761C417.081 131.43 417.734 131.264 418.483 131.264C418.987 131.264 419.456 131.345 419.89 131.508C420.327 131.667 420.709 131.907 421.033 132.229C421.362 132.55 421.617 132.955 421.799 133.442C421.981 133.926 422.072 134.492 422.072 135.142V135.724H415.624V134.411H420.079C420.079 134.106 420.013 133.836 419.88 133.601C419.747 133.366 419.563 133.182 419.328 133.049C419.096 132.913 418.826 132.845 418.518 132.845C418.196 132.845 417.911 132.92 417.663 133.069C417.417 133.215 417.225 133.412 417.086 133.661C416.947 133.906 416.875 134.179 416.872 134.481V135.729C416.872 136.107 416.942 136.433 417.081 136.708C417.223 136.983 417.424 137.195 417.683 137.344C417.941 137.494 418.248 137.568 418.602 137.568C418.838 137.568 419.053 137.535 419.249 137.469C419.444 137.402 419.612 137.303 419.751 137.17C419.89 137.038 419.996 136.875 420.069 136.683L422.028 136.812C421.928 137.283 421.724 137.694 421.416 138.045C421.111 138.393 420.717 138.665 420.233 138.861C419.752 139.053 419.197 139.149 418.567 139.149ZM426.268 139.124C425.688 139.124 425.163 138.975 424.692 138.677C424.225 138.375 423.854 137.933 423.579 137.349C423.307 136.763 423.171 136.044 423.171 135.192C423.171 134.317 423.312 133.589 423.594 133.009C423.875 132.426 424.25 131.99 424.717 131.702C425.188 131.41 425.703 131.264 426.263 131.264C426.691 131.264 427.047 131.337 427.332 131.483C427.621 131.625 427.853 131.804 428.028 132.02C428.207 132.232 428.343 132.441 428.436 132.646H428.501V128.818H430.614V139H428.526V137.777H428.436C428.337 137.989 428.196 138.2 428.013 138.408C427.835 138.614 427.601 138.785 427.312 138.92C427.027 139.056 426.679 139.124 426.268 139.124ZM426.94 137.439C427.281 137.439 427.569 137.346 427.805 137.161C428.043 136.972 428.226 136.708 428.352 136.37C428.481 136.032 428.545 135.636 428.545 135.182C428.545 134.728 428.482 134.333 428.357 133.999C428.231 133.664 428.048 133.405 427.81 133.223C427.571 133.041 427.281 132.95 426.94 132.95C426.592 132.95 426.298 133.044 426.06 133.233C425.821 133.422 425.64 133.684 425.518 134.018C425.395 134.353 425.334 134.741 425.334 135.182C425.334 135.626 425.395 136.019 425.518 136.36C425.644 136.698 425.824 136.963 426.06 137.156C426.298 137.344 426.592 137.439 426.94 137.439ZM444.619 132.383H442.441C442.401 132.101 442.32 131.851 442.197 131.632C442.075 131.41 441.917 131.221 441.725 131.065C441.533 130.91 441.311 130.79 441.059 130.707C440.81 130.625 440.54 130.583 440.249 130.583C439.722 130.583 439.263 130.714 438.871 130.976C438.48 131.234 438.177 131.612 437.962 132.109C437.746 132.603 437.638 133.203 437.638 133.909C437.638 134.635 437.746 135.245 437.962 135.739C438.18 136.232 438.485 136.605 438.876 136.857C439.268 137.109 439.72 137.235 440.234 137.235C440.522 137.235 440.789 137.197 441.034 137.121C441.283 137.045 441.503 136.933 441.695 136.788C441.888 136.638 442.047 136.458 442.173 136.246C442.302 136.034 442.391 135.792 442.441 135.52L444.619 135.53C444.562 135.997 444.421 136.448 444.196 136.882C443.974 137.313 443.674 137.699 443.296 138.04C442.922 138.379 442.474 138.647 441.954 138.846C441.437 139.041 440.852 139.139 440.199 139.139C439.291 139.139 438.479 138.934 437.763 138.523C437.05 138.112 436.487 137.517 436.072 136.738C435.661 135.959 435.456 135.016 435.456 133.909C435.456 132.799 435.665 131.854 436.082 131.075C436.5 130.296 437.067 129.703 437.783 129.295C438.499 128.884 439.304 128.679 440.199 128.679C440.789 128.679 441.336 128.762 441.839 128.928C442.347 129.093 442.796 129.335 443.187 129.653C443.578 129.968 443.896 130.354 444.141 130.812C444.39 131.269 444.549 131.793 444.619 132.383ZM449.573 139.149C448.801 139.149 448.133 138.985 447.569 138.657C447.009 138.326 446.577 137.865 446.272 137.275C445.967 136.682 445.814 135.994 445.814 135.212C445.814 134.423 445.967 133.733 446.272 133.143C446.577 132.55 447.009 132.089 447.569 131.761C448.133 131.43 448.801 131.264 449.573 131.264C450.345 131.264 451.011 131.43 451.571 131.761C452.135 132.089 452.569 132.55 452.874 133.143C453.179 133.733 453.331 134.423 453.331 135.212C453.331 135.994 453.179 136.682 452.874 137.275C452.569 137.865 452.135 138.326 451.571 138.657C451.011 138.985 450.345 139.149 449.573 139.149ZM449.583 137.509C449.934 137.509 450.227 137.409 450.463 137.21C450.698 137.008 450.875 136.733 450.995 136.385C451.117 136.037 451.179 135.641 451.179 135.197C451.179 134.753 451.117 134.357 450.995 134.009C450.875 133.661 450.698 133.385 450.463 133.183C450.227 132.981 449.934 132.88 449.583 132.88C449.228 132.88 448.93 132.981 448.688 133.183C448.449 133.385 448.269 133.661 448.146 134.009C448.027 134.357 447.967 134.753 447.967 135.197C447.967 135.641 448.027 136.037 448.146 136.385C448.269 136.733 448.449 137.008 448.688 137.21C448.93 137.409 449.228 137.509 449.583 137.509ZM457.522 139.124C456.942 139.124 456.417 138.975 455.946 138.677C455.479 138.375 455.108 137.933 454.833 137.349C454.561 136.763 454.425 136.044 454.425 135.192C454.425 134.317 454.566 133.589 454.848 133.009C455.129 132.426 455.504 131.99 455.971 131.702C456.442 131.41 456.957 131.264 457.517 131.264C457.945 131.264 458.301 131.337 458.586 131.483C458.875 131.625 459.107 131.804 459.282 132.02C459.461 132.232 459.597 132.441 459.69 132.646H459.755V128.818H461.868V139H459.779V137.777H459.69C459.591 137.989 459.45 138.2 459.267 138.408C459.088 138.614 458.855 138.785 458.566 138.92C458.281 139.056 457.933 139.124 457.522 139.124ZM458.194 137.439C458.535 137.439 458.823 137.346 459.059 137.161C459.297 136.972 459.48 136.708 459.605 136.37C459.735 136.032 459.799 135.636 459.799 135.182C459.799 134.728 459.736 134.333 459.61 133.999C459.484 133.664 459.302 133.405 459.064 133.223C458.825 133.041 458.535 132.95 458.194 132.95C457.846 132.95 457.552 133.044 457.314 133.233C457.075 133.422 456.894 133.684 456.772 134.018C456.649 134.353 456.588 134.741 456.588 135.182C456.588 135.626 456.649 136.019 456.772 136.36C456.898 136.698 457.078 136.963 457.314 137.156C457.552 137.344 457.846 137.439 458.194 137.439ZM467.089 139.149C466.303 139.149 465.627 138.99 465.061 138.672C464.497 138.35 464.063 137.896 463.758 137.31C463.453 136.72 463.301 136.022 463.301 135.217C463.301 134.431 463.453 133.742 463.758 133.148C464.063 132.555 464.492 132.093 465.046 131.761C465.602 131.43 466.255 131.264 467.004 131.264C467.508 131.264 467.977 131.345 468.411 131.508C468.849 131.667 469.23 131.907 469.555 132.229C469.883 132.55 470.138 132.955 470.32 133.442C470.503 133.926 470.594 134.492 470.594 135.142V135.724H464.146V134.411H468.6C468.6 134.106 468.534 133.836 468.401 133.601C468.269 133.366 468.085 133.182 467.85 133.049C467.618 132.913 467.347 132.845 467.039 132.845C466.718 132.845 466.433 132.92 466.184 133.069C465.939 133.215 465.747 133.412 465.607 133.661C465.468 133.906 465.397 134.179 465.394 134.481V135.729C465.394 136.107 465.463 136.433 465.602 136.708C465.745 136.983 465.945 137.195 466.204 137.344C466.463 137.494 466.769 137.568 467.124 137.568C467.359 137.568 467.575 137.535 467.77 137.469C467.966 137.402 468.133 137.303 468.272 137.17C468.411 137.038 468.517 136.875 468.59 136.683L470.549 136.812C470.45 137.283 470.246 137.694 469.938 138.045C469.633 138.393 469.238 138.665 468.754 138.861C468.274 139.053 467.719 139.149 467.089 139.149Z" fill="#075850"/>
<rect x="56.5" y="196.5" width="356" height="43" rx="3.5" fill="white"/>
<rect x="56.5" y="196.5" width="356" height="43" rx="3.5" stroke="#E0E0E0"/>
<path d="M69.4119 219.42V218.625L75.8153 215.364V216.636L70.9034 219.003L70.9432 218.923V219.122L70.9034 219.043L75.8153 221.409V222.682L69.4119 219.42ZM78.3024 223V215.364H79.4757V223H78.3024ZM78.899 214.091C78.6703 214.091 78.4731 214.013 78.3074 213.857C78.1449 213.701 78.0637 213.514 78.0637 213.295C78.0637 213.077 78.1449 212.889 78.3074 212.734C78.4731 212.578 78.6703 212.5 78.899 212.5C79.1277 212.5 79.3232 212.578 79.4856 212.734C79.6513 212.889 79.7342 213.077 79.7342 213.295C79.7342 213.514 79.6513 213.701 79.4856 213.857C79.3232 214.013 79.1277 214.091 78.899 214.091ZM85.0252 215.364V216.358H80.9087V215.364H85.0252ZM82.1417 223V214.31C82.1417 213.872 82.2444 213.508 82.4499 213.216C82.6554 212.924 82.9222 212.705 83.2504 212.56C83.5785 212.414 83.9248 212.341 84.2894 212.341C84.5778 212.341 84.8131 212.364 84.9954 212.411C85.1777 212.457 85.3136 212.5 85.4031 212.54L85.065 213.554C85.0053 213.534 84.9225 213.509 84.8164 213.479C84.7137 213.45 84.5778 213.435 84.4087 213.435C84.021 213.435 83.7409 213.532 83.5685 213.728C83.3995 213.924 83.315 214.21 83.315 214.588V223H82.1417ZM86.6696 223V215.364H87.8031V216.517H87.8826C88.0218 216.139 88.2737 215.833 88.6383 215.597C89.0029 215.362 89.4139 215.244 89.8713 215.244C89.9574 215.244 90.0652 215.246 90.1944 215.249C90.3237 215.253 90.4215 215.258 90.4877 215.264V216.457C90.448 216.447 90.3568 216.433 90.2143 216.413C90.0751 216.389 89.9276 216.378 89.7718 216.378C89.4006 216.378 89.0692 216.456 88.7775 216.612C88.4892 216.764 88.2605 216.976 88.0914 217.248C87.9257 217.516 87.8429 217.823 87.8429 218.168V223H86.6696ZM94.1257 223.179C93.6418 223.179 93.2027 223.088 92.8082 222.906C92.4138 222.72 92.1006 222.453 91.8686 222.105C91.6366 221.754 91.5206 221.33 91.5206 220.832C91.5206 220.395 91.6068 220.04 91.7791 219.768C91.9515 219.493 92.1818 219.278 92.4702 219.122C92.7585 218.966 93.0767 218.85 93.4247 218.774C93.776 218.695 94.129 218.632 94.4837 218.585C94.9477 218.526 95.3239 218.481 95.6122 218.451C95.9039 218.418 96.116 218.363 96.2486 218.287C96.3845 218.211 96.4524 218.078 96.4524 217.889V217.849C96.4524 217.359 96.3182 216.978 96.0497 216.706C95.7846 216.434 95.3819 216.298 94.8416 216.298C94.2815 216.298 93.8423 216.421 93.5241 216.666C93.206 216.911 92.9822 217.173 92.853 217.452L91.7393 217.054C91.9382 216.59 92.2034 216.229 92.5348 215.97C92.8696 215.708 93.2341 215.526 93.6286 215.423C94.0263 215.317 94.4174 215.264 94.8018 215.264C95.0471 215.264 95.3288 215.294 95.647 215.354C95.9685 215.41 96.2784 215.528 96.5767 215.707C96.8783 215.886 97.1286 216.156 97.3274 216.517C97.5263 216.878 97.6257 217.362 97.6257 217.969V223H96.4524V221.966H96.3928C96.3132 222.132 96.1806 222.309 95.995 222.498C95.8094 222.687 95.5625 222.848 95.2543 222.98C94.946 223.113 94.5698 223.179 94.1257 223.179ZM94.3047 222.125C94.7687 222.125 95.1598 222.034 95.478 221.852C95.7995 221.669 96.0414 221.434 96.2038 221.146C96.3696 220.857 96.4524 220.554 96.4524 220.236V219.162C96.4027 219.222 96.2933 219.276 96.1243 219.326C95.9586 219.372 95.7663 219.414 95.5476 219.45C95.3321 219.483 95.1217 219.513 94.9162 219.54C94.714 219.563 94.55 219.583 94.424 219.599C94.1191 219.639 93.834 219.704 93.5689 219.793C93.3071 219.879 93.0949 220.01 92.9325 220.186C92.7734 220.358 92.6939 220.594 92.6939 220.892C92.6939 221.3 92.8447 221.608 93.1463 221.817C93.4512 222.022 93.8374 222.125 94.3047 222.125ZM99.7672 223V215.364H100.901V216.557H101C101.159 216.149 101.416 215.833 101.771 215.607C102.125 215.379 102.551 215.264 103.048 215.264C103.552 215.264 103.972 215.379 104.306 215.607C104.644 215.833 104.908 216.149 105.097 216.557H105.176C105.372 216.162 105.665 215.849 106.056 215.617C106.447 215.382 106.916 215.264 107.463 215.264C108.146 215.264 108.704 215.478 109.139 215.906C109.573 216.33 109.79 216.991 109.79 217.889V223H108.617V217.889C108.617 217.326 108.463 216.923 108.154 216.681C107.846 216.439 107.483 216.318 107.066 216.318C106.529 216.318 106.113 216.481 105.818 216.805C105.523 217.127 105.375 217.535 105.375 218.028V223H104.182V217.77C104.182 217.336 104.041 216.986 103.759 216.721C103.478 216.452 103.115 216.318 102.671 216.318C102.366 216.318 102.081 216.399 101.816 216.562C101.554 216.724 101.342 216.95 101.179 217.238C101.02 217.523 100.941 217.853 100.941 218.227V223H99.7672ZM115.137 223.159C114.401 223.159 113.766 222.997 113.233 222.672C112.702 222.344 112.293 221.886 112.005 221.3C111.72 220.71 111.577 220.024 111.577 219.241C111.577 218.459 111.72 217.77 112.005 217.173C112.293 216.573 112.694 216.106 113.208 215.771C113.725 215.433 114.328 215.264 115.018 215.264C115.415 215.264 115.808 215.33 116.196 215.463C116.584 215.596 116.937 215.811 117.255 216.109C117.573 216.404 117.827 216.795 118.015 217.283C118.204 217.77 118.299 218.37 118.299 219.082V219.58H112.412V218.565H117.106C117.106 218.134 117.019 217.75 116.847 217.412C116.678 217.074 116.436 216.807 116.121 216.612C115.81 216.416 115.442 216.318 115.018 216.318C114.55 216.318 114.146 216.434 113.805 216.666C113.466 216.895 113.206 217.193 113.024 217.561C112.842 217.929 112.751 218.323 112.751 218.744V219.42C112.751 219.997 112.85 220.486 113.049 220.887C113.251 221.285 113.531 221.588 113.889 221.797C114.247 222.002 114.663 222.105 115.137 222.105C115.445 222.105 115.724 222.062 115.972 221.976C116.224 221.886 116.441 221.754 116.623 221.578C116.806 221.399 116.947 221.177 117.046 220.912L118.18 221.23C118.06 221.615 117.86 221.953 117.578 222.244C117.296 222.533 116.948 222.758 116.534 222.92C116.12 223.08 115.654 223.159 115.137 223.159ZM126.825 219.42L120.422 222.682V221.409L125.334 219.043L125.294 219.122V218.923L125.334 219.003L120.422 216.636V215.364L126.825 218.625V219.42ZM129.65 219.42V218.625L136.054 215.364V216.636L131.142 219.003L131.181 218.923V219.122L131.142 219.043L136.054 221.409V222.682L129.65 219.42ZM138.541 223V215.364H139.714V223H138.541ZM139.137 214.091C138.909 214.091 138.711 214.013 138.546 213.857C138.383 213.701 138.302 213.514 138.302 213.295C138.302 213.077 138.383 212.889 138.546 212.734C138.711 212.578 138.909 212.5 139.137 212.5C139.366 212.5 139.561 212.578 139.724 212.734C139.89 212.889 139.972 213.077 139.972 213.295C139.972 213.514 139.89 213.701 139.724 213.857C139.561 214.013 139.366 214.091 139.137 214.091ZM141.863 223V215.364H142.996V216.557H143.096C143.255 216.149 143.512 215.833 143.866 215.607C144.221 215.379 144.647 215.264 145.144 215.264C145.648 215.264 146.067 215.379 146.402 215.607C146.74 215.833 147.004 216.149 147.192 216.557H147.272C147.468 216.162 147.761 215.849 148.152 215.617C148.543 215.382 149.012 215.264 149.559 215.264C150.242 215.264 150.8 215.478 151.234 215.906C151.669 216.33 151.886 216.991 151.886 217.889V223H150.712V217.889C150.712 217.326 150.558 216.923 150.25 216.681C149.942 216.439 149.579 216.318 149.161 216.318C148.624 216.318 148.208 216.481 147.913 216.805C147.618 217.127 147.471 217.535 147.471 218.028V223H146.278V217.77C146.278 217.336 146.137 216.986 145.855 216.721C145.573 216.452 145.21 216.318 144.766 216.318C144.461 216.318 144.176 216.399 143.911 216.562C143.649 216.724 143.437 216.95 143.275 217.238C143.116 217.523 143.036 217.853 143.036 218.227V223H141.863ZM157.113 226.023C156.547 226.023 156.059 225.95 155.652 225.804C155.244 225.661 154.904 225.473 154.632 225.237C154.364 225.005 154.15 224.757 153.991 224.491L154.926 223.835C155.032 223.974 155.166 224.134 155.328 224.312C155.491 224.495 155.713 224.652 155.995 224.785C156.28 224.921 156.653 224.989 157.113 224.989C157.73 224.989 158.239 224.839 158.64 224.541C159.041 224.243 159.241 223.776 159.241 223.139V221.588H159.142C159.056 221.727 158.933 221.9 158.774 222.105C158.618 222.307 158.393 222.488 158.098 222.647C157.806 222.803 157.412 222.881 156.914 222.881C156.298 222.881 155.744 222.735 155.254 222.443C154.767 222.152 154.381 221.727 154.096 221.17C153.814 220.614 153.673 219.937 153.673 219.142C153.673 218.36 153.81 217.679 154.086 217.099C154.361 216.515 154.743 216.065 155.234 215.746C155.725 215.425 156.291 215.264 156.934 215.264C157.431 215.264 157.826 215.347 158.118 215.513C158.413 215.675 158.638 215.861 158.794 216.07C158.953 216.275 159.075 216.444 159.162 216.577H159.281V215.364H160.414V223.219C160.414 223.875 160.265 224.409 159.967 224.82C159.672 225.234 159.274 225.537 158.774 225.729C158.277 225.925 157.723 226.023 157.113 226.023ZM157.074 221.827C157.544 221.827 157.942 221.719 158.267 221.504C158.592 221.288 158.838 220.978 159.007 220.574C159.176 220.17 159.261 219.686 159.261 219.122C159.261 218.572 159.178 218.086 159.012 217.665C158.847 217.245 158.601 216.915 158.277 216.676C157.952 216.437 157.551 216.318 157.074 216.318C156.576 216.318 156.162 216.444 155.831 216.696C155.502 216.948 155.256 217.286 155.09 217.71C154.927 218.134 154.846 218.605 154.846 219.122C154.846 219.652 154.929 220.121 155.095 220.529C155.264 220.933 155.512 221.252 155.841 221.484C156.172 221.712 156.583 221.827 157.074 221.827ZM171.909 217.074L170.855 217.372C170.788 217.196 170.691 217.026 170.561 216.86C170.435 216.691 170.263 216.552 170.044 216.442C169.826 216.333 169.546 216.278 169.204 216.278C168.737 216.278 168.347 216.386 168.036 216.602C167.728 216.814 167.574 217.084 167.574 217.412C167.574 217.704 167.68 217.934 167.892 218.103C168.104 218.272 168.435 218.413 168.886 218.526L170.02 218.804C170.702 218.97 171.211 219.223 171.546 219.565C171.881 219.903 172.048 220.339 172.048 220.872C172.048 221.31 171.922 221.701 171.67 222.045C171.422 222.39 171.074 222.662 170.626 222.861C170.179 223.06 169.658 223.159 169.065 223.159C168.286 223.159 167.641 222.99 167.131 222.652C166.621 222.314 166.297 221.82 166.162 221.17L167.275 220.892C167.381 221.303 167.582 221.611 167.877 221.817C168.175 222.022 168.565 222.125 169.045 222.125C169.592 222.125 170.026 222.009 170.348 221.777C170.672 221.542 170.835 221.26 170.835 220.932C170.835 220.667 170.742 220.445 170.556 220.266C170.371 220.083 170.086 219.947 169.701 219.858L168.429 219.56C167.729 219.394 167.216 219.137 166.887 218.789C166.563 218.438 166.4 217.999 166.4 217.472C166.4 217.041 166.521 216.66 166.763 216.328C167.008 215.997 167.342 215.737 167.762 215.548C168.187 215.359 168.667 215.264 169.204 215.264C169.96 215.264 170.553 215.43 170.984 215.761C171.418 216.093 171.726 216.53 171.909 217.074ZM173.814 223V215.364H174.948V216.517H175.027C175.166 216.139 175.418 215.833 175.783 215.597C176.147 215.362 176.558 215.244 177.016 215.244C177.102 215.244 177.21 215.246 177.339 215.249C177.468 215.253 177.566 215.258 177.632 215.264V216.457C177.593 216.447 177.501 216.433 177.359 216.413C177.22 216.389 177.072 216.378 176.916 216.378C176.545 216.378 176.214 216.456 175.922 216.612C175.634 216.764 175.405 216.976 175.236 217.248C175.07 217.516 174.987 217.823 174.987 218.168V223H173.814ZM181.893 223.159C181.177 223.159 180.561 222.99 180.044 222.652C179.526 222.314 179.129 221.848 178.85 221.255C178.572 220.662 178.433 219.984 178.433 219.222C178.433 218.446 178.575 217.762 178.86 217.168C179.149 216.572 179.55 216.106 180.063 215.771C180.58 215.433 181.184 215.264 181.873 215.264C182.41 215.264 182.894 215.364 183.325 215.562C183.756 215.761 184.109 216.04 184.384 216.398C184.659 216.756 184.829 217.173 184.896 217.651H183.722C183.633 217.303 183.434 216.994 183.126 216.726C182.821 216.454 182.41 216.318 181.893 216.318C181.436 216.318 181.035 216.437 180.69 216.676C180.348 216.911 180.082 217.245 179.889 217.675C179.7 218.103 179.606 218.605 179.606 219.182C179.606 219.772 179.699 220.286 179.884 220.723C180.073 221.161 180.338 221.5 180.68 221.742C181.025 221.984 181.429 222.105 181.893 222.105C182.198 222.105 182.475 222.052 182.723 221.946C182.972 221.84 183.182 221.688 183.355 221.489C183.527 221.29 183.65 221.051 183.722 220.773H184.896C184.829 221.223 184.665 221.629 184.404 221.991C184.145 222.349 183.802 222.634 183.374 222.846C182.95 223.055 182.456 223.159 181.893 223.159ZM187.088 218.088V217.014H193.213V218.088H187.088ZM187.088 221.031V219.957H193.213V221.031H187.088ZM196.874 212.818V213.713C196.874 213.985 196.824 214.275 196.724 214.583C196.628 214.888 196.486 215.185 196.297 215.473C196.111 215.758 195.886 216.007 195.621 216.219L194.984 215.702C195.193 215.403 195.374 215.094 195.526 214.772C195.682 214.447 195.76 214.101 195.76 213.733V212.818H196.874ZM199.419 212.818V213.713C199.419 213.985 199.369 214.275 199.27 214.583C199.174 214.888 199.031 215.185 198.842 215.473C198.657 215.758 198.431 216.007 198.166 216.219L197.53 215.702C197.739 215.403 197.919 215.094 198.072 214.772C198.228 214.447 198.305 214.101 198.305 213.733V212.818H199.419ZM202.345 218.406V223H201.172V212.818H202.345V216.557H202.444C202.623 216.162 202.892 215.849 203.25 215.617C203.611 215.382 204.092 215.264 204.691 215.264C205.212 215.264 205.667 215.369 206.059 215.577C206.45 215.783 206.753 216.099 206.968 216.527C207.187 216.951 207.297 217.491 207.297 218.148V223H206.123V218.227C206.123 217.621 205.966 217.152 205.651 216.82C205.339 216.486 204.907 216.318 204.353 216.318C203.969 216.318 203.624 216.399 203.319 216.562C203.018 216.724 202.779 216.961 202.603 217.273C202.431 217.584 202.345 217.962 202.345 218.406ZM212.764 215.364V216.358H208.807V215.364H212.764ZM209.96 213.534H211.133V220.812C211.133 221.144 211.181 221.393 211.278 221.558C211.377 221.721 211.503 221.83 211.655 221.886C211.811 221.939 211.975 221.966 212.148 221.966C212.277 221.966 212.383 221.959 212.466 221.946C212.549 221.929 212.615 221.916 212.665 221.906L212.903 222.96C212.824 222.99 212.713 223.02 212.57 223.05C212.428 223.083 212.247 223.099 212.028 223.099C211.697 223.099 211.372 223.028 211.054 222.886C210.739 222.743 210.477 222.526 210.268 222.234C210.063 221.943 209.96 221.575 209.96 221.131V213.534ZM217.85 215.364V216.358H213.893V215.364H217.85ZM215.046 213.534H216.219V220.812C216.219 221.144 216.267 221.393 216.363 221.558C216.463 221.721 216.589 221.83 216.741 221.886C216.897 221.939 217.061 221.966 217.233 221.966C217.363 221.966 217.469 221.959 217.552 221.946C217.635 221.929 217.701 221.916 217.751 221.906L217.989 222.96C217.91 222.99 217.799 223.02 217.656 223.05C217.514 223.083 217.333 223.099 217.114 223.099C216.783 223.099 216.458 223.028 216.14 222.886C215.825 222.743 215.563 222.526 215.354 222.234C215.149 221.943 215.046 221.575 215.046 221.131V213.534ZM219.615 225.864V215.364H220.748V216.577H220.888C220.974 216.444 221.093 216.275 221.246 216.07C221.401 215.861 221.623 215.675 221.912 215.513C222.203 215.347 222.598 215.264 223.095 215.264C223.738 215.264 224.305 215.425 224.795 215.746C225.286 216.068 225.669 216.524 225.944 217.114C226.219 217.704 226.356 218.4 226.356 219.202C226.356 220.01 226.219 220.711 225.944 221.305C225.669 221.895 225.287 222.352 224.8 222.677C224.313 222.998 223.751 223.159 223.115 223.159C222.624 223.159 222.232 223.078 221.937 222.915C221.642 222.75 221.415 222.562 221.256 222.354C221.096 222.142 220.974 221.966 220.888 221.827H220.788V225.864H219.615ZM220.768 219.182C220.768 219.759 220.853 220.267 221.022 220.708C221.191 221.146 221.438 221.489 221.763 221.737C222.087 221.982 222.485 222.105 222.956 222.105C223.446 222.105 223.856 221.976 224.184 221.717C224.515 221.455 224.764 221.104 224.93 220.663C225.099 220.219 225.183 219.725 225.183 219.182C225.183 218.645 225.1 218.161 224.934 217.73C224.772 217.296 224.525 216.953 224.194 216.701C223.866 216.446 223.453 216.318 222.956 216.318C222.479 216.318 222.077 216.439 221.753 216.681C221.428 216.92 221.183 217.254 221.017 217.685C220.851 218.113 220.768 218.612 220.768 219.182ZM233.555 217.074L232.501 217.372C232.435 217.196 232.337 217.026 232.208 216.86C232.082 216.691 231.91 216.552 231.691 216.442C231.472 216.333 231.192 216.278 230.851 216.278C230.383 216.278 229.994 216.386 229.682 216.602C229.374 216.814 229.22 217.084 229.22 217.412C229.22 217.704 229.326 217.934 229.538 218.103C229.75 218.272 230.082 218.413 230.532 218.526L231.666 218.804C232.349 218.97 232.858 219.223 233.192 219.565C233.527 219.903 233.694 220.339 233.694 220.872C233.694 221.31 233.568 221.701 233.317 222.045C233.068 222.39 232.72 222.662 232.273 222.861C231.825 223.06 231.305 223.159 230.711 223.159C229.933 223.159 229.288 222.99 228.778 222.652C228.267 222.314 227.944 221.82 227.808 221.17L228.922 220.892C229.028 221.303 229.228 221.611 229.523 221.817C229.822 222.022 230.211 222.125 230.692 222.125C231.238 222.125 231.673 222.009 231.994 221.777C232.319 221.542 232.481 221.26 232.481 220.932C232.481 220.667 232.389 220.445 232.203 220.266C232.017 220.083 231.732 219.947 231.348 219.858L230.075 219.56C229.376 219.394 228.862 219.137 228.534 218.789C228.209 218.438 228.047 217.999 228.047 217.472C228.047 217.041 228.168 216.66 228.41 216.328C228.655 215.997 228.988 215.737 229.409 215.548C229.833 215.359 230.314 215.264 230.851 215.264C231.606 215.264 232.2 215.43 232.631 215.761C233.065 216.093 233.373 216.53 233.555 217.074ZM236.316 223.08C236.07 223.08 235.86 222.992 235.684 222.816C235.509 222.64 235.421 222.43 235.421 222.185C235.421 221.939 235.509 221.729 235.684 221.553C235.86 221.378 236.07 221.29 236.316 221.29C236.561 221.29 236.771 221.378 236.947 221.553C237.123 221.729 237.211 221.939 237.211 222.185C237.211 222.347 237.169 222.496 237.086 222.632C237.007 222.768 236.899 222.877 236.763 222.96C236.631 223.04 236.481 223.08 236.316 223.08ZM236.316 217.412C236.07 217.412 235.86 217.324 235.684 217.148C235.509 216.973 235.421 216.762 235.421 216.517C235.421 216.272 235.509 216.061 235.684 215.886C235.86 215.71 236.07 215.622 236.316 215.622C236.561 215.622 236.771 215.71 236.947 215.886C237.123 216.061 237.211 216.272 237.211 216.517C237.211 216.679 237.169 216.829 237.086 216.964C237.007 217.1 236.899 217.21 236.763 217.293C236.631 217.372 236.481 217.412 236.316 217.412ZM242.915 212.341L239.634 224.531H238.56L241.842 212.341H242.915ZM247.906 212.341L244.624 224.531H243.551L246.832 212.341H247.906ZM252.399 223.159C251.683 223.159 251.066 222.99 250.549 222.652C250.032 222.314 249.635 221.848 249.356 221.255C249.078 220.662 248.939 219.984 248.939 219.222C248.939 218.446 249.081 217.762 249.366 217.168C249.654 216.572 250.056 216.106 250.569 215.771C251.086 215.433 251.69 215.264 252.379 215.264C252.916 215.264 253.4 215.364 253.831 215.562C254.261 215.761 254.614 216.04 254.89 216.398C255.165 216.756 255.335 217.173 255.402 217.651H254.228C254.139 217.303 253.94 216.994 253.632 216.726C253.327 216.454 252.916 216.318 252.399 216.318C251.941 216.318 251.54 216.437 251.196 216.676C250.854 216.911 250.587 217.245 250.395 217.675C250.206 218.103 250.112 218.605 250.112 219.182C250.112 219.772 250.205 220.286 250.39 220.723C250.579 221.161 250.844 221.5 251.186 221.742C251.53 221.984 251.935 222.105 252.399 222.105C252.704 222.105 252.98 222.052 253.229 221.946C253.478 221.84 253.688 221.688 253.86 221.489C254.033 221.29 254.155 221.051 254.228 220.773H255.402C255.335 221.223 255.171 221.629 254.909 221.991C254.651 222.349 254.308 222.634 253.88 222.846C253.456 223.055 252.962 223.159 252.399 223.159ZM260 223.159C259.364 223.159 258.802 222.998 258.315 222.677C257.828 222.352 257.447 221.895 257.172 221.305C256.896 220.711 256.759 220.01 256.759 219.202C256.759 218.4 256.896 217.704 257.172 217.114C257.447 216.524 257.829 216.068 258.32 215.746C258.81 215.425 259.377 215.264 260.02 215.264C260.517 215.264 260.91 215.347 261.199 215.513C261.49 215.675 261.712 215.861 261.865 216.07C262.02 216.275 262.141 216.444 262.228 216.577H262.327V212.818H263.5V223H262.367V221.827H262.228C262.141 221.966 262.019 222.142 261.86 222.354C261.701 222.562 261.474 222.75 261.179 222.915C260.884 223.078 260.491 223.159 260 223.159ZM260.159 222.105C260.63 222.105 261.028 221.982 261.353 221.737C261.677 221.489 261.924 221.146 262.093 220.708C262.262 220.267 262.347 219.759 262.347 219.182C262.347 218.612 262.264 218.113 262.098 217.685C261.933 217.254 261.687 216.92 261.363 216.681C261.038 216.439 260.637 216.318 260.159 216.318C259.662 216.318 259.248 216.446 258.917 216.701C258.588 216.953 258.342 217.296 258.176 217.73C258.013 218.161 257.932 218.645 257.932 219.182C257.932 219.725 258.015 220.219 258.181 220.663C258.35 221.104 258.598 221.455 258.926 221.717C259.258 221.976 259.669 222.105 260.159 222.105ZM266.985 218.406V223H265.812V215.364H266.946V216.557H267.045C267.224 216.169 267.496 215.857 267.86 215.622C268.225 215.384 268.696 215.264 269.272 215.264C269.789 215.264 270.242 215.37 270.63 215.582C271.017 215.791 271.319 216.109 271.534 216.537C271.75 216.961 271.858 217.498 271.858 218.148V223H270.684V218.227C270.684 217.627 270.529 217.16 270.217 216.825C269.905 216.487 269.478 216.318 268.934 216.318C268.56 216.318 268.225 216.399 267.93 216.562C267.638 216.724 267.408 216.961 267.239 217.273C267.07 217.584 266.985 217.962 266.985 218.406ZM274.857 223.08C274.611 223.08 274.401 222.992 274.225 222.816C274.05 222.64 273.962 222.43 273.962 222.185C273.962 221.939 274.05 221.729 274.225 221.553C274.401 221.378 274.611 221.29 274.857 221.29C275.102 221.29 275.312 221.378 275.488 221.553C275.664 221.729 275.752 221.939 275.752 222.185C275.752 222.347 275.71 222.496 275.627 222.632C275.548 222.768 275.44 222.877 275.304 222.96C275.172 223.04 275.022 223.08 274.857 223.08ZM280.959 223.159C280.243 223.159 279.627 222.99 279.11 222.652C278.593 222.314 278.195 221.848 277.917 221.255C277.638 220.662 277.499 219.984 277.499 219.222C277.499 218.446 277.642 217.762 277.927 217.168C278.215 216.572 278.616 216.106 279.13 215.771C279.647 215.433 280.25 215.264 280.939 215.264C281.476 215.264 281.96 215.364 282.391 215.562C282.822 215.761 283.175 216.04 283.45 216.398C283.725 216.756 283.896 217.173 283.962 217.651H282.789C282.699 217.303 282.501 216.994 282.192 216.726C281.887 216.454 281.476 216.318 280.959 216.318C280.502 216.318 280.101 216.437 279.756 216.676C279.415 216.911 279.148 217.245 278.956 217.675C278.767 218.103 278.672 218.605 278.672 219.182C278.672 219.772 278.765 220.286 278.951 220.723C279.14 221.161 279.405 221.5 279.746 221.742C280.091 221.984 280.495 222.105 280.959 222.105C281.264 222.105 281.541 222.052 281.79 221.946C282.038 221.84 282.249 221.688 282.421 221.489C282.593 221.29 282.716 221.051 282.789 220.773H283.962C283.896 221.223 283.732 221.629 283.47 221.991C283.211 222.349 282.868 222.634 282.441 222.846C282.017 223.055 281.523 223.159 280.959 223.159ZM288.78 223.159C288.09 223.159 287.485 222.995 286.965 222.667C286.448 222.339 286.044 221.88 285.752 221.29C285.464 220.7 285.319 220.01 285.319 219.222C285.319 218.426 285.464 217.732 285.752 217.138C286.044 216.545 286.448 216.085 286.965 215.756C287.485 215.428 288.09 215.264 288.78 215.264C289.469 215.264 290.072 215.428 290.589 215.756C291.11 216.085 291.514 216.545 291.802 217.138C292.094 217.732 292.24 218.426 292.24 219.222C292.24 220.01 292.094 220.7 291.802 221.29C291.514 221.88 291.11 222.339 290.589 222.667C290.072 222.995 289.469 223.159 288.78 223.159ZM288.78 222.105C289.303 222.105 289.734 221.971 290.072 221.702C290.41 221.434 290.661 221.081 290.823 220.643C290.985 220.206 291.067 219.732 291.067 219.222C291.067 218.711 290.985 218.236 290.823 217.795C290.661 217.354 290.41 216.998 290.072 216.726C289.734 216.454 289.303 216.318 288.78 216.318C288.256 216.318 287.825 216.454 287.487 216.726C287.149 216.998 286.899 217.354 286.736 217.795C286.574 218.236 286.493 218.711 286.493 219.222C286.493 219.732 286.574 220.206 286.736 220.643C286.899 221.081 287.149 221.434 287.487 221.702C287.825 221.971 288.256 222.105 288.78 222.105ZM295.204 212.818V223H294.031V212.818H295.204ZM298.526 212.818V223H297.353V212.818H298.526ZM302.923 223.179C302.439 223.179 302 223.088 301.605 222.906C301.211 222.72 300.897 222.453 300.665 222.105C300.433 221.754 300.317 221.33 300.317 220.832C300.317 220.395 300.404 220.04 300.576 219.768C300.748 219.493 300.979 219.278 301.267 219.122C301.555 218.966 301.874 218.85 302.222 218.774C302.573 218.695 302.926 218.632 303.281 218.585C303.745 218.526 304.121 218.481 304.409 218.451C304.701 218.418 304.913 218.363 305.045 218.287C305.181 218.211 305.249 218.078 305.249 217.889V217.849C305.249 217.359 305.115 216.978 304.847 216.706C304.581 216.434 304.179 216.298 303.638 216.298C303.078 216.298 302.639 216.421 302.321 216.666C302.003 216.911 301.779 217.173 301.65 217.452L300.536 217.054C300.735 216.59 301 216.229 301.332 215.97C301.666 215.708 302.031 215.526 302.425 215.423C302.823 215.317 303.214 215.264 303.599 215.264C303.844 215.264 304.126 215.294 304.444 215.354C304.765 215.41 305.075 215.528 305.374 215.707C305.675 215.886 305.925 216.156 306.124 216.517C306.323 216.878 306.423 217.362 306.423 217.969V223H305.249V221.966H305.19C305.11 222.132 304.978 222.309 304.792 222.498C304.606 222.687 304.359 222.848 304.051 222.98C303.743 223.113 303.367 223.179 302.923 223.179ZM303.102 222.125C303.566 222.125 303.957 222.034 304.275 221.852C304.596 221.669 304.838 221.434 305.001 221.146C305.166 220.857 305.249 220.554 305.249 220.236V219.162C305.2 219.222 305.09 219.276 304.921 219.326C304.755 219.372 304.563 219.414 304.344 219.45C304.129 219.483 303.919 219.513 303.713 219.54C303.511 219.563 303.347 219.583 303.221 219.599C302.916 219.639 302.631 219.704 302.366 219.793C302.104 219.879 301.892 220.01 301.729 220.186C301.57 220.358 301.491 220.594 301.491 220.892C301.491 221.3 301.642 221.608 301.943 221.817C302.248 222.022 302.634 222.125 303.102 222.125ZM311.646 226.023C311.08 226.023 310.593 225.95 310.185 225.804C309.777 225.661 309.437 225.473 309.166 225.237C308.897 225.005 308.683 224.757 308.524 224.491L309.459 223.835C309.565 223.974 309.699 224.134 309.862 224.312C310.024 224.495 310.246 224.652 310.528 224.785C310.813 224.921 311.186 224.989 311.646 224.989C312.263 224.989 312.772 224.839 313.173 224.541C313.574 224.243 313.774 223.776 313.774 223.139V221.588H313.675C313.589 221.727 313.466 221.9 313.307 222.105C313.151 222.307 312.926 222.488 312.631 222.647C312.339 222.803 311.945 222.881 311.448 222.881C310.831 222.881 310.278 222.735 309.787 222.443C309.3 222.152 308.914 221.727 308.629 221.17C308.347 220.614 308.206 219.937 308.206 219.142C308.206 218.36 308.344 217.679 308.619 217.099C308.894 216.515 309.277 216.065 309.767 215.746C310.258 215.425 310.825 215.264 311.468 215.264C311.965 215.264 312.359 215.347 312.651 215.513C312.946 215.675 313.171 215.861 313.327 216.07C313.486 216.275 313.609 216.444 313.695 216.577H313.814V215.364H314.948V223.219C314.948 223.875 314.798 224.409 314.5 224.82C314.205 225.234 313.807 225.537 313.307 225.729C312.81 225.925 312.256 226.023 311.646 226.023ZM311.607 221.827C312.077 221.827 312.475 221.719 312.8 221.504C313.125 221.288 313.372 220.978 313.541 220.574C313.71 220.17 313.794 219.686 313.794 219.122C313.794 218.572 313.711 218.086 313.546 217.665C313.38 217.245 313.135 216.915 312.81 216.676C312.485 216.437 312.084 216.318 311.607 216.318C311.11 216.318 310.695 216.444 310.364 216.696C310.036 216.948 309.789 217.286 309.623 217.71C309.461 218.134 309.379 218.605 309.379 219.122C309.379 219.652 309.462 220.121 309.628 220.529C309.797 220.933 310.046 221.252 310.374 221.484C310.705 221.712 311.116 221.827 311.607 221.827ZM320.297 223.159C319.561 223.159 318.927 222.997 318.393 222.672C317.863 222.344 317.453 221.886 317.165 221.3C316.88 220.71 316.737 220.024 316.737 219.241C316.737 218.459 316.88 217.77 317.165 217.173C317.453 216.573 317.854 216.106 318.368 215.771C318.885 215.433 319.488 215.264 320.178 215.264C320.575 215.264 320.968 215.33 321.356 215.463C321.744 215.596 322.097 215.811 322.415 216.109C322.733 216.404 322.987 216.795 323.176 217.283C323.365 217.77 323.459 218.37 323.459 219.082V219.58H317.573V218.565H322.266C322.266 218.134 322.18 217.75 322.007 217.412C321.838 217.074 321.596 216.807 321.281 216.612C320.97 216.416 320.602 216.318 320.178 216.318C319.71 216.318 319.306 216.434 318.965 216.666C318.627 216.895 318.366 217.193 318.184 217.561C318.002 217.929 317.911 218.323 317.911 218.744V219.42C317.911 219.997 318.01 220.486 318.209 220.887C318.411 221.285 318.691 221.588 319.049 221.797C319.407 222.002 319.823 222.105 320.297 222.105C320.605 222.105 320.884 222.062 321.132 221.976C321.384 221.886 321.601 221.754 321.784 221.578C321.966 221.399 322.107 221.177 322.206 220.912L323.34 221.23C323.22 221.615 323.02 221.953 322.738 222.244C322.456 222.533 322.108 222.758 321.694 222.92C321.28 223.08 320.814 223.159 320.297 223.159ZM326.099 223.08C325.854 223.08 325.643 222.992 325.468 222.816C325.292 222.64 325.204 222.43 325.204 222.185C325.204 221.939 325.292 221.729 325.468 221.553C325.643 221.378 325.854 221.29 326.099 221.29C326.344 221.29 326.555 221.378 326.73 221.553C326.906 221.729 326.994 221.939 326.994 222.185C326.994 222.347 326.952 222.496 326.869 222.632C326.79 222.768 326.682 222.877 326.546 222.96C326.414 223.04 326.265 223.08 326.099 223.08ZM329.099 223V215.364H330.273V223H329.099ZM329.696 214.091C329.467 214.091 329.27 214.013 329.104 213.857C328.942 213.701 328.861 213.514 328.861 213.295C328.861 213.077 328.942 212.889 329.104 212.734C329.27 212.578 329.467 212.5 329.696 212.5C329.925 212.5 330.12 212.578 330.282 212.734C330.448 212.889 330.531 213.077 330.531 213.295C330.531 213.514 330.448 213.701 330.282 213.857C330.12 214.013 329.925 214.091 329.696 214.091ZM333.595 218.406V223H332.422V215.364H333.555V216.557H333.654C333.833 216.169 334.105 215.857 334.47 215.622C334.834 215.384 335.305 215.264 335.882 215.264C336.399 215.264 336.851 215.37 337.239 215.582C337.627 215.791 337.928 216.109 338.144 216.537C338.359 216.961 338.467 217.498 338.467 218.148V223H337.294V218.227C337.294 217.627 337.138 217.16 336.826 216.825C336.515 216.487 336.087 216.318 335.544 216.318C335.169 216.318 334.834 216.399 334.539 216.562C334.248 216.724 334.017 216.961 333.848 217.273C333.679 217.584 333.595 217.962 333.595 218.406ZM343.713 223.159C342.997 223.159 342.381 222.99 341.864 222.652C341.347 222.314 340.949 221.848 340.671 221.255C340.392 220.662 340.253 219.984 340.253 219.222C340.253 218.446 340.396 217.762 340.681 217.168C340.969 216.572 341.37 216.106 341.884 215.771C342.401 215.433 343.004 215.264 343.693 215.264C344.23 215.264 344.714 215.364 345.145 215.562C345.576 215.761 345.929 216.04 346.204 216.398C346.479 216.756 346.65 217.173 346.716 217.651H345.543C345.453 217.303 345.254 216.994 344.946 216.726C344.641 216.454 344.23 216.318 343.713 216.318C343.256 216.318 342.855 216.437 342.51 216.676C342.169 216.911 341.902 217.245 341.71 217.675C341.521 218.103 341.426 218.605 341.426 219.182C341.426 219.772 341.519 220.286 341.705 220.723C341.894 221.161 342.159 221.5 342.5 221.742C342.845 221.984 343.249 222.105 343.713 222.105C344.018 222.105 344.295 222.052 344.544 221.946C344.792 221.84 345.003 221.688 345.175 221.489C345.347 221.29 345.47 221.051 345.543 220.773H346.716C346.65 221.223 346.486 221.629 346.224 221.991C345.965 222.349 345.622 222.634 345.195 222.846C344.771 223.055 344.277 223.159 343.713 223.159ZM352.031 212.341L348.749 224.531H347.676L350.957 212.341H352.031ZM353.402 223V222.105L356.762 218.426C357.157 217.995 357.482 217.621 357.737 217.303C357.992 216.981 358.181 216.679 358.304 216.398C358.43 216.113 358.493 215.814 358.493 215.503C358.493 215.145 358.406 214.835 358.234 214.573C358.065 214.311 357.833 214.109 357.538 213.967C357.243 213.824 356.912 213.753 356.544 213.753C356.153 213.753 355.811 213.834 355.52 213.996C355.231 214.156 355.007 214.379 354.848 214.668C354.693 214.956 354.615 215.294 354.615 215.682H353.441C353.441 215.085 353.579 214.562 353.854 214.111C354.129 213.66 354.504 213.309 354.978 213.057C355.455 212.805 355.99 212.679 356.583 212.679C357.18 212.679 357.709 212.805 358.169 213.057C358.63 213.309 358.991 213.648 359.253 214.076C359.515 214.504 359.646 214.979 359.646 215.503C359.646 215.877 359.578 216.244 359.442 216.602C359.31 216.956 359.078 217.352 358.746 217.79C358.418 218.224 357.962 218.754 357.379 219.381L355.092 221.827V221.906H359.825V223H353.402ZM365.319 223.139C364.662 223.139 364.077 223.027 363.564 222.801C363.053 222.576 362.647 222.263 362.346 221.862C362.047 221.457 361.885 220.988 361.858 220.455H363.111C363.138 220.783 363.25 221.066 363.449 221.305C363.648 221.54 363.908 221.722 364.23 221.852C364.551 221.981 364.908 222.045 365.299 222.045C365.736 222.045 366.124 221.969 366.462 221.817C366.8 221.664 367.065 221.452 367.257 221.18C367.45 220.909 367.546 220.594 367.546 220.236C367.546 219.861 367.453 219.531 367.267 219.246C367.082 218.958 366.81 218.733 366.452 218.57C366.094 218.408 365.657 218.327 365.14 218.327H364.324V217.233H365.14C365.544 217.233 365.899 217.16 366.203 217.014C366.512 216.868 366.752 216.663 366.924 216.398C367.1 216.133 367.188 215.821 367.188 215.463C367.188 215.118 367.112 214.818 366.959 214.563C366.807 214.308 366.591 214.109 366.313 213.967C366.038 213.824 365.713 213.753 365.338 213.753C364.987 213.753 364.656 213.817 364.344 213.947C364.036 214.073 363.784 214.257 363.588 214.499C363.393 214.737 363.287 215.026 363.27 215.364H362.077C362.097 214.83 362.258 214.363 362.559 213.962C362.861 213.557 363.255 213.242 363.743 213.017C364.233 212.792 364.772 212.679 365.358 212.679C365.988 212.679 366.528 212.807 366.979 213.062C367.43 213.314 367.776 213.647 368.018 214.061C368.26 214.475 368.381 214.923 368.381 215.403C368.381 215.977 368.23 216.466 367.929 216.87C367.63 217.274 367.224 217.554 366.711 217.71V217.79C367.354 217.896 367.856 218.169 368.217 218.61C368.578 219.048 368.759 219.589 368.759 220.236C368.759 220.789 368.608 221.286 368.306 221.727C368.008 222.165 367.6 222.509 367.083 222.761C366.566 223.013 365.978 223.139 365.319 223.139ZM374.372 212.818V223H373.139V214.111H373.079L370.593 215.761V214.509L373.139 212.818H374.372ZM377.618 223L382.172 213.991V213.912H376.922V212.818H383.445V213.972L378.911 223H377.618ZM386.036 223.08C385.791 223.08 385.581 222.992 385.405 222.816C385.229 222.64 385.142 222.43 385.142 222.185C385.142 221.939 385.229 221.729 385.405 221.553C385.581 221.378 385.791 221.29 386.036 221.29C386.282 221.29 386.492 221.378 386.668 221.553C386.843 221.729 386.931 221.939 386.931 222.185C386.931 222.347 386.89 222.496 386.807 222.632C386.727 222.768 386.62 222.877 386.484 222.96C386.351 223.04 386.202 223.08 386.036 223.08ZM389.855 223.08C389.609 223.08 389.399 222.992 389.223 222.816C389.048 222.64 388.96 222.43 388.96 222.185C388.96 221.939 389.048 221.729 389.223 221.553C389.399 221.378 389.609 221.29 389.855 221.29C390.1 221.29 390.31 221.378 390.486 221.553C390.662 221.729 390.749 221.939 390.749 222.185C390.749 222.347 390.708 222.496 390.625 222.632C390.546 222.768 390.438 222.877 390.302 222.96C390.169 223.04 390.02 223.08 389.855 223.08ZM393.673 223.08C393.427 223.08 393.217 222.992 393.041 222.816C392.866 222.64 392.778 222.43 392.778 222.185C392.778 221.939 392.866 221.729 393.041 221.553C393.217 221.378 393.427 221.29 393.673 221.29C393.918 221.29 394.128 221.378 394.304 221.553C394.48 221.729 394.568 221.939 394.568 222.185C394.568 222.347 394.526 222.496 394.443 222.632C394.364 222.768 394.256 222.877 394.12 222.96C393.988 223.04 393.838 223.08 393.673 223.08Z" fill="#3D3D3D"/>
<rect x="422" y="197" width="113" height="42" rx="7" stroke="#6473FF" stroke-width="2"/>
<path d="M450.575 216.129H449.024C448.964 215.798 448.853 215.506 448.691 215.254C448.529 215.002 448.33 214.789 448.094 214.613C447.859 214.437 447.596 214.305 447.304 214.215C447.016 214.126 446.709 214.081 446.384 214.081C445.798 214.081 445.272 214.228 444.808 214.523C444.348 214.818 443.983 215.251 443.714 215.821C443.449 216.391 443.317 217.087 443.317 217.909C443.317 218.738 443.449 219.437 443.714 220.007C443.983 220.577 444.349 221.008 444.813 221.3C445.277 221.591 445.799 221.737 446.379 221.737C446.701 221.737 447.006 221.694 447.294 221.608C447.586 221.518 447.849 221.388 448.085 221.215C448.32 221.043 448.519 220.832 448.681 220.584C448.847 220.332 448.961 220.044 449.024 219.719L450.575 219.724C450.492 220.224 450.332 220.685 450.093 221.106C449.858 221.523 449.554 221.885 449.183 222.19C448.815 222.491 448.394 222.725 447.92 222.891C447.446 223.056 446.929 223.139 446.369 223.139C445.488 223.139 444.702 222.93 444.013 222.513C443.323 222.092 442.78 221.49 442.382 220.708C441.988 219.926 441.79 218.993 441.79 217.909C441.79 216.822 441.989 215.889 442.387 215.11C442.785 214.328 443.328 213.728 444.018 213.31C444.707 212.889 445.491 212.679 446.369 212.679C446.91 212.679 447.413 212.757 447.881 212.913C448.351 213.065 448.774 213.29 449.148 213.589C449.523 213.884 449.833 214.245 450.078 214.673C450.323 215.097 450.489 215.582 450.575 216.129ZM455.511 223.154C454.795 223.154 454.17 222.99 453.637 222.662C453.103 222.334 452.689 221.875 452.394 221.285C452.099 220.695 451.951 220.005 451.951 219.217C451.951 218.424 452.099 217.732 452.394 217.138C452.689 216.545 453.103 216.085 453.637 215.756C454.17 215.428 454.795 215.264 455.511 215.264C456.227 215.264 456.852 215.428 457.385 215.756C457.919 216.085 458.333 216.545 458.628 217.138C458.923 217.732 459.07 218.424 459.07 219.217C459.07 220.005 458.923 220.695 458.628 221.285C458.333 221.875 457.919 222.334 457.385 222.662C456.852 222.99 456.227 223.154 455.511 223.154ZM455.516 221.906C455.98 221.906 456.364 221.784 456.669 221.538C456.974 221.293 457.2 220.967 457.345 220.559C457.494 220.151 457.569 219.702 457.569 219.212C457.569 218.724 457.494 218.277 457.345 217.869C457.2 217.458 456.974 217.129 456.669 216.88C456.364 216.631 455.98 216.507 455.516 216.507C455.048 216.507 454.661 216.631 454.352 216.88C454.048 217.129 453.82 217.458 453.671 217.869C453.526 218.277 453.453 218.724 453.453 219.212C453.453 219.702 453.526 220.151 453.671 220.559C453.82 220.967 454.048 221.293 454.352 221.538C454.661 221.784 455.048 221.906 455.516 221.906ZM460.73 225.864V215.364H462.181V216.602H462.306C462.392 216.442 462.516 216.259 462.679 216.05C462.841 215.841 463.066 215.659 463.355 215.503C463.643 215.344 464.024 215.264 464.498 215.264C465.115 215.264 465.665 215.42 466.149 215.732C466.633 216.043 467.012 216.492 467.287 217.079C467.566 217.665 467.705 218.371 467.705 219.197C467.705 220.022 467.567 220.73 467.292 221.32C467.017 221.906 466.639 222.359 466.159 222.677C465.678 222.992 465.13 223.149 464.513 223.149C464.049 223.149 463.67 223.071 463.375 222.915C463.083 222.76 462.854 222.577 462.689 222.369C462.523 222.16 462.395 221.974 462.306 221.812H462.216V225.864H460.73ZM462.186 219.182C462.186 219.719 462.264 220.189 462.42 220.594C462.576 220.998 462.801 221.315 463.096 221.543C463.391 221.769 463.752 221.881 464.18 221.881C464.624 221.881 464.995 221.764 465.294 221.528C465.592 221.29 465.817 220.967 465.97 220.559C466.126 220.151 466.203 219.692 466.203 219.182C466.203 218.678 466.127 218.226 465.975 217.825C465.826 217.424 465.6 217.107 465.299 216.875C465 216.643 464.627 216.527 464.18 216.527C463.749 216.527 463.385 216.638 463.086 216.86C462.791 217.082 462.568 217.392 462.415 217.79C462.263 218.187 462.186 218.652 462.186 219.182ZM470.05 225.864C469.828 225.864 469.626 225.845 469.444 225.809C469.261 225.776 469.126 225.739 469.036 225.7L469.394 224.482C469.666 224.554 469.908 224.586 470.12 224.576C470.332 224.566 470.519 224.487 470.682 224.337C470.847 224.188 470.993 223.945 471.119 223.607L471.303 223.099L468.509 215.364H470.1L472.034 221.29H472.113L474.047 215.364H475.643L472.496 224.019C472.35 224.417 472.165 224.753 471.939 225.028C471.714 225.307 471.446 225.516 471.134 225.655C470.823 225.794 470.461 225.864 470.05 225.864ZM489.321 216.129H487.77C487.711 215.798 487.6 215.506 487.437 215.254C487.275 215.002 487.076 214.789 486.841 214.613C486.605 214.437 486.342 214.305 486.05 214.215C485.762 214.126 485.455 214.081 485.13 214.081C484.544 214.081 484.018 214.228 483.554 214.523C483.094 214.818 482.729 215.251 482.461 215.821C482.195 216.391 482.063 217.087 482.063 217.909C482.063 218.738 482.195 219.437 482.461 220.007C482.729 220.577 483.095 221.008 483.559 221.3C484.023 221.591 484.545 221.737 485.125 221.737C485.447 221.737 485.752 221.694 486.04 221.608C486.332 221.518 486.595 221.388 486.831 221.215C487.066 221.043 487.265 220.832 487.427 220.584C487.593 220.332 487.707 220.044 487.77 219.719L489.321 219.724C489.239 220.224 489.078 220.685 488.839 221.106C488.604 221.523 488.301 221.885 487.929 222.19C487.561 222.491 487.141 222.725 486.667 222.891C486.193 223.056 485.676 223.139 485.115 223.139C484.234 223.139 483.448 222.93 482.759 222.513C482.069 222.092 481.526 221.49 481.128 220.708C480.734 219.926 480.537 218.993 480.537 217.909C480.537 216.822 480.735 215.889 481.133 215.11C481.531 214.328 482.074 213.728 482.764 213.31C483.453 212.889 484.237 212.679 485.115 212.679C485.656 212.679 486.159 212.757 486.627 212.913C487.097 213.065 487.52 213.29 487.895 213.589C488.269 213.884 488.579 214.245 488.824 214.673C489.069 215.097 489.235 215.582 489.321 216.129ZM494.257 223.154C493.541 223.154 492.916 222.99 492.383 222.662C491.849 222.334 491.435 221.875 491.14 221.285C490.845 220.695 490.697 220.005 490.697 219.217C490.697 218.424 490.845 217.732 491.14 217.138C491.435 216.545 491.849 216.085 492.383 215.756C492.916 215.428 493.541 215.264 494.257 215.264C494.973 215.264 495.598 215.428 496.131 215.756C496.665 216.085 497.079 216.545 497.374 217.138C497.669 217.732 497.817 218.424 497.817 219.217C497.817 220.005 497.669 220.695 497.374 221.285C497.079 221.875 496.665 222.334 496.131 222.662C495.598 222.99 494.973 223.154 494.257 223.154ZM494.262 221.906C494.726 221.906 495.11 221.784 495.415 221.538C495.72 221.293 495.946 220.967 496.091 220.559C496.241 220.151 496.315 219.702 496.315 219.212C496.315 218.724 496.241 218.277 496.091 217.869C495.946 217.458 495.72 217.129 495.415 216.88C495.11 216.631 494.726 216.507 494.262 216.507C493.795 216.507 493.407 216.631 493.099 216.88C492.794 217.129 492.567 217.458 492.417 217.869C492.272 218.277 492.199 218.724 492.199 219.212C492.199 219.702 492.272 220.151 492.417 220.559C492.567 220.967 492.794 221.293 493.099 221.538C493.407 221.784 493.795 221.906 494.262 221.906ZM502.335 223.149C501.718 223.149 501.168 222.992 500.684 222.677C500.203 222.359 499.826 221.906 499.55 221.32C499.279 220.73 499.143 220.022 499.143 219.197C499.143 218.371 499.28 217.665 499.555 217.079C499.834 216.492 500.215 216.043 500.699 215.732C501.183 215.42 501.731 215.264 502.344 215.264C502.818 215.264 503.2 215.344 503.488 215.503C503.78 215.659 504.005 215.841 504.164 216.05C504.326 216.259 504.452 216.442 504.542 216.602H504.631V212.818H506.118V223H504.666V221.812H504.542C504.452 221.974 504.323 222.16 504.154 222.369C503.988 222.577 503.76 222.76 503.468 222.915C503.176 223.071 502.799 223.149 502.335 223.149ZM502.663 221.881C503.09 221.881 503.451 221.769 503.746 221.543C504.045 221.315 504.27 220.998 504.423 220.594C504.578 220.189 504.656 219.719 504.656 219.182C504.656 218.652 504.58 218.187 504.428 217.79C504.275 217.392 504.051 217.082 503.756 216.86C503.461 216.638 503.097 216.527 502.663 216.527C502.215 216.527 501.842 216.643 501.544 216.875C501.246 217.107 501.02 217.424 500.868 217.825C500.719 218.226 500.644 218.678 500.644 219.182C500.644 219.692 500.72 220.151 500.873 220.559C501.025 220.967 501.251 221.29 501.549 221.528C501.851 221.764 502.222 221.881 502.663 221.881ZM511.531 223.154C510.778 223.154 510.13 222.993 509.587 222.672C509.047 222.347 508.629 221.891 508.334 221.305C508.042 220.715 507.896 220.024 507.896 219.232C507.896 218.449 508.042 217.76 508.334 217.163C508.629 216.567 509.04 216.101 509.567 215.766C510.097 215.432 510.717 215.264 511.426 215.264C511.857 215.264 512.275 215.335 512.679 215.478C513.084 215.621 513.446 215.844 513.768 216.149C514.089 216.454 514.343 216.85 514.529 217.337C514.714 217.821 514.807 218.41 514.807 219.102V219.629H508.737V218.516H513.35C513.35 218.125 513.271 217.778 513.112 217.477C512.953 217.172 512.729 216.931 512.441 216.756C512.155 216.58 511.821 216.492 511.436 216.492C511.019 216.492 510.654 216.595 510.343 216.8C510.034 217.003 509.796 217.268 509.627 217.596C509.461 217.921 509.378 218.274 509.378 218.655V219.525C509.378 220.035 509.468 220.469 509.646 220.827C509.829 221.185 510.082 221.459 510.407 221.648C510.732 221.833 511.111 221.926 511.546 221.926C511.827 221.926 512.084 221.886 512.316 221.807C512.548 221.724 512.749 221.601 512.918 221.439C513.087 221.277 513.216 221.076 513.306 220.837L514.713 221.091C514.6 221.505 514.398 221.868 514.106 222.18C513.818 222.488 513.455 222.728 513.017 222.901C512.583 223.07 512.088 223.154 511.531 223.154Z" fill="#6473FF"/>
</g>
<defs>
<filter id="filter0_d_1585_2213" x="0" y="-4" width="592" height="304" filterUnits="userSpaceOnUse" color-interpolation-filters="sRGB">
<feFlood flood-opacity="0" result="BackgroundImageFix"/>
<feColorMatrix in="SourceAlpha" type="matrix" values="0 0 0 0 0 0 0 0 0 0 0 0 0 0 0 0 0 0 127 0" result="hardAlpha"/>
<feOffset dy="4"/>
<feGaussianBlur stdDeviation="8"/>
<feComposite in2="hardAlpha" operator="out"/>
<feColorMatrix type="matrix" values="0 0 0 0 0 0 0 0 0 0 0 0 0 0 0 0 0 0 0.15 0"/>
<feBlend mode="normal" in2="BackgroundImageFix" result="effect1_dropShadow_1585_2213"/>
<feBlend mode="normal" in="SourceGraphic" in2="effect1_dropShadow_1585_2213" result="shape"/>
</filter>
</defs>
</svg>
