<svg width="341" height="374" viewBox="0 0 341 374" fill="none" xmlns="http://www.w3.org/2000/svg">
<path d="M0 20C0 8.95432 8.95431 0 20 0H341V748H20C8.95431 748 0 739.046 0 728V20Z" fill="white"/>
<mask id="path-2-inside-1_5899_22410" fill="white">
<path d="M0 20C0 8.95431 8.95431 0 20 0H341V46H0V20Z"/>
</mask>
<path d="M0 20C0 8.95431 8.95431 0 20 0H341V46H0V20Z" fill="white"/>
<path d="M0 0H341H0ZM341 47H0V45H341V47ZM0 46V0V46ZM341 0V46V0Z" fill="#B8B8B8" mask="url(#path-2-inside-1_5899_22410)"/>
<path d="M11.7926 18.1094V16.4091H21.924V18.1094H17.8395V29.5H15.8707V18.1094H11.7926ZM25.5307 29.7173C24.9086 29.7173 24.3461 29.6023 23.8432 29.3722C23.3404 29.1378 22.9419 28.799 22.6479 28.3558C22.3581 27.9126 22.2132 27.3693 22.2132 26.7259C22.2132 26.1719 22.3198 25.7159 22.5328 25.358C22.7459 25 23.0336 24.7166 23.3958 24.5078C23.758 24.299 24.1628 24.1413 24.6103 24.0348C25.0577 23.9283 25.5137 23.8473 25.9782 23.7919C26.5662 23.7237 27.0435 23.6683 27.41 23.6257C27.7765 23.5788 28.0428 23.5043 28.209 23.402C28.3752 23.2997 28.4583 23.1335 28.4583 22.9034V22.8587C28.4583 22.3004 28.3006 21.8679 27.9853 21.5611C27.6742 21.2543 27.2097 21.1009 26.5918 21.1009C25.9483 21.1009 25.4412 21.2436 25.0705 21.5291C24.704 21.8104 24.4505 22.1236 24.3098 22.4688L22.5137 22.0597C22.7267 21.4631 23.0378 20.9815 23.4469 20.6151C23.8603 20.2443 24.3354 19.9759 24.8723 19.8097C25.4093 19.6392 25.9739 19.554 26.5662 19.554C26.9583 19.554 27.3738 19.6009 27.8127 19.6946C28.2559 19.7841 28.6692 19.9503 29.0527 20.1932C29.4405 20.4361 29.758 20.7834 30.0051 21.2351C30.2523 21.6825 30.3759 22.2642 30.3759 22.9801V29.5H28.5094V28.1577H28.4327C28.3091 28.4048 28.1238 28.6477 27.8766 28.8864C27.6294 29.125 27.312 29.3232 26.9242 29.4808C26.5364 29.6385 26.0719 29.7173 25.5307 29.7173ZM25.9462 28.1832C26.4746 28.1832 26.9263 28.0788 27.3013 27.87C27.6806 27.6612 27.9682 27.3885 28.1642 27.0518C28.3645 26.7109 28.4647 26.3466 28.4647 25.9588V24.6932C28.3965 24.7614 28.2644 24.8253 28.0684 24.8849C27.8766 24.9403 27.6571 24.9893 27.41 25.032C27.1628 25.0703 26.9221 25.1065 26.6877 25.1406C26.4533 25.1705 26.2573 25.196 26.0996 25.2173C25.7289 25.2642 25.3901 25.343 25.0833 25.4538C24.7807 25.5646 24.5378 25.7244 24.3546 25.9332C24.1756 26.1378 24.0861 26.4105 24.0861 26.7514C24.0861 27.2244 24.2608 27.5824 24.6103 27.8253C24.9597 28.0639 25.405 28.1832 25.9462 28.1832ZM37.038 33.3864C36.2582 33.3864 35.587 33.2841 35.0245 33.0795C34.4663 32.875 34.0103 32.6044 33.6566 32.2678C33.3029 31.9311 33.0387 31.5625 32.864 31.1619L34.5067 30.4844C34.6218 30.6719 34.7752 30.87 34.967 31.0788C35.163 31.2919 35.4272 31.473 35.7596 31.6222C36.0962 31.7713 36.5288 31.8459 37.0572 31.8459C37.7816 31.8459 38.3803 31.669 38.8533 31.3153C39.3263 30.9659 39.5629 30.4077 39.5629 29.6406V27.7102H39.4414C39.3263 27.919 39.1602 28.1513 38.9428 28.407C38.7298 28.6626 38.4357 28.8842 38.0607 29.0717C37.6857 29.2592 37.1978 29.353 36.5969 29.353C35.8214 29.353 35.1225 29.1719 34.5004 28.8097C33.8825 28.4432 33.3924 27.9041 33.0302 27.1925C32.6722 26.4766 32.4933 25.5966 32.4933 24.5526C32.4933 23.5085 32.6701 22.6136 33.0238 21.8679C33.3817 21.1222 33.8718 20.5511 34.494 20.1548C35.1161 19.7543 35.8214 19.554 36.6097 19.554C37.2191 19.554 37.7113 19.6562 38.0863 19.8608C38.4613 20.0611 38.7532 20.2955 38.962 20.5639C39.1751 20.8324 39.3391 21.0689 39.4542 21.2734H39.5948V19.6818H41.4677V29.7173C41.4677 30.5611 41.2717 31.2536 40.8796 31.7947C40.4876 32.3359 39.957 32.7365 39.288 32.9964C38.6232 33.2564 37.8732 33.3864 37.038 33.3864ZM37.0188 27.7678C37.5685 27.7678 38.033 27.6399 38.4123 27.3842C38.7958 27.1243 39.0856 26.7536 39.2816 26.272C39.4819 25.7862 39.582 25.2045 39.582 24.527C39.582 23.8665 39.484 23.2848 39.288 22.782C39.092 22.2791 38.8043 21.8871 38.4251 21.6058C38.0458 21.3203 37.5771 21.1776 37.0188 21.1776C36.4435 21.1776 35.9641 21.3267 35.5806 21.625C35.1971 21.919 34.9073 22.3196 34.7113 22.8267C34.5195 23.3338 34.4237 23.9006 34.4237 24.527C34.4237 25.1705 34.5217 25.7351 34.7177 26.2209C34.9137 26.7067 35.2035 27.0859 35.587 27.3587C35.9748 27.6314 36.4521 27.7678 37.0188 27.7678ZM51.3881 22.0788L49.6559 22.3857C49.5835 22.1641 49.4684 21.9531 49.3107 21.7528C49.1573 21.5526 48.9485 21.3885 48.6843 21.2607C48.4201 21.1328 48.0898 21.0689 47.6935 21.0689C47.1523 21.0689 46.7006 21.1903 46.3384 21.4332C45.9762 21.6719 45.7951 21.9808 45.7951 22.3601C45.7951 22.6882 45.9165 22.9524 46.1594 23.1527C46.4023 23.353 46.7944 23.517 47.3356 23.6449L48.8952 24.0028C49.7987 24.2116 50.4719 24.5334 50.9151 24.968C51.3583 25.4027 51.5799 25.9673 51.5799 26.6619C51.5799 27.25 51.4094 27.7741 51.0685 28.2344C50.7319 28.6903 50.261 29.0483 49.6559 29.3082C49.055 29.5682 48.3583 29.6982 47.5657 29.6982C46.4663 29.6982 45.5692 29.4638 44.8746 28.995C44.18 28.522 43.7539 27.8509 43.5962 26.9815L45.4435 26.7003C45.5586 27.1818 45.7951 27.5462 46.1531 27.7933C46.511 28.0362 46.9776 28.1577 47.5529 28.1577C48.1793 28.1577 48.68 28.0277 49.055 27.7678C49.43 27.5036 49.6175 27.1818 49.6175 26.8026C49.6175 26.4957 49.5025 26.2379 49.2724 26.0291C49.0465 25.8203 48.6992 25.6626 48.2305 25.5561L46.5685 25.1918C45.6523 24.983 44.9748 24.6506 44.5359 24.1946C44.1012 23.7386 43.8839 23.1612 43.8839 22.4624C43.8839 21.8828 44.0458 21.3757 44.3697 20.9411C44.6935 20.5064 45.141 20.1676 45.712 19.9247C46.283 19.6776 46.9371 19.554 47.6744 19.554C48.7354 19.554 49.5707 19.7841 50.18 20.2443C50.7894 20.7003 51.1921 21.3118 51.3881 22.0788Z" fill="#3D3D3D"/>
<path d="M304.5 30.0837L311.583 23.0003L304.5 15.917M314.417 30.0837L321.5 23.0003L314.417 15.917" stroke="#3D3D3D" stroke-width="2" stroke-linecap="round" stroke-linejoin="round"/>
<path d="M16.6971 75H15.2141L17.4737 68.4545H19.2571L21.5135 75H20.0305L18.391 69.9503H18.3398L16.6971 75ZM16.6044 72.4272H20.1072V73.5075H16.6044V72.4272ZM23.8562 75.0799C23.4833 75.0799 23.1456 74.984 22.843 74.7923C22.5426 74.5984 22.304 74.3139 22.1271 73.9389C21.9524 73.5618 21.8651 73.0994 21.8651 72.5518C21.8651 71.9893 21.9556 71.5217 22.1367 71.1488C22.3178 70.7738 22.5586 70.4936 22.859 70.3082C23.1616 70.1207 23.4929 70.027 23.853 70.027C24.1278 70.027 24.3569 70.0739 24.5401 70.1676C24.7255 70.2592 24.8746 70.3743 24.9876 70.5128C25.1026 70.6491 25.19 70.7834 25.2496 70.9155H25.2912V68.4545H26.6495V75H25.3072V74.2138H25.2496C25.1857 74.3501 25.0952 74.4854 24.978 74.6197C24.8629 74.7518 24.7127 74.8615 24.5273 74.9489C24.3441 75.0362 24.1204 75.0799 23.8562 75.0799ZM24.2876 73.9964C24.5071 73.9964 24.6925 73.9368 24.8438 73.8175C24.9972 73.696 25.1143 73.5266 25.1953 73.3093C25.2784 73.092 25.32 72.8374 25.32 72.5455C25.32 72.2536 25.2795 72 25.1985 71.7848C25.1175 71.5696 25.0004 71.4034 24.8469 71.2862C24.6935 71.169 24.5071 71.1104 24.2876 71.1104C24.0639 71.1104 23.8754 71.1712 23.7219 71.2926C23.5685 71.4141 23.4524 71.5824 23.3736 71.7976C23.2947 72.0128 23.2553 72.2621 23.2553 72.5455C23.2553 72.831 23.2947 73.0835 23.3736 73.3029C23.4545 73.5202 23.5707 73.6907 23.7219 73.8143C23.8754 73.9357 24.0639 73.9964 24.2876 73.9964ZM29.5779 75.0799C29.205 75.0799 28.8673 74.984 28.5647 74.7923C28.2643 74.5984 28.0257 74.3139 27.8488 73.9389C27.6741 73.5618 27.5867 73.0994 27.5867 72.5518C27.5867 71.9893 27.6773 71.5217 27.8584 71.1488C28.0395 70.7738 28.2803 70.4936 28.5807 70.3082C28.8833 70.1207 29.2146 70.027 29.5747 70.027C29.8495 70.027 30.0786 70.0739 30.2618 70.1676C30.4472 70.2592 30.5963 70.3743 30.7093 70.5128C30.8243 70.6491 30.9117 70.7834 30.9713 70.9155H31.0129V68.4545H32.3712V75H31.0289V74.2138H30.9713C30.9074 74.3501 30.8169 74.4854 30.6997 74.6197C30.5846 74.7518 30.4344 74.8615 30.249 74.9489C30.0658 75.0362 29.8421 75.0799 29.5779 75.0799ZM30.0093 73.9964C30.2288 73.9964 30.4142 73.9368 30.5654 73.8175C30.7188 73.696 30.836 73.5266 30.917 73.3093C31.0001 73.092 31.0416 72.8374 31.0416 72.5455C31.0416 72.2536 31.0012 72 30.9202 71.7848C30.8392 71.5696 30.722 71.4034 30.5686 71.2862C30.4152 71.169 30.2288 71.1104 30.0093 71.1104C29.7856 71.1104 29.597 71.1712 29.4436 71.2926C29.2902 71.4141 29.1741 71.5824 29.0953 71.7976C29.0164 72.0128 28.977 72.2621 28.977 72.5455C28.977 72.831 29.0164 73.0835 29.0953 73.3029C29.1762 73.5202 29.2923 73.6907 29.4436 73.8143C29.597 73.9357 29.7856 73.9964 30.0093 73.9964ZM35.3499 69.5955V68.4545H40.7256V69.5955H38.7217V75H37.3538V69.5955H35.3499ZM42.3172 75.0927C42.004 75.0927 41.7249 75.0384 41.4798 74.9297C41.2348 74.8189 41.0409 74.6559 40.8982 74.4407C40.7575 74.2234 40.6872 73.9528 40.6872 73.6289C40.6872 73.3562 40.7373 73.1271 40.8374 72.9418C40.9376 72.7564 41.074 72.6072 41.2465 72.4943C41.4191 72.3814 41.6151 72.2962 41.8346 72.2386C42.0562 72.1811 42.2884 72.1406 42.5313 72.1172C42.8169 72.0874 43.047 72.0597 43.2217 72.0341C43.3964 72.0064 43.5232 71.9659 43.602 71.9126C43.6808 71.8594 43.7203 71.7805 43.7203 71.6761V71.657C43.7203 71.4545 43.6563 71.2979 43.5285 71.1871C43.4028 71.0763 43.2238 71.021 42.9916 71.021C42.7465 71.021 42.5516 71.0753 42.4067 71.1839C42.2618 71.2905 42.1659 71.4247 42.1191 71.5866L40.8598 71.4844C40.9237 71.1861 41.0494 70.9283 41.2369 70.7109C41.4244 70.4915 41.6663 70.3232 41.9624 70.206C42.2607 70.0866 42.6059 70.027 42.998 70.027C43.2707 70.027 43.5317 70.0589 43.781 70.1229C44.0324 70.1868 44.2551 70.2859 44.449 70.4201C44.645 70.5543 44.7994 70.7269 44.9124 70.9379C45.0253 71.1467 45.0818 71.397 45.0818 71.6889V75H43.7906V74.3192H43.7522C43.6734 74.4727 43.5679 74.608 43.4358 74.7251C43.3037 74.8402 43.145 74.9308 42.9596 74.9968C42.7742 75.0607 42.5601 75.0927 42.3172 75.0927ZM42.7071 74.1531C42.9074 74.1531 43.0843 74.1136 43.2377 74.0348C43.3911 73.9538 43.5115 73.8452 43.5988 73.7088C43.6862 73.5724 43.7298 73.418 43.7298 73.2454V72.7244C43.6872 72.7521 43.6286 72.7777 43.5541 72.8011C43.4816 72.8224 43.3996 72.8427 43.308 72.8619C43.2164 72.8789 43.1247 72.8949 43.0331 72.9098C42.9415 72.9226 42.8584 72.9343 42.7838 72.945C42.624 72.9684 42.4845 73.0057 42.3651 73.0568C42.2458 73.108 42.1531 73.1772 42.0871 73.2646C42.021 73.3498 41.988 73.4563 41.988 73.5842C41.988 73.7695 42.0551 73.9112 42.1894 74.0092C42.3257 74.1051 42.4983 74.1531 42.7071 74.1531ZM48.3497 76.9432C47.9086 76.9432 47.5305 76.8825 47.2151 76.761C46.9019 76.6417 46.6526 76.4787 46.4672 76.272C46.2819 76.0653 46.1615 75.8331 46.1061 75.5753L47.3653 75.4059C47.4037 75.5039 47.4644 75.5955 47.5475 75.6808C47.6306 75.766 47.7403 75.8342 47.8767 75.8853C48.0152 75.9386 48.1835 75.9652 48.3817 75.9652C48.6778 75.9652 48.9218 75.8928 49.1135 75.7479C49.3074 75.6051 49.4044 75.3654 49.4044 75.0288V74.1307H49.3469C49.2872 74.267 49.1977 74.396 49.0784 74.5174C48.9591 74.6388 48.8057 74.7379 48.6182 74.8146C48.4307 74.8913 48.2069 74.9297 47.947 74.9297C47.5784 74.9297 47.2428 74.8445 46.9403 74.674C46.6398 74.5014 46.4001 74.2383 46.2211 73.8846C46.0443 73.5288 45.9559 73.0792 45.9559 72.5359C45.9559 71.9798 46.0464 71.5153 46.2275 71.1424C46.4086 70.7695 46.6494 70.4904 46.9498 70.305C47.2524 70.1197 47.5837 70.027 47.9438 70.027C48.2187 70.027 48.4488 70.0739 48.6341 70.1676C48.8195 70.2592 48.9687 70.3743 49.0816 70.5128C49.1966 70.6491 49.2851 70.7834 49.3469 70.9155H49.398V70.0909H50.7499V75.0479C50.7499 75.4656 50.6476 75.815 50.4431 76.0962C50.2385 76.3775 49.9552 76.5884 49.593 76.729C49.2329 76.8718 48.8184 76.9432 48.3497 76.9432ZM48.3785 73.907C48.5979 73.907 48.7833 73.8526 48.9346 73.744C49.088 73.6332 49.2052 73.4755 49.2861 73.271C49.3692 73.0643 49.4108 72.8171 49.4108 72.5295C49.4108 72.2418 49.3703 71.9925 49.2893 71.7816C49.2084 71.5685 49.0912 71.4034 48.9378 71.2862C48.7844 71.169 48.5979 71.1104 48.3785 71.1104C48.1547 71.1104 47.9662 71.1712 47.8128 71.2926C47.6594 71.4119 47.5432 71.5781 47.4644 71.7912C47.3856 72.0043 47.3461 72.2504 47.3461 72.5295C47.3461 72.8129 47.3856 73.0579 47.4644 73.2646C47.5454 73.4691 47.6615 73.6278 47.8128 73.7408C47.9662 73.8516 48.1547 73.907 48.3785 73.907Z" fill="black"/>
<rect x="15.5" y="82.5" width="234" height="43" rx="3.5" fill="white" stroke="#B0B0B0"/>
<rect x="259" y="83" width="66" height="42" rx="7" stroke="#6473FF" stroke-width="2"/>
<path d="M279.979 109H278.348L282.012 98.8182H283.787L287.451 109H285.82L282.942 100.668H282.862L279.979 109ZM280.252 105.013H285.542V106.305H280.252V105.013ZM291.538 109.149C290.921 109.149 290.371 108.992 289.887 108.677C289.406 108.359 289.029 107.906 288.754 107.32C288.482 106.73 288.346 106.022 288.346 105.197C288.346 104.371 288.483 103.665 288.759 103.079C289.037 102.492 289.418 102.043 289.902 101.732C290.386 101.42 290.934 101.264 291.548 101.264C292.022 101.264 292.403 101.344 292.691 101.503C292.983 101.659 293.208 101.841 293.367 102.05C293.53 102.259 293.656 102.442 293.745 102.602H293.835V98.8182H295.321V109H293.869V107.812H293.745C293.656 107.974 293.526 108.16 293.357 108.369C293.192 108.577 292.963 108.76 292.671 108.915C292.379 109.071 292.002 109.149 291.538 109.149ZM291.866 107.881C292.293 107.881 292.655 107.769 292.95 107.543C293.248 107.315 293.473 106.998 293.626 106.594C293.781 106.189 293.859 105.719 293.859 105.182C293.859 104.652 293.783 104.187 293.631 103.79C293.478 103.392 293.254 103.082 292.96 102.86C292.665 102.638 292.3 102.527 291.866 102.527C291.418 102.527 291.045 102.643 290.747 102.875C290.449 103.107 290.223 103.424 290.071 103.825C289.922 104.226 289.847 104.678 289.847 105.182C289.847 105.692 289.924 106.151 290.076 106.559C290.228 106.967 290.454 107.29 290.752 107.528C291.054 107.764 291.425 107.881 291.866 107.881ZM300.301 109.149C299.685 109.149 299.135 108.992 298.651 108.677C298.17 108.359 297.792 107.906 297.517 107.32C297.245 106.73 297.11 106.022 297.11 105.197C297.11 104.371 297.247 103.665 297.522 103.079C297.801 102.492 298.182 102.043 298.666 101.732C299.15 101.42 299.698 101.264 300.311 101.264C300.785 101.264 301.166 101.344 301.455 101.503C301.746 101.659 301.972 101.841 302.131 102.05C302.293 102.259 302.419 102.442 302.509 102.602H302.598V98.8182H304.085V109H302.633V107.812H302.509C302.419 107.974 302.29 108.16 302.121 108.369C301.955 108.577 301.727 108.76 301.435 108.915C301.143 109.071 300.765 109.149 300.301 109.149ZM300.629 107.881C301.057 107.881 301.418 107.769 301.713 107.543C302.012 107.315 302.237 106.998 302.389 106.594C302.545 106.189 302.623 105.719 302.623 105.182C302.623 104.652 302.547 104.187 302.394 103.79C302.242 103.392 302.018 103.082 301.723 102.86C301.428 102.638 301.064 102.527 300.629 102.527C300.182 102.527 299.809 102.643 299.511 102.875C299.213 103.107 298.987 103.424 298.835 103.825C298.686 104.226 298.611 104.678 298.611 105.182C298.611 105.692 298.687 106.151 298.84 106.559C298.992 106.967 299.218 107.29 299.516 107.528C299.817 107.764 300.189 107.881 300.629 107.881Z" fill="#6473FF"/>
<rect x="15" y="146" width="140" height="32" rx="16" fill="#E9E9EF"/>
<path d="M32.2813 161.465L31.2227 161.652C31.1784 161.517 31.1081 161.388 31.0117 161.266C30.918 161.143 30.7904 161.043 30.6289 160.965C30.4674 160.887 30.2656 160.848 30.0234 160.848C29.6927 160.848 29.4167 160.922 29.1953 161.07C28.974 161.216 28.8633 161.405 28.8633 161.637C28.8633 161.837 28.9375 161.999 29.0859 162.121C29.2344 162.243 29.474 162.344 29.8047 162.422L30.7578 162.641C31.3099 162.768 31.7214 162.965 31.9922 163.23C32.263 163.496 32.3984 163.841 32.3984 164.266C32.3984 164.625 32.2943 164.945 32.0859 165.227C31.8802 165.505 31.5924 165.724 31.2227 165.883C30.8555 166.042 30.4297 166.121 29.9453 166.121C29.2734 166.121 28.7253 165.978 28.3008 165.691C27.8763 165.402 27.6159 164.992 27.5195 164.461L28.6484 164.289C28.7188 164.583 28.8633 164.806 29.082 164.957C29.3008 165.105 29.5859 165.18 29.9375 165.18C30.3203 165.18 30.6263 165.1 30.8555 164.941C31.0846 164.78 31.1992 164.583 31.1992 164.352C31.1992 164.164 31.1289 164.007 30.9883 163.879C30.8503 163.751 30.638 163.655 30.3516 163.59L29.3359 163.367C28.776 163.24 28.362 163.036 28.0938 162.758C27.8281 162.479 27.6953 162.126 27.6953 161.699C27.6953 161.345 27.7943 161.035 27.9922 160.77C28.1901 160.504 28.4635 160.297 28.8125 160.148C29.1615 159.997 29.5612 159.922 30.0117 159.922C30.6602 159.922 31.1706 160.062 31.543 160.344C31.9154 160.622 32.1615 160.996 32.2813 161.465ZM36.4834 160V160.937H33.2061V160H36.4834ZM34.085 158.562H35.2529V164.238C35.2529 164.465 35.2868 164.635 35.3545 164.75C35.4222 164.862 35.5094 164.939 35.6162 164.98C35.7256 165.02 35.8441 165.039 35.9717 165.039C36.0654 165.039 36.1475 165.033 36.2178 165.02C36.2881 165.007 36.3428 164.996 36.3818 164.988L36.5928 165.953C36.5251 165.979 36.4287 166.005 36.3037 166.031C36.1787 166.06 36.0225 166.076 35.835 166.078C35.5277 166.083 35.2412 166.029 34.9756 165.914C34.71 165.799 34.4951 165.622 34.3311 165.383C34.167 165.143 34.085 164.842 34.085 164.48V158.562ZM37.7754 166V160H38.9043V160.953H38.9668C39.0762 160.63 39.2689 160.376 39.5449 160.191C39.8236 160.004 40.1387 159.91 40.4902 159.91C40.5632 159.91 40.6491 159.913 40.748 159.918C40.8496 159.923 40.929 159.93 40.9863 159.937V161.055C40.9395 161.042 40.8561 161.027 40.7363 161.012C40.6165 160.993 40.4967 160.984 40.377 160.984C40.1009 160.984 39.8548 161.043 39.6387 161.16C39.4251 161.275 39.2559 161.435 39.1309 161.641C39.0059 161.844 38.9434 162.076 38.9434 162.336V166H37.7754ZM44.3682 166.121C43.777 166.121 43.2679 165.995 42.8408 165.742C42.4163 165.487 42.0882 165.129 41.8564 164.668C41.6273 164.204 41.5127 163.661 41.5127 163.039C41.5127 162.424 41.6273 161.883 41.8564 161.414C42.0882 160.945 42.4111 160.579 42.8252 160.316C43.2419 160.053 43.7288 159.922 44.2861 159.922C44.6247 159.922 44.9528 159.978 45.2705 160.09C45.5882 160.202 45.8734 160.378 46.126 160.617C46.3786 160.857 46.5778 161.168 46.7236 161.551C46.8695 161.931 46.9424 162.393 46.9424 162.937V163.352H42.1729V162.477H45.7979C45.7979 162.169 45.7354 161.897 45.6104 161.66C45.4854 161.421 45.3096 161.232 45.083 161.094C44.859 160.956 44.596 160.887 44.2939 160.887C43.9658 160.887 43.6794 160.967 43.4346 161.129C43.1924 161.288 43.0049 161.496 42.8721 161.754C42.7419 162.009 42.6768 162.286 42.6768 162.586V163.27C42.6768 163.671 42.7471 164.012 42.8877 164.293C43.0309 164.574 43.2301 164.789 43.4854 164.937C43.7406 165.083 44.0387 165.156 44.3799 165.156C44.6012 165.156 44.8031 165.125 44.9854 165.062C45.1676 164.997 45.3252 164.901 45.458 164.773C45.5908 164.646 45.6924 164.488 45.7627 164.301L46.8682 164.5C46.7796 164.826 46.6208 165.111 46.3916 165.355C46.165 165.598 45.8799 165.786 45.5361 165.922C45.195 166.055 44.8057 166.121 44.3682 166.121ZM50.8242 166.121C50.2331 166.121 49.724 165.995 49.2969 165.742C48.8724 165.487 48.5443 165.129 48.3125 164.668C48.0833 164.204 47.9688 163.661 47.9688 163.039C47.9688 162.424 48.0833 161.883 48.3125 161.414C48.5443 160.945 48.8672 160.579 49.2813 160.316C49.6979 160.053 50.1849 159.922 50.7422 159.922C51.0807 159.922 51.4089 159.978 51.7266 160.09C52.0443 160.202 52.3294 160.378 52.582 160.617C52.8346 160.857 53.0339 161.168 53.1797 161.551C53.3255 161.931 53.3984 162.393 53.3984 162.937V163.352H48.6289V162.477H52.2539C52.2539 162.169 52.1914 161.897 52.0664 161.66C51.9414 161.421 51.7656 161.232 51.5391 161.094C51.3151 160.956 51.0521 160.887 50.75 160.887C50.4219 160.887 50.1354 160.967 49.8906 161.129C49.6484 161.288 49.4609 161.496 49.3281 161.754C49.1979 162.009 49.1328 162.286 49.1328 162.586V163.27C49.1328 163.671 49.2031 164.012 49.3438 164.293C49.487 164.574 49.6862 164.789 49.9414 164.937C50.1966 165.083 50.4948 165.156 50.8359 165.156C51.0573 165.156 51.2591 165.125 51.4414 165.062C51.6237 164.997 51.7813 164.901 51.9141 164.773C52.0469 164.646 52.1484 164.488 52.2188 164.301L53.3242 164.5C53.2357 164.826 53.0768 165.111 52.8477 165.355C52.6211 165.598 52.3359 165.786 51.9922 165.922C51.651 166.055 51.2617 166.121 50.8242 166.121ZM57.4951 160V160.937H54.2178V160H57.4951ZM55.0967 158.562H56.2646V164.238C56.2646 164.465 56.2985 164.635 56.3662 164.75C56.4339 164.862 56.5212 164.939 56.6279 164.98C56.7373 165.02 56.8558 165.039 56.9834 165.039C57.0771 165.039 57.1592 165.033 57.2295 165.02C57.2998 165.007 57.3545 164.996 57.3936 164.988L57.6045 165.953C57.5368 165.979 57.4404 166.005 57.3154 166.031C57.1904 166.06 57.0342 166.076 56.8467 166.078C56.5394 166.083 56.2529 166.029 55.9873 165.914C55.7217 165.799 55.5068 165.622 55.3428 165.383C55.1787 165.143 55.0967 164.842 55.0967 164.48V158.562ZM62.1182 162.113V163.125H58.5713V162.113H62.1182ZM68.1709 161.465L67.1123 161.652C67.068 161.517 66.9977 161.388 66.9014 161.266C66.8076 161.143 66.68 161.043 66.5186 160.965C66.3571 160.887 66.1553 160.848 65.9131 160.848C65.5824 160.848 65.3063 160.922 65.085 161.07C64.8636 161.216 64.7529 161.405 64.7529 161.637C64.7529 161.837 64.8271 161.999 64.9756 162.121C65.124 162.243 65.3636 162.344 65.6943 162.422L66.6475 162.641C67.1995 162.768 67.611 162.965 67.8818 163.23C68.1527 163.496 68.2881 163.841 68.2881 164.266C68.2881 164.625 68.1839 164.945 67.9756 165.227C67.7699 165.505 67.4821 165.724 67.1123 165.883C66.7451 166.042 66.3193 166.121 65.835 166.121C65.1631 166.121 64.6149 165.978 64.1904 165.691C63.766 165.402 63.5055 164.992 63.4092 164.461L64.5381 164.289C64.6084 164.583 64.7529 164.806 64.9717 164.957C65.1904 165.105 65.4756 165.18 65.8271 165.18C66.21 165.18 66.516 165.1 66.7451 164.941C66.9743 164.78 67.0889 164.583 67.0889 164.352C67.0889 164.164 67.0186 164.007 66.8779 163.879C66.7399 163.751 66.5277 163.655 66.2412 163.59L65.2256 163.367C64.6657 163.24 64.2516 163.036 63.9834 162.758C63.7178 162.479 63.585 162.126 63.585 161.699C63.585 161.345 63.6839 161.035 63.8818 160.77C64.0798 160.504 64.3532 160.297 64.7021 160.148C65.0511 159.997 65.4508 159.922 65.9014 159.922C66.5498 159.922 67.0602 160.062 67.4326 160.344C67.805 160.622 68.0511 160.996 68.1709 161.465ZM69.5723 166V160H70.7402V166H69.5723ZM70.1621 159.074C69.959 159.074 69.7845 159.007 69.6387 158.871C69.4954 158.733 69.4238 158.569 69.4238 158.379C69.4238 158.186 69.4954 158.022 69.6387 157.887C69.7845 157.749 69.959 157.68 70.1621 157.68C70.3652 157.68 70.5384 157.749 70.6816 157.887C70.8275 158.022 70.9004 158.186 70.9004 158.379C70.9004 158.569 70.8275 158.733 70.6816 158.871C70.5384 159.007 70.3652 159.074 70.1621 159.074ZM74.5576 166.117C74.0732 166.117 73.641 165.993 73.2607 165.746C72.8831 165.496 72.5863 165.141 72.3701 164.68C72.1566 164.216 72.0498 163.66 72.0498 163.012C72.0498 162.363 72.1579 161.809 72.374 161.348C72.5928 160.887 72.8923 160.534 73.2725 160.289C73.6527 160.044 74.0837 159.922 74.5654 159.922C74.9378 159.922 75.2373 159.984 75.4639 160.109C75.693 160.232 75.8701 160.375 75.9951 160.539C76.1227 160.703 76.2217 160.848 76.292 160.973H76.3623V158H77.5303V166H76.3896V165.066H76.292C76.2217 165.194 76.1201 165.34 75.9873 165.504C75.8571 165.668 75.6774 165.811 75.4482 165.934C75.2191 166.056 74.9222 166.117 74.5576 166.117ZM74.8154 165.121C75.1514 165.121 75.4352 165.033 75.667 164.855C75.9014 164.676 76.0785 164.427 76.1982 164.109C76.3206 163.792 76.3818 163.422 76.3818 163C76.3818 162.583 76.3219 162.219 76.2021 161.906C76.0824 161.594 75.9066 161.35 75.6748 161.176C75.443 161.001 75.1566 160.914 74.8154 160.914C74.4639 160.914 74.1709 161.005 73.9365 161.188C73.7021 161.37 73.5251 161.618 73.4053 161.934C73.2881 162.249 73.2295 162.604 73.2295 163C73.2295 163.401 73.2894 163.762 73.4092 164.082C73.529 164.402 73.7061 164.656 73.9404 164.844C74.1774 165.029 74.4691 165.121 74.8154 165.121ZM81.7832 166.121C81.1921 166.121 80.6829 165.995 80.2559 165.742C79.8314 165.487 79.5033 165.129 79.2715 164.668C79.0423 164.204 78.9277 163.661 78.9277 163.039C78.9277 162.424 79.0423 161.883 79.2715 161.414C79.5033 160.945 79.8262 160.579 80.2402 160.316C80.6569 160.053 81.1439 159.922 81.7012 159.922C82.0397 159.922 82.3678 159.978 82.6855 160.09C83.0033 160.202 83.2884 160.378 83.541 160.617C83.7936 160.857 83.9928 161.168 84.1387 161.551C84.2845 161.931 84.3574 162.393 84.3574 162.937V163.352H79.5879V162.477H83.2129C83.2129 162.169 83.1504 161.897 83.0254 161.66C82.9004 161.421 82.7246 161.232 82.498 161.094C82.2741 160.956 82.0111 160.887 81.709 160.887C81.3809 160.887 81.0944 160.967 80.8496 161.129C80.6074 161.288 80.4199 161.496 80.2871 161.754C80.1569 162.009 80.0918 162.286 80.0918 162.586V163.27C80.0918 163.671 80.1621 164.012 80.3027 164.293C80.446 164.574 80.6452 164.789 80.9004 164.937C81.1556 165.083 81.4538 165.156 81.7949 165.156C82.0163 165.156 82.2181 165.125 82.4004 165.062C82.5827 164.997 82.7402 164.901 82.873 164.773C83.0059 164.646 83.1074 164.488 83.1777 164.301L84.2832 164.5C84.1947 164.826 84.0358 165.111 83.8066 165.355C83.5801 165.598 83.2949 165.786 82.9512 165.922C82.61 166.055 82.2207 166.121 81.7832 166.121ZM89.1885 162.113V163.125H85.6416V162.113H89.1885ZM95.2412 161.465L94.1826 161.652C94.1383 161.517 94.068 161.388 93.9717 161.266C93.8779 161.143 93.7503 161.043 93.5889 160.965C93.4274 160.887 93.2256 160.848 92.9834 160.848C92.6527 160.848 92.3766 160.922 92.1553 161.07C91.9339 161.216 91.8232 161.405 91.8232 161.637C91.8232 161.837 91.8975 161.999 92.0459 162.121C92.1943 162.243 92.4339 162.344 92.7646 162.422L93.7178 162.641C94.2699 162.768 94.6813 162.965 94.9521 163.23C95.223 163.496 95.3584 163.841 95.3584 164.266C95.3584 164.625 95.2542 164.945 95.0459 165.227C94.8402 165.505 94.5524 165.724 94.1826 165.883C93.8154 166.042 93.3896 166.121 92.9053 166.121C92.2334 166.121 91.6852 165.978 91.2607 165.691C90.8363 165.402 90.5758 164.992 90.4795 164.461L91.6084 164.289C91.6787 164.583 91.8232 164.806 92.042 164.957C92.2607 165.105 92.5459 165.18 92.8975 165.18C93.2803 165.18 93.5863 165.1 93.8154 164.941C94.0446 164.78 94.1592 164.583 94.1592 164.352C94.1592 164.164 94.0889 164.007 93.9482 163.879C93.8102 163.751 93.598 163.655 93.3115 163.59L92.2959 163.367C91.736 163.24 91.3219 163.036 91.0537 162.758C90.7881 162.479 90.6553 162.126 90.6553 161.699C90.6553 161.345 90.7542 161.035 90.9521 160.77C91.1501 160.504 91.4235 160.297 91.7725 160.148C92.1214 159.997 92.5212 159.922 92.9717 159.922C93.6201 159.922 94.1305 160.062 94.5029 160.344C94.8753 160.622 95.1214 160.996 95.2412 161.465ZM99.4434 160V160.937H96.166V160H99.4434ZM97.0449 158.562H98.2129V164.238C98.2129 164.465 98.2467 164.635 98.3145 164.75C98.3822 164.862 98.4694 164.939 98.5762 164.98C98.6855 165.02 98.804 165.039 98.9316 165.039C99.0254 165.039 99.1074 165.033 99.1777 165.02C99.248 165.007 99.3027 164.996 99.3418 164.988L99.5527 165.953C99.485 165.979 99.3887 166.005 99.2637 166.031C99.1387 166.06 98.9824 166.076 98.7949 166.078C98.4876 166.083 98.2012 166.029 97.9355 165.914C97.6699 165.799 97.4551 165.622 97.291 165.383C97.127 165.143 97.0449 164.842 97.0449 164.48V158.562ZM104.536 163.512V160H105.708V166H104.56V164.961H104.497C104.359 165.281 104.138 165.548 103.833 165.762C103.531 165.973 103.155 166.078 102.704 166.078C102.319 166.078 101.978 165.993 101.681 165.824C101.386 165.652 101.155 165.398 100.985 165.062C100.819 164.727 100.735 164.311 100.735 163.816V160H101.903V163.676C101.903 164.085 102.017 164.41 102.243 164.652C102.47 164.895 102.764 165.016 103.126 165.016C103.345 165.016 103.562 164.961 103.778 164.852C103.997 164.742 104.178 164.577 104.321 164.355C104.467 164.134 104.539 163.853 104.536 163.512ZM109.523 166.117C109.039 166.117 108.607 165.993 108.227 165.746C107.849 165.496 107.552 165.141 107.336 164.68C107.122 164.216 107.016 163.66 107.016 163.012C107.016 162.363 107.124 161.809 107.34 161.348C107.559 160.887 107.858 160.534 108.238 160.289C108.618 160.044 109.049 159.922 109.531 159.922C109.904 159.922 110.203 159.984 110.43 160.109C110.659 160.232 110.836 160.375 110.961 160.539C111.089 160.703 111.188 160.848 111.258 160.973H111.328V158H112.496V166H111.355V165.066H111.258C111.188 165.194 111.086 165.34 110.953 165.504C110.823 165.668 110.643 165.811 110.414 165.934C110.185 166.056 109.888 166.117 109.523 166.117ZM109.781 165.121C110.117 165.121 110.401 165.033 110.633 164.855C110.867 164.676 111.044 164.427 111.164 164.109C111.286 163.792 111.348 163.422 111.348 163C111.348 162.583 111.288 162.219 111.168 161.906C111.048 161.594 110.872 161.35 110.641 161.176C110.409 161.001 110.122 160.914 109.781 160.914C109.43 160.914 109.137 161.005 108.902 161.188C108.668 161.37 108.491 161.618 108.371 161.934C108.254 162.249 108.195 162.604 108.195 163C108.195 163.401 108.255 163.762 108.375 164.082C108.495 164.402 108.672 164.656 108.906 164.844C109.143 165.029 109.435 165.121 109.781 165.121ZM114.163 166V160H115.331V166H114.163ZM114.753 159.074C114.55 159.074 114.375 159.007 114.229 158.871C114.086 158.733 114.015 158.569 114.015 158.379C114.015 158.186 114.086 158.022 114.229 157.887C114.375 157.749 114.55 157.68 114.753 157.68C114.956 157.68 115.129 157.749 115.272 157.887C115.418 158.022 115.491 158.186 115.491 158.379C115.491 158.569 115.418 158.733 115.272 158.871C115.129 159.007 114.956 159.074 114.753 159.074ZM119.43 166.121C118.867 166.121 118.376 165.992 117.957 165.734C117.538 165.477 117.212 165.116 116.98 164.652C116.749 164.189 116.633 163.647 116.633 163.027C116.633 162.405 116.749 161.861 116.98 161.395C117.212 160.928 117.538 160.566 117.957 160.309C118.376 160.051 118.867 159.922 119.43 159.922C119.992 159.922 120.483 160.051 120.902 160.309C121.322 160.566 121.647 160.928 121.879 161.395C122.111 161.861 122.227 162.405 122.227 163.027C122.227 163.647 122.111 164.189 121.879 164.652C121.647 165.116 121.322 165.477 120.902 165.734C120.483 165.992 119.992 166.121 119.43 166.121ZM119.434 165.141C119.798 165.141 120.1 165.044 120.34 164.852C120.579 164.659 120.757 164.402 120.871 164.082C120.988 163.762 121.047 163.409 121.047 163.023C121.047 162.641 120.988 162.289 120.871 161.969C120.757 161.646 120.579 161.387 120.34 161.191C120.1 160.996 119.798 160.898 119.434 160.898C119.066 160.898 118.762 160.996 118.52 161.191C118.28 161.387 118.102 161.646 117.984 161.969C117.87 162.289 117.813 162.641 117.813 163.023C117.813 163.409 117.87 163.762 117.984 164.082C118.102 164.402 118.28 164.659 118.52 164.852C118.762 165.044 119.066 165.141 119.434 165.141Z" fill="#3D3D3D"/>
<path d="M141.666 162.001C141.666 165.683 138.682 168.667 135 168.667C131.318 168.667 128.333 165.683 128.333 162.001C128.333 158.319 131.318 155.334 135 155.334C138.682 155.334 141.666 158.319 141.666 162.001Z" fill="black" fill-opacity="0.3" style="mix-blend-mode:multiply"/>
<path d="M137 160L135 162M135 162L133 164M135 162L133 160M135 162L137 164" stroke="black" stroke-opacity="0.5" stroke-width="1.33333" stroke-linecap="round" stroke-linejoin="round"/>
<rect x="167" y="146" width="121" height="32" rx="16" fill="#E9E9EF"/>
<path d="M179.785 168.25V160H180.926V160.973H181.023C181.091 160.848 181.189 160.703 181.316 160.539C181.444 160.375 181.621 160.232 181.848 160.109C182.074 159.984 182.374 159.922 182.746 159.922C183.23 159.922 183.663 160.044 184.043 160.289C184.423 160.534 184.721 160.887 184.938 161.348C185.156 161.809 185.266 162.363 185.266 163.012C185.266 163.66 185.158 164.216 184.941 164.68C184.725 165.141 184.428 165.496 184.051 165.746C183.673 165.993 183.242 166.117 182.758 166.117C182.393 166.117 182.095 166.056 181.863 165.934C181.634 165.811 181.454 165.668 181.324 165.504C181.194 165.34 181.094 165.194 181.023 165.066H180.953V168.25H179.785ZM180.93 163C180.93 163.422 180.991 163.792 181.113 164.109C181.236 164.427 181.413 164.676 181.645 164.855C181.876 165.033 182.16 165.121 182.496 165.121C182.845 165.121 183.137 165.029 183.371 164.844C183.605 164.656 183.783 164.402 183.902 164.082C184.025 163.762 184.086 163.401 184.086 163C184.086 162.604 184.026 162.249 183.906 161.934C183.789 161.618 183.612 161.37 183.375 161.188C183.141 161.005 182.848 160.914 182.496 160.914C182.158 160.914 181.871 161.001 181.637 161.176C181.405 161.35 181.229 161.594 181.109 161.906C180.99 162.219 180.93 162.583 180.93 163ZM186.574 166V160H187.703V160.953H187.766C187.875 160.63 188.068 160.376 188.344 160.191C188.622 160.004 188.938 159.91 189.289 159.91C189.362 159.91 189.448 159.913 189.547 159.918C189.648 159.923 189.728 159.93 189.785 159.937V161.055C189.738 161.042 189.655 161.027 189.535 161.012C189.415 160.993 189.296 160.984 189.176 160.984C188.9 160.984 188.654 161.043 188.438 161.16C188.224 161.275 188.055 161.435 187.93 161.641C187.805 161.844 187.742 162.076 187.742 162.336V166H186.574ZM193.108 166.121C192.546 166.121 192.055 165.992 191.636 165.734C191.216 165.477 190.891 165.116 190.659 164.652C190.427 164.189 190.312 163.647 190.312 163.027C190.312 162.405 190.427 161.861 190.659 161.395C190.891 160.928 191.216 160.566 191.636 160.309C192.055 160.051 192.546 159.922 193.108 159.922C193.671 159.922 194.162 160.051 194.581 160.309C195 160.566 195.326 160.928 195.558 161.395C195.789 161.861 195.905 162.405 195.905 163.027C195.905 163.647 195.789 164.189 195.558 164.652C195.326 165.116 195 165.477 194.581 165.734C194.162 165.992 193.671 166.121 193.108 166.121ZM193.112 165.141C193.477 165.141 193.779 165.044 194.019 164.852C194.258 164.659 194.435 164.402 194.55 164.082C194.667 163.762 194.726 163.409 194.726 163.023C194.726 162.641 194.667 162.289 194.55 161.969C194.435 161.646 194.258 161.387 194.019 161.191C193.779 160.996 193.477 160.898 193.112 160.898C192.745 160.898 192.44 160.996 192.198 161.191C191.959 161.387 191.78 161.646 191.663 161.969C191.549 162.289 191.491 162.641 191.491 163.023C191.491 163.409 191.549 163.762 191.663 164.082C191.78 164.402 191.959 164.659 192.198 164.852C192.44 165.044 192.745 165.141 193.112 165.141ZM199.455 166.117C198.971 166.117 198.538 165.993 198.158 165.746C197.781 165.496 197.484 165.141 197.268 164.68C197.054 164.216 196.947 163.66 196.947 163.012C196.947 162.363 197.055 161.809 197.271 161.348C197.49 160.887 197.79 160.534 198.17 160.289C198.55 160.044 198.981 159.922 199.463 159.922C199.835 159.922 200.135 159.984 200.361 160.109C200.59 160.232 200.768 160.375 200.893 160.539C201.02 160.703 201.119 160.848 201.189 160.973H201.26V158H202.428V166H201.287V165.066H201.189C201.119 165.194 201.018 165.34 200.885 165.504C200.755 165.668 200.575 165.811 200.346 165.934C200.117 166.056 199.82 166.117 199.455 166.117ZM199.713 165.121C200.049 165.121 200.333 165.033 200.564 164.855C200.799 164.676 200.976 164.427 201.096 164.109C201.218 163.792 201.279 163.422 201.279 163C201.279 162.583 201.219 162.219 201.1 161.906C200.98 161.594 200.804 161.35 200.572 161.176C200.34 161.001 200.054 160.914 199.713 160.914C199.361 160.914 199.068 161.005 198.834 161.188C198.6 161.37 198.423 161.618 198.303 161.934C198.186 162.249 198.127 162.604 198.127 163C198.127 163.401 198.187 163.762 198.307 164.082C198.426 164.402 198.604 164.656 198.838 164.844C199.075 165.029 199.367 165.121 199.713 165.121ZM207.896 163.512V160H209.067V166H207.919V164.961H207.856C207.718 165.281 207.497 165.548 207.192 165.762C206.89 165.973 206.514 166.078 206.063 166.078C205.678 166.078 205.337 165.993 205.04 165.824C204.746 165.652 204.514 165.398 204.345 165.062C204.178 164.727 204.095 164.311 204.095 163.816V160H205.263V163.676C205.263 164.085 205.376 164.41 205.603 164.652C205.829 164.895 206.123 165.016 206.485 165.016C206.704 165.016 206.922 164.961 207.138 164.852C207.356 164.742 207.537 164.577 207.681 164.355C207.826 164.134 207.898 163.853 207.896 163.512ZM213.164 166.121C212.583 166.121 212.083 165.99 211.664 165.727C211.247 165.461 210.927 165.095 210.703 164.629C210.479 164.163 210.367 163.629 210.367 163.027C210.367 162.418 210.482 161.88 210.711 161.414C210.94 160.945 211.263 160.579 211.68 160.316C212.096 160.053 212.587 159.922 213.152 159.922C213.608 159.922 214.014 160.007 214.371 160.176C214.728 160.342 215.016 160.577 215.234 160.879C215.456 161.181 215.587 161.534 215.629 161.937H214.492C214.43 161.656 214.286 161.414 214.062 161.211C213.841 161.008 213.544 160.906 213.172 160.906C212.846 160.906 212.561 160.992 212.316 161.164C212.074 161.333 211.885 161.576 211.75 161.891C211.615 162.203 211.547 162.573 211.547 163C211.547 163.437 211.613 163.815 211.746 164.133C211.879 164.451 212.066 164.697 212.309 164.871C212.553 165.046 212.841 165.133 213.172 165.133C213.393 165.133 213.594 165.092 213.773 165.012C213.956 164.928 214.108 164.81 214.23 164.656C214.355 164.503 214.443 164.318 214.492 164.102H215.629C215.587 164.49 215.461 164.836 215.25 165.141C215.039 165.445 214.757 165.685 214.402 165.859C214.051 166.034 213.638 166.121 213.164 166.121ZM219.679 160V160.937H216.401V160H219.679ZM217.28 158.562H218.448V164.238C218.448 164.465 218.482 164.635 218.55 164.75C218.618 164.862 218.705 164.939 218.812 164.98C218.921 165.02 219.039 165.039 219.167 165.039C219.261 165.039 219.343 165.033 219.413 165.02C219.483 165.007 219.538 164.996 219.577 164.988L219.788 165.953C219.72 165.979 219.624 166.005 219.499 166.031C219.374 166.06 219.218 166.076 219.03 166.078C218.723 166.083 218.437 166.029 218.171 165.914C217.905 165.799 217.69 165.622 217.526 165.383C217.362 165.143 217.28 164.842 217.28 164.48V158.562ZM224.302 162.113V163.125H220.755V162.113H224.302ZM225.858 168.25V160H226.999V160.973H227.097C227.164 160.848 227.262 160.703 227.39 160.539C227.517 160.375 227.694 160.232 227.921 160.109C228.147 159.984 228.447 159.922 228.819 159.922C229.304 159.922 229.736 160.044 230.116 160.289C230.496 160.534 230.795 160.887 231.011 161.348C231.229 161.809 231.339 162.363 231.339 163.012C231.339 163.66 231.231 164.216 231.015 164.68C230.799 165.141 230.502 165.496 230.124 165.746C229.746 165.993 229.315 166.117 228.831 166.117C228.466 166.117 228.168 166.056 227.937 165.934C227.707 165.811 227.528 165.668 227.397 165.504C227.267 165.34 227.167 165.194 227.097 165.066H227.026V168.25H225.858ZM227.003 163C227.003 163.422 227.064 163.792 227.187 164.109C227.309 164.427 227.486 164.676 227.718 164.855C227.95 165.033 228.233 165.121 228.569 165.121C228.918 165.121 229.21 165.029 229.444 164.844C229.679 164.656 229.856 164.402 229.976 164.082C230.098 163.762 230.159 163.401 230.159 163C230.159 162.604 230.099 162.249 229.979 161.934C229.862 161.618 229.685 161.37 229.448 161.188C229.214 161.005 228.921 160.914 228.569 160.914C228.231 160.914 227.944 161.001 227.71 161.176C227.478 161.35 227.302 161.594 227.183 161.906C227.063 162.219 227.003 162.583 227.003 163ZM233.815 162.437V166H232.647V158H233.8V160.977H233.874C234.015 160.654 234.229 160.397 234.519 160.207C234.808 160.017 235.185 159.922 235.651 159.922C236.063 159.922 236.422 160.007 236.729 160.176C237.039 160.345 237.279 160.598 237.448 160.934C237.62 161.267 237.706 161.684 237.706 162.184V166H236.538V162.324C236.538 161.884 236.425 161.543 236.198 161.301C235.972 161.056 235.657 160.934 235.253 160.934C234.977 160.934 234.729 160.992 234.511 161.109C234.295 161.227 234.124 161.398 233.999 161.625C233.877 161.849 233.815 162.12 233.815 162.437ZM241.792 166.121C241.229 166.121 240.739 165.992 240.319 165.734C239.9 165.477 239.575 165.116 239.343 164.652C239.111 164.189 238.995 163.647 238.995 163.027C238.995 162.405 239.111 161.861 239.343 161.395C239.575 160.928 239.9 160.566 240.319 160.309C240.739 160.051 241.229 159.922 241.792 159.922C242.354 159.922 242.845 160.051 243.265 160.309C243.684 160.566 244.009 160.928 244.241 161.395C244.473 161.861 244.589 162.405 244.589 163.027C244.589 163.647 244.473 164.189 244.241 164.652C244.009 165.116 243.684 165.477 243.265 165.734C242.845 165.992 242.354 166.121 241.792 166.121ZM241.796 165.141C242.16 165.141 242.463 165.044 242.702 164.852C242.942 164.659 243.119 164.402 243.233 164.082C243.351 163.762 243.409 163.409 243.409 163.023C243.409 162.641 243.351 162.289 243.233 161.969C243.119 161.646 242.942 161.387 242.702 161.191C242.463 160.996 242.16 160.898 241.796 160.898C241.429 160.898 241.124 160.996 240.882 161.191C240.642 161.387 240.464 161.646 240.347 161.969C240.232 162.289 240.175 162.641 240.175 163.023C240.175 163.409 240.232 163.762 240.347 164.082C240.464 164.402 240.642 164.659 240.882 164.852C241.124 165.044 241.429 165.141 241.796 165.141ZM248.693 160V160.937H245.416V160H248.693ZM246.295 158.562H247.463V164.238C247.463 164.465 247.497 164.635 247.564 164.75C247.632 164.862 247.719 164.939 247.826 164.98C247.936 165.02 248.054 165.039 248.182 165.039C248.275 165.039 248.357 165.033 248.428 165.02C248.498 165.007 248.553 164.996 248.592 164.988L248.803 165.953C248.735 165.979 248.639 166.005 248.514 166.031C248.389 166.06 248.232 166.076 248.045 166.078C247.738 166.083 247.451 166.029 247.186 165.914C246.92 165.799 246.705 165.622 246.541 165.383C246.377 165.143 246.295 164.842 246.295 164.48V158.562ZM252.448 166.121C251.886 166.121 251.395 165.992 250.976 165.734C250.556 165.477 250.231 165.116 249.999 164.652C249.767 164.189 249.651 163.647 249.651 163.027C249.651 162.405 249.767 161.861 249.999 161.395C250.231 160.928 250.556 160.566 250.976 160.309C251.395 160.051 251.886 159.922 252.448 159.922C253.011 159.922 253.502 160.051 253.921 160.309C254.34 160.566 254.666 160.928 254.897 161.395C255.129 161.861 255.245 162.405 255.245 163.027C255.245 163.647 255.129 164.189 254.897 164.652C254.666 165.116 254.34 165.477 253.921 165.734C253.502 165.992 253.011 166.121 252.448 166.121ZM252.452 165.141C252.817 165.141 253.119 165.044 253.358 164.852C253.598 164.659 253.775 164.402 253.89 164.082C254.007 163.762 254.065 163.409 254.065 163.023C254.065 162.641 254.007 162.289 253.89 161.969C253.775 161.646 253.598 161.387 253.358 161.191C253.119 160.996 252.817 160.898 252.452 160.898C252.085 160.898 251.78 160.996 251.538 161.191C251.299 161.387 251.12 161.646 251.003 161.969C250.888 162.289 250.831 162.641 250.831 163.023C250.831 163.409 250.888 163.762 251.003 164.082C251.12 164.402 251.299 164.659 251.538 164.852C251.78 165.044 252.085 165.141 252.452 165.141Z" fill="#3D3D3D"/>
<path d="M274.666 162.001C274.666 165.683 271.682 168.667 268 168.667C264.318 168.667 261.333 165.683 261.333 162.001C261.333 158.319 264.318 155.334 268 155.334C271.682 155.334 274.666 158.319 274.666 162.001Z" fill="black" fill-opacity="0.3" style="mix-blend-mode:multiply"/>
<path d="M270 160L268 162M268 162L266 164M268 162L266 160M268 162L270 164" stroke="black" stroke-opacity="0.5" stroke-width="1.33333" stroke-linecap="round" stroke-linejoin="round"/>
<rect x="15" y="190" width="74" height="32" rx="16" fill="#E9E9EF"/>
<path d="M30.6406 204V204.937H27.25V204H30.6406ZM28.1797 210V203.305C28.1797 202.93 28.2617 202.618 28.4258 202.371C28.5898 202.121 28.8073 201.935 29.0781 201.812C29.349 201.687 29.6432 201.625 29.9609 201.625C30.1953 201.625 30.3958 201.645 30.5625 201.684C30.7292 201.72 30.8529 201.754 30.9336 201.785L30.6602 202.73C30.6055 202.715 30.5352 202.697 30.4492 202.676C30.3633 202.652 30.2591 202.641 30.1367 202.641C29.8529 202.641 29.6497 202.711 29.5273 202.852C29.4076 202.992 29.3477 203.195 29.3477 203.461V210H28.1797ZM34.7012 204V204.937H31.3105V204H34.7012ZM32.2402 210V203.305C32.2402 202.93 32.3223 202.618 32.4863 202.371C32.6504 202.121 32.8678 201.935 33.1387 201.812C33.4095 201.687 33.7038 201.625 34.0215 201.625C34.2559 201.625 34.4564 201.645 34.623 201.684C34.7897 201.72 34.9134 201.754 34.9941 201.785L34.7207 202.73C34.666 202.715 34.5957 202.697 34.5098 202.676C34.4238 202.652 34.3197 202.641 34.1973 202.641C33.9134 202.641 33.7103 202.711 33.5879 202.852C33.4681 202.992 33.4082 203.195 33.4082 203.461V210H32.2402ZM35.8906 210V209.125L38.5977 206.32C38.8867 206.016 39.125 205.749 39.3125 205.52C39.5026 205.288 39.6445 205.068 39.7383 204.859C39.832 204.651 39.8789 204.43 39.8789 204.195C39.8789 203.93 39.8164 203.701 39.6914 203.508C39.5664 203.313 39.3958 203.163 39.1797 203.059C38.9635 202.952 38.7201 202.898 38.4492 202.898C38.1628 202.898 37.9128 202.957 37.6992 203.074C37.4857 203.191 37.3216 203.357 37.207 203.57C37.0924 203.784 37.0352 204.034 37.0352 204.32H35.8828C35.8828 203.833 35.9948 203.408 36.2188 203.043C36.4427 202.678 36.75 202.396 37.1406 202.195C37.5313 201.992 37.9753 201.891 38.4727 201.891C38.9753 201.891 39.418 201.991 39.8008 202.191C40.1862 202.389 40.487 202.66 40.7031 203.004C40.9193 203.345 41.0273 203.73 41.0273 204.16C41.0273 204.457 40.9714 204.747 40.8594 205.031C40.75 205.315 40.5586 205.632 40.2852 205.98C40.0117 206.327 39.6315 206.747 39.1445 207.242L37.5547 208.906V208.965H41.1562V210H35.8906ZM45.4219 210.133C44.8047 210.13 44.2773 209.967 43.8398 209.645C43.4023 209.322 43.0677 208.852 42.8359 208.234C42.6042 207.617 42.4883 206.874 42.4883 206.004C42.4883 205.137 42.6042 204.396 42.8359 203.781C43.0703 203.167 43.4063 202.698 43.8438 202.375C44.2839 202.052 44.8099 201.891 45.4219 201.891C46.0339 201.891 46.5586 202.053 46.9961 202.379C47.4336 202.702 47.7682 203.171 48 203.785C48.2344 204.397 48.3516 205.137 48.3516 206.004C48.3516 206.876 48.2357 207.621 48.0039 208.238C47.7721 208.853 47.4375 209.323 47 209.648C46.5625 209.971 46.0365 210.133 45.4219 210.133ZM45.4219 209.09C45.9635 209.09 46.3867 208.826 46.6914 208.297C46.9987 207.768 47.1523 207.004 47.1523 206.004C47.1523 205.34 47.082 204.779 46.9414 204.32C46.8034 203.859 46.6042 203.51 46.3438 203.273C46.0859 203.034 45.7786 202.914 45.4219 202.914C44.8828 202.914 44.4596 203.18 44.1523 203.711C43.8451 204.242 43.6901 205.007 43.6875 206.004C43.6875 206.671 43.7565 207.234 43.8945 207.695C44.0352 208.154 44.2344 208.501 44.4922 208.738C44.75 208.973 45.0599 209.09 45.4219 209.09ZM52.5225 210.133C51.9053 210.13 51.3779 209.967 50.9404 209.645C50.5029 209.322 50.1683 208.852 49.9365 208.234C49.7048 207.617 49.5889 206.874 49.5889 206.004C49.5889 205.137 49.7048 204.396 49.9365 203.781C50.1709 203.167 50.5068 202.698 50.9443 202.375C51.3844 202.052 51.9105 201.891 52.5225 201.891C53.1344 201.891 53.6592 202.053 54.0967 202.379C54.5342 202.702 54.8688 203.171 55.1006 203.785C55.335 204.397 55.4521 205.137 55.4521 206.004C55.4521 206.876 55.3363 207.621 55.1045 208.238C54.8727 208.853 54.5381 209.323 54.1006 209.648C53.6631 209.971 53.137 210.133 52.5225 210.133ZM52.5225 209.09C53.0641 209.09 53.4873 208.826 53.792 208.297C54.0993 207.768 54.2529 207.004 54.2529 206.004C54.2529 205.34 54.1826 204.779 54.042 204.32C53.904 203.859 53.7048 203.51 53.4443 203.273C53.1865 203.034 52.8792 202.914 52.5225 202.914C51.9834 202.914 51.5602 203.18 51.2529 203.711C50.9456 204.242 50.7907 205.007 50.7881 206.004C50.7881 206.671 50.8571 207.234 50.9951 207.695C51.1357 208.154 51.335 208.501 51.5928 208.738C51.8506 208.973 52.1605 209.09 52.5225 209.09Z" fill="#3D3D3D"/>
<path d="M75.6663 206.001C75.6663 209.683 72.6815 212.667 68.9997 212.667C65.3178 212.667 62.333 209.683 62.333 206.001C62.333 202.319 65.3178 199.334 68.9997 199.334C72.6815 199.334 75.6663 202.319 75.6663 206.001Z" fill="black" fill-opacity="0.3" style="mix-blend-mode:multiply"/>
<path d="M71 204L69 206M69 206L67 208M69 206L67 204M69 206L71 208" stroke="black" stroke-opacity="0.5" stroke-width="1.33333" stroke-linecap="round" stroke-linejoin="round"/>
<rect x="101" y="190" width="72" height="32" rx="16" fill="#E9E9EF"/>
<path d="M118.281 205.465L117.223 205.652C117.178 205.517 117.108 205.388 117.012 205.266C116.918 205.143 116.79 205.043 116.629 204.965C116.467 204.887 116.266 204.848 116.023 204.848C115.693 204.848 115.417 204.922 115.195 205.07C114.974 205.216 114.863 205.405 114.863 205.637C114.863 205.837 114.938 205.999 115.086 206.121C115.234 206.243 115.474 206.344 115.805 206.422L116.758 206.641C117.31 206.768 117.721 206.965 117.992 207.23C118.263 207.496 118.398 207.841 118.398 208.266C118.398 208.625 118.294 208.945 118.086 209.227C117.88 209.505 117.592 209.724 117.223 209.883C116.855 210.042 116.43 210.121 115.945 210.121C115.273 210.121 114.725 209.978 114.301 209.691C113.876 209.402 113.616 208.992 113.52 208.461L114.648 208.289C114.719 208.583 114.863 208.806 115.082 208.957C115.301 209.105 115.586 209.18 115.938 209.18C116.32 209.18 116.626 209.1 116.855 208.941C117.085 208.78 117.199 208.583 117.199 208.352C117.199 208.164 117.129 208.007 116.988 207.879C116.85 207.751 116.638 207.655 116.352 207.59L115.336 207.367C114.776 207.24 114.362 207.036 114.094 206.758C113.828 206.479 113.695 206.126 113.695 205.699C113.695 205.345 113.794 205.035 113.992 204.77C114.19 204.504 114.464 204.297 114.813 204.148C115.161 203.997 115.561 203.922 116.012 203.922C116.66 203.922 117.171 204.062 117.543 204.344C117.915 204.622 118.161 204.996 118.281 205.465ZM122.483 204V204.937H119.206V204H122.483ZM120.085 202.562H121.253V208.238C121.253 208.465 121.287 208.635 121.354 208.75C121.422 208.862 121.509 208.939 121.616 208.98C121.726 209.02 121.844 209.039 121.972 209.039C122.065 209.039 122.147 209.033 122.218 209.02C122.288 209.007 122.343 208.996 122.382 208.988L122.593 209.953C122.525 209.979 122.429 210.005 122.304 210.031C122.179 210.06 122.022 210.076 121.835 210.078C121.528 210.083 121.241 210.029 120.976 209.914C120.71 209.799 120.495 209.622 120.331 209.383C120.167 209.143 120.085 208.842 120.085 208.48V202.562ZM123.775 210V204H124.904V204.953H124.967C125.076 204.63 125.269 204.376 125.545 204.191C125.824 204.004 126.139 203.91 126.49 203.91C126.563 203.91 126.649 203.913 126.748 203.918C126.85 203.923 126.929 203.93 126.986 203.937V205.055C126.939 205.042 126.856 205.027 126.736 205.012C126.617 204.993 126.497 204.984 126.377 204.984C126.101 204.984 125.855 205.043 125.639 205.16C125.425 205.275 125.256 205.435 125.131 205.641C125.006 205.844 124.943 206.076 124.943 206.336V210H123.775ZM129.689 210.133C129.309 210.133 128.965 210.063 128.658 209.922C128.351 209.779 128.107 209.572 127.928 209.301C127.751 209.03 127.662 208.698 127.662 208.305C127.662 207.966 127.727 207.687 127.857 207.469C127.988 207.25 128.163 207.077 128.385 206.949C128.606 206.822 128.854 206.725 129.127 206.66C129.4 206.595 129.679 206.546 129.963 206.512C130.322 206.47 130.614 206.436 130.838 206.41C131.062 206.382 131.225 206.336 131.326 206.273C131.428 206.211 131.479 206.109 131.479 205.969V205.941C131.479 205.6 131.382 205.336 131.189 205.148C130.999 204.961 130.715 204.867 130.338 204.867C129.945 204.867 129.635 204.954 129.408 205.129C129.184 205.301 129.029 205.492 128.943 205.703L127.846 205.453C127.976 205.089 128.166 204.794 128.416 204.57C128.669 204.344 128.959 204.18 129.287 204.078C129.615 203.974 129.96 203.922 130.322 203.922C130.562 203.922 130.816 203.951 131.084 204.008C131.355 204.062 131.607 204.164 131.842 204.312C132.079 204.461 132.273 204.673 132.424 204.949C132.575 205.223 132.65 205.578 132.65 206.016V210H131.51V209.18H131.463C131.387 209.331 131.274 209.479 131.123 209.625C130.972 209.771 130.778 209.892 130.541 209.988C130.304 210.085 130.02 210.133 129.689 210.133ZM129.943 209.195C130.266 209.195 130.542 209.132 130.771 209.004C131.003 208.876 131.179 208.71 131.299 208.504C131.421 208.296 131.482 208.073 131.482 207.836V207.062C131.441 207.104 131.36 207.143 131.24 207.18C131.123 207.214 130.989 207.243 130.838 207.27C130.687 207.293 130.54 207.315 130.396 207.336C130.253 207.354 130.133 207.37 130.037 207.383C129.811 207.411 129.604 207.46 129.416 207.527C129.231 207.595 129.083 207.693 128.971 207.82C128.861 207.945 128.807 208.112 128.807 208.32C128.807 208.609 128.913 208.828 129.127 208.977C129.34 209.122 129.613 209.195 129.943 209.195ZM134.206 212.25V204H135.347V204.973H135.444C135.512 204.848 135.61 204.703 135.737 204.539C135.865 204.375 136.042 204.232 136.269 204.109C136.495 203.984 136.795 203.922 137.167 203.922C137.651 203.922 138.084 204.044 138.464 204.289C138.844 204.534 139.142 204.887 139.358 205.348C139.577 205.809 139.687 206.363 139.687 207.012C139.687 207.66 139.578 208.216 139.362 208.68C139.146 209.141 138.849 209.496 138.472 209.746C138.094 209.993 137.663 210.117 137.179 210.117C136.814 210.117 136.516 210.056 136.284 209.934C136.055 209.811 135.875 209.668 135.745 209.504C135.615 209.34 135.515 209.194 135.444 209.066H135.374V212.25H134.206ZM135.351 207C135.351 207.422 135.412 207.792 135.534 208.109C135.657 208.427 135.834 208.676 136.065 208.855C136.297 209.033 136.581 209.121 136.917 209.121C137.266 209.121 137.558 209.029 137.792 208.844C138.026 208.656 138.203 208.402 138.323 208.082C138.446 207.762 138.507 207.401 138.507 207C138.507 206.604 138.447 206.249 138.327 205.934C138.21 205.618 138.033 205.37 137.796 205.188C137.562 205.005 137.269 204.914 136.917 204.914C136.578 204.914 136.292 205.001 136.058 205.176C135.826 205.35 135.65 205.594 135.53 205.906C135.41 206.219 135.351 206.583 135.351 207Z" fill="#3D3D3D"/>
<path d="M159.666 206.001C159.666 209.683 156.682 212.667 153 212.667C149.318 212.667 146.333 209.683 146.333 206.001C146.333 202.319 149.318 199.334 153 199.334C156.682 199.334 159.666 202.319 159.666 206.001Z" fill="black" fill-opacity="0.3" style="mix-blend-mode:multiply"/>
<path d="M155 204L153 206M153 206L151 208M153 206L151 204M153 206L155 208" stroke="black" stroke-opacity="0.5" stroke-width="1.33333" stroke-linecap="round" stroke-linejoin="round"/>
<rect x="185" y="190" width="77" height="32" rx="16" fill="#E9E9EF"/>
<path d="M197.785 210V204H198.906V204.977H198.98C199.105 204.646 199.31 204.388 199.594 204.203C199.878 204.016 200.217 203.922 200.613 203.922C201.014 203.922 201.35 204.016 201.621 204.203C201.895 204.391 202.096 204.648 202.227 204.977H202.289C202.432 204.656 202.66 204.401 202.973 204.211C203.285 204.018 203.658 203.922 204.09 203.922C204.634 203.922 205.078 204.092 205.422 204.434C205.768 204.775 205.941 205.289 205.941 205.977V210H204.773V206.086C204.773 205.68 204.663 205.385 204.441 205.203C204.22 205.021 203.956 204.93 203.648 204.93C203.268 204.93 202.973 205.047 202.762 205.281C202.551 205.513 202.445 205.811 202.445 206.176V210H201.281V206.012C201.281 205.686 201.18 205.424 200.977 205.227C200.773 205.029 200.509 204.93 200.184 204.93C199.962 204.93 199.758 204.988 199.57 205.105C199.385 205.22 199.236 205.38 199.121 205.586C199.009 205.792 198.953 206.03 198.953 206.301V210H197.785ZM210.034 210.121C209.472 210.121 208.981 209.992 208.562 209.734C208.142 209.477 207.817 209.116 207.585 208.652C207.353 208.189 207.237 207.647 207.237 207.027C207.237 206.405 207.353 205.861 207.585 205.395C207.817 204.928 208.142 204.566 208.562 204.309C208.981 204.051 209.472 203.922 210.034 203.922C210.597 203.922 211.088 204.051 211.507 204.309C211.926 204.566 212.252 204.928 212.483 205.395C212.715 205.861 212.831 206.405 212.831 207.027C212.831 207.647 212.715 208.189 212.483 208.652C212.252 209.116 211.926 209.477 211.507 209.734C211.088 209.992 210.597 210.121 210.034 210.121ZM210.038 209.141C210.403 209.141 210.705 209.044 210.944 208.852C211.184 208.659 211.361 208.402 211.476 208.082C211.593 207.762 211.651 207.409 211.651 207.023C211.651 206.641 211.593 206.289 211.476 205.969C211.361 205.646 211.184 205.387 210.944 205.191C210.705 204.996 210.403 204.898 210.038 204.898C209.671 204.898 209.366 204.996 209.124 205.191C208.884 205.387 208.706 205.646 208.589 205.969C208.474 206.289 208.417 206.641 208.417 207.023C208.417 207.409 208.474 207.762 208.589 208.082C208.706 208.402 208.884 208.659 209.124 208.852C209.366 209.044 209.671 209.141 210.038 209.141ZM216.381 210.117C215.896 210.117 215.464 209.993 215.084 209.746C214.706 209.496 214.41 209.141 214.193 208.68C213.98 208.216 213.873 207.66 213.873 207.012C213.873 206.363 213.981 205.809 214.197 205.348C214.416 204.887 214.715 204.534 215.096 204.289C215.476 204.044 215.907 203.922 216.389 203.922C216.761 203.922 217.061 203.984 217.287 204.109C217.516 204.232 217.693 204.375 217.818 204.539C217.946 204.703 218.045 204.848 218.115 204.973H218.186V202H219.354V210H218.213V209.066H218.115C218.045 209.194 217.943 209.34 217.811 209.504C217.68 209.668 217.501 209.811 217.271 209.934C217.042 210.056 216.745 210.117 216.381 210.117ZM216.639 209.121C216.975 209.121 217.258 209.033 217.49 208.855C217.725 208.676 217.902 208.427 218.021 208.109C218.144 207.792 218.205 207.422 218.205 207C218.205 206.583 218.145 206.219 218.025 205.906C217.906 205.594 217.73 205.35 217.498 205.176C217.266 205.001 216.98 204.914 216.639 204.914C216.287 204.914 215.994 205.005 215.76 205.188C215.525 205.37 215.348 205.618 215.229 205.934C215.111 206.249 215.053 206.604 215.053 207C215.053 207.401 215.113 207.762 215.232 208.082C215.352 208.402 215.529 208.656 215.764 208.844C216.001 209.029 216.292 209.121 216.639 209.121ZM223.606 210.121C223.015 210.121 222.506 209.995 222.079 209.742C221.655 209.487 221.326 209.129 221.095 208.668C220.866 208.204 220.751 207.661 220.751 207.039C220.751 206.424 220.866 205.883 221.095 205.414C221.326 204.945 221.649 204.579 222.063 204.316C222.48 204.053 222.967 203.922 223.524 203.922C223.863 203.922 224.191 203.978 224.509 204.09C224.826 204.202 225.112 204.378 225.364 204.617C225.617 204.857 225.816 205.168 225.962 205.551C226.108 205.931 226.181 206.393 226.181 206.937V207.352H221.411V206.477H225.036C225.036 206.169 224.974 205.897 224.849 205.66C224.724 205.421 224.548 205.232 224.321 205.094C224.097 204.956 223.834 204.887 223.532 204.887C223.204 204.887 222.918 204.967 222.673 205.129C222.431 205.288 222.243 205.496 222.11 205.754C221.98 206.009 221.915 206.286 221.915 206.586V207.27C221.915 207.671 221.985 208.012 222.126 208.293C222.269 208.574 222.468 208.789 222.724 208.937C222.979 209.083 223.277 209.156 223.618 209.156C223.84 209.156 224.041 209.125 224.224 209.062C224.406 208.997 224.563 208.901 224.696 208.773C224.829 208.646 224.931 208.488 225.001 208.301L226.106 208.5C226.018 208.826 225.859 209.111 225.63 209.355C225.403 209.598 225.118 209.786 224.774 209.922C224.433 210.055 224.044 210.121 223.606 210.121ZM228.645 202V210H227.477V202H228.645Z" fill="#3D3D3D"/>
<path d="M248.666 206.001C248.666 209.683 245.682 212.667 242 212.667C238.318 212.667 235.333 209.683 235.333 206.001C235.333 202.319 238.318 199.334 242 199.334C245.682 199.334 248.666 202.319 248.666 206.001Z" fill="black" fill-opacity="0.3" style="mix-blend-mode:multiply"/>
<path d="M244 204L242 206M242 206L240 208M242 206L240 204M242 206L244 208" stroke="black" stroke-opacity="0.5" stroke-width="1.33333" stroke-linecap="round" stroke-linejoin="round"/>
<rect x="15" y="234" width="87" height="32" rx="16" fill="#E9E9EF"/>
<path d="M30.3711 254.121C29.7799 254.121 29.2708 253.995 28.8438 253.742C28.4193 253.487 28.0911 253.129 27.8594 252.668C27.6302 252.204 27.5156 251.661 27.5156 251.039C27.5156 250.424 27.6302 249.883 27.8594 249.414C28.0911 248.945 28.4141 248.579 28.8281 248.316C29.2448 248.053 29.7318 247.922 30.2891 247.922C30.6276 247.922 30.9557 247.978 31.2734 248.09C31.5911 248.202 31.8763 248.378 32.1289 248.617C32.3815 248.857 32.5807 249.168 32.7266 249.551C32.8724 249.931 32.9453 250.393 32.9453 250.937V251.352H28.1758V250.477H31.8008C31.8008 250.169 31.7383 249.897 31.6133 249.66C31.4883 249.421 31.3125 249.232 31.0859 249.094C30.862 248.956 30.599 248.887 30.2969 248.887C29.9688 248.887 29.6823 248.967 29.4375 249.129C29.1953 249.288 29.0078 249.496 28.875 249.754C28.7448 250.009 28.6797 250.286 28.6797 250.586V251.27C28.6797 251.671 28.75 252.012 28.8906 252.293C29.0339 252.574 29.2331 252.789 29.4883 252.937C29.7435 253.083 30.0417 253.156 30.3828 253.156C30.6042 253.156 30.806 253.125 30.9883 253.062C31.1706 252.997 31.3281 252.901 31.4609 252.773C31.5938 252.646 31.6953 252.488 31.7656 252.301L32.8711 252.5C32.7826 252.826 32.6237 253.111 32.3945 253.355C32.168 253.598 31.8828 253.786 31.5391 253.922C31.1979 254.055 30.8086 254.121 30.3711 254.121ZM36.4873 254.117C36.0029 254.117 35.5706 253.993 35.1904 253.746C34.8128 253.496 34.516 253.141 34.2998 252.68C34.0863 252.216 33.9795 251.66 33.9795 251.012C33.9795 250.363 34.0876 249.809 34.3037 249.348C34.5225 248.887 34.8219 248.534 35.2021 248.289C35.5824 248.044 36.0133 247.922 36.4951 247.922C36.8675 247.922 37.167 247.984 37.3936 248.109C37.6227 248.232 37.7998 248.375 37.9248 248.539C38.0524 248.703 38.1514 248.848 38.2217 248.973H38.292V246H39.46V254H38.3193V253.066H38.2217C38.1514 253.194 38.0498 253.34 37.917 253.504C37.7868 253.668 37.6071 253.811 37.3779 253.934C37.1488 254.056 36.8519 254.117 36.4873 254.117ZM36.7451 253.121C37.0811 253.121 37.3649 253.033 37.5967 252.855C37.8311 252.676 38.0081 252.427 38.1279 252.109C38.2503 251.792 38.3115 251.422 38.3115 251C38.3115 250.583 38.2516 250.219 38.1318 249.906C38.012 249.594 37.8363 249.35 37.6045 249.176C37.3727 249.001 37.0863 248.914 36.7451 248.914C36.3936 248.914 36.1006 249.005 35.8662 249.188C35.6318 249.37 35.4548 249.618 35.335 249.934C35.2178 250.249 35.1592 250.604 35.1592 251C35.1592 251.401 35.2191 251.762 35.3389 252.082C35.4587 252.402 35.6357 252.656 35.8701 252.844C36.1071 253.029 36.3988 253.121 36.7451 253.121ZM41.127 254V248H42.2949V254H41.127ZM41.7168 247.074C41.5137 247.074 41.3392 247.007 41.1934 246.871C41.0501 246.733 40.9785 246.569 40.9785 246.379C40.9785 246.186 41.0501 246.022 41.1934 245.887C41.3392 245.749 41.5137 245.68 41.7168 245.68C41.9199 245.68 42.0931 245.749 42.2363 245.887C42.3822 246.022 42.4551 246.186 42.4551 246.379C42.4551 246.569 42.3822 246.733 42.2363 246.871C42.0931 247.007 41.9199 247.074 41.7168 247.074ZM46.667 248V248.937H43.3896V248H46.667ZM44.2686 246.562H45.4365V252.238C45.4365 252.465 45.4704 252.635 45.5381 252.75C45.6058 252.862 45.693 252.939 45.7998 252.98C45.9092 253.02 46.0277 253.039 46.1553 253.039C46.249 253.039 46.3311 253.033 46.4014 253.02C46.4717 253.007 46.5264 252.996 46.5654 252.988L46.7764 253.953C46.7087 253.979 46.6123 254.005 46.4873 254.031C46.3623 254.06 46.2061 254.076 46.0186 254.078C45.7113 254.083 45.4248 254.029 45.1592 253.914C44.8936 253.799 44.6787 253.622 44.5146 253.383C44.3506 253.143 44.2686 252.842 44.2686 252.48V246.562ZM50.4219 254.121C49.8594 254.121 49.3685 253.992 48.9492 253.734C48.5299 253.477 48.2044 253.116 47.9727 252.652C47.7409 252.189 47.625 251.647 47.625 251.027C47.625 250.405 47.7409 249.861 47.9727 249.395C48.2044 248.928 48.5299 248.566 48.9492 248.309C49.3685 248.051 49.8594 247.922 50.4219 247.922C50.9844 247.922 51.4753 248.051 51.8945 248.309C52.3138 248.566 52.6393 248.928 52.8711 249.395C53.1029 249.861 53.2188 250.405 53.2188 251.027C53.2188 251.647 53.1029 252.189 52.8711 252.652C52.6393 253.116 52.3138 253.477 51.8945 253.734C51.4753 253.992 50.9844 254.121 50.4219 254.121ZM50.4258 253.141C50.7904 253.141 51.0924 253.044 51.332 252.852C51.5716 252.659 51.7487 252.402 51.8633 252.082C51.9805 251.762 52.0391 251.409 52.0391 251.023C52.0391 250.641 51.9805 250.289 51.8633 249.969C51.7487 249.646 51.5716 249.387 51.332 249.191C51.0924 248.996 50.7904 248.898 50.4258 248.898C50.0586 248.898 49.7539 248.996 49.5117 249.191C49.2721 249.387 49.0938 249.646 48.9766 249.969C48.862 250.289 48.8047 250.641 48.8047 251.023C48.8047 251.409 48.862 251.762 48.9766 252.082C49.0938 252.402 49.2721 252.659 49.5117 252.852C49.7539 253.044 50.0586 253.141 50.4258 253.141ZM54.5225 254V248H55.6514V248.953H55.7139C55.8232 248.63 56.016 248.376 56.292 248.191C56.5706 248.004 56.8857 247.91 57.2373 247.91C57.3102 247.91 57.3962 247.913 57.4951 247.918C57.5967 247.923 57.6761 247.93 57.7334 247.937V249.055C57.6865 249.042 57.6032 249.027 57.4834 249.012C57.3636 248.993 57.2438 248.984 57.124 248.984C56.848 248.984 56.6019 249.043 56.3857 249.16C56.1722 249.275 56.0029 249.435 55.8779 249.641C55.7529 249.844 55.6904 250.076 55.6904 250.336V254H54.5225ZM58.7441 254V248H59.9121V254H58.7441ZM59.334 247.074C59.1309 247.074 58.9564 247.007 58.8105 246.871C58.6673 246.733 58.5957 246.569 58.5957 246.379C58.5957 246.186 58.6673 246.022 58.8105 245.887C58.9564 245.749 59.1309 245.68 59.334 245.68C59.5371 245.68 59.7103 245.749 59.8535 245.887C59.9993 246.022 60.0723 246.186 60.0723 246.379C60.0723 246.569 59.9993 246.733 59.8535 246.871C59.7103 247.007 59.5371 247.074 59.334 247.074ZM63.2295 254.133C62.8493 254.133 62.5055 254.063 62.1982 253.922C61.891 253.779 61.6475 253.572 61.4678 253.301C61.2907 253.03 61.2021 252.698 61.2021 252.305C61.2021 251.966 61.2673 251.687 61.3975 251.469C61.5277 251.25 61.7035 251.077 61.9248 250.949C62.1462 250.822 62.3936 250.725 62.667 250.66C62.9404 250.595 63.2191 250.546 63.5029 250.512C63.8623 250.47 64.154 250.436 64.3779 250.41C64.6019 250.382 64.7646 250.336 64.8662 250.273C64.9678 250.211 65.0186 250.109 65.0186 249.969V249.941C65.0186 249.6 64.9222 249.336 64.7295 249.148C64.5394 248.961 64.2555 248.867 63.8779 248.867C63.4847 248.867 63.1748 248.954 62.9482 249.129C62.7243 249.301 62.5693 249.492 62.4834 249.703L61.3857 249.453C61.516 249.089 61.7061 248.794 61.9561 248.57C62.2087 248.344 62.499 248.18 62.8271 248.078C63.1553 247.974 63.5003 247.922 63.8623 247.922C64.1019 247.922 64.3558 247.951 64.624 248.008C64.8949 248.062 65.1475 248.164 65.3818 248.312C65.6188 248.461 65.8128 248.673 65.9639 248.949C66.1149 249.223 66.1904 249.578 66.1904 250.016V254H65.0498V253.18H65.0029C64.9274 253.331 64.8141 253.479 64.6631 253.625C64.512 253.771 64.318 253.892 64.0811 253.988C63.8441 254.085 63.5602 254.133 63.2295 254.133ZM63.4834 253.195C63.8063 253.195 64.0824 253.132 64.3115 253.004C64.5433 252.876 64.7191 252.71 64.8389 252.504C64.9613 252.296 65.0225 252.073 65.0225 251.836V251.062C64.9808 251.104 64.9001 251.143 64.7803 251.18C64.6631 251.214 64.529 251.243 64.3779 251.27C64.2269 251.293 64.0798 251.315 63.9365 251.336C63.7933 251.354 63.6735 251.37 63.5771 251.383C63.3506 251.411 63.1436 251.46 62.9561 251.527C62.7712 251.595 62.6227 251.693 62.5107 251.82C62.4014 251.945 62.3467 252.112 62.3467 252.32C62.3467 252.609 62.4535 252.828 62.667 252.977C62.8805 253.122 63.1527 253.195 63.4834 253.195ZM68.9141 246V254H67.7461V246H68.9141Z" fill="#3D3D3D"/>
<path d="M88.6663 250.001C88.6663 253.683 85.6815 256.667 81.9997 256.667C78.3178 256.667 75.333 253.683 75.333 250.001C75.333 246.319 78.3178 243.334 81.9997 243.334C85.6815 243.334 88.6663 246.319 88.6663 250.001Z" fill="black" fill-opacity="0.3" style="mix-blend-mode:multiply"/>
<path d="M84 248L82 250M82 250L80 252M82 250L80 248M82 250L84 252" stroke="black" stroke-opacity="0.5" stroke-width="1.33333" stroke-linecap="round" stroke-linejoin="round"/>
<rect x="114" y="234" width="81" height="32" rx="16" fill="#E9E9EF"/>
<path d="M131.281 249.465L130.223 249.652C130.178 249.517 130.108 249.388 130.012 249.266C129.918 249.143 129.79 249.043 129.629 248.965C129.467 248.887 129.266 248.848 129.023 248.848C128.693 248.848 128.417 248.922 128.195 249.07C127.974 249.216 127.863 249.405 127.863 249.637C127.863 249.837 127.938 249.999 128.086 250.121C128.234 250.243 128.474 250.344 128.805 250.422L129.758 250.641C130.31 250.768 130.721 250.965 130.992 251.23C131.263 251.496 131.398 251.841 131.398 252.266C131.398 252.625 131.294 252.945 131.086 253.227C130.88 253.505 130.592 253.724 130.223 253.883C129.855 254.042 129.43 254.121 128.945 254.121C128.273 254.121 127.725 253.978 127.301 253.691C126.876 253.402 126.616 252.992 126.52 252.461L127.648 252.289C127.719 252.583 127.863 252.806 128.082 252.957C128.301 253.105 128.586 253.18 128.938 253.18C129.32 253.18 129.626 253.1 129.855 252.941C130.085 252.78 130.199 252.583 130.199 252.352C130.199 252.164 130.129 252.007 129.988 251.879C129.85 251.751 129.638 251.655 129.352 251.59L128.336 251.367C127.776 251.24 127.362 251.036 127.094 250.758C126.828 250.479 126.695 250.126 126.695 249.699C126.695 249.345 126.794 249.035 126.992 248.77C127.19 248.504 127.464 248.297 127.813 248.148C128.161 247.997 128.561 247.922 129.012 247.922C129.66 247.922 130.171 248.062 130.543 248.344C130.915 248.622 131.161 248.996 131.281 249.465ZM135.483 248V248.937H132.206V248H135.483ZM133.085 246.562H134.253V252.238C134.253 252.465 134.287 252.635 134.354 252.75C134.422 252.862 134.509 252.939 134.616 252.98C134.726 253.02 134.844 253.039 134.972 253.039C135.065 253.039 135.147 253.033 135.218 253.02C135.288 253.007 135.343 252.996 135.382 252.988L135.593 253.953C135.525 253.979 135.429 254.005 135.304 254.031C135.179 254.06 135.022 254.076 134.835 254.078C134.528 254.083 134.241 254.029 133.976 253.914C133.71 253.799 133.495 253.622 133.331 253.383C133.167 253.143 133.085 252.842 133.085 252.48V246.562ZM136.775 254V248H137.904V248.953H137.967C138.076 248.63 138.269 248.376 138.545 248.191C138.824 248.004 139.139 247.91 139.49 247.91C139.563 247.91 139.649 247.913 139.748 247.918C139.85 247.923 139.929 247.93 139.986 247.937V249.055C139.939 249.042 139.856 249.027 139.736 249.012C139.617 248.993 139.497 248.984 139.377 248.984C139.101 248.984 138.855 249.043 138.639 249.16C138.425 249.275 138.256 249.435 138.131 249.641C138.006 249.844 137.943 250.076 137.943 250.336V254H136.775ZM140.997 254V248H142.165V254H140.997ZM141.587 247.074C141.384 247.074 141.209 247.007 141.063 246.871C140.92 246.733 140.849 246.569 140.849 246.379C140.849 246.186 140.92 246.022 141.063 245.887C141.209 245.749 141.384 245.68 141.587 245.68C141.79 245.68 141.963 245.749 142.106 245.887C142.252 246.022 142.325 246.186 142.325 246.379C142.325 246.569 142.252 246.733 142.106 246.871C141.963 247.007 141.79 247.074 141.587 247.074ZM143.736 256.25V248H144.877V248.973H144.975C145.042 248.848 145.14 248.703 145.268 248.539C145.395 248.375 145.572 248.232 145.799 248.109C146.025 247.984 146.325 247.922 146.697 247.922C147.182 247.922 147.614 248.044 147.994 248.289C148.374 248.534 148.673 248.887 148.889 249.348C149.107 249.809 149.217 250.363 149.217 251.012C149.217 251.66 149.109 252.216 148.893 252.68C148.676 253.141 148.38 253.496 148.002 253.746C147.624 253.993 147.193 254.117 146.709 254.117C146.344 254.117 146.046 254.056 145.814 253.934C145.585 253.811 145.406 253.668 145.275 253.504C145.145 253.34 145.045 253.194 144.975 253.066H144.904V256.25H143.736ZM144.881 251C144.881 251.422 144.942 251.792 145.064 252.109C145.187 252.427 145.364 252.676 145.596 252.855C145.827 253.033 146.111 253.121 146.447 253.121C146.796 253.121 147.088 253.029 147.322 252.844C147.557 252.656 147.734 252.402 147.854 252.082C147.976 251.762 148.037 251.401 148.037 251C148.037 250.604 147.977 250.249 147.857 249.934C147.74 249.618 147.563 249.37 147.326 249.188C147.092 249.005 146.799 248.914 146.447 248.914C146.109 248.914 145.822 249.001 145.588 249.176C145.356 249.35 145.18 249.594 145.061 249.906C144.941 250.219 144.881 250.583 144.881 251ZM153.111 254.121C152.52 254.121 152.011 253.995 151.584 253.742C151.16 253.487 150.831 253.129 150.6 252.668C150.37 252.204 150.256 251.661 150.256 251.039C150.256 250.424 150.37 249.883 150.6 249.414C150.831 248.945 151.154 248.579 151.568 248.316C151.985 248.053 152.472 247.922 153.029 247.922C153.368 247.922 153.696 247.978 154.014 248.09C154.331 248.202 154.617 248.378 154.869 248.617C155.122 248.857 155.321 249.168 155.467 249.551C155.613 249.931 155.686 250.393 155.686 250.937V251.352H150.916V250.477H154.541C154.541 250.169 154.479 249.897 154.354 249.66C154.229 249.421 154.053 249.232 153.826 249.094C153.602 248.956 153.339 248.887 153.037 248.887C152.709 248.887 152.423 248.967 152.178 249.129C151.936 249.288 151.748 249.496 151.615 249.754C151.485 250.009 151.42 250.286 151.42 250.586V251.27C151.42 251.671 151.49 252.012 151.631 252.293C151.774 252.574 151.973 252.789 152.229 252.937C152.484 253.083 152.782 253.156 153.123 253.156C153.344 253.156 153.546 253.125 153.729 253.062C153.911 252.997 154.068 252.901 154.201 252.773C154.334 252.646 154.436 252.488 154.506 252.301L155.611 252.5C155.523 252.826 155.364 253.111 155.135 253.355C154.908 253.598 154.623 253.786 154.279 253.922C153.938 254.055 153.549 254.121 153.111 254.121ZM161.478 249.465L160.419 249.652C160.375 249.517 160.304 249.388 160.208 249.266C160.114 249.143 159.987 249.043 159.825 248.965C159.664 248.887 159.462 248.848 159.22 248.848C158.889 248.848 158.613 248.922 158.392 249.07C158.17 249.216 158.06 249.405 158.06 249.637C158.06 249.837 158.134 249.999 158.282 250.121C158.431 250.243 158.67 250.344 159.001 250.422L159.954 250.641C160.506 250.768 160.918 250.965 161.188 251.23C161.459 251.496 161.595 251.841 161.595 252.266C161.595 252.625 161.491 252.945 161.282 253.227C161.076 253.505 160.789 253.724 160.419 253.883C160.052 254.042 159.626 254.121 159.142 254.121C158.47 254.121 157.922 253.978 157.497 253.691C157.073 253.402 156.812 252.992 156.716 252.461L157.845 252.289C157.915 252.583 158.06 252.806 158.278 252.957C158.497 253.105 158.782 253.18 159.134 253.18C159.517 253.18 159.823 253.1 160.052 252.941C160.281 252.78 160.396 252.583 160.396 252.352C160.396 252.164 160.325 252.007 160.185 251.879C160.047 251.751 159.834 251.655 159.548 251.59L158.532 251.367C157.972 251.24 157.558 251.036 157.29 250.758C157.024 250.479 156.892 250.126 156.892 249.699C156.892 249.345 156.991 249.035 157.188 248.77C157.386 248.504 157.66 248.297 158.009 248.148C158.358 247.997 158.757 247.922 159.208 247.922C159.856 247.922 160.367 248.062 160.739 248.344C161.112 248.622 161.358 248.996 161.478 249.465Z" fill="#3D3D3D"/>
<path d="M181.666 250.001C181.666 253.683 178.682 256.667 175 256.667C171.318 256.667 168.333 253.683 168.333 250.001C168.333 246.319 171.318 243.334 175 243.334C178.682 243.334 181.666 246.319 181.666 250.001Z" fill="black" fill-opacity="0.3" style="mix-blend-mode:multiply"/>
<path d="M177 248L175 250M175 250L173 252M175 250L173 248M175 250L177 252" stroke="black" stroke-opacity="0.5" stroke-width="1.33333" stroke-linecap="round" stroke-linejoin="round"/>
<rect x="207" y="234" width="96" height="32" rx="16" fill="#E9E9EF"/>
<path d="M224.281 249.465L223.223 249.652C223.178 249.517 223.108 249.388 223.012 249.266C222.918 249.143 222.79 249.043 222.629 248.965C222.467 248.887 222.266 248.848 222.023 248.848C221.693 248.848 221.417 248.922 221.195 249.07C220.974 249.216 220.863 249.405 220.863 249.637C220.863 249.837 220.938 249.999 221.086 250.121C221.234 250.243 221.474 250.344 221.805 250.422L222.758 250.641C223.31 250.768 223.721 250.965 223.992 251.23C224.263 251.496 224.398 251.841 224.398 252.266C224.398 252.625 224.294 252.945 224.086 253.227C223.88 253.505 223.592 253.724 223.223 253.883C222.855 254.042 222.43 254.121 221.945 254.121C221.273 254.121 220.725 253.978 220.301 253.691C219.876 253.402 219.616 252.992 219.52 252.461L220.648 252.289C220.719 252.583 220.863 252.806 221.082 252.957C221.301 253.105 221.586 253.18 221.938 253.18C222.32 253.18 222.626 253.1 222.855 252.941C223.085 252.78 223.199 252.583 223.199 252.352C223.199 252.164 223.129 252.007 222.988 251.879C222.85 251.751 222.638 251.655 222.352 251.59L221.336 251.367C220.776 251.24 220.362 251.036 220.094 250.758C219.828 250.479 219.695 250.126 219.695 249.699C219.695 249.345 219.794 249.035 219.992 248.77C220.19 248.504 220.464 248.297 220.813 248.148C221.161 247.997 221.561 247.922 222.012 247.922C222.66 247.922 223.171 248.062 223.543 248.344C223.915 248.622 224.161 248.996 224.281 249.465ZM225.683 256.25V248H226.823V248.973H226.921C226.989 248.848 227.086 248.703 227.214 248.539C227.341 248.375 227.519 248.232 227.745 248.109C227.972 247.984 228.271 247.922 228.644 247.922C229.128 247.922 229.56 248.044 229.94 248.289C230.321 248.534 230.619 248.887 230.835 249.348C231.054 249.809 231.163 250.363 231.163 251.012C231.163 251.66 231.055 252.216 230.839 252.68C230.623 253.141 230.326 253.496 229.948 253.746C229.571 253.993 229.14 254.117 228.655 254.117C228.291 254.117 227.993 254.056 227.761 253.934C227.532 253.811 227.352 253.668 227.222 253.504C227.091 253.34 226.991 253.194 226.921 253.066H226.851V256.25H225.683ZM226.827 251C226.827 251.422 226.888 251.792 227.011 252.109C227.133 252.427 227.31 252.676 227.542 252.855C227.774 253.033 228.058 253.121 228.394 253.121C228.743 253.121 229.034 253.029 229.269 252.844C229.503 252.656 229.68 252.402 229.8 252.082C229.922 251.762 229.983 251.401 229.983 251C229.983 250.604 229.924 250.249 229.804 249.934C229.687 249.618 229.509 249.37 229.272 249.188C229.038 249.005 228.745 248.914 228.394 248.914C228.055 248.914 227.769 249.001 227.534 249.176C227.302 249.35 227.127 249.594 227.007 249.906C226.887 250.219 226.827 250.583 226.827 251ZM232.472 254V248H233.601V248.953H233.663C233.772 248.63 233.965 248.376 234.241 248.191C234.52 248.004 234.835 247.91 235.187 247.91C235.259 247.91 235.345 247.913 235.444 247.918C235.546 247.923 235.625 247.93 235.683 247.937V249.055C235.636 249.042 235.552 249.027 235.433 249.012C235.313 248.993 235.193 248.984 235.073 248.984C234.797 248.984 234.551 249.043 234.335 249.16C234.121 249.275 233.952 249.435 233.827 249.641C233.702 249.844 233.64 250.076 233.64 250.336V254H232.472ZM236.693 254V248H237.861V254H236.693ZM237.283 247.074C237.08 247.074 236.906 247.007 236.76 246.871C236.617 246.733 236.545 246.569 236.545 246.379C236.545 246.186 236.617 246.022 236.76 245.887C236.906 245.749 237.08 245.68 237.283 245.68C237.486 245.68 237.66 245.749 237.803 245.887C237.949 246.022 238.021 246.186 238.021 246.379C238.021 246.569 237.949 246.733 237.803 246.871C237.66 247.007 237.486 247.074 237.283 247.074ZM240.601 250.437V254H239.433V248H240.554V248.977H240.628C240.766 248.659 240.982 248.404 241.276 248.211C241.573 248.018 241.947 247.922 242.397 247.922C242.806 247.922 243.164 248.008 243.472 248.18C243.779 248.349 244.017 248.602 244.187 248.937C244.356 249.273 244.44 249.689 244.44 250.184V254H243.272V250.324C243.272 249.889 243.159 249.549 242.933 249.305C242.706 249.057 242.395 248.934 241.999 248.934C241.728 248.934 241.487 248.992 241.276 249.109C241.068 249.227 240.903 249.398 240.78 249.625C240.66 249.849 240.601 250.12 240.601 250.437ZM248.522 256.375C248.046 256.375 247.636 256.313 247.292 256.188C246.951 256.063 246.672 255.897 246.456 255.691C246.24 255.486 246.078 255.26 245.972 255.016L246.976 254.602C247.046 254.716 247.14 254.837 247.257 254.965C247.377 255.095 247.538 255.206 247.741 255.297C247.947 255.388 248.211 255.434 248.534 255.434C248.977 255.434 249.343 255.326 249.632 255.109C249.921 254.896 250.065 254.555 250.065 254.086V252.906H249.991C249.921 253.034 249.819 253.176 249.687 253.332C249.556 253.488 249.377 253.624 249.147 253.738C248.918 253.853 248.62 253.91 248.253 253.91C247.779 253.91 247.352 253.799 246.972 253.578C246.594 253.354 246.295 253.025 246.073 252.59C245.854 252.152 245.745 251.615 245.745 250.977C245.745 250.339 245.853 249.792 246.069 249.336C246.288 248.88 246.588 248.531 246.968 248.289C247.348 248.044 247.779 247.922 248.261 247.922C248.633 247.922 248.934 247.984 249.163 248.109C249.392 248.232 249.571 248.375 249.698 248.539C249.828 248.703 249.929 248.848 249.999 248.973H250.085V248H251.229V254.133C251.229 254.648 251.11 255.072 250.87 255.402C250.631 255.733 250.306 255.978 249.897 256.137C249.491 256.296 249.033 256.375 248.522 256.375ZM248.511 252.941C248.847 252.941 249.131 252.863 249.362 252.707C249.597 252.548 249.774 252.322 249.894 252.027C250.016 251.73 250.077 251.375 250.077 250.961C250.077 250.557 250.017 250.202 249.897 249.895C249.778 249.587 249.602 249.348 249.37 249.176C249.138 249.001 248.852 248.914 248.511 248.914C248.159 248.914 247.866 249.005 247.632 249.188C247.397 249.367 247.22 249.612 247.101 249.922C246.983 250.232 246.925 250.578 246.925 250.961C246.925 251.354 246.985 251.699 247.104 251.996C247.224 252.293 247.401 252.525 247.636 252.691C247.873 252.858 248.164 252.941 248.511 252.941ZM256.331 250.113V251.125H252.784V250.113H256.331ZM257.55 254V253.125L260.257 250.32C260.546 250.016 260.784 249.749 260.972 249.52C261.162 249.288 261.304 249.068 261.397 248.859C261.491 248.651 261.538 248.43 261.538 248.195C261.538 247.93 261.476 247.701 261.351 247.508C261.226 247.313 261.055 247.163 260.839 247.059C260.623 246.952 260.379 246.898 260.108 246.898C259.822 246.898 259.572 246.957 259.358 247.074C259.145 247.191 258.981 247.357 258.866 247.57C258.752 247.784 258.694 248.034 258.694 248.32H257.542C257.542 247.833 257.654 247.408 257.878 247.043C258.102 246.678 258.409 246.396 258.8 246.195C259.19 245.992 259.634 245.891 260.132 245.891C260.634 245.891 261.077 245.991 261.46 246.191C261.845 246.389 262.146 246.66 262.362 247.004C262.578 247.345 262.687 247.73 262.687 248.16C262.687 248.457 262.631 248.747 262.519 249.031C262.409 249.315 262.218 249.632 261.944 249.98C261.671 250.327 261.291 250.747 260.804 251.242L259.214 252.906V252.965H262.815V254H257.55ZM266.937 254.109C266.447 254.109 266.007 254.016 265.616 253.828C265.228 253.638 264.918 253.378 264.687 253.047C264.455 252.716 264.331 252.339 264.315 251.914H265.487C265.516 252.258 265.668 252.54 265.944 252.762C266.22 252.983 266.551 253.094 266.937 253.094C267.244 253.094 267.516 253.023 267.753 252.883C267.993 252.74 268.18 252.543 268.315 252.293C268.453 252.043 268.522 251.758 268.522 251.437C268.522 251.112 268.452 250.822 268.312 250.566C268.171 250.311 267.977 250.111 267.729 249.965C267.485 249.819 267.203 249.745 266.886 249.742C266.644 249.742 266.4 249.784 266.155 249.867C265.91 249.951 265.713 250.06 265.562 250.195L264.456 250.031L264.905 246H269.304V247.035H265.909L265.655 249.273H265.702C265.858 249.122 266.065 248.996 266.323 248.895C266.584 248.793 266.862 248.742 267.159 248.742C267.646 248.742 268.08 248.858 268.46 249.09C268.843 249.322 269.144 249.638 269.362 250.039C269.584 250.437 269.693 250.896 269.69 251.414C269.693 251.932 269.576 252.395 269.339 252.801C269.104 253.207 268.779 253.527 268.362 253.762C267.948 253.993 267.473 254.109 266.937 254.109Z" fill="#3D3D3D"/>
<path d="M289.666 250.001C289.666 253.683 286.682 256.667 283 256.667C279.318 256.667 276.333 253.683 276.333 250.001C276.333 246.319 279.318 243.334 283 243.334C286.682 243.334 289.666 246.319 289.666 250.001Z" fill="black" fill-opacity="0.3" style="mix-blend-mode:multiply"/>
<path d="M285 248L283 250M283 250L281 252M283 250L281 248M283 250L285 252" stroke="black" stroke-opacity="0.5" stroke-width="1.33333" stroke-linecap="round" stroke-linejoin="round"/>
<rect x="15" y="278" width="67" height="32" rx="16" fill="#E9E9EF"/>
<path d="M27.8789 298V290H29.0469V292.973H29.1172C29.1849 292.848 29.2826 292.703 29.4102 292.539C29.5378 292.375 29.7148 292.232 29.9414 292.109C30.168 291.984 30.4674 291.922 30.8398 291.922C31.3242 291.922 31.7565 292.044 32.1367 292.289C32.5169 292.534 32.8151 292.887 33.0313 293.348C33.25 293.809 33.3594 294.363 33.3594 295.012C33.3594 295.66 33.2513 296.216 33.0352 296.68C32.819 297.141 32.5221 297.496 32.1445 297.746C31.7669 297.993 31.3359 298.117 30.8516 298.117C30.487 298.117 30.1888 298.056 29.957 297.934C29.7279 297.811 29.5482 297.668 29.418 297.504C29.2878 297.34 29.1875 297.194 29.1172 297.066H29.0195V298H27.8789ZM29.0234 295C29.0234 295.422 29.0846 295.792 29.207 296.109C29.3294 296.427 29.5065 296.676 29.7383 296.855C29.9701 297.033 30.2539 297.121 30.5898 297.121C30.9388 297.121 31.2305 297.029 31.4648 296.844C31.6992 296.656 31.8763 296.402 31.9961 296.082C32.1185 295.762 32.1797 295.401 32.1797 295C32.1797 294.604 32.1198 294.249 32 293.934C31.8828 293.618 31.7057 293.37 31.4688 293.188C31.2344 293.005 30.9414 292.914 30.5898 292.914C30.2513 292.914 29.9648 293.001 29.7305 293.176C29.4987 293.35 29.3229 293.594 29.2031 293.906C29.0833 294.219 29.0234 294.583 29.0234 295ZM35.8389 290V298H34.6709V290H35.8389ZM41.2109 295.512V292H42.3828V298H41.2344V296.961H41.1719C41.0339 297.281 40.8125 297.548 40.5078 297.762C40.2057 297.973 39.8294 298.078 39.3789 298.078C38.9935 298.078 38.6523 297.993 38.3555 297.824C38.0612 297.652 37.8294 297.398 37.6602 297.062C37.4935 296.727 37.4102 296.311 37.4102 295.816V292H38.5781V295.676C38.5781 296.085 38.6914 296.41 38.918 296.652C39.1445 296.895 39.4388 297.016 39.8008 297.016C40.0195 297.016 40.237 296.961 40.4531 296.852C40.6719 296.742 40.8529 296.577 40.9961 296.355C41.1419 296.134 41.2135 295.853 41.2109 295.512ZM46.5381 298.121C45.9469 298.121 45.4378 297.995 45.0107 297.742C44.5863 297.487 44.2581 297.129 44.0264 296.668C43.7972 296.204 43.6826 295.661 43.6826 295.039C43.6826 294.424 43.7972 293.883 44.0264 293.414C44.2581 292.945 44.5811 292.579 44.9951 292.316C45.4118 292.053 45.8988 291.922 46.4561 291.922C46.7946 291.922 47.1227 291.978 47.4404 292.09C47.7581 292.202 48.0433 292.378 48.2959 292.617C48.5485 292.857 48.7477 293.168 48.8936 293.551C49.0394 293.931 49.1123 294.393 49.1123 294.937V295.352H44.3428V294.477H47.9678C47.9678 294.169 47.9053 293.897 47.7803 293.66C47.6553 293.421 47.4795 293.232 47.2529 293.094C47.029 292.956 46.766 292.887 46.4639 292.887C46.1357 292.887 45.8493 292.967 45.6045 293.129C45.3623 293.288 45.1748 293.496 45.042 293.754C44.9118 294.009 44.8467 294.286 44.8467 294.586V295.27C44.8467 295.671 44.917 296.012 45.0576 296.293C45.2008 296.574 45.4001 296.789 45.6553 296.937C45.9105 297.083 46.2087 297.156 46.5498 297.156C46.7712 297.156 46.973 297.125 47.1553 297.062C47.3376 296.997 47.4951 296.901 47.6279 296.773C47.7607 296.646 47.8623 296.488 47.9326 296.301L49.0381 296.5C48.9495 296.826 48.7907 297.111 48.5615 297.355C48.335 297.598 48.0498 297.786 47.7061 297.922C47.3649 298.055 46.9756 298.121 46.5381 298.121Z" fill="#3D3D3D"/>
<path d="M68.6663 294.001C68.6663 297.683 65.6815 300.667 61.9997 300.667C58.3178 300.667 55.333 297.683 55.333 294.001C55.333 290.319 58.3178 287.334 61.9997 287.334C65.6815 287.334 68.6663 290.319 68.6663 294.001Z" fill="black" fill-opacity="0.3" style="mix-blend-mode:multiply"/>
<path d="M64 292L62 294M62 294L60 296M62 294L60 292M62 294L64 296" stroke="black" stroke-opacity="0.5" stroke-width="1.33333" stroke-linecap="round" stroke-linejoin="round"/>
</svg>
