<svg xmlns="http://www.w3.org/2000/svg" xmlns:xlink="http://www.w3.org/1999/xlink" width="1263.207" height="202.337" viewBox="0 0 1263.207 202.337"><defs><linearGradient id="linear-gradient" x1="0.5" y1="-3.912" x2="0.5" y2="0.983" gradientUnits="objectBoundingBox"><stop offset="0" stop-color="#eccc9e"></stop><stop offset="0.831" stop-color="#a37248"></stop><stop offset="0.916" stop-color="#b18351"></stop><stop offset="1" stop-color="#ae7f4d"></stop></linearGradient><linearGradient id="linear-gradient-2" x1="0.5" y1="0.05" x2="0.5" y2="4.945" gradientUnits="objectBoundingBox"><stop offset="0" stop-color="#eccc9e"></stop><stop offset="1" stop-color="#ae7f4d"></stop></linearGradient><linearGradient id="linear-gradient-3" x1="0.5" y1="0.01" x2="0.5" y2="0.996" xlink:href="#linear-gradient"></linearGradient><linearGradient id="linear-gradient-4" x1="0.5" y1="0.01" x2="0.5" y2="0.996" gradientUnits="objectBoundingBox"><stop offset="0" stop-color="#ffefd4"></stop><stop offset="0.225" stop-color="#eccc9e"></stop><stop offset="0.237" stop-color="#eac99b"></stop><stop offset="0.404" stop-color="#d4af7c"></stop><stop offset="0.547" stop-color="#c69f69"></stop><stop offset="0.646" stop-color="#c29a63"></stop><stop offset="0.743" stop-color="#c8a16c"></stop><stop offset="0.904" stop-color="#dab685"></stop><stop offset="1" stop-color="#e8c698"></stop></linearGradient><linearGradient id="linear-gradient-5" y1="-1.89" y2="3.005" xlink:href="#linear-gradient-2"></linearGradient><linearGradient id="linear-gradient-6" x1="0.5" y1="-3.967" x2="0.5" y2="1.058" xlink:href="#linear-gradient"></linearGradient><linearGradient id="linear-gradient-7" y1="-0.006" y2="5.02" xlink:href="#linear-gradient-2"></linearGradient><linearGradient id="linear-gradient-8" y1="-1.946" y2="3.079" xlink:href="#linear-gradient-2"></linearGradient><linearGradient id="linear-gradient-9" x1="0.5" y1="0.01" x2="0.5" y2="0.997" xlink:href="#linear-gradient"></linearGradient><linearGradient id="linear-gradient-10" x1="0.5" y1="0.01" x2="0.5" y2="0.996" xlink:href="#linear-gradient-4"></linearGradient><linearGradient id="linear-gradient-11" x1="0.5" y1="0.01" x2="0.5" y2="0.997" xlink:href="#linear-gradient"></linearGradient><linearGradient id="linear-gradient-12" x1="0.5" y1="0.01" x2="0.5" y2="0.996" xlink:href="#linear-gradient-4"></linearGradient><linearGradient id="linear-gradient-13" x1="0.5" y1="-1.175" x2="0.5" y2="2.215" gradientUnits="objectBoundingBox"><stop offset="0" stop-color="#baa57a"></stop><stop offset="1" stop-color="#77633c"></stop></linearGradient><linearGradient id="linear-gradient-14" x1="0.5" y1="-2.575" x2="0.5" y2="0.815" xlink:href="#linear-gradient-13"></linearGradient><linearGradient id="linear-gradient-15" x1="0.5" y1="0.169" x2="0.5" y2="3.558" xlink:href="#linear-gradient-13"></linearGradient><linearGradient id="linear-gradient-16" x1="0.5" y1="0.04" x2="0.5" y2="0.961" gradientUnits="objectBoundingBox"><stop offset="0" stop-color="#ad977a"></stop><stop offset="1" stop-color="#5c4f2d"></stop></linearGradient><linearGradient id="linear-gradient-17" y1="0.5" x2="1" y2="0.5" gradientUnits="objectBoundingBox"><stop offset="0" stop-color="#dbbe94"></stop><stop offset="1" stop-color="#a59072"></stop></linearGradient><linearGradient id="linear-gradient-18" x1="0.5" y1="1.096" x2="0.5" y2="23.27" gradientUnits="objectBoundingBox"><stop offset="0" stop-color="#d5b995"></stop><stop offset="1" stop-color="#4c4537"></stop></linearGradient><linearGradient id="linear-gradient-20" x1="0.5" y1="0.05" x2="0.5" y2="0.971" xlink:href="#linear-gradient-18"></linearGradient><linearGradient id="linear-gradient-21" x1="0.5" y1="0.045" x2="0.5" y2="0.956" xlink:href="#linear-gradient-18"></linearGradient><linearGradient id="linear-gradient-23" x1="0.5" y1="-1.357" x2="0.5" y2="2.395" xlink:href="#linear-gradient-13"></linearGradient><linearGradient id="linear-gradient-24" x1="0.5" y1="-0.013" x2="0.5" y2="3.739" xlink:href="#linear-gradient-13"></linearGradient><linearGradient id="linear-gradient-25" x1="0.5" y1="-2.757" x2="0.5" y2="0.995" xlink:href="#linear-gradient-13"></linearGradient><linearGradient id="linear-gradient-26" x1="0.5" y1="0.057" x2="0.5" y2="0.994" gradientUnits="objectBoundingBox"><stop offset="0" stop-color="#baa780"></stop><stop offset="0.68" stop-color="#96856a"></stop><stop offset="1" stop-color="#42381f"></stop></linearGradient><linearGradient id="linear-gradient-27" x1="0.5" y1="0" x2="0.5" y2="0.966" xlink:href="#linear-gradient-26"></linearGradient><linearGradient id="linear-gradient-28" y1="0.5" x2="1" y2="0.5" gradientUnits="objectBoundingBox"><stop offset="0" stop-color="#cbb78b"></stop><stop offset="1" stop-color="#96856a"></stop></linearGradient><linearGradient id="linear-gradient-29" x1="0.5" y1="3.451" x2="0.5" y2="0.02" xlink:href="#linear-gradient-18"></linearGradient><linearGradient id="linear-gradient-30" x1="0.5" y1="1.038" x2="0.5" y2="-1.995" xlink:href="#linear-gradient-18"></linearGradient><linearGradient id="linear-gradient-31" x1="0.5" y1="-0.025" x2="0.5" y2="-3.443" xlink:href="#linear-gradient-18"></linearGradient><linearGradient id="linear-gradient-33" x1="0.5" y1="4.228" x2="0.5" y2="-0.06" xlink:href="#linear-gradient-18"></linearGradient><linearGradient id="linear-gradient-34" x1="0.5" y1="-22.341" x2="0.5" y2="-0.083" gradientUnits="objectBoundingBox"><stop offset="0" stop-color="#cbb78b"></stop><stop offset="0.427" stop-color="#64573a"></stop><stop offset="1" stop-color="#42381f"></stop></linearGradient><linearGradient id="linear-gradient-36" x1="0.5" y1="-0.405" x2="0.5" y2="1.396" xlink:href="#linear-gradient-34"></linearGradient><linearGradient id="linear-gradient-37" x1="0.5" y1="0.974" x2="0.5" y2="23.272" xlink:href="#linear-gradient-34"></linearGradient><linearGradient id="linear-gradient-38" x1="0.5" y1="-2.907" x2="0.5" y2="0.819" xlink:href="#linear-gradient-34"></linearGradient><linearGradient id="linear-gradient-39" x1="0.5" y1="0.163" x2="0.5" y2="3.888" xlink:href="#linear-gradient-34"></linearGradient><linearGradient id="linear-gradient-40" x1="0.5" y1="1.532" x2="0.5" y2="-0.022" xlink:href="#linear-gradient-18"></linearGradient><linearGradient id="linear-gradient-41" x1="0.5" y1="0.625" x2="0.5" y2="-0.632" xlink:href="#linear-gradient-18"></linearGradient><linearGradient id="linear-gradient-42" x1="0.5" y1="1.977" x2="0.5" y2="0.012" xlink:href="#linear-gradient-18"></linearGradient></defs><g id="Group_50176" data-name="Group 50176" transform="translate(7289.586 -18538.109)"><path id="Path_186" data-name="Path 186" d="M331.638,282.047H58.854l-30.11-52.688H361.676Z" transform="translate(-7314.308 18311.484)" fill="none" stroke="#160000" stroke-width="4.669"></path><path id="Path_187" data-name="Path 187" d="M274.661,323.774H82.7L52.591,271.085H304.7Z" transform="translate(-7297.693 18340.553)" fill="none" stroke="#160000" stroke-width="4.669"></path><path id="Path_188" data-name="Path 188" d="M215.294,367.251H107.553l-30.114-52.69H245.334Z" transform="translate(-7280.383 18370.838)" fill="none" stroke="#160000" stroke-width="4.669"></path><path id="Path_189" data-name="Path 189" d="M825.845,282.047H589.237l30.747-52.688h235.9Z" transform="translate(-6923.835 18311.484)" fill="none" stroke="#160000" stroke-width="4.669"></path><path id="Path_190" data-name="Path 190" d="M802.444,323.774H564.888l30.747-52.689H832.482Z" transform="translate(-6940.798 18340.553)" fill="none" stroke="#160000" stroke-width="4.669"></path><path id="Path_191" data-name="Path 191" d="M778.063,367.251H539.52l30.743-52.69H808.1Z" transform="translate(-6958.468 18370.838)" fill="none" stroke="#160000" stroke-width="4.669"></path><path id="Path_192" data-name="Path 192" d="M420.579,282.543h95.4V229.358H383.593c-31.605,0-57.225,21.7-57.225,48.477V378.147c0,26.773,25.62,48.477,57.225,48.477l132.382-.015V373.422l-95.4-.034a14.047,14.047,0,0,1-14.257-14.009v-6.04H515.975V300.151H406.322V296.8A14.257,14.257,0,0,1,420.579,282.543Z" transform="translate(-7106.963 18311.488)" fill="none" stroke="#160000" stroke-width="4.669"></path><path id="Path_193" data-name="Path 193" d="M308.18,229.358c-20.029,0-26.772,7.1-33.407,18.709C269.134,257.935,172.3,426.624,172.3,426.624h88.615l29.534-51.5h41.757v51.5H412.9V229.358ZM303.8,351.852,332.209,302.3v49.548Z" transform="translate(-7214.294 18311.488)" fill="none" stroke="#160000" stroke-width="4.669"></path><path id="Path_194" data-name="Path 194" d="M531.474,353.678V229.358H450.781V426.624H555.508c20.029,0,26.77-7.1,33.406-18.711,5.641-9.866,102.468-178.555,102.468-178.555H602.766Z" transform="translate(-7020.289 18311.488)" fill="none" stroke="#160000" stroke-width="4.669"></path><path id="Path_195" data-name="Path 195" d="M331.638,282.047H58.854l-30.11-52.688H361.676Z" transform="translate(-7314.308 18311.484)" fill="none" stroke="#160000" stroke-width="4.669"></path><path id="Path_196" data-name="Path 196" d="M274.661,323.774H82.7L52.591,271.085H304.7Z" transform="translate(-7297.693 18340.553)" fill="none" stroke="#160000" stroke-width="4.669"></path><path id="Path_197" data-name="Path 197" d="M215.294,367.251H107.553l-30.114-52.69H245.334Z" transform="translate(-7280.383 18370.838)" fill="none" stroke="#160000" stroke-width="4.669"></path><path id="Path_198" data-name="Path 198" d="M825.845,282.047H589.237l30.747-52.688h235.9Z" transform="translate(-6923.835 18311.484)" fill="none" stroke="#160000" stroke-width="4.669"></path><path id="Path_199" data-name="Path 199" d="M802.444,323.774H564.888l30.747-52.689H832.482Z" transform="translate(-6940.798 18340.553)" fill="none" stroke="#160000" stroke-width="4.669"></path><path id="Path_200" data-name="Path 200" d="M778.063,367.251H539.52l30.743-52.69H808.1Z" transform="translate(-6958.468 18370.838)" fill="none" stroke="#160000" stroke-width="4.669"></path><path id="Path_201" data-name="Path 201" d="M420.579,282.543h95.4V229.358H383.593c-31.605,0-57.225,21.7-57.225,48.477V378.147c0,26.773,25.62,48.477,57.225,48.477l132.382-.015V373.422l-95.4-.034a14.047,14.047,0,0,1-14.257-14.009v-6.04H515.975V300.151H406.322V296.8A14.257,14.257,0,0,1,420.579,282.543Z" transform="translate(-7106.963 18311.488)" fill="none" stroke="#160000" stroke-width="4.669"></path><path id="Path_202" data-name="Path 202" d="M308.18,229.358c-20.029,0-26.772,7.1-33.407,18.709C269.134,257.935,172.3,426.624,172.3,426.624h88.615l29.534-51.5h41.757v51.5H412.9V229.358ZM303.8,351.852,332.209,302.3v49.548Z" transform="translate(-7214.294 18311.488)" fill="none" stroke="#160000" stroke-width="4.669"></path><path id="Path_203" data-name="Path 203" d="M531.474,353.678V229.358H450.781V426.624H555.508c20.029,0,26.77-7.1,33.406-18.711,5.641-9.866,102.468-178.555,102.468-178.555H602.766Z" transform="translate(-7020.289 18311.488)" fill="none" stroke="#160000" stroke-width="4.669"></path><path id="Path_204" data-name="Path 204" d="M204.831,355.752H106.511L85.659,319.267H225.632Z" transform="translate(-7274.659 18374.121)" fill="url(#linear-gradient)"></path><path id="Path_205" data-name="Path 205" d="M321.155,270.563H57.822L36.972,234.08H341.954Z" transform="translate(-7308.577 18314.771)" fill="url(#linear-gradient-2)"></path><path id="Path_206" data-name="Path 206" d="M302.407,234.078h96.611V415.115H334.532v-51.5H279.992l-29.527,51.5H180.541c-2.124,3.7,89.852-156.531,95.5-166.41C281.545,239.183,286.165,234.219,302.407,234.078ZM284.047,356.553h50.484V268.517l-50.484,88.036" transform="translate(-7208.583 18314.773)" fill="url(#linear-gradient-3)"></path><path id="Path_207" data-name="Path 207" d="M394.121,411.084H335.35v-51.5H276.3l-.825,1.437-28.7,50.058H183.433c5.1-8.894,17.465-30.438,31.281-54.5,26.159-45.574,58.491-101.9,61.764-107.638,5.243-9.065,9.094-13.056,23.913-13.183h93.73V411.084ZM335.35,256.62l-5.338,9.3-50.484,88.038-2.452,4.276H335.35V256.62Z" transform="translate(-7206.542 18315.938)" fill="url(#linear-gradient-4)"></path><path id="Path_208" data-name="Path 208" d="M264.188,312.282H81.666L60.816,275.8H284.988Z" transform="translate(-7291.966 18343.832)" fill="url(#linear-gradient-5)"></path><path id="Path_209" data-name="Path 209" d="M767.446,355.752h-219.7l21.288-36.485H788.245Z" transform="translate(-6952.739 18374.121)" fill="url(#linear-gradient-6)"></path><path id="Path_210" data-name="Path 210" d="M815.219,270.563H597.456l21.292-36.483h217.27Z" transform="translate(-6918.106 18314.771)" fill="url(#linear-gradient-7)"></path><path id="Path_211" data-name="Path 211" d="M791.82,312.282H573.112L594.4,275.8H812.619Z" transform="translate(-6935.069 18343.832)" fill="url(#linear-gradient-8)"></path><path id="Path_212" data-name="Path 212" d="M520.027,380.7l84.068-146.6h69.921c2.121-3.7-89.854,156.529-95.493,166.409-5.511,9.523-10.129,14.49-26.373,14.629H455.54V234.1h64.487Z" transform="translate(-7017.069 18314.74)" fill="url(#linear-gradient-9)"></path><path id="Path_213" data-name="Path 213" d="M550.894,411.084H457.17V235.763h58.771V390.224l5.336-9.3L604.52,235.763h63.335c-3.824,6.666-11.736,20.445-21.405,37.3-27.052,47.13-67.936,118.352-71.64,124.835-5.246,9.07-9.1,13.061-23.916,13.19Z" transform="translate(-7015.841 18315.938)" fill="url(#linear-gradient-10)"></path><path id="Path_214" data-name="Path 214" d="M417.192,271.06a22.345,22.345,0,0,0-22.354,22.352v11.449H504.473v36.98H394.838v14.135a22.126,22.126,0,0,0,22.354,22.107l87.281.029V415.1l-124.262.015c-27.629-.058-49.2-18.594-49.119-40.372V274.45c-.081-21.777,21.49-40.314,49.119-40.372H504.473V271.06Z" transform="translate(-7103.674 18314.773)" fill="url(#linear-gradient-11)"></path><path id="Path_215" data-name="Path 215" d="M379.039,411.085c-14.059-.029-27.191-5.143-36.029-14.035-6.632-6.675-10.265-15.009-10.233-23.468V273.277c-.032-8.473,3.6-16.805,10.233-23.478,8.838-8.892,21.97-14.008,36.029-14.036h121.4V267.03H416.016a25.243,25.243,0,0,0-25.207,25.212v14.3H500.442v31.269H390.809V354.8a24.65,24.65,0,0,0,7.43,17.762,25.232,25.232,0,0,0,17.778,7.2l84.426.029V411.07l-121.4.015Z" transform="translate(-7102.5 18315.949)" fill="url(#linear-gradient-12)"></path><path id="Path_216" data-name="Path 216" d="M370.263,273.941c1.069-1.071.982.75,2.053,1.821s2.889.984,1.821,2.053a2.739,2.739,0,0,1-3.873-3.874Z" transform="translate(-7076.946 18342.314)" fill="#fff"></path><circle id="Ellipse_22" data-name="Ellipse 22" cx="3.237" cy="3.237" r="3.237" transform="translate(-6599.884 18615.695)" fill="#fff"></circle><circle id="Ellipse_23" data-name="Ellipse 23" cx="3.237" cy="3.237" r="3.237" transform="translate(-6599.884 18546.477)" fill="#fff"></circle><path id="Path_217" data-name="Path 217" d="M434.189,279.833c-.528-.543.7-2.643,2.749-4.695s4.13-3.275,4.659-2.732-.7,2.645-2.749,4.7S434.717,280.378,434.189,279.833Z" transform="translate(-7031.935 18341.389)" fill="#fff"></path><path id="Path_218" data-name="Path 218" d="M434.189,238.184c-.528-.543.7-2.643,2.749-4.695s4.13-3.275,4.659-2.732-.7,2.645-2.749,4.7S434.717,238.729,434.189,238.184Z" transform="translate(-7031.935 18312.363)" fill="#fff"></path><path id="Path_219" data-name="Path 219" d="M309.543,238.184c-.526-.543.7-2.643,2.749-4.695s4.13-3.275,4.659-2.732-.7,2.645-2.749,4.7S310.071,238.729,309.543,238.184Z" transform="translate(-7118.772 18312.363)" fill="#fff"></path><path id="Path_220" data-name="Path 220" d="M216.329,237.1c-.378-.655,1.325-2.384,3.809-3.863s4.8-2.15,5.182-1.495-1.325,2.384-3.809,3.863S216.709,237.756,216.329,237.1Z" transform="translate(-7183.661 18312.967)" fill="#fff"></path><path id="Path_221" data-name="Path 221" d="M191.478,279.954c-.378-.655,1.325-2.384,3.809-3.863s4.8-2.15,5.182-1.495-1.325,2.384-3.809,3.863S191.856,280.609,191.478,279.954Z" transform="translate(-7200.974 18342.824)" fill="#fff"></path><circle id="Ellipse_24" data-name="Ellipse 24" cx="3.237" cy="3.237" r="3.237" transform="translate(-6497.3 18546.477)" fill="#fff"></circle><path id="Path_222" data-name="Path 222" d="M494.652,238.184c-.526-.543.7-2.643,2.749-4.695s4.131-3.275,4.659-2.732-.7,2.645-2.749,4.7S495.179,238.729,494.652,238.184Z" transform="translate(-6989.813 18312.363)" fill="#fff"></path><path id="Path_223" data-name="Path 223" d="M583.736,235.034a3.236,3.236,0,1,1,2.073,4.08A3.236,3.236,0,0,1,583.736,235.034Z" transform="translate(-6927.779 18313.881)" fill="#fff"></path><path id="Path_224" data-name="Path 224" d="M214.557,235.034a3.236,3.236,0,1,1,2.073,4.08A3.236,3.236,0,0,1,214.557,235.034Z" transform="translate(-7184.97 18313.881)" fill="#fff"></path><path id="Path_225" data-name="Path 225" d="M308.5,235.034a3.237,3.237,0,1,1,2.073,4.08A3.238,3.238,0,0,1,308.5,235.034Z" transform="translate(-7119.524 18313.881)" fill="#fff"></path><path id="Path_226" data-name="Path 226" d="M584.731,237.056c-.332-.679,1.49-2.3,4.07-3.612s4.941-1.832,5.273-1.154-1.484,2.3-4.065,3.616S585.065,237.734,584.731,237.056Z" transform="translate(-6927 18313.316)" fill="#fff"></path><path id="Path_227" data-name="Path 227" d="M182.242,340.874q-2.125,1.189-4.23,2.4c1.281-.74,2.986-1.729,4.265-2.469C182.252,340.852,182.242,340.874,182.242,340.874Z" transform="translate(-7210.32 18389.125)" fill="#dbbe94"></path><path id="Path_228" data-name="Path 228" d="M178.012,343.279l4.265-2.469c-.025.042-.036.064-.036.064l-4.194,2.342a.509.509,0,0,1-.036.063" transform="translate(-7210.32 18389.125)" fill="#dbbe94"></path><path id="Path_229" data-name="Path 229" d="M182.242,340.874q-2.125,1.189-4.23,2.4c1.281-.74,2.986-1.729,4.265-2.469C182.252,340.852,182.242,340.874,182.242,340.874Z" transform="translate(-7210.32 18389.125)" fill="#dbbe94"></path><path id="Path_230" data-name="Path 230" d="M313.157,231.831c-1,1-2.14,2.161-3.728,3.865h-.134Z" transform="translate(-7118.86 18313.211)" fill="#dbbe94"></path><path id="Path_231" data-name="Path 231" d="M313.026,231.831l-3.6,3.865h-.134l3.862-3.865h-.131" transform="translate(-7118.86 18313.211)" fill="#dbbe94"></path><path id="Path_232" data-name="Path 232" d="M313.157,231.831c-1,1-2.14,2.161-3.728,3.865h-.134Z" transform="translate(-7118.86 18313.211)" fill="#dbbe94"></path><path id="Path_233" data-name="Path 233" d="M278.178,272.323l-28.407,49.539Z" transform="translate(-7160.329 18341.414)" fill="#473f31"></path><path id="Path_234" data-name="Path 234" d="M213.49,271.056l-30.036,52.678Z" transform="translate(-7206.53 18340.535)" fill="#483f31"></path><path id="Path_235" data-name="Path 235" d="M107.542,367.206,77.433,314.525Z" transform="translate(-7280.39 18370.816)" fill="#41392c"></path><path id="Path_236" data-name="Path 236" d="M82.7,323.734,52.59,271.056Z" transform="translate(-7297.698 18340.535)" fill="#41392c"></path><path id="Path_237" data-name="Path 237" d="M347.2,345.581h0Z" transform="translate(-7148.662 18392.453)" fill="#41392c"></path><path id="Path_238" data-name="Path 238" d="M58.852,282.016l-30.1-52.678Z" transform="translate(-7314.308 18311.467)" fill="#41392c"></path><path id="Path_239" data-name="Path 239" d="M66.546,279.154l-13.956-8.1H304.657l-13.939,8.1Z" transform="translate(-7297.696 18340.535)" fill="#c19c6a"></path><path id="Path_240" data-name="Path 240" d="M201.482,279.154l13.939-8.1-30.034,52.678-4.7-8.1Z" transform="translate(-7208.46 18340.535)" fill="url(#linear-gradient-13)"></path><path id="Path_241" data-name="Path 241" d="M63.552,273.918l-4.7,8.1-30.1-52.679,13.954,8.1Z" transform="translate(-7314.307 18311.473)" fill="#41392c"></path><path id="Path_242" data-name="Path 242" d="M314.524,255.613l4.7,8.1H46.491l4.7-8.1Z" transform="translate(-7301.947 18329.777)" fill="#41392c"></path><path id="Path_243" data-name="Path 243" d="M198.2,340.8l4.7,8.1H95.179l4.7-8.1Z" transform="translate(-7268.026 18389.121)" fill="#41392c"></path><path id="Path_244" data-name="Path 244" d="M112.241,359.106l-4.7,8.1-30.109-52.68,13.956,8.1Z" transform="translate(-7280.389 18370.818)" fill="#41392c"></path><path id="Path_245" data-name="Path 245" d="M91.389,322.623l-13.956-8.1H245.3l-13.939,8.1Z" transform="translate(-7280.389 18370.818)" fill="#c19c6a"></path><path id="Path_246" data-name="Path 246" d="M176.7,322.623l13.939-8.1L160.6,367.205l-4.7-8.1Z" transform="translate(-7225.727 18370.818)" fill="url(#linear-gradient-14)"></path><path id="Path_247" data-name="Path 247" d="M225.267,237.435l13.939-8.1-30.033,52.679-4.7-8.1Z" transform="translate(-7191.89 18311.473)" fill="url(#linear-gradient-15)"></path><path id="Path_248" data-name="Path 248" d="M42.7,237.435l-13.954-8.1H361.623l-13.939,8.1Z" transform="translate(-7314.307 18311.473)" fill="#d5b995"></path><path id="Path_249" data-name="Path 249" d="M274.612,342.443l-8.1-8.1V284.805l8.1-30.4Z" transform="translate(-7148.662 18328.938)" fill="#41392c"></path><path id="Path_250" data-name="Path 250" d="M241.532,309.62l13.979-8.1h28.408l8.1,8.1Z" transform="translate(-7166.069 18361.758)" fill="#a59072"></path><path id="Path_251" data-name="Path 251" d="M292.016,254.406l-8.1,30.4L255.51,334.344l-13.979,8.1Z" transform="translate(-7166.069 18328.938)" fill="#77633c"></path><path id="Path_252" data-name="Path 252" d="M309.294,237.433l8.1-8.1v197.23l-8.1-8.1Z" transform="translate(-7118.86 18311.469)" fill="url(#linear-gradient-16)"></path><path id="Path_253" data-name="Path 253" d="M339.1,340.81l8.1,8.1H266.514l8.1-8.1Z" transform="translate(-7148.662 18389.125)" fill="#41392c"></path><path id="Path_254" data-name="Path 254" d="M274.612,361.954l-8.1,8.1V318.557l8.1-8.1Z" transform="translate(-7148.662 18367.988)" fill="#41392c"></path><path id="Path_255" data-name="Path 255" d="M293.68,310.46l-3.759,5.243-4.339,2.854H243.832l-4.69-8.1Z" transform="translate(-7167.733 18367.988)" fill="#41392c"></path><path id="Path_256" data-name="Path 256" d="M251.266,310.46l4.69,8.1L226.429,370.05l-4.69-8.1Z" transform="translate(-7179.857 18367.988)" fill="#77633c"></path><path id="Path_257" data-name="Path 257" d="M256.193,340.81l4.69,8.1h-88.6l13.986-8.1Z" transform="translate(-7214.313 18389.125)" fill="#41392c"></path><path id="Path_258" data-name="Path 258" d="M257.556,297.332l4.7,8.1H70.335l4.7-8.1Z" transform="translate(-7285.333 18358.838)" fill="#41392c"></path><path id="Path_259" data-name="Path 259" d="M87.4,315.637l-4.7,8.1L52.59,271.056l13.956,8.1Z" transform="translate(-7297.696 18340.535)" fill="#41392c"></path><path id="Path_260" data-name="Path 260" d="M352.826,233.569c-1.138,1.145-2.08,2.107-3.521,3.641-.21.224-77.4.224-96.952.224v-8.1H357.061Z" transform="translate(-7158.53 18311.469)" fill="url(#linear-gradient-17)"></path><path id="Path_261" data-name="Path 261" d="M252.353,237.434v-8.1H357.061l-8.1,8.1H252.353" transform="translate(-7158.53 18311.469)" fill="url(#linear-gradient-18)"></path><path id="Path_262" data-name="Path 262" d="M352.826,233.569c-1.138,1.145-2.08,2.107-3.521,3.641-.21.224-77.4.224-96.952.224v-8.1H357.061Z" transform="translate(-7158.53 18311.469)" fill="url(#linear-gradient-17)"></path><path id="Path_263" data-name="Path 263" d="M186.234,418.534c-2.516,1.413-2.516,1.413-13.952,8.03,4.841-8.429,96.815-168.657,102.453-178.523,6.634-11.609,13.375-18.706,33.4-18.706v8.1c-16.242.139-20.862,5.1-26.37,14.625C276.186,261.825,186.23,418.536,186.234,418.534Z" transform="translate(-7214.313 18311.469)" fill="url(#linear-gradient-20)"></path><path id="Path_264" data-name="Path 264" d="M186.269,418.47l-13.987,8.095c4.841-8.429,96.815-168.657,102.453-178.523,6.634-11.609,13.375-18.706,33.4-18.706v8.1c-16.242.139-20.862,5.1-26.37,14.625-5.645,9.88-97.621,170.107-95.5,166.41" transform="translate(-7214.313 18311.469)" fill="url(#linear-gradient-21)"></path><path id="Path_265" data-name="Path 265" d="M186.234,418.534c-2.516,1.413-2.516,1.413-13.952,8.03,4.841-8.429,96.815-168.657,102.453-178.523,6.634-11.609,13.375-18.706,33.4-18.706v8.1c-16.242.139-20.862,5.1-26.37,14.625C276.186,261.825,186.23,418.536,186.234,418.534Z" transform="translate(-7214.313 18311.469)" fill="url(#linear-gradient-20)"></path><path id="Path_266" data-name="Path 266" d="M584.29,235.058q2.125-1.189,4.228-2.4l-4.265,2.469Z" transform="translate(-6927.307 18313.775)" fill="#dbbe94"></path><path id="Path_267" data-name="Path 267" d="M588.518,232.654l-4.265,2.469.037-.064,4.191-2.343a.64.64,0,0,1,.037-.061" transform="translate(-6927.307 18313.775)" fill="#dbbe94"></path><path id="Path_268" data-name="Path 268" d="M584.29,235.058q2.125-1.189,4.228-2.4l-4.265,2.469Z" transform="translate(-6927.307 18313.775)" fill="#dbbe94"></path><path id="Path_269" data-name="Path 269" d="M453.209,344.673c1-1.008,2.151-2.174,3.728-3.863h.134Z" transform="translate(-7018.601 18389.125)" fill="#dbbe94"></path><path id="Path_270" data-name="Path 270" d="M453.336,344.673l3.6-3.863h.134l-3.861,3.863h.127" transform="translate(-7018.601 18389.125)" fill="#dbbe94"></path><path id="Path_271" data-name="Path 271" d="M453.209,344.673c1-1.008,2.151-2.174,3.728-3.863h.134Z" transform="translate(-7018.601 18389.125)" fill="#dbbe94"></path><path id="Path_272" data-name="Path 272" d="M825.713,260.386h0Z" transform="translate(-6923.897 18333.104)" fill="#41392c"></path><path id="Path_273" data-name="Path 273" d="M564.8,323.734l30.742-52.678Z" transform="translate(-6940.859 18340.535)" fill="#41392c"></path><path id="Path_274" data-name="Path 274" d="M607.264,229.338h0Z" transform="translate(-6911.275 18311.467)" fill="#6f624e"></path><path id="Path_275" data-name="Path 275" d="M539.436,367.206l30.738-52.681Z" transform="translate(-6958.529 18370.816)" fill="#41392c"></path><path id="Path_276" data-name="Path 276" d="M734.824,271.056l-30.033,52.678Z" transform="translate(-6843.331 18340.535)" fill="#483f31"></path><path id="Path_277" data-name="Path 277" d="M710.041,314.525l-30.034,52.681Z" transform="translate(-6860.599 18370.816)" fill="#483f31"></path><path id="Path_278" data-name="Path 278" d="M578.9,315.637l-14.1,8.1,30.742-52.678,4.649,8.1Z" transform="translate(-6940.858 18340.535)" fill="#5f513c"></path><path id="Path_279" data-name="Path 279" d="M587.567,279.154l-4.648-8.1H819.727l-13.939,8.1Z" transform="translate(-6928.234 18340.535)" fill="#c19c6a"></path><path id="Path_280" data-name="Path 280" d="M722.816,279.154l13.94-8.1-30.032,52.678-4.707-8.1Z" transform="translate(-6845.265 18340.535)" fill="url(#linear-gradient-23)"></path><path id="Path_281" data-name="Path 281" d="M603.247,273.918l-14.1,8.1,30.743-52.679,4.65,8.1Z" transform="translate(-6923.898 18311.473)" fill="#5f513c"></path><path id="Path_282" data-name="Path 282" d="M821.009,255.613l4.7,8.1H589.144l14.1-8.1Z" transform="translate(-6923.898 18329.777)" fill="#41392c"></path><path id="Path_283" data-name="Path 283" d="M773.235,340.8l4.7,8.1h-238.5l14.1-8.1Z" transform="translate(-6958.529 18389.121)" fill="#41392c"></path><path id="Path_284" data-name="Path 284" d="M746.6,237.435l13.938-8.1-30.034,52.679-4.7-8.1Z" transform="translate(-6828.695 18311.473)" fill="url(#linear-gradient-24)"></path><path id="Path_285" data-name="Path 285" d="M553.535,359.106l-14.1,8.1,30.738-52.68,4.648,8.1Z" transform="translate(-6958.529 18370.818)" fill="#5f513c"></path><path id="Path_286" data-name="Path 286" d="M562.2,322.623l-4.649-8.1h237.8l-13.938,8.1Z" transform="translate(-6945.908 18370.818)" fill="#c19c6a"></path><path id="Path_287" data-name="Path 287" d="M698.035,322.623l13.938-8.1-30.034,52.68-4.7-8.1Z" transform="translate(-6862.53 18370.818)" fill="url(#linear-gradient-25)"></path><path id="Path_288" data-name="Path 288" d="M611.915,237.435l-4.65-8.1H843.123l-13.938,8.1Z" transform="translate(-6911.276 18311.473)" fill="#d5b995"></path><path id="Path_289" data-name="Path 289" d="M493.493,384.031l8.1-30.4,71.278-124.3,4.693,8.1Z" transform="translate(-6990.536 18311.469)" fill="#41392c"></path><path id="Path_290" data-name="Path 290" d="M544.969,237.433l-4.693-8.1h88.6l-13.984,8.1Z" transform="translate(-6957.944 18311.469)" fill="#d5b995"></path><path id="Path_291" data-name="Path 291" d="M797.611,297.332l4.706,8.1H564.8l14.1-8.1Z" transform="translate(-6940.858 18358.838)" fill="#41392c"></path><path id="Path_292" data-name="Path 292" d="M458.81,418.47l-8.1,8.1V229.336l8.1,8.1Z" transform="translate(-7020.34 18311.469)" fill="#41392c"></path><path id="Path_293" data-name="Path 293" d="M458.81,237.433l-8.1-8.1h80.68l-8.1,8.1Z" transform="translate(-7020.34 18311.469)" fill="#d5b995"></path><path id="Path_294" data-name="Path 294" d="M493.493,237.433l8.1-8.1v124.3l-8.1,30.4Z" transform="translate(-6990.536 18311.469)" fill="url(#linear-gradient-26)"></path><path id="Path_295" data-name="Path 295" d="M677.286,237.434l13.984-8.1c-4.839,8.431-96.81,168.658-102.446,178.525-6.636,11.609-13.378,18.7-33.4,18.7H450.712l8.1-8.095h96.61c16.244-.139,20.862-5.1,26.373-14.629,5.64-9.878,97.614-170.1,95.493-166.407" transform="translate(-7020.339 18311.469)" fill="url(#linear-gradient-27)"></path><path id="Path_296" data-name="Path 296" d="M477.219,260.678h0Z" transform="translate(-7068.32 18333.307)" fill="#41392c"></path><path id="Path_297" data-name="Path 297" d="M373.436,271.054h0Z" transform="translate(-7074.175 18340.529)" fill="#6f624e"></path><path id="Path_298" data-name="Path 298" d="M368.664,279.152l8.1-8.1H486.4l-8.1,8.1Z" transform="translate(-7077.5 18340.529)" fill="#d5b995"></path><path id="Path_299" data-name="Path 299" d="M433.282,279.152l8.1-8.1V324.23l-8.1-8.1Z" transform="translate(-7032.482 18340.529)" fill="url(#linear-gradient-28)"></path><path id="Path_300" data-name="Path 300" d="M478.3,297.624l8.1,8.1H376.761l-8.1-8.1Z" transform="translate(-7077.5 18359.043)" fill="url(#linear-gradient-29)"></path><path id="Path_301" data-name="Path 301" d="M368.664,269.08h8.1v3.35l-8.1,8.1Z" transform="translate(-7077.5 18339.16)" fill="url(#linear-gradient-30)"></path><path id="Path_302" data-name="Path 302" d="M381.839,322.311v-8.1l95.379.035-8.1,8.094Z" transform="translate(-7068.319 18370.594)" fill="url(#linear-gradient-31)"></path><path id="Path_303" data-name="Path 303" d="M433.282,322.326l8.1-8.094V367.41l-8.1-8.1Z" transform="translate(-7032.482 18370.617)" fill="url(#linear-gradient-28)"></path><path id="Path_304" data-name="Path 304" d="M469.121,255.9l8.1,8.1H381.839v-8.1Z" transform="translate(-7068.319 18329.973)" fill="url(#linear-gradient-33)"></path><path id="Path_305" data-name="Path 305" d="M484.306,340.8l8.1,8.1-132.36.012v-8.1Z" transform="translate(-7083.505 18389.121)" fill="url(#linear-gradient-34)"></path><path id="Path_306" data-name="Path 306" d="M433.282,237.433l8.1-8.1v53.177l-8.1-8.1Z" transform="translate(-7032.482 18311.469)" fill="url(#linear-gradient-28)"></path><rect id="Rectangle_1894" data-name="Rectangle 1894" width="8.098" height="100.295" transform="translate(-6780.679 18589.273)" fill="url(#linear-gradient-36)"></rect><path id="Path_307" data-name="Path 307" d="M360.043,237.433v-8.1H492.4l-8.1,8.1Z" transform="translate(-7083.505 18311.469)" fill="url(#linear-gradient-37)"></path><path id="Path_308" data-name="Path 308" d="M383.536,357.386l.57,3.829-.57,4.265c-31.6,0-57.216-21.7-57.216-48.465h8.1c-.081,21.777,21.49,40.313,49.118,40.37" transform="translate(-7106.998 18372.557)" fill="url(#linear-gradient-38)"></path><path id="Path_309" data-name="Path 309" d="M334.418,277.8h-8.1c0-26.768,25.616-48.469,57.216-48.469v8.1C355.908,237.49,334.337,256.028,334.418,277.8Z" transform="translate(-7106.998 18311.469)" fill="url(#linear-gradient-39)"></path><path id="Path_310" data-name="Path 310" d="M391.018,255.905V264a14.255,14.255,0,0,0-14.257,14.255l-4.272.511-3.824-.511a22.346,22.346,0,0,1,22.354-22.354" transform="translate(-7077.499 18329.98)" fill="url(#linear-gradient-40)"></path><path id="Path_311" data-name="Path 311" d="M368.664,306.327l4.337-.909,3.76.909a14.046,14.046,0,0,0,14.257,14.009l1.495,3.767-1.495,4.333a22.127,22.127,0,0,1-22.354-22.109" transform="translate(-7077.499 18364.465)" fill="url(#linear-gradient-41)"></path><path id="Path_312" data-name="Path 312" d="M368.664,297.624l8.1,8.1v6.038h-8.1Z" transform="translate(-7077.5 18359.043)" fill="url(#linear-gradient-42)"></path><path id="Path_313" data-name="Path 313" d="M778.019,250.755a13.477,13.477,0,1,1,3.955-9.568A13.011,13.011,0,0,1,778.019,250.755ZM760.273,233a11.2,11.2,0,0,0-3.383,8.207,11.367,11.367,0,0,0,3.365,8.264,11.576,11.576,0,0,0,16.424,0,11.324,11.324,0,0,0,3.375-8.264A11.574,11.574,0,0,0,760.273,233Zm7.927.743a11.378,11.378,0,0,1,4.038.533,3.679,3.679,0,0,1,2.3,3.755,3.246,3.246,0,0,1-1.447,2.927,5.656,5.656,0,0,1-2.15.707,3.6,3.6,0,0,1,2.548,1.447,4.145,4.145,0,0,1,.806,2.3V246.5c0,.339.012.709.042,1.1a2.573,2.573,0,0,0,.127.776l.1.183H772.1a1.385,1.385,0,0,0-.042-.149,1.713,1.713,0,0,0-.034-.168l-.054-.475v-1.176c0-1.7-.461-2.837-1.386-3.383a6.272,6.272,0,0,0-2.895-.475h-2.041v5.826h-2.623V233.744Zm2.811,2.336a6.78,6.78,0,0,0-3.147-.55h-2.219v5.358h2.35a7.052,7.052,0,0,0,2.475-.329,2.671,2.671,0,0,0,.541-4.479Z" transform="translate(-6808.353 18310.361)" fill="#1a1818"></path></g></svg>