<svg width="475" height="200" viewBox="0 0 475 200" fill="none" xmlns="http://www.w3.org/2000/svg">
<path d="M210.785 200L153.885 31.055H191.058L247.958 200H210.785ZM279.785 144.494L231.119 0H193.94L242.605 144.492L279.785 144.494Z" fill="#D47B22"/>
<path d="M186.281 127.26H152.912L147.094 144.496H112.97L153.878 31.0569L169.22 76.6049L160.22 103.266H178.198L186.281 127.26ZM284.092 31.06L262.331 92.6769L279.781 144.493L319.844 31.0569L284.092 31.06ZM109.294 144.496V31.0569H75.694V72.2869H33.594V31.0569H0V144.496H33.595V101.52H75.695V144.496H109.294ZM359.794 144.496V31.0569H326.194V144.496H359.794ZM435.654 65.546H470.584C470.584 37.739 447.153 28.6949 422.938 28.6949C398.38 28.6949 373.179 36.8379 373.179 62.9519C373.179 103.434 437.857 94.472 437.857 113.542C437.857 119.22 430.419 121.804 422.938 121.804C411.227 121.804 406.16 118.05 406.16 107.176H371.232C371.232 136.502 395.616 146.86 422.941 146.86C450.085 146.86 474.653 134.76 474.653 111.66C474.653 66.014 409.998 80.7959 409.998 61.0669C409.998 57.5909 413.367 52.96 422.941 52.96C427.755 52.959 435.658 54.1769 435.658 65.5449L435.654 65.546Z" fill="#003C69"/>
</svg>
