<svg width="731" height="200" viewBox="0 0 731 200" fill="none" xmlns="http://www.w3.org/2000/svg">
<g clip-path="url(#clip0_2403_9495)">
<path d="M99.973 4.02609H100.015C101.723 4.02777 103.413 4.36582 104.99 5.02092C106.567 5.67602 107.999 6.63535 109.205 7.8441L192.161 90.7891C194.605 93.2345 195.978 96.5503 195.978 100.008C195.978 103.465 194.605 106.781 192.161 109.226L109.205 192.166C106.759 194.607 103.445 195.978 99.989 195.978C96.5334 195.978 93.219 194.607 90.773 192.166L7.82302 109.226C5.38838 106.776 4.02192 103.462 4.02192 100.008C4.02192 96.5534 5.38838 93.2394 7.82302 90.7891L90.773 7.8441C91.9782 6.63149 93.4118 5.66973 94.9909 5.0144C96.57 4.35908 98.2633 4.02317 99.973 4.02609ZM100.015 0.00410461H99.994C97.7491 -0.007138 95.5244 0.429946 93.4506 1.28973C91.3768 2.14952 89.4955 3.4147 87.917 5.01109L4.98001 87.9401C1.79056 91.1446 0 95.4819 0 100.003C0 104.524 1.79056 108.862 4.98001 112.066L87.931 195.01C89.5096 196.601 91.3893 197.862 93.4604 198.719C95.5315 199.576 97.7526 200.012 99.994 200.001C104.517 199.993 108.852 198.196 112.054 195.001L195.004 112.062C198.203 108.862 200 104.523 200 99.9991C200 95.4748 198.203 91.1357 195.004 87.9361L112.049 4.99609C108.854 1.8078 104.528 0.0107509 100.014 -0.00390625L100.015 0.00410461Z" fill="#939597"/>
<path d="M119.916 41.331C119.916 41.331 118.529 27.549 107.297 13.719L106.622 13.038C104.859 11.2874 102.476 10.3049 99.9921 10.3049C97.5081 10.3049 95.1249 11.2874 93.3626 13.038L88.8336 17.563C96.3736 25.192 102.516 36.463 104.548 53.163C104.548 53.163 107.192 79.241 87.8906 105.978L137.381 156.207L150.052 143.533L109.57 102.877C109.57 102.877 125.831 79.384 119.916 41.331Z" fill="#005FC5"/>
<path d="M186.96 93.381L137.36 43.771C139.341 62.862 136.707 82.1497 129.678 100.01L162.133 131.456L186.964 106.639C188.719 104.879 189.705 102.495 189.704 100.009C189.703 97.5236 188.716 95.1398 186.96 93.381Z" fill="#005FC5"/>
<path d="M79.5614 26.844L13.0304 93.381C11.2784 95.1424 10.2949 97.5257 10.2949 100.01C10.2949 102.494 11.2784 104.878 13.0304 106.639L93.3684 186.972C95.1305 188.723 97.5138 189.705 99.9979 189.705C102.482 189.705 104.865 188.723 106.627 186.972L125.527 168.064L66.4984 109.033C93.2034 69.765 90.0724 43.531 79.5614 26.844Z" fill="#005FC5"/>
<path d="M256.942 112.696L253.87 130.125H237.488L246.301 80.137H269.901C286.559 80.137 291.245 84.654 289.536 94.37C288.519 100.134 285.092 104.995 278.983 106.583C283.915 108.527 286.893 109.783 285.114 119.852C283.965 126.377 283.362 128.599 285.314 128.599L285.04 130.126H268.449C268.229 129.016 268.372 125.818 269.156 121.374C270.311 114.856 269.577 112.697 261.941 112.697L256.942 112.696ZM258.88 101.721H265.342C270.4 101.721 273.329 100.478 273.942 97.007C274.567 93.466 272.086 91.802 268.266 91.802H260.629L258.883 101.721H258.88Z" fill="#424548"/>
<path d="M315.973 92.7061C328.809 92.7061 335.395 100.271 333.396 111.586C331.048 124.916 320.921 131.166 309.257 131.166C297.593 131.166 289.701 124.778 291.89 112.352C294.113 99.7181 303.683 92.7061 315.973 92.7061ZM306.466 111.586C305.25 118.46 307.29 121.444 310.976 121.444C314.863 121.444 317.747 118.459 318.956 111.586C319.898 106.243 318.25 102.214 314.468 102.422C309.536 102.422 307.187 107.485 306.468 111.586H306.466Z" fill="#424548"/>
<path d="M360.786 130.125L360.776 126.234C356.713 129.634 351.525 131.393 346.231 131.166C339.361 131.166 333.849 127.761 335.185 120.195C338.097 103.676 362.67 111.169 363.869 104.359C364.34 101.721 361.203 101.381 359.676 101.381C357.661 101.381 354.886 101.797 353.982 104.923H340.102C341.459 97.2151 347.743 92.7051 362.102 92.7051C379.324 92.7051 379.237 99.0931 377.709 107.763L374.704 124.777C374.337 126.862 374.228 127.903 375.831 129.43L375.711 130.124L360.786 130.125ZM362.166 114.015C357.041 116.31 350.992 115.194 350.155 119.915C349.844 121.715 351.355 122.969 354.2 122.969C359.27 122.969 361.64 119.011 362.165 114.013L362.166 114.015Z" fill="#424548"/>
<path d="M407.059 130.125L407.912 125.265C403.729 129.698 400.348 131.165 395.699 131.165C384.73 131.165 380.634 122.905 382.441 112.63C384.571 100.55 392.688 92.705 401.365 92.705C405.946 92.705 408.95 93.815 411.365 97.417L414.407 80.136H428.847L420.04 130.124L407.059 130.125ZM409.231 112.284C409.943 108.261 409.324 103.884 404.531 103.884C399.738 103.884 397.612 108.462 396.905 112.49C396.233 116.312 396.419 120.756 401.137 120.756C406.137 120.756 408.484 116.519 409.228 112.282L409.231 112.284Z" fill="#424548"/>
<path d="M461.851 112.696L458.775 130.125H442.389L451.207 80.137H474.807C491.47 80.137 496.161 84.654 494.449 94.37C493.424 100.134 490.003 104.995 483.889 106.583C488.821 108.527 491.799 109.783 490.021 119.852C488.871 126.377 488.268 128.599 490.212 128.599L489.944 130.126H473.358C473.144 129.016 473.281 125.818 474.07 121.374C475.219 114.856 474.487 112.697 466.85 112.697L461.851 112.696ZM463.785 101.721H470.243C475.312 101.721 478.243 100.478 478.843 97.007C479.468 93.466 476.989 91.802 473.168 91.802H465.532L463.78 101.721H463.785Z" fill="#424548"/>
<path d="M510.466 115.194C509.705 119.494 512.54 122.347 516.356 122.347C517.54 122.359 518.709 122.073 519.754 121.514C520.798 120.956 521.686 120.144 522.334 119.152H536.149C532.061 128.177 522.366 131.162 513.898 131.162C502.234 131.162 494.378 124.495 496.54 112.276C498.648 100.332 508.95 92.7019 520.608 92.7019C534.081 92.7019 540.561 102.002 538.021 115.19L510.466 115.194ZM524.885 107.841C525.032 107.068 525.006 106.271 524.809 105.51C524.611 104.748 524.247 104.039 523.743 103.435C523.238 102.83 522.606 102.345 521.892 102.015C521.178 101.684 520.399 101.516 519.612 101.523C515.305 101.523 512.442 103.949 511.764 107.841H524.885Z" fill="#424548"/>
<path d="M554.645 118.805C554.493 119.394 554.5 120.013 554.666 120.599C554.831 121.185 555.149 121.716 555.586 122.139C556.528 122.903 557.715 123.296 558.926 123.245C561.149 123.245 563.634 122.555 564.088 119.987C565.111 114.157 542.011 118.804 544.488 104.715C546.131 95.4041 556.257 92.7051 563.827 92.7051C571.737 92.7051 580.72 94.5111 579.855 104.156H566.737C566.799 103.676 566.747 103.188 566.588 102.731C566.428 102.274 566.164 101.861 565.817 101.523C565.047 100.881 564.06 100.559 563.059 100.623C560.559 100.623 558.823 101.384 558.51 103.19C557.61 108.26 581.194 104.854 578.792 118.462C577.455 126.028 570.306 131.168 556.978 131.168C548.646 131.168 539.937 128.6 540.901 118.807L554.645 118.805Z" fill="#424548"/>
<path d="M610.317 107.621C610.444 106.972 610.432 106.304 610.283 105.659C610.134 105.015 609.851 104.409 609.452 103.882C609.031 103.376 608.495 102.979 607.888 102.724C607.281 102.47 606.621 102.366 605.966 102.421C600.542 102.421 598.652 108.049 597.892 112.351C596.929 117.83 598.374 121.443 602.599 121.443C606.355 121.443 608.265 118.875 609.186 116.029H623.762C620.562 127.07 610.962 131.165 600.891 131.165C589.155 131.165 581.3 124.565 583.462 112.279C585.651 99.8541 595.662 92.7051 607.674 92.7051C617.396 92.7051 625.82 96.8701 624.965 107.62L610.317 107.621Z" fill="#424548"/>
<path d="M666.371 130.125H652.971L653.907 124.778C649.429 129.778 645.636 131.166 639.664 131.166C631.749 131.166 627.474 126.305 629.302 115.893L633.211 93.7461H647.651L644.191 113.392C643.305 118.392 644.761 119.992 648.235 119.992C652.401 119.992 654.268 116.866 655.259 111.245L658.346 93.7511H672.781L666.371 130.13V130.125Z" fill="#424548"/>
<path d="M688.058 115.194C687.302 119.494 690.128 122.347 693.947 122.347C695.132 122.359 696.301 122.073 697.346 121.515C698.391 120.958 699.28 120.147 699.93 119.157H713.736C709.652 128.182 699.959 131.167 691.49 131.167C679.826 131.167 671.976 124.5 674.137 112.281C676.237 100.337 686.543 92.707 698.205 92.707C711.668 92.707 718.153 102.007 715.618 115.195L688.058 115.194ZM702.476 107.841C702.625 107.068 702.601 106.272 702.404 105.51C702.208 104.748 701.845 104.039 701.341 103.434C700.837 102.83 700.205 102.344 699.49 102.014C698.776 101.683 697.997 101.516 697.21 101.523C692.896 101.523 690.038 103.949 689.351 107.841H702.476Z" fill="#424548"/>
<path d="M728.788 97.1671C727.813 98.1438 726.53 98.7525 725.157 98.8893C723.784 99.0262 722.406 98.6828 721.258 97.9176C720.11 97.1525 719.263 96.013 718.861 94.6932C718.458 93.3733 718.526 91.9549 719.053 90.6795C719.579 89.4042 720.531 88.3507 721.747 87.6987C722.963 87.0467 724.367 86.8364 725.721 87.1037C727.075 87.3711 728.294 88.0994 729.17 89.1647C730.047 90.23 730.528 91.5664 730.53 92.9461C730.542 93.7313 730.395 94.5108 730.095 95.2367C729.795 95.9626 729.35 96.6195 728.788 97.1671ZM720.933 89.3271C720.448 89.7951 720.064 90.358 719.806 90.9806C719.548 91.6032 719.421 92.2722 719.433 92.9461C719.431 94.1331 719.842 95.2838 720.594 96.202C721.346 97.1202 722.394 97.7491 723.558 97.9814C724.722 98.2137 725.93 98.0351 726.977 97.4761C728.024 96.917 728.845 96.012 729.3 94.9155C729.754 93.8189 729.814 92.5987 729.47 91.4628C729.125 90.3269 728.397 89.3457 727.41 88.6864C726.423 88.0272 725.238 87.7307 724.057 87.8475C722.875 87.9643 721.771 88.4872 720.933 89.3271ZM724.443 89.6621C725.052 89.6279 725.663 89.7097 726.243 89.9031C726.568 90.0325 726.844 90.264 727.027 90.5629C727.21 90.8618 727.292 91.212 727.26 91.5611C727.278 91.8145 727.228 92.0682 727.117 92.2964C727.005 92.5247 726.835 92.7195 726.625 92.8611C726.335 93.0265 726.015 93.1326 725.684 93.1731C725.903 93.1937 726.115 93.2616 726.306 93.372C726.497 93.4825 726.661 93.633 726.789 93.8131C727.006 94.1024 727.13 94.4514 727.144 94.8131V95.2951L727.162 95.7721L727.221 96.1111L727.259 96.1871H726.181L726.164 96.1271L726.154 96.0501L726.119 95.8501V95.3401C726.159 95.0601 726.124 94.7743 726.015 94.5131C725.906 94.252 725.728 94.0252 725.501 93.8571C725.095 93.6839 724.654 93.6106 724.215 93.6431H723.301V96.1891H722.14V89.6621H724.443ZM725.703 90.7251C725.26 90.5323 724.776 90.4496 724.295 90.4841H723.295V92.8261H724.346C724.722 92.8441 725.098 92.7943 725.457 92.6791C725.666 92.611 725.847 92.475 725.971 92.2927C726.095 92.1104 726.154 91.8921 726.141 91.6721C726.164 91.4888 726.135 91.3026 726.056 91.1352C725.978 90.9677 725.854 90.8259 725.699 90.7261L725.703 90.7251Z" fill="#424548"/>
</g>
<defs>
<clipPath id="clip0_2403_9495">
<rect width="730.532" height="200" fill="white"/>
</clipPath>
</defs>
</svg>
