<svg width="775" height="200" viewBox="0 0 775 200" fill="none" xmlns="http://www.w3.org/2000/svg">
<path d="M212.372 74.735L35.289 74.616C25.528 70.482 5.629 42.704 10.138 36.695H184.714C192.851 36.695 203.863 39.323 203.863 39.323C203.146 38.33 202.414 37.392 201.679 36.456H201.795C201.582 36.215 201.357 35.988 201.144 35.75C197.773 31.4824 193.86 27.6723 189.504 24.416C171.304 9.081 148.787 0 124.397 0C102.365 0 81.865 7.41599 64.691 20.148C59.8286 23.3537 55.3771 27.1429 51.436 31.431C46.898 31.985 22.002 31.975 19.368 31.902C9.41 31.318 4.082 29.402 0 24.302C0.751 44.952 14.642 62.591 26.278 77.237C21.773 94.504 22.524 116.281 28.906 132.423C39.419 162.835 69.079 192.87 101.742 198.128C105.742 199.257 113.755 199.878 117.642 200.002C145.798 199.257 169.321 195.502 189.22 174.475C193.601 168.845 189.471 164.086 182.839 163.961H137.039C122.771 163.587 108.129 142.692 102.496 130.673C105.877 131.173 195.23 130.548 204.616 130.548C211.501 130.548 215.004 138.434 215.004 138.434C221.386 130.674 212.876 120.034 205.366 120.415H84.848C84.848 120.415 58.317 97.76 60.565 84.374C60.565 84.374 201.604 84.249 210.365 84.249C219.126 84.249 223.384 96.384 223.384 96.384C229.016 82.872 218.248 74.613 212.37 74.735H212.372Z" fill="#D6212E"/>
<path d="M629.471 120.236C630.751 120.236 632.246 119.998 632.246 118.436C632.246 116.874 630.746 116.636 629.471 116.636H626.95V120.236H629.471ZM626.95 127.504H624.873V114.84H629.687C632.768 114.84 634.323 115.916 634.323 118.47C634.323 120.794 632.904 121.726 630.96 121.933L634.529 127.504H632.275L628.993 122.039H626.95V127.504ZM637.95 121.175C637.878 119.459 637.304 117.802 636.298 116.41C635.292 115.018 633.899 113.952 632.293 113.345C630.686 112.738 628.937 112.617 627.262 112.996C625.587 113.375 624.06 114.239 622.872 115.478C621.683 116.718 620.886 118.28 620.578 119.969C620.269 121.659 620.465 123.401 621.139 124.981C621.813 126.56 622.937 127.907 624.37 128.853C625.804 129.799 627.483 130.303 629.201 130.302C630.38 130.297 631.547 130.055 632.631 129.589C633.715 129.124 634.695 128.446 635.511 127.594C636.327 126.742 636.964 125.735 637.383 124.632C637.802 123.53 637.995 122.354 637.95 121.175ZM640.45 121.175C640.484 123.407 639.854 125.599 638.639 127.472C637.424 129.344 635.679 130.813 633.627 131.691C631.574 132.569 629.307 132.817 627.113 132.402C624.92 131.988 622.899 130.93 621.309 129.363C619.718 127.797 618.63 125.793 618.182 123.606C617.734 121.419 617.947 119.148 618.794 117.082C619.64 115.017 621.082 113.25 622.936 112.006C624.79 110.763 626.972 110.099 629.205 110.1C630.675 110.072 632.136 110.338 633.501 110.883C634.867 111.427 636.11 112.239 637.158 113.271C638.205 114.303 639.036 115.533 639.602 116.891C640.167 118.248 640.455 119.705 640.45 121.175Z" fill="#001F45"/>
<path d="M268.989 96.261L251.503 33.861C248.988 24.643 247.789 22.132 246.115 19.616H274.256C273.553 21.4916 273.188 23.4769 273.177 25.48C273.233 28.3206 273.676 31.1403 274.494 33.861L286.71 79.731H286.952L302.638 19.617H320.36L336.287 79.731H336.525L348.141 34.106C348.925 31.1285 349.408 28.0799 349.582 25.006C349.672 23.1721 349.388 21.3392 348.746 19.619H364.308C360.834 24.287 359.523 28.959 358.323 33.744L341.915 96.259H319.16L305.514 46.322H305.267L292.218 96.259L268.989 96.261Z" fill="#001F45"/>
<path d="M389.215 44.166H389.466C390.42 42.25 391.618 39.976 395.448 39.976H420.829C430.413 39.976 434.973 44.645 434.973 55.076V83.576C434.973 90.276 435.448 93.631 436.165 96.266H412.932C413.652 93.631 414.132 90.279 414.132 83.576V52.91C414.132 49.91 413.296 48.839 410.538 48.839H392.814C390.06 48.839 389.214 49.915 389.214 52.91V83.571C389.214 90.271 389.703 93.626 390.414 96.261H367.188C367.905 93.626 368.388 90.274 368.388 83.571V32.316C368.388 25.603 367.908 22.253 367.188 19.616H389.216L389.215 44.166Z" fill="#001F45"/>
<path d="M491.006 64.4129V52.9129C491.006 49.9129 490.161 48.8419 487.412 48.8419H468.97C466.216 48.8419 465.37 49.9179 465.37 52.9129V64.4129H491.006ZM465.375 73.2699V83.3309C465.375 86.3229 466.216 87.3999 468.975 87.3999H505.264C507.475 87.3603 509.677 87.1207 511.845 86.6839L510.171 96.2629H458.673C449.088 96.2629 444.539 91.5949 444.539 81.1739V55.0739C444.539 44.6469 449.087 39.9739 458.673 39.9739H497.706C507.29 39.9739 511.84 44.6429 511.84 55.0739V73.2739L465.375 73.2699Z" fill="#001F45"/>
<path d="M566.449 64.4129V52.9129C566.449 49.9129 565.611 48.8419 562.855 48.8419H544.417C541.657 48.8419 540.817 49.9179 540.817 52.9129V64.4129H566.449ZM540.818 73.2699V83.3309C540.818 86.3229 541.656 87.3999 544.418 87.3999H580.703C582.916 87.3604 585.121 87.1207 587.291 86.6839L585.617 96.2629H534.117C524.541 96.2629 519.992 91.5949 519.992 81.1739V55.0739C519.992 44.6469 524.541 39.9739 534.117 39.9739H573.156C582.747 39.9739 587.29 44.6429 587.29 55.0739V73.2739L540.818 73.2699Z" fill="#001F45"/>
<path d="M619.497 83.571C619.497 90.271 619.977 93.626 620.697 96.261H597.463C598.182 93.626 598.663 90.274 598.663 83.571V32.316C598.663 25.603 598.186 22.253 597.463 19.616H619.496L619.497 83.571Z" fill="#001F45"/>
<path d="M677.329 64.4129V52.9129C677.329 49.9129 676.494 48.8419 673.74 48.8419H655.302C652.543 48.8419 651.708 49.9179 651.708 52.9129V64.4129H677.329ZM651.708 73.2699V83.3309C651.708 86.3229 652.543 87.3999 655.302 87.3999H691.585C693.797 87.3598 696.002 87.1202 698.171 86.6839L696.499 96.2629H644.999C635.421 96.2629 630.875 91.5949 630.875 81.1739V55.0739C630.875 44.6469 635.421 39.9739 644.999 39.9739H684.038C693.621 39.9739 698.172 44.6429 698.172 55.0739V73.2739L651.708 73.2699Z" fill="#001F45"/>
<path d="M749.186 87.4019C751.949 87.4019 752.775 86.325 752.775 83.33V52.91C752.775 49.91 751.95 48.835 749.186 48.835H730.748C727.995 48.835 727.16 49.911 727.16 52.91V83.325C727.16 86.325 727.995 87.397 730.748 87.397L749.186 87.4019ZM752.775 90.996H752.536C751.701 93.996 749.66 96.262 746.552 96.262H720.452C710.871 96.262 706.324 91.597 706.324 81.176V55.076C706.324 44.649 710.87 39.976 720.452 39.976H745.594C747.274 39.976 748.586 40.218 749.54 41.176C750.63 42.011 751.34 43.448 752.296 45.723H752.774V32.316C752.774 25.603 752.296 22.251 751.584 19.616H773.616V83.561C773.616 90.27 774.093 93.623 774.816 96.254H753.976L752.775 90.996Z" fill="#001F45"/>
<path d="M278.664 185.577C268.724 185.577 263.332 180.663 263.332 170.006V124.498C263.332 113.847 268.724 108.933 278.664 108.933H323.213L325.123 120.549C321.532 118.989 316.623 118.749 313.269 118.749H290.164C286.924 118.749 285.847 119.83 285.847 123.302V171.211C285.847 174.676 286.923 175.756 290.164 175.756H313.271C316.626 175.756 321.534 175.514 325.125 173.956L323.215 185.575L278.664 185.577Z" fill="#001F45"/>
<path d="M373.744 176.712C376.501 176.712 377.337 175.633 377.337 172.641V142.219C377.337 139.227 376.501 138.15 373.744 138.15H355.303C352.551 138.15 351.717 139.227 351.717 142.219V172.636C351.717 175.628 352.551 176.707 355.303 176.707L373.744 176.712ZM345.009 185.575C335.43 185.575 330.875 180.906 330.875 170.481V144.381C330.875 133.968 335.43 129.293 345.009 129.293H384.048C393.627 129.293 398.178 133.968 398.178 144.381V170.481C398.178 180.907 393.627 185.575 384.048 185.575H345.009Z" fill="#001F45"/>
<path d="M430.747 155.396C427.988 155.396 427.147 156.469 427.147 159.464V172.641C427.147 175.633 427.985 176.712 430.747 176.712H449.192C451.94 176.712 452.781 175.633 452.781 172.641V155.396H430.747ZM473.617 172.879C473.617 179.585 474.1 182.935 474.81 185.579H455.535L454.568 179.705H454.335C452.535 184.261 450.498 185.579 446.307 185.579H420.439C410.622 185.579 406.314 181.503 406.314 166.057C406.314 150.611 410.621 146.536 420.439 146.536H449.786C451.697 146.536 452.781 145.82 452.781 143.905V140.305C452.781 138.39 451.697 137.671 449.786 137.671H418.406C415.015 137.59 411.629 137.994 408.351 138.871L409.666 129.287H459.484C469.062 129.287 473.618 133.965 473.618 144.381L473.617 172.879Z" fill="#001F45"/>
<path d="M506.189 138.15C503.433 138.15 502.595 139.227 502.595 142.219V172.636C502.595 175.628 503.433 176.711 506.189 176.711H534.332C536.546 176.671 538.751 176.429 540.921 175.986L539.244 185.571H495.891C486.31 185.571 481.754 180.899 481.754 170.471V144.371C481.754 133.958 486.31 129.283 495.891 129.283H539.244L540.921 138.864C538.751 138.426 536.545 138.186 534.332 138.145L506.189 138.15Z" fill="#001F45"/>
<path d="M570.617 133.485H570.856C571.807 131.563 573.007 129.285 576.843 129.285H602.228C611.806 129.285 616.362 133.963 616.362 144.379V172.879C616.362 179.585 616.842 182.935 617.552 185.579H594.328C595.04 182.939 595.52 179.589 595.52 172.879V142.221C595.52 139.229 594.688 138.155 591.935 138.155H574.207C571.453 138.155 570.618 139.229 570.618 142.221V172.881C570.618 179.587 571.096 182.937 571.808 185.581H548.582C549.298 182.941 549.775 179.591 549.775 172.881V121.623C549.775 114.923 549.298 111.567 548.582 108.93H570.617V133.485Z" fill="#001F45"/>
</svg>
