<svg width="40" height="40" viewBox="0 0 40 40" fill="none" xmlns="http://www.w3.org/2000/svg">
  <rect width="40" height="40" rx="8" fill="#1E1E1E"/>
  <path d="M16.5 32C18.71 32 20.5 30.21 20.5 28V24H16.5C14.29 24 12.5 25.79 12.5 28C12.5 30.21 14.29 32 16.5 32Z" fill="#0ACF83"/>
  <path d="M12.5 20C12.5 17.79 14.29 16 16.5 16H20.5V24H16.5C14.29 24 12.5 22.21 12.5 20Z" fill="#A259FF"/>
  <path d="M12.5 12C12.5 9.79 14.29 8 16.5 8H20.5V16H16.5C14.29 16 12.5 14.21 12.5 12Z" fill="#F24E1E"/>
  <path d="M20.5 8H24.5C26.71 8 28.5 9.79 28.5 12C28.5 14.21 26.71 16 24.5 16H20.5V8Z" fill="#FF7262"/>
  <path d="M28.5 20C28.5 22.21 26.71 24 24.5 24C22.29 24 20.5 22.21 20.5 20C20.5 17.79 22.29 16 24.5 16C26.71 16 28.5 17.79 28.5 20Z" fill="#1ABCFE"/>
</svg>